0
SECTION
2
HEADER
9
$INSUNITS
70
4
9
$ACADVER
1
AC1014
9
$HANDSEED
5
FFFF
0
ENDSEC
0
SECTION
2
TABLES
0
TABLE
2
VPORT
5
8
100
AcDbSymbolTable
0
ENDTAB
0
TABLE
2
LTYPE
5
5
100
AcDbSymbolTable
0
LTYPE
5
14
100
AcDbSymbolTableRecord
100
AcDbLinetypeTableRecord
2
BYBLOCK
70
0
0
LTYPE
5
15
100
AcDbSymbolTableRecord
100
AcDbLinetypeTableRecord
2
BYLAYER
70
0
0
ENDTAB
0
TABLE
2
LAYER
5
2
100
AcDbSymbolTable
70
2
0
LAYER
5
50
100
AcDbSymbolTableRecord
100
AcDbLayerTableRecord
2
0
70
0
6
CONTINUOUS
0
ENDTAB
0
TABLE
2
STYLE
5
3
100
AcDbSymbolTable
70
1
0
STYLE
5
11
100
AcDbSymbolTableRecord
100
AcDbTextStyleTableRecord
2
STANDARD
70
0
0
ENDTAB
0
TABLE
2
VIEW
5
6
100
AcDbSymbolTable
70
0
0
ENDTAB
0
TABLE
2
UCS
5
7
100
AcDbSymbolTable
70
0
0
ENDTAB
0
TABLE
2
APPID
5
9
100
AcDbSymbolTable
70
2
0
APPID
5
12
100
AcDbSymbolTableRecord
100
AcDbRegAppTableRecord
2
ACAD
70
0
0
ENDTAB
0
TABLE
2
DIMSTYLE
5
A
100
AcDbSymbolTable
70
1
0
ENDTAB
0
TABLE
2
BLOCK_RECORD
5
1
100
AcDbSymbolTable
70
1
0
BLOCK_RECORD
5
1F
100
AcDbSymbolTableRecord
100
AcDbBlockTableRecord
2
*MODEL_SPACE
0
BLOCK_RECORD
5
1B
100
AcDbSymbolTableRecord
100
AcDbBlockTableRecord
2
*PAPER_SPACE
0
ENDTAB
0
ENDSEC
0
SECTION
2
BLOCKS
0
BLOCK
5
20
100
AcDbEntity
100
AcDbBlockBegin
2
*MODEL_SPACE
0
ENDBLK
5
21
100
AcDbEntity
100
AcDbBlockEnd
0
BLOCK
5
1C
100
AcDbEntity
100
AcDbBlockBegin
2
*PAPER_SPACE
0
ENDBLK
5
1D
100
AcDbEntity
100
AcDbBlockEnd
0
ENDSEC
0
SECTION
2
ENTITIES
0
CIRCLE
5
100
100
AcDbEntity
8
0
100
AcDbCircle
10
-46.877528418774475
20
37.370160977191333
30
0
40
1.9249999999999989
210
0
220
-0
230
1
0
CIRCLE
5
101
100
AcDbEntity
8
0
100
AcDbCircle
10
5.6623715812255426
20
9.0618609771913228
30
0
40
1.925
210
0
220
-0
230
1
0
CIRCLE
5
102
100
AcDbEntity
8
0
100
AcDbCircle
10
46.988171581225529
20
35.388960977191317
30
0
40
1.9249999999999989
210
0
220
-0
230
1
0
CIRCLE
5
103
100
AcDbEntity
8
0
100
AcDbCircle
10
-34.393428418774462
20
-23.729539022808677
30
0
40
1.9249999999999989
210
0
220
-0
230
1
0
CIRCLE
5
104
100
AcDbEntity
8
0
100
AcDbCircle
10
44.651371581225533
20
-21.697539022808677
30
0
40
1.9249999999999989
210
0
220
-0
230
1
0
LWPOLYLINE
5
105
100
AcDbEntity
8
0
100
AcDbPolyline
90
40
70
1
43
0.0
10
46.61699967286998
20
-40.14900140895741
10
29.85699523874802
20
-40.154039043322499
42
0.41417049639805825
10
29.337871596126696
20
-40.673239022808701
10
29.337871596126654
20
-43.984417250164036
42
-0.4164868661560972
10
27.499885000774356
20
-45.935848238462199
10
10.196673401750944
20
-45.916444803185065
42
-0.36260315626519946
10
8.3138942528623616
20
-47.48992237107484
10
-8.4358384703972824
20
-47.499711131000922
42
-0.37588791082772471
10
-10.079402442383344
20
-46.13171112857421
42
0.34689313512547687
10
-10.584777530163677
20
-45.73351797974982
10
-27.348044111128079
20
-45.738838949916158
42
-0.37238818703005799
10
-29.235189106717662
20
-44.107890955580018
42
0.3784912179303635
10
-29.749359890854606
20
-43.682748249815226
10
-66.744141530960789
20
-43.644583069305952
42
-0.35607627158457211
10
-68.405499738080778
20
-41.852038318867073
10
-68.498888475113489
20
38.178048935022943
42
-0.13182947570601028
10
-68.391897699559635
20
38.578656049687218
10
-54.434292098218023
20
62.780260404164771
42
-0.38033066611481581
10
-51.52811749510137
20
63.592469262876705
10
-37.099561382943961
20
55.212394614558782
42
0.016375354725581936
10
-36.851497427458369
20
55.103994563681169
10
-15.744192793336044
20
49.296960992092458
10
0.64505021959158082
20
49.296960992092458
10
1.3566066494037665
20
48.814119129005633
10
18.196134477409508
20
48.795179241497479
42
0.41836995487930012
10
18.657771566324371
20
49.315201077597905
10
18.657771566324353
20
52.83726097719132
42
-0.41414891769800199
10
20.576547983518463
20
54.75646094534514
10
37.336405289466839
20
54.76149853549154
42
0.33257880661798556
10
37.829440610235316
20
55.130579151679278
42
-0.34043278756405171
10
39.394040763814438
20
56.334781704972762
10
55.829696890500401
20
56.330963885458743
42
-0.42353301057870729
10
57.863885034648433
20
54.36163886354101
10
57.871224845342091
20
38.719560395451154
42
0.41313505744063328
10
58.411266946692379
20
38.179942458628673
10
65.834229581225514
20
38.179924992092495
42
-0.4144632364902337
10
67.550228972766618
20
36.462462318152511
10
67.500647530577126
20
-36.626219986127175
42
-0.41638361360860016
10
65.663051588132205
20
-38.577375784305808
10
48.499840289373083
20
-38.575701300497641
42
-0.36259032940767039
0
ENDSEC
0
SECTION
2
OBJECTS
0
DICTIONARY
5
C
100
AcDbDictionary
3
ACAD_GROUP
350
D
3
ACAD_MLINESTYLE
350
17
0
DICTIONARY
5
D
100
AcDbDictionary
0
DICTIONARY
5
1A
330
C
100
AcDbDictionary
0
DICTIONARY
5
17
100
AcDbDictionary
0
ENDSEC
0
EOF
