%TF.GenerationSoftware,KiCad,Pcbnew,(5.99.0-9486-g75c525af4f)*%
%TF.CreationDate,2021-09-25T15:51:27+01:00*%
%TF.ProjectId,LimeKeyboard,4c696d65-4b65-4796-926f-6172642e6b69,rev?*%
%TF.SameCoordinates,Original*%
%TF.FileFunction,Copper,L2,Bot*%
%TF.FilePolarity,Positive*%
%FSLAX46Y46*%
G04 Gerber Fmt 4.6, Leading zero omitted, Abs format (unit mm)*
G04 Created by KiCad (PCBNEW (5.99.0-9486-g75c525af4f)) date 2021-09-25 15:51:27*
%MOMM*%
%LPD*%
G01*
G04 APERTURE LIST*
G04 Aperture macros list*
%AMRotRect*
0 Rectangle, with rotation*
0 The origin of the aperture is its center*
0 $1 length*
0 $2 width*
0 $3 Rotation angle, in degrees counterclockwise*
0 Add horizontal line*
21,1,$1,$2,0,0,$3*%
%AMFreePoly0*
4,1,17,2.735355,1.235355,2.750000,1.200000,2.750000,-1.200000,2.735355,-1.235355,2.700000,-1.250000,0.300000,-1.250000,0.264645,-1.235355,0.250000,-1.200000,0.250000,-0.750000,-0.350000,-0.750000,-0.350000,0.750000,0.250000,0.750000,0.250000,1.200000,0.264645,1.235355,0.300000,1.250000,2.700000,1.250000,2.735355,1.235355,2.735355,1.235355,$1*%
%AMFreePoly1*
4,1,24,-0.364645,1.235355,-0.350000,1.200000,-0.350000,0.750000,0.350000,0.750000,0.350000,-0.750000,-0.350000,-0.750000,-0.350000,-1.200000,-0.364645,-1.235355,-0.400000,-1.250000,-2.300000,-1.250000,-2.315318,-1.243655,-2.331235,-1.239043,-2.831235,-0.839043,-2.832649,-0.836476,-2.835355,-0.835355,-2.841697,-0.820044,-2.849694,-0.805522,-2.848878,-0.802708,-2.850000,-0.800000,-2.850000,1.200000,
-2.835355,1.235355,-2.800000,1.250000,-0.400000,1.250000,-0.364645,1.235355,-0.364645,1.235355,$1*%
G04 Aperture macros list end*
%TA.AperFunction,SMDPad,CuDef*%
%ADD10R,2.000000X1.000000*%
%TD*%
%TA.AperFunction,ComponentPad*%
%ADD11R,1.800000X1.500000*%
%TD*%
%TA.AperFunction,SMDPad,CuDef*%
%ADD12R,2.000000X2.000000*%
%TD*%
%TA.AperFunction,SMDPad,CuDef*%
%ADD13FreePoly0,0.000000*%
%TD*%
%TA.AperFunction,SMDPad,CuDef*%
%ADD14FreePoly1,0.000000*%
%TD*%
%TA.AperFunction,SMDPad,CuDef*%
%ADD15R,1.900000X2.000000*%
%TD*%
%TA.AperFunction,ComponentPad*%
%ADD16C,4.700000*%
%TD*%
%TA.AperFunction,ComponentPad*%
%ADD17C,2.000000*%
%TD*%
%TA.AperFunction,ComponentPad*%
%ADD18C,1.397000*%
%TD*%
%TA.AperFunction,ComponentPad*%
%ADD19C,4.000000*%
%TD*%
%TA.AperFunction,SMDPad,CuDef*%
%ADD20FreePoly0,300.000000*%
%TD*%
%TA.AperFunction,SMDPad,CuDef*%
%ADD21RotRect,2.000000X2.000000X120.000000*%
%TD*%
%TA.AperFunction,SMDPad,CuDef*%
%ADD22RotRect,1.900000X2.000000X120.000000*%
%TD*%
%TA.AperFunction,SMDPad,CuDef*%
%ADD23FreePoly1,300.000000*%
%TD*%
%TA.AperFunction,ComponentPad*%
%ADD24R,1.524000X1.524000*%
%TD*%
%TA.AperFunction,ComponentPad*%
%ADD25RotRect,1.800000X1.500000X300.000000*%
%TD*%
%TA.AperFunction,ComponentPad*%
%ADD26O,2.500000X1.700000*%
%TD*%
%TA.AperFunction,ComponentPad*%
%ADD27C,1.524000*%
%TD*%
%TA.AperFunction,ComponentPad*%
%ADD28R,3.200000X2.000000*%
%TD*%
%TA.AperFunction,SMDPad,CuDef*%
%ADD29RotRect,2.000000X2.000000X195.000000*%
%TD*%
%TA.AperFunction,SMDPad,CuDef*%
%ADD30FreePoly0,15.000000*%
%TD*%
%TA.AperFunction,SMDPad,CuDef*%
%ADD31FreePoly1,15.000000*%
%TD*%
%TA.AperFunction,SMDPad,CuDef*%
%ADD32RotRect,1.900000X2.000000X195.000000*%
%TD*%
%TA.AperFunction,SMDPad,CuDef*%
%ADD33R,1.143000X0.635000*%
%TD*%
%TA.AperFunction,SMDPad,CuDef*%
%ADD34R,0.635000X1.143000*%
%TD*%
%TA.AperFunction,ViaPad*%
%ADD35C,0.400000*%
%TD*%
%TA.AperFunction,Conductor*%
%ADD36C,0.250000*%
%TD*%
%TA.AperFunction,Conductor*%
%ADD37C,0.500000*%
%TD*%
%TA.AperFunction,Conductor*%
%ADD38C,0.200000*%
%TD*%
G04 APERTURE END LIST*
D10*
%TO.P,D35,1*%
%TO.N,N/C*%
X169281200Y-80976500D03*
%TO.P,D35,2*%
X169281200Y-82726500D03*
%TO.P,D35,3*%
X164881200Y-82726500D03*
%TO.P,D35,4*%
X164881200Y-80976500D03*
%TD*%
D11*
%TO.P,D20,1*%
%TO.N,N/C*%
X121649300Y-102235600D03*
%TO.P,D20,2*%
X125049300Y-102235600D03*
%TD*%
%TO.P,D2,1*%
%TO.N,N/C*%
X120814400Y-61503900D03*
%TO.P,D2,2*%
X124214400Y-61503900D03*
%TD*%
D12*
%TO.P,SW1,1*%
%TO.N,N/C*%
X101859000Y-60011900D03*
D13*
X101459000Y-53811900D03*
D14*
%TO.P,SW1,2*%
X117159000Y-51211900D03*
D15*
X112759000Y-62211900D03*
%TD*%
D12*
%TO.P,SW24,1*%
%TO.N,N/C*%
X197109000Y-121011900D03*
D13*
X196709000Y-114811900D03*
D14*
%TO.P,SW24,2*%
X212409000Y-112211900D03*
D15*
X208009000Y-123211900D03*
%TD*%
D11*
%TO.P,D10,1*%
%TO.N,N/C*%
X157176200Y-63360900D03*
%TO.P,D10,2*%
X160576200Y-63360900D03*
%TD*%
D16*
%TO.P,TH5,*%
%TO.N,*%
X117827100Y-103670600D03*
%TD*%
D11*
%TO.P,D26,1*%
%TO.N,N/C*%
X111990400Y-124510800D03*
%TO.P,D26,2*%
X115390400Y-124510800D03*
%TD*%
%TO.P,D14,1*%
%TO.N,N/C*%
X120649300Y-99235600D03*
%TO.P,D14,2*%
X124049300Y-99235600D03*
%TD*%
%TO.P,D4,1*%
%TO.N,N/C*%
X157176200Y-60260900D03*
%TO.P,D4,2*%
X160576200Y-60260900D03*
%TD*%
%TO.P,D13,1*%
%TO.N,N/C*%
X101473200Y-101880100D03*
%TO.P,D13,2*%
X104873200Y-101880100D03*
%TD*%
D13*
%TO.P,SW3,1*%
%TO.N,N/C*%
X139559000Y-49021900D03*
D12*
X139959000Y-55221900D03*
D14*
%TO.P,SW3,2*%
X155259000Y-46421900D03*
D15*
X150859000Y-57421900D03*
%TD*%
D11*
%TO.P,D1,1*%
%TO.N,N/C*%
X102159000Y-64311900D03*
%TO.P,D1,2*%
X105559000Y-64311900D03*
%TD*%
%TO.P,D7,1*%
%TO.N,N/C*%
X102159000Y-67411900D03*
%TO.P,D7,2*%
X105559000Y-67411900D03*
%TD*%
D17*
%TO.P,RSW1,1*%
%TO.N,N/C*%
X82461100Y-83873200D03*
%TO.P,RSW1,2*%
X82461100Y-90373200D03*
%TD*%
D18*
%TO.P,R2,1*%
%TO.N,N/C*%
X86291772Y-87510765D03*
%TO.P,R2,2*%
X91371772Y-87510765D03*
%TD*%
D11*
%TO.P,D6,1*%
%TO.N,N/C*%
X209546300Y-68162700D03*
%TO.P,D6,2*%
X212946300Y-68162700D03*
%TD*%
%TO.P,D5,1*%
%TO.N,N/C*%
X178397100Y-66699200D03*
%TO.P,D5,2*%
X181797100Y-66699200D03*
%TD*%
%TO.P,D3,1*%
%TO.N,N/C*%
X138239700Y-59318100D03*
%TO.P,D3,2*%
X141639700Y-59318100D03*
%TD*%
%TO.P,D12,1*%
%TO.N,N/C*%
X209546300Y-71262700D03*
%TO.P,D12,2*%
X212946300Y-71262700D03*
%TD*%
%TO.P,D9,1*%
%TO.N,N/C*%
X138339700Y-62518100D03*
%TO.P,D9,2*%
X141739700Y-62518100D03*
%TD*%
%TO.P,D11,1*%
%TO.N,N/C*%
X178397100Y-69599200D03*
%TO.P,D11,2*%
X181797100Y-69599200D03*
%TD*%
D19*
%TO.P,TH5,*%
%TO.N,*%
X192519300Y-67881500D03*
%TD*%
%TO.P,TH7,*%
%TO.N,*%
X153530300Y-98640900D03*
%TD*%
%TO.P,TH3,*%
%TO.N,*%
X100990400Y-126949200D03*
%TD*%
D10*
%TO.P,D36,1*%
%TO.N,N/C*%
X188445500Y-86742300D03*
%TO.P,D36,2*%
X188445500Y-88492300D03*
%TO.P,D36,3*%
X184045500Y-88492300D03*
%TO.P,D36,4*%
X184045500Y-86742300D03*
%TD*%
D19*
%TO.P,TH6,*%
%TO.N,*%
X113474500Y-65849500D03*
%TD*%
D20*
%TO.P,SW25,1*%
%TO.N,N/C*%
X94354064Y-130280684D03*
D21*
X89184706Y-133727094D03*
D22*
%TO.P,SW25,2*%
X92729450Y-144266771D03*
D23*
X104455730Y-142577283D03*
%TD*%
D19*
%TO.P,TH4,*%
%TO.N,*%
X194856100Y-124968000D03*
%TD*%
D24*
%TO.P,LED,1*%
%TO.N,N/C*%
X97548700Y-89355300D03*
%TO.P,LED,2*%
X97548700Y-86855300D03*
%TO.P,LED,3*%
X97548700Y-84255300D03*
%TD*%
%TO.P,LED,1*%
%TO.N,N/C*%
X202844400Y-88734900D03*
%TO.P,LED,2*%
X200344400Y-88734900D03*
%TO.P,LED,3*%
X197744400Y-88734900D03*
%TD*%
D19*
%TO.P,TH1,*%
%TO.N,*%
X82473800Y-102831900D03*
%TD*%
D11*
%TO.P,D27,1*%
%TO.N,N/C*%
X128715900Y-120918100D03*
%TO.P,D27,2*%
X132115900Y-120918100D03*
%TD*%
%TO.P,D15,1*%
%TO.N,N/C*%
X139484300Y-97062500D03*
%TO.P,D15,2*%
X142884300Y-97062500D03*
%TD*%
%TO.P,D31,1*%
%TO.N,N/C*%
X90750000Y-103575000D03*
%TO.P,D31,2*%
X94150000Y-103575000D03*
%TD*%
D25*
%TO.P,D25,1*%
%TO.N,N/C*%
X104190800Y-122516900D03*
%TO.P,D25,2*%
X105890800Y-125461386D03*
%TD*%
D19*
%TO.P,TH2,*%
%TO.N,*%
X96824800Y-96824800D03*
%TD*%
D11*
%TO.P,D22,1*%
%TO.N,N/C*%
X157214300Y-101410100D03*
%TO.P,D22,2*%
X160614300Y-101410100D03*
%TD*%
%TO.P,D16,1*%
%TO.N,N/C*%
X157214300Y-98210100D03*
%TO.P,D16,2*%
X160614300Y-98210100D03*
%TD*%
%TO.P,D18,1*%
%TO.N,N/C*%
X209546300Y-106262700D03*
%TO.P,D18,2*%
X212946300Y-106262700D03*
%TD*%
D13*
%TO.P,SW29,1*%
%TO.N,N/C*%
X168159000Y-132577200D03*
D12*
X168559000Y-138777200D03*
D14*
%TO.P,SW29,2*%
X183859000Y-129977200D03*
D15*
X179459000Y-140977200D03*
%TD*%
D11*
%TO.P,D28,1*%
%TO.N,N/C*%
X147739700Y-120918100D03*
%TO.P,D28,2*%
X151139700Y-120918100D03*
%TD*%
%TO.P,D24,1*%
%TO.N,N/C*%
X209646300Y-109462700D03*
%TO.P,D24,2*%
X213046300Y-109462700D03*
%TD*%
%TO.P,D17,1*%
%TO.N,N/C*%
X178397100Y-104599200D03*
%TO.P,D17,2*%
X181797100Y-104599200D03*
%TD*%
%TO.P,D23,1*%
%TO.N,N/C*%
X178397100Y-107799200D03*
%TO.P,D23,2*%
X181797100Y-107799200D03*
%TD*%
D13*
%TO.P,SW30,1*%
%TO.N,N/C*%
X187209000Y-134077200D03*
D12*
X187609000Y-140277200D03*
D14*
%TO.P,SW30,2*%
X202909000Y-131477200D03*
D15*
X198509000Y-142477200D03*
%TD*%
D11*
%TO.P,D21,1*%
%TO.N,N/C*%
X139484300Y-100162500D03*
%TO.P,D21,2*%
X142884300Y-100162500D03*
%TD*%
D18*
%TO.P,J3,1*%
%TO.N,N/C*%
X86146300Y-83985300D03*
%TO.P,J3,2*%
X88686300Y-83985300D03*
%TO.P,J3,3*%
X91226300Y-83985300D03*
%TO.P,J3,4*%
X93766300Y-83985300D03*
%TD*%
D11*
%TO.P,D19,1*%
%TO.N,N/C*%
X101473200Y-104980100D03*
%TO.P,D19,2*%
X104873200Y-104980100D03*
%TD*%
D12*
%TO.P,SW21,1*%
%TO.N,N/C*%
X139959000Y-112411900D03*
D13*
X139559000Y-106211900D03*
D14*
%TO.P,SW21,2*%
X155259000Y-103611900D03*
D15*
X150859000Y-114611900D03*
%TD*%
D12*
%TO.P,SW20,1*%
%TO.N,N/C*%
X120859000Y-114311900D03*
D13*
X120459000Y-108111900D03*
D15*
%TO.P,SW20,2*%
X131759000Y-116511900D03*
D14*
X136159000Y-105511900D03*
%TD*%
D12*
%TO.P,SW23,1*%
%TO.N,N/C*%
X178059000Y-119511900D03*
D13*
X177659000Y-113311900D03*
D15*
%TO.P,SW23,2*%
X188959000Y-121711900D03*
D14*
X193359000Y-110711900D03*
%TD*%
D13*
%TO.P,SW27,1*%
%TO.N,N/C*%
X129959000Y-127061900D03*
D12*
X130359000Y-133261900D03*
D15*
%TO.P,SW27,2*%
X141259000Y-135461900D03*
D14*
X145659000Y-124461900D03*
%TD*%
D13*
%TO.P,SW17,1*%
%TO.N,N/C*%
X177659000Y-94311900D03*
D12*
X178059000Y-100511900D03*
D15*
%TO.P,SW17,2*%
X188959000Y-102711900D03*
D14*
X193359000Y-91711900D03*
%TD*%
D12*
%TO.P,SW15,1*%
%TO.N,N/C*%
X139959000Y-93411900D03*
D13*
X139559000Y-87211900D03*
D14*
%TO.P,SW15,2*%
X155259000Y-84611900D03*
D15*
X150859000Y-95611900D03*
%TD*%
D12*
%TO.P,SW14,1*%
%TO.N,N/C*%
X120859000Y-95211900D03*
D13*
X120459000Y-89011900D03*
D15*
%TO.P,SW14,2*%
X131759000Y-97411900D03*
D14*
X136159000Y-86411900D03*
%TD*%
D26*
%TO.P,J2,1*%
%TO.N,N/C*%
X90718100Y-99152000D03*
X90718100Y-93202000D03*
%TO.P,J2,2*%
X86718100Y-93202000D03*
X86718100Y-99152000D03*
%TO.P,J2,3*%
X83718100Y-99152000D03*
X83718100Y-93202000D03*
%TO.P,J2,4*%
X92218100Y-94952000D03*
X92218100Y-97402000D03*
%TD*%
D27*
%TO.P,U1,1*%
%TO.N,N/C*%
X98165115Y-51811045D03*
X81626300Y-50615300D03*
%TO.P,U1,2*%
X98165115Y-54351045D03*
X81626300Y-53155300D03*
%TO.P,U1,3*%
X81626300Y-55695300D03*
X98165115Y-56891045D03*
%TO.P,U1,4*%
X81626300Y-58235300D03*
X98165115Y-59431045D03*
%TO.P,U1,5*%
X98165115Y-61971045D03*
X81626300Y-60775300D03*
%TO.P,U1,6*%
X98165115Y-64511045D03*
X81626300Y-63315300D03*
%TO.P,U1,7*%
X98165115Y-67051045D03*
X81626300Y-65855300D03*
%TO.P,U1,8*%
X81626300Y-68395300D03*
X98165115Y-69591045D03*
%TO.P,U1,9*%
X98165115Y-72131045D03*
X81626300Y-70935300D03*
%TO.P,U1,10*%
X98165115Y-74671045D03*
X81626300Y-73475300D03*
%TO.P,U1,11*%
X98165115Y-77211045D03*
X81626300Y-76015300D03*
%TO.P,U1,12*%
X98165115Y-79751045D03*
X81626300Y-78555300D03*
%TO.P,U1,13*%
X96866300Y-78555300D03*
X82925115Y-79751045D03*
%TO.P,U1,14*%
X82925115Y-77211045D03*
X96866300Y-76015300D03*
%TO.P,U1,15*%
X82925115Y-74671045D03*
X96866300Y-73475300D03*
%TO.P,U1,16*%
X82925115Y-72131045D03*
X96866300Y-70935300D03*
%TO.P,U1,17*%
X96866300Y-68395300D03*
X82925115Y-69591045D03*
%TO.P,U1,18*%
X82925115Y-67051045D03*
X96866300Y-65855300D03*
%TO.P,U1,19*%
X82925115Y-64511045D03*
X96866300Y-63315300D03*
%TO.P,U1,20*%
X96866300Y-60775300D03*
X82925115Y-61971045D03*
%TO.P,U1,21*%
X82925115Y-59431045D03*
X96866300Y-58235300D03*
%TO.P,U1,22*%
X96866300Y-55695300D03*
X82925115Y-56891045D03*
%TO.P,U1,23*%
X82925115Y-54351045D03*
X96866300Y-53155300D03*
%TO.P,U1,24*%
X96866300Y-50615300D03*
X82925115Y-51811045D03*
%TD*%
D12*
%TO.P,SW16,1*%
%TO.N,N/C*%
X158959000Y-94711900D03*
D13*
X158559000Y-88511900D03*
D14*
%TO.P,SW16,2*%
X174259000Y-85911900D03*
D15*
X169859000Y-96911900D03*
%TD*%
D12*
%TO.P,SW28,1*%
%TO.N,N/C*%
X149459000Y-132761900D03*
D13*
X149059000Y-126561900D03*
D15*
%TO.P,SW28,2*%
X160359000Y-134961900D03*
D14*
X164759000Y-123961900D03*
%TD*%
D12*
%TO.P,SW19,1*%
%TO.N,N/C*%
X101859000Y-117111900D03*
D13*
X101459000Y-110911900D03*
D15*
%TO.P,SW19,2*%
X112759000Y-119311900D03*
D14*
X117159000Y-108311900D03*
%TD*%
D17*
%TO.P,SW31,A*%
%TO.N,N/C*%
X82416000Y-112409600D03*
%TO.P,SW31,B*%
X82416000Y-117409600D03*
%TO.P,SW31,C*%
X82416000Y-114909600D03*
D28*
%TO.P,SW31,MP*%
X89916000Y-109309600D03*
X89916000Y-120509600D03*
D17*
%TO.P,SW31,S1*%
X96916000Y-117409600D03*
%TO.P,SW31,S2*%
X96916000Y-112409600D03*
%TD*%
D13*
%TO.P,SW22,1*%
%TO.N,N/C*%
X158559000Y-107611900D03*
D12*
X158959000Y-113811900D03*
D15*
%TO.P,SW22,2*%
X169859000Y-116011900D03*
D14*
X174259000Y-105011900D03*
%TD*%
D29*
%TO.P,SW26,1*%
%TO.N,N/C*%
X110472631Y-138902260D03*
D30*
X108481583Y-133017047D03*
D31*
%TO.P,SW26,2*%
X122973689Y-126442181D03*
D32*
X121570625Y-138206169D03*
%TD*%
D13*
%TO.P,SW18,1*%
%TO.N,N/C*%
X196659000Y-95811900D03*
D12*
X197059000Y-102011900D03*
D15*
%TO.P,SW18,2*%
X207959000Y-104211900D03*
D14*
X212359000Y-93211900D03*
%TD*%
D16*
%TO.P,TH4,*%
%TO.N,*%
X197142100Y-69329300D03*
%TD*%
%TO.P,TH7,*%
%TO.N,*%
X94800000Y-125875000D03*
%TD*%
D10*
%TO.P,D33,1*%
%TO.N,N/C*%
X131244700Y-81548000D03*
%TO.P,D33,2*%
X131244700Y-83298000D03*
%TO.P,D33,3*%
X126844700Y-83298000D03*
%TO.P,D33,4*%
X126844700Y-81548000D03*
%TD*%
D16*
%TO.P,TH3,*%
%TO.N,*%
X118055700Y-65048300D03*
%TD*%
D10*
%TO.P,D32,1*%
%TO.N,N/C*%
X112133600Y-84444100D03*
%TO.P,D32,2*%
X112133600Y-86194100D03*
%TO.P,D32,3*%
X107733600Y-86194100D03*
%TO.P,D32,4*%
X107733600Y-84444100D03*
%TD*%
D11*
%TO.P,D29,1*%
%TO.N,N/C*%
X168913600Y-123710700D03*
%TO.P,D29,2*%
X172313600Y-123710700D03*
%TD*%
%TO.P,D8,1*%
%TO.N,N/C*%
X121814400Y-64503900D03*
%TO.P,D8,2*%
X125214400Y-64503900D03*
%TD*%
%TO.P,D30,1*%
%TO.N,N/C*%
X185954800Y-126607700D03*
%TO.P,D30,2*%
X189354800Y-126607700D03*
%TD*%
D10*
%TO.P,D34,1*%
%TO.N,N/C*%
X150320100Y-79630300D03*
%TO.P,D34,2*%
X150320100Y-81380300D03*
%TO.P,D34,3*%
X145920100Y-81380300D03*
%TO.P,D34,4*%
X145920100Y-79630300D03*
%TD*%
D13*
%TO.P,SW12,1*%
%TO.N,N/C*%
X196659000Y-76611900D03*
D12*
X197059000Y-82811900D03*
D15*
%TO.P,SW12,2*%
X207959000Y-85011900D03*
D14*
X212359000Y-74011900D03*
%TD*%
D18*
%TO.P,R1,1*%
%TO.N,N/C*%
X86291772Y-89760765D03*
%TO.P,R1,2*%
X91371772Y-89760765D03*
%TD*%
D13*
%TO.P,SW8,1*%
%TO.N,N/C*%
X120459000Y-70011900D03*
D12*
X120859000Y-76211900D03*
D15*
%TO.P,SW8,2*%
X131759000Y-78411900D03*
D14*
X136159000Y-67411900D03*
%TD*%
D12*
%TO.P,SW5,1*%
%TO.N,N/C*%
X178059000Y-62411900D03*
D13*
X177659000Y-56211900D03*
D15*
%TO.P,SW5,2*%
X188959000Y-64611900D03*
D14*
X193359000Y-53611900D03*
%TD*%
D13*
%TO.P,SW10,1*%
%TO.N,N/C*%
X158559000Y-69411900D03*
D12*
X158959000Y-75611900D03*
D14*
%TO.P,SW10,2*%
X174259000Y-66811900D03*
D15*
X169859000Y-77811900D03*
%TD*%
D13*
%TO.P,SW7,1*%
%TO.N,N/C*%
X101459000Y-72911900D03*
D12*
X101859000Y-79111900D03*
D15*
%TO.P,SW7,2*%
X112759000Y-81311900D03*
D14*
X117159000Y-70311900D03*
%TD*%
D13*
%TO.P,SW9,1*%
%TO.N,N/C*%
X139559000Y-68111900D03*
D12*
X139959000Y-74311900D03*
D14*
%TO.P,SW9,2*%
X155259000Y-65511900D03*
D15*
X150859000Y-76511900D03*
%TD*%
D13*
%TO.P,SW6,1*%
%TO.N,N/C*%
X196659000Y-57711900D03*
D12*
X197059000Y-63911900D03*
D14*
%TO.P,SW6,2*%
X212359000Y-55111900D03*
D15*
X207959000Y-66111900D03*
%TD*%
D12*
%TO.P,SW4,1*%
%TO.N,N/C*%
X158959000Y-56611900D03*
D13*
X158559000Y-50411900D03*
D14*
%TO.P,SW4,2*%
X174259000Y-47811900D03*
D15*
X169859000Y-58811900D03*
%TD*%
D18*
%TO.P,P2,1*%
%TO.N,N/C*%
X93492500Y-87548800D03*
%TD*%
D16*
%TO.P,TH6,*%
%TO.N,*%
X196846500Y-107366000D03*
%TD*%
D12*
%TO.P,SW11,1*%
%TO.N,N/C*%
X178059000Y-81311900D03*
D13*
X177659000Y-75111900D03*
D15*
%TO.P,SW11,2*%
X188959000Y-83511900D03*
D14*
X193359000Y-72511900D03*
%TD*%
D13*
%TO.P,SW2,1*%
%TO.N,N/C*%
X120459000Y-50911900D03*
D12*
X120859000Y-57111900D03*
D15*
%TO.P,SW2,2*%
X131759000Y-59311900D03*
D14*
X136159000Y-48311900D03*
%TD*%
D12*
%TO.P,SW13,1*%
%TO.N,N/C*%
X101859000Y-98111900D03*
D13*
X101459000Y-91911900D03*
D15*
%TO.P,SW13,2*%
X112759000Y-100311900D03*
D14*
X117159000Y-89311900D03*
%TD*%
D18*
%TO.P,P1,1*%
%TO.N,N/C*%
X93492500Y-89748800D03*
%TD*%
D17*
%TO.P,,J1*%
%TO.N,N/C*%
X97775000Y-105175000D03*
%TD*%
D33*
%TO.P,JP7,1*%
%TO.N,N/C*%
X88646300Y-79185680D03*
%TO.P,JP7,2*%
X88646300Y-78184920D03*
%TD*%
%TO.P,JP5,1*%
%TO.N,N/C*%
X93746300Y-79185680D03*
%TO.P,JP5,2*%
X93746300Y-78184920D03*
%TD*%
%TO.P,JP6,1*%
%TO.N,N/C*%
X91146300Y-79185680D03*
%TO.P,JP6,2*%
X91146300Y-78184920D03*
%TD*%
%TO.P,JP8,1*%
%TO.N,N/C*%
X86146300Y-79185680D03*
%TO.P,JP8,2*%
X86146300Y-78184920D03*
%TD*%
D34*
%TO.P,JP6,1*%
%TO.N,N/C*%
X91750380Y-105650000D03*
%TO.P,JP6,2*%
X90749620Y-105650000D03*
%TD*%
D35*
%TO.N,*%
X124790200Y-133057900D03*
X121259600Y-136601200D03*
X94786833Y-76457469D03*
X105181400Y-143751300D03*
X118097300Y-51104800D03*
X95059000Y-74585300D03*
X112721700Y-60207494D03*
X107924600Y-130949700D03*
X165735000Y-123875800D03*
X137147300Y-86334600D03*
X194297300Y-53505100D03*
X213309200Y-55041800D03*
X156260800Y-46316900D03*
X95159000Y-71285300D03*
X146621500Y-124396500D03*
X137261600Y-48234600D03*
X95158992Y-66085300D03*
X169808200Y-75815794D03*
X86359000Y-58185300D03*
X187642500Y-131484800D03*
X112721700Y-79308294D03*
X131644700Y-76438094D03*
X137020300Y-67335400D03*
X118097300Y-89230200D03*
X175183800Y-66713100D03*
X188921700Y-62607794D03*
X207895500Y-83003994D03*
X188985200Y-100720494D03*
X95159000Y-73385300D03*
X131720900Y-114550794D03*
X131771700Y-95437294D03*
X156184600Y-103530400D03*
X188909000Y-119732394D03*
X150885200Y-55419594D03*
X150809000Y-93608494D03*
X213347300Y-112128300D03*
X207971700Y-121230994D03*
X141245900Y-133499194D03*
X175221900Y-47701200D03*
X156184600Y-84505800D03*
X194360800Y-91617800D03*
X118148100Y-108216700D03*
X169782800Y-94916594D03*
X86159000Y-77185300D03*
X86359000Y-54351045D03*
X194284600Y-110629700D03*
X95159000Y-68385300D03*
X124409200Y-126479300D03*
X188959800Y-81518094D03*
X175158400Y-104940100D03*
X131886000Y-57337294D03*
X194335400Y-72415400D03*
X207933600Y-64144494D03*
X169846300Y-56803894D03*
X169782800Y-114042794D03*
X150809000Y-112633094D03*
X175158400Y-85813900D03*
X150847100Y-74533094D03*
X118097300Y-70205600D03*
X89859008Y-78185300D03*
X89859000Y-59431045D03*
X207946300Y-102257194D03*
X203898500Y-138342800D03*
X213309200Y-119075200D03*
X213283800Y-100101400D03*
X156222700Y-65430400D03*
X213321900Y-93154500D03*
X213271100Y-73901300D03*
X112772500Y-117319394D03*
X160359400Y-132978494D03*
X137096500Y-105448100D03*
X112721700Y-98332894D03*
X175120300Y-92760800D03*
X213271100Y-61988700D03*
X175120300Y-111887000D03*
X175183800Y-54648100D03*
X93759000Y-73960300D03*
X177990500Y-110718600D03*
X146583400Y-131343400D03*
X156222700Y-53263800D03*
X92634000Y-69591045D03*
X130327400Y-124485400D03*
X156146500Y-110477300D03*
X139890500Y-103619300D03*
X168490900Y-129986200D03*
X98933000Y-146507200D03*
X94272100Y-143154400D03*
X137223500Y-55181500D03*
X178041300Y-72504300D03*
X175145700Y-73660000D03*
X120726200Y-67424300D03*
X197015100Y-55130700D03*
X156184600Y-72377300D03*
X158889700Y-66802000D03*
X85509000Y-77191147D03*
X184746900Y-136844200D03*
X139890500Y-84594700D03*
X196977000Y-73990200D03*
X194246500Y-117576600D03*
X93159000Y-72131045D03*
X137109200Y-93281500D03*
X194259200Y-60452000D03*
X156146500Y-91452700D03*
X95059000Y-60785300D03*
X92459000Y-78185300D03*
X120967500Y-48323500D03*
X95159018Y-63585300D03*
X90659000Y-63285300D03*
X178066700Y-91706700D03*
X158864300Y-105029000D03*
X92559000Y-77285300D03*
X120853200Y-86423500D03*
X120802400Y-105537000D03*
X85559000Y-60775300D03*
X179409400Y-138999994D03*
X95159000Y-53385300D03*
X158927800Y-47790100D03*
X92134000Y-67051045D03*
X194297300Y-79362300D03*
X139966700Y-46405800D03*
X197053200Y-112217200D03*
X139928600Y-65519300D03*
X178003200Y-53594000D03*
X149440900Y-123964700D03*
X96393000Y-128790700D03*
X136982200Y-74282300D03*
X194322700Y-98564700D03*
X137058400Y-112395000D03*
X95159006Y-50985300D03*
X158864300Y-85902800D03*
X184785000Y-129897300D03*
X94459000Y-75385300D03*
X84259000Y-79985300D03*
X213233000Y-80848200D03*
X197027800Y-93243400D03*
X165696900Y-130822700D03*
X166548900Y-80990606D03*
X110450800Y-86179494D03*
X91333255Y-64511045D03*
X101803200Y-51193700D03*
X118059200Y-58051700D03*
X106058800Y-86121406D03*
X182360400Y-88432806D03*
X128512400Y-81562106D03*
X118059200Y-77152500D03*
X101053900Y-82334100D03*
X118059200Y-96177100D03*
X101041200Y-88188800D03*
X84559000Y-53585300D03*
X101803200Y-89319100D03*
X147587800Y-79644406D03*
X125159600Y-83238506D03*
X198561000Y-140498594D03*
X203936600Y-131395900D03*
X101053900Y-85369400D03*
X101803200Y-70294500D03*
X144235000Y-81320806D03*
X190120100Y-86743706D03*
X151994700Y-79631706D03*
X101854000Y-108305600D03*
X87973255Y-61971045D03*
X109411600Y-84445006D03*
X99733100Y-70967600D03*
X118110000Y-115163600D03*
X113818500Y-84432306D03*
X163196100Y-82667006D03*
X170955800Y-80977906D03*
X185713200Y-86756406D03*
X132919300Y-81549406D03*
X88300000Y-107500000D03*
X88325000Y-103675000D03*
%TD*%
D36*
%TO.N,*%
X187642500Y-125615700D02*
X190017400Y-123240800D01*
X105890800Y-133538700D02*
X105890800Y-125461386D01*
X194335400Y-71272400D02*
X193395600Y-70332600D01*
X182530500Y-70332600D02*
X181797100Y-69599200D01*
X190017400Y-123228100D02*
X191325500Y-121920000D01*
X190017400Y-123240800D02*
X190017400Y-123228100D01*
X107518200Y-135166100D02*
X105890800Y-133538700D01*
X107518200Y-141414500D02*
X107518200Y-135166100D01*
D37*
X80708500Y-113766600D02*
X81851500Y-114909600D01*
D36*
X187642500Y-131484800D02*
X187642500Y-126481000D01*
X194335400Y-72415400D02*
X194335400Y-71272400D01*
X96916000Y-128267700D02*
X96393000Y-128790700D01*
X191325500Y-121920000D02*
X196200900Y-121920000D01*
X196200900Y-121920000D02*
X197109000Y-121011900D01*
X193395600Y-70332600D02*
X182530500Y-70332600D01*
X105181400Y-143751300D02*
X107518200Y-141414500D01*
X100284001Y-53917231D02*
X100284001Y-79760299D01*
X95159006Y-50985300D02*
X95984751Y-51811045D01*
X95859600Y-81864200D02*
X95859600Y-85166200D01*
X98659000Y-81385300D02*
X96338500Y-81385300D01*
D37*
X97548700Y-84255300D02*
X99132700Y-84255300D01*
D36*
X197866000Y-72212200D02*
X196977000Y-73101200D01*
X99568000Y-86855300D02*
X101053900Y-85369400D01*
X97548700Y-86855300D02*
X99568000Y-86855300D01*
X197059000Y-65029800D02*
X200317100Y-68287900D01*
X118097300Y-69507100D02*
X117068600Y-68478400D01*
X197059000Y-82811900D02*
X197059000Y-83622600D01*
X196977000Y-73101200D02*
X196977000Y-73990200D01*
X113296700Y-68199000D02*
X106346100Y-68199000D01*
D37*
X101041200Y-88188800D02*
X99874700Y-89355300D01*
D36*
X97472500Y-84179100D02*
X97548700Y-84255300D01*
D37*
X99132700Y-84255300D02*
X101053900Y-82334100D01*
D36*
X106346100Y-68199000D02*
X105559000Y-67411900D01*
X95859600Y-85166200D02*
X97548700Y-86855300D01*
X118097300Y-70205600D02*
X118097300Y-69507100D01*
D37*
X99874700Y-89355300D02*
X97548700Y-89355300D01*
D36*
X199237600Y-72212200D02*
X197866000Y-72212200D01*
X197059000Y-63911900D02*
X197059000Y-65029800D01*
X199237600Y-72212200D02*
X200317100Y-71132700D01*
X113576100Y-68478400D02*
X113296700Y-68199000D01*
X96338500Y-81385300D02*
X95859600Y-81864200D01*
X200317100Y-68287900D02*
X200317100Y-71132700D01*
X100284001Y-79760299D02*
X98659000Y-81385300D01*
X98177815Y-51811045D02*
X100284001Y-53917231D01*
X95984751Y-51811045D02*
X98177815Y-51811045D01*
X117068600Y-68478400D02*
X113576100Y-68478400D01*
X155092400Y-101638100D02*
X144359900Y-101638100D01*
X195922900Y-92138500D02*
X195922900Y-86956900D01*
X195922900Y-86956900D02*
X197059000Y-85820800D01*
X156184600Y-102730300D02*
X155092400Y-101638100D01*
X197027800Y-93243400D02*
X195922900Y-92138500D01*
X197059000Y-85820800D02*
X197059000Y-82811900D01*
D37*
X98165115Y-56891045D02*
X98165115Y-59431045D01*
D36*
X144359900Y-101638100D02*
X142884300Y-100162500D01*
D37*
X107733600Y-84444100D02*
X109408700Y-84444100D01*
D36*
X112140500Y-84431400D02*
X113815600Y-84431400D01*
X145898100Y-81341700D02*
X144223000Y-81341700D01*
X164859200Y-82687900D02*
X163184100Y-82687900D01*
X131241300Y-81548500D02*
X132916400Y-81548500D01*
X126822700Y-83259400D02*
X125147600Y-83259400D01*
D37*
X112128800Y-86180400D02*
X110453700Y-86180400D01*
X126834400Y-81561200D02*
X128509500Y-81561200D01*
D36*
X150316700Y-79630800D02*
X151991800Y-79630800D01*
X169277800Y-80977000D02*
X170952900Y-80977000D01*
D37*
X145909800Y-79643500D02*
X147584900Y-79643500D01*
X164870900Y-80989700D02*
X166546000Y-80989700D01*
X150305000Y-81379800D02*
X148629900Y-81379800D01*
X169266100Y-82726000D02*
X167591000Y-82726000D01*
D36*
X107721900Y-86142300D02*
X106046800Y-86142300D01*
D37*
X131229600Y-83297500D02*
X129554500Y-83297500D01*
D36*
X84226498Y-115599102D02*
X82416000Y-117409600D01*
X184023500Y-88453700D02*
X182348400Y-88453700D01*
X82428900Y-112396700D02*
X82416000Y-112409600D01*
X89491390Y-101237210D02*
X84226498Y-106502102D01*
X94391910Y-98544810D02*
X94391910Y-99081300D01*
D37*
X184035200Y-86755500D02*
X185710300Y-86755500D01*
D36*
X188442100Y-86742800D02*
X190117200Y-86742800D01*
X82428900Y-107436100D02*
X82428900Y-112396700D01*
X84226498Y-106502102D02*
X84226498Y-115599102D01*
X92236001Y-101237209D02*
X89491390Y-101237210D01*
X94391910Y-99081300D02*
X92236001Y-101237209D01*
D37*
X80708500Y-113258600D02*
X80708500Y-113766600D01*
X81851500Y-114909600D02*
X82416000Y-114909600D01*
X188430400Y-88491800D02*
X186755300Y-88491800D01*
D36*
X120853200Y-86423500D02*
X120853200Y-88587600D01*
X131445000Y-93268800D02*
X134803200Y-93268800D01*
X140919200Y-131330700D02*
X144277400Y-131330700D01*
X131276500Y-93437300D02*
X131445000Y-93268800D01*
X120986000Y-57137300D02*
X122682000Y-55441300D01*
X131394200Y-112382300D02*
X134752400Y-112382300D01*
X131271700Y-93437300D02*
X131276500Y-93437300D01*
X130345900Y-133299200D02*
X132041900Y-131603200D01*
X126441200Y-93141800D02*
X127596900Y-94297500D01*
X120726200Y-67424300D02*
X120726200Y-69588400D01*
X122682000Y-55441300D02*
X122682000Y-55016400D01*
X131225700Y-112550800D02*
X131394200Y-112382300D01*
X122682000Y-55016400D02*
X121881900Y-54216300D01*
X121881900Y-54216300D02*
X121881900Y-52088800D01*
X131559300Y-55168800D02*
X134917500Y-55168800D01*
X122516900Y-112255300D02*
X126390400Y-112255300D01*
X120802400Y-107701100D02*
X120459000Y-108044500D01*
X120744700Y-76238100D02*
X122440700Y-74542100D01*
X121881900Y-52088800D02*
X120624100Y-50831000D01*
X137071100Y-132359400D02*
X139885700Y-132359400D01*
X134917500Y-55168800D02*
X137223500Y-55168800D01*
X139885700Y-132359400D02*
X140745900Y-131499200D01*
X122440700Y-74142600D02*
X126314200Y-74142600D01*
X132041900Y-131603200D02*
X132041900Y-131178300D01*
X121640600Y-71189600D02*
X120382800Y-69931800D01*
X130411500Y-94297500D02*
X131271700Y-93437300D01*
X122567700Y-93141800D02*
X126441200Y-93141800D01*
X122516900Y-112654800D02*
X122516900Y-112229900D01*
X132041900Y-131178300D02*
X131241800Y-130378200D01*
X122440700Y-74542100D02*
X122440700Y-74117200D01*
X144277400Y-131330700D02*
X146583400Y-131330700D01*
X122516900Y-112229900D02*
X121716800Y-111429800D01*
X121716800Y-109302300D02*
X120459000Y-108044500D01*
X121767600Y-90188800D02*
X120509800Y-88931000D01*
X130327400Y-124485400D02*
X130327400Y-126649500D01*
X120967500Y-48323500D02*
X120967500Y-50487600D01*
X120820900Y-114350800D02*
X122516900Y-112654800D01*
X134803200Y-93268800D02*
X137109200Y-93268800D01*
X131386000Y-55337300D02*
X131390800Y-55337300D01*
X127711200Y-56197500D02*
X130525800Y-56197500D01*
X130525800Y-56197500D02*
X131386000Y-55337300D01*
X127546100Y-113411000D02*
X130360700Y-113411000D01*
X134676200Y-74269600D02*
X136982200Y-74269600D01*
X127469900Y-75298300D02*
X130284500Y-75298300D01*
X134752400Y-112382300D02*
X137058400Y-112382300D01*
X126314200Y-74142600D02*
X127469900Y-75298300D01*
X126390400Y-112255300D02*
X127546100Y-113411000D01*
X123329700Y-65786000D02*
X123329700Y-63296800D01*
X122567700Y-93541300D02*
X122567700Y-93116400D01*
X122275600Y-96628500D02*
X120859000Y-95211900D01*
X123228100Y-101193600D02*
X122275600Y-100241100D01*
X131220900Y-112550800D02*
X131225700Y-112550800D01*
X126555500Y-55041800D02*
X127711200Y-56197500D01*
X122682000Y-55041800D02*
X126555500Y-55041800D01*
X120853200Y-76217700D02*
X120859000Y-76211900D01*
X94354064Y-130280684D02*
X95844048Y-128790700D01*
X122466100Y-58719000D02*
X120859000Y-57111900D01*
X120859000Y-114311900D02*
X120859000Y-118624900D01*
X117106700Y-122377200D02*
X110477300Y-122377200D01*
X90751029Y-133727094D02*
X91376867Y-134352933D01*
X121640600Y-73317100D02*
X121640600Y-71189600D01*
X127596900Y-94297500D02*
X130411500Y-94297500D01*
X120726200Y-69588400D02*
X120382800Y-69931800D01*
X131149500Y-74438100D02*
X131318000Y-74269600D01*
X91376867Y-134352933D02*
X91376867Y-132790833D01*
X121716800Y-111429800D02*
X121716800Y-109302300D01*
X94703900Y-142735300D02*
X96098981Y-142735300D01*
X122466100Y-62433200D02*
X122466100Y-58719000D01*
X107975400Y-124879100D02*
X107975400Y-124891800D01*
X92964000Y-135940065D02*
X92964000Y-139255500D01*
X91376867Y-132790833D02*
X91948000Y-132219700D01*
X131318000Y-74269600D02*
X134676200Y-74269600D01*
X120853200Y-88587600D02*
X120509800Y-88931000D01*
X122440700Y-74117200D02*
X121640600Y-73317100D01*
X120859000Y-118624900D02*
X117106700Y-122377200D01*
X121767600Y-92316300D02*
X121767600Y-90188800D01*
X110477300Y-122377200D02*
X107975400Y-124879100D01*
X92964000Y-139255500D02*
X94742000Y-141033500D01*
X120802400Y-105537000D02*
X120802400Y-107701100D01*
X120726200Y-66306700D02*
X121246900Y-65786000D01*
X131144700Y-74438100D02*
X131149500Y-74438100D01*
X123228100Y-103174800D02*
X123228100Y-101193600D01*
X120802400Y-104279700D02*
X121488200Y-103593900D01*
X123329700Y-63296800D02*
X122466100Y-62433200D01*
X98920300Y-145556619D02*
X98920300Y-146481800D01*
X89184706Y-133727094D02*
X90751029Y-133727094D01*
X131390800Y-55337300D02*
X131559300Y-55168800D01*
X120802400Y-105537000D02*
X120802400Y-104279700D01*
X122809000Y-103593900D02*
X123228100Y-103174800D01*
X91376867Y-134352933D02*
X92964000Y-135940065D01*
X130360700Y-113411000D02*
X131220900Y-112550800D01*
X107975400Y-124891800D02*
X107911900Y-124955300D01*
X130284500Y-75298300D02*
X131144700Y-74438100D01*
X96098981Y-142735300D02*
X98920300Y-145556619D01*
X107911900Y-124955300D02*
X107911900Y-130424699D01*
X94742000Y-142735300D02*
X94703900Y-142735300D01*
X120967500Y-50487600D02*
X120624100Y-50831000D01*
X122567700Y-93116400D02*
X121767600Y-92316300D01*
X120871700Y-95237300D02*
X122567700Y-93541300D01*
X93236382Y-78184920D02*
X92395273Y-79026029D01*
X93458620Y-78184920D02*
X92559000Y-77285300D01*
X120853200Y-86423500D02*
X120853200Y-76217700D01*
X90673058Y-78184920D02*
X90202799Y-78655179D01*
X90672194Y-78185300D02*
X92176158Y-78185300D01*
X90659000Y-78184920D02*
X90659000Y-63315300D01*
X80513799Y-57739039D02*
X80513799Y-88984699D01*
X81104539Y-57148299D02*
X80513799Y-57739039D01*
X122275600Y-100241100D02*
X122275600Y-96628500D01*
X93746300Y-78184920D02*
X93236382Y-78184920D01*
X94703900Y-142735300D02*
X94037632Y-143401568D01*
X91159380Y-78185300D02*
X91159000Y-78184920D01*
X93759000Y-78184920D02*
X93458620Y-78184920D01*
X90202799Y-78655179D02*
X90202799Y-86341792D01*
X95359017Y-63785299D02*
X95159018Y-63585300D01*
X91948000Y-132219700D02*
X94030800Y-132219700D01*
X85509000Y-77191147D02*
X85509000Y-60825300D01*
X92459000Y-78185300D02*
X91159380Y-78185300D01*
X94030800Y-132219700D02*
X94030800Y-130603948D01*
X98177815Y-64511045D02*
X96084763Y-64511045D01*
X85509000Y-60825300D02*
X85559000Y-60775300D01*
X95844048Y-128790700D02*
X96266000Y-128790700D01*
X121246900Y-65786000D02*
X123329700Y-65786000D01*
X92176158Y-78185300D02*
X92459000Y-78185300D01*
X90202799Y-86341792D02*
X91371772Y-87510765D01*
X91146300Y-78184920D02*
X90673058Y-78184920D01*
X91059000Y-78084920D02*
X91159000Y-78184920D01*
X96084763Y-64511045D02*
X95359017Y-63785299D01*
X82680561Y-57148299D02*
X81104539Y-57148299D01*
X121488200Y-103593900D02*
X122809000Y-103593900D01*
X94742000Y-141033500D02*
X94742000Y-142735300D01*
X92395273Y-88737264D02*
X91371772Y-89760765D01*
X93759000Y-78184920D02*
X93285758Y-78184920D01*
X94030800Y-130603948D02*
X94354064Y-130280684D01*
X95059000Y-60785300D02*
X96244745Y-61971045D01*
X120726200Y-67424300D02*
X120726200Y-66306700D01*
X92395273Y-79026029D02*
X92395273Y-88737264D01*
X96244745Y-61971045D02*
X98177815Y-61971045D01*
X179409400Y-141500000D02*
X179409400Y-138999994D01*
X172262800Y-123736100D02*
X173875700Y-123736100D01*
X96124745Y-54351045D02*
X95358999Y-53585299D01*
X84259000Y-53885300D02*
X84259000Y-79985300D01*
X80513799Y-88984699D02*
X81838800Y-90309700D01*
X91159000Y-79185680D02*
X91159000Y-83905300D01*
X95358999Y-53585299D02*
X95159000Y-53385300D01*
X198561000Y-142998600D02*
X198561000Y-140498594D01*
X93759000Y-79185680D02*
X93759000Y-83965300D01*
X203936600Y-131395900D02*
X202771600Y-131395900D01*
X84559000Y-53585300D02*
X84259000Y-53885300D01*
X88659000Y-83945300D02*
X88699000Y-83985300D01*
X96928900Y-111520600D02*
X96926400Y-111518100D01*
X88659000Y-79185680D02*
X88659000Y-83945300D01*
X94111200Y-103613800D02*
X94150000Y-103575000D01*
X184785000Y-129897300D02*
X183620000Y-129897300D01*
X91159000Y-83905300D02*
X91239000Y-83985300D01*
X86159000Y-79185680D02*
X86159000Y-83985300D01*
X93759000Y-83965300D02*
X93779000Y-83985300D01*
X98177815Y-54351045D02*
X96124745Y-54351045D01*
X94000000Y-103575000D02*
X94150000Y-103575000D01*
X82937815Y-56891045D02*
X82680561Y-57148299D01*
X115804000Y-115150900D02*
X118110000Y-115150900D01*
X111361500Y-97193100D02*
X112221700Y-96332900D01*
X103517700Y-96037400D02*
X107391200Y-96037400D01*
X112395000Y-96164400D02*
X115753200Y-96164400D01*
X112272500Y-115319400D02*
X112277300Y-115319400D01*
X107442000Y-115023900D02*
X108597700Y-116179600D01*
X102768400Y-114198400D02*
X102768400Y-112070900D01*
X102717600Y-93084400D02*
X101459800Y-91826600D01*
X103517700Y-96012000D02*
X102717600Y-95211900D01*
X102146100Y-68707000D02*
X101803200Y-69049900D01*
X112226500Y-58207500D02*
X112395000Y-58039000D01*
X107391200Y-57912000D02*
X108546900Y-59067700D01*
X112277300Y-115319400D02*
X112445800Y-115150900D01*
X101859000Y-79111900D02*
X101859000Y-89263300D01*
X101854000Y-107175300D02*
X101854000Y-108305600D01*
X103898700Y-63093600D02*
X103898700Y-67907202D01*
X103162100Y-105867200D02*
X101854000Y-107175300D01*
X107391200Y-96037400D02*
X108546900Y-97193100D01*
X102717600Y-74059800D02*
X101459800Y-72802000D01*
X103517700Y-57912000D02*
X107391200Y-57912000D01*
X108597700Y-116179600D02*
X111412300Y-116179600D01*
X115753200Y-77139800D02*
X118059200Y-77139800D01*
X103517700Y-96436900D02*
X103517700Y-96012000D01*
X103098902Y-68707000D02*
X102146100Y-68707000D01*
X107391200Y-77012800D02*
X108546900Y-78168500D01*
X101859000Y-99446000D02*
X103162100Y-100749100D01*
X102768400Y-112070900D02*
X101510600Y-110813100D01*
X101859000Y-98111900D02*
X101859000Y-99446000D01*
X102717600Y-95211900D02*
X102717600Y-93084400D01*
X103568500Y-115423400D02*
X103568500Y-114998500D01*
X101803200Y-89319100D02*
X101803200Y-91483200D01*
X108546900Y-97193100D02*
X111361500Y-97193100D01*
X101859000Y-60011900D02*
X101859000Y-61053900D01*
X101859000Y-89263300D02*
X101803200Y-89319100D01*
X103517700Y-77412300D02*
X103517700Y-76987400D01*
X112226500Y-96332900D02*
X112395000Y-96164400D01*
X112221700Y-96332900D02*
X112226500Y-96332900D01*
X101854000Y-110469700D02*
X101510600Y-110813100D01*
X101821700Y-98132900D02*
X103517700Y-96436900D01*
X115753200Y-96164400D02*
X118059200Y-96164400D01*
X103568500Y-114998500D02*
X102768400Y-114198400D01*
X101859000Y-60011900D02*
X101859000Y-60736400D01*
X103162100Y-100749100D02*
X103162100Y-105867200D01*
X111412300Y-116179600D02*
X112272500Y-115319400D01*
X101854000Y-108305600D02*
X101854000Y-110469700D01*
X101872500Y-117119400D02*
X103568500Y-115423400D01*
X108546900Y-59067700D02*
X111361500Y-59067700D01*
X102717600Y-54959000D02*
X101459800Y-53701200D01*
X103568500Y-115023900D02*
X107442000Y-115023900D01*
X101803200Y-91483200D02*
X101459800Y-91826600D01*
X112445800Y-115150900D02*
X115804000Y-115150900D01*
X112226500Y-77308300D02*
X112395000Y-77139800D01*
X101803200Y-72458600D02*
X101459800Y-72802000D01*
X112221700Y-58207500D02*
X112226500Y-58207500D01*
X101803200Y-53357800D02*
X101459800Y-53701200D01*
X103517700Y-58311500D02*
X103517700Y-57886600D01*
X111361500Y-59067700D02*
X112221700Y-58207500D01*
X96879000Y-78555300D02*
X98989000Y-78555300D01*
X112395000Y-77139800D02*
X115753200Y-77139800D01*
X103517700Y-76987400D02*
X102717600Y-76187300D01*
X98989000Y-78555300D02*
X99759000Y-77785300D01*
X101267700Y-116520600D02*
X101859000Y-117111900D01*
X99759000Y-77785300D02*
X99759000Y-70993500D01*
X91333255Y-74285173D02*
X94818200Y-77770118D01*
X103517700Y-77012800D02*
X107391200Y-77012800D01*
X91333255Y-74285173D02*
X91333255Y-64511045D01*
X87662799Y-62564343D02*
X87973255Y-62253887D01*
X87973255Y-62253887D02*
X87973255Y-61971045D01*
X101821700Y-79108300D02*
X103517700Y-77412300D01*
X115753200Y-58039000D02*
X118059200Y-58039000D01*
X101803200Y-70294500D02*
X101803200Y-72458600D01*
X94391910Y-98544810D02*
X94391910Y-98818700D01*
X87662799Y-87815199D02*
X87662799Y-62564343D01*
X103898700Y-67907202D02*
X103098902Y-68707000D01*
X89077800Y-100787200D02*
X92049600Y-100787200D01*
X93941900Y-94094300D02*
X87662799Y-87815199D01*
X108546900Y-78168500D02*
X111361500Y-78168500D01*
X101803200Y-51193700D02*
X101803200Y-53357800D01*
X94818200Y-77770118D02*
X94818200Y-90512900D01*
X101859000Y-61053900D02*
X103898700Y-63093600D01*
X101803200Y-69049900D02*
X101803200Y-70294500D01*
X111361500Y-78168500D02*
X112221700Y-77308300D01*
X94818200Y-93675200D02*
X94391910Y-94101490D01*
X93941900Y-98894900D02*
X93941900Y-94094300D01*
X112395000Y-58039000D02*
X115753200Y-58039000D01*
X82428900Y-107436100D02*
X89077800Y-100787200D01*
X102717600Y-76187300D02*
X102717600Y-74059800D01*
X101821700Y-60007500D02*
X103517700Y-58311500D01*
X112221700Y-77308300D02*
X112226500Y-77308300D01*
X99759000Y-70993500D02*
X99733100Y-70967600D01*
X92049600Y-100787200D02*
X93941900Y-98894900D01*
X94818200Y-90512900D02*
X94818200Y-93675200D01*
X102717600Y-57086500D02*
X102717600Y-54959000D01*
X103517700Y-57886600D02*
X102717600Y-57086500D01*
X94391910Y-94101490D02*
X94391910Y-98544810D01*
X92630800Y-94952000D02*
X92230800Y-94952000D01*
X98229000Y-79755300D02*
X96229000Y-79755300D01*
X95659000Y-77329636D02*
X94986832Y-76657468D01*
X93675200Y-143764000D02*
X94183200Y-143256000D01*
X94986832Y-76657468D02*
X94786833Y-76457469D01*
X107911900Y-130505200D02*
X107911900Y-130860800D01*
X112721700Y-62707500D02*
X112721700Y-60207494D01*
X96229000Y-79755300D02*
X95659000Y-79185300D01*
X104455730Y-143038330D02*
X105206800Y-143789400D01*
X104455730Y-142577283D02*
X104455730Y-143038330D01*
X95659000Y-79185300D02*
X95659000Y-77329636D01*
X118097300Y-51104800D02*
X116932300Y-51104800D01*
X98229000Y-77215300D02*
X96346507Y-77215300D01*
X137261600Y-48234600D02*
X136096600Y-48234600D01*
X156260800Y-46316900D02*
X155095800Y-46316900D01*
X150885200Y-57919600D02*
X150885200Y-55419594D01*
X96346507Y-77215300D02*
X95659000Y-76527793D01*
X96124737Y-67051045D02*
X95358991Y-66285299D01*
X95659000Y-75185300D02*
X95258999Y-74785299D01*
X131886000Y-59837300D02*
X131886000Y-57337294D01*
X95659000Y-76527793D02*
X95659000Y-75185300D01*
X95258999Y-74785299D02*
X95059000Y-74585300D01*
X169846300Y-59303900D02*
X169846300Y-56803894D01*
X175221900Y-47701200D02*
X174056900Y-47701200D01*
X194297300Y-53505100D02*
X193132300Y-53505100D01*
X98177815Y-67051045D02*
X96124737Y-67051045D01*
X96369000Y-69595300D02*
X95358999Y-68585299D01*
X188921700Y-65107800D02*
X188921700Y-62607794D01*
X95358991Y-66285299D02*
X95158992Y-66085300D01*
X98229000Y-69595300D02*
X96369000Y-69595300D01*
X95358999Y-68585299D02*
X95159000Y-68385300D01*
X95358999Y-71485299D02*
X95159000Y-71285300D01*
X213309200Y-55041800D02*
X212144200Y-55041800D01*
X96009000Y-72135300D02*
X95358999Y-71485299D01*
X210895500Y-66111900D02*
X212946300Y-68162700D01*
X207933600Y-66644500D02*
X207933600Y-64144494D01*
X98229000Y-72135300D02*
X96009000Y-72135300D01*
X207959000Y-66111900D02*
X210895500Y-66111900D01*
X96444745Y-74671045D02*
X95358999Y-73585299D01*
X137020300Y-65963800D02*
X135560400Y-64503900D01*
X135560400Y-64503900D02*
X125214400Y-64503900D01*
X156222700Y-65430400D02*
X156222700Y-64833500D01*
X156222700Y-65430400D02*
X155057700Y-65430400D01*
X131644700Y-78938100D02*
X131644700Y-76438094D01*
X118097300Y-70205600D02*
X116932300Y-70205600D01*
X95358999Y-73585299D02*
X95159000Y-73385300D01*
X156222700Y-64833500D02*
X153907300Y-62518100D01*
X137020300Y-67335400D02*
X137020300Y-65963800D01*
X112721700Y-81808300D02*
X112721700Y-79308294D01*
X137020300Y-67335400D02*
X135855300Y-67335400D01*
X150847100Y-77033100D02*
X150847100Y-74533094D01*
X153907300Y-62518100D02*
X141739700Y-62518100D01*
X98177815Y-74671045D02*
X96444745Y-74671045D01*
X137147300Y-86334600D02*
X135982300Y-86334600D01*
X112721700Y-100832900D02*
X112721700Y-98332894D01*
X131771700Y-97937300D02*
X131771700Y-95437294D01*
X207895500Y-85504000D02*
X207895500Y-83003994D01*
X213271100Y-73901300D02*
X212106100Y-73901300D01*
X188959800Y-84018100D02*
X188959800Y-81518094D01*
X169808200Y-78315800D02*
X169808200Y-75815794D01*
X175183800Y-65366900D02*
X173177800Y-63360900D01*
X175183800Y-66713100D02*
X174018800Y-66713100D01*
X118097300Y-89230200D02*
X116932300Y-89230200D01*
X213271100Y-71587500D02*
X212946300Y-71262700D01*
X175183800Y-66713100D02*
X175183800Y-65366900D01*
X213271100Y-73901300D02*
X213271100Y-71587500D01*
X173177800Y-63360900D02*
X160576200Y-63360900D01*
X194335400Y-72415400D02*
X193170400Y-72415400D01*
X156184600Y-84505800D02*
X155019600Y-84505800D01*
X210895500Y-104211900D02*
X212946300Y-106262700D01*
X207959000Y-104211900D02*
X210895500Y-104211900D01*
X113070000Y-104980100D02*
X104873200Y-104980100D01*
X118148100Y-108216700D02*
X116983100Y-108216700D01*
X118148100Y-108216700D02*
X118148100Y-107403900D01*
X207946300Y-104757200D02*
X207946300Y-102257194D01*
X169782800Y-97416600D02*
X169782800Y-94916594D01*
X118148100Y-107403900D02*
X117221000Y-106476800D01*
X150809000Y-96108500D02*
X150809000Y-93608494D01*
X117221000Y-106476800D02*
X114566700Y-106476800D01*
X175158400Y-85813900D02*
X173993400Y-85813900D01*
X194360800Y-91617800D02*
X193195800Y-91617800D01*
X188985200Y-103220500D02*
X188985200Y-100720494D01*
X213321900Y-93154500D02*
X212156900Y-93154500D01*
X175158400Y-103022400D02*
X173546100Y-101410100D01*
X150809000Y-115133100D02*
X150809000Y-112633094D01*
X175158400Y-104940100D02*
X175158400Y-103022400D01*
X188909000Y-122232400D02*
X188909000Y-119732394D01*
X194284600Y-109499400D02*
X192584400Y-107799200D01*
X213347300Y-109763700D02*
X213046300Y-109462700D01*
X156184600Y-103530400D02*
X155019600Y-103530400D01*
X194284600Y-110629700D02*
X194284600Y-109499400D01*
X112772500Y-119819400D02*
X112772500Y-117319394D01*
X169782800Y-116542800D02*
X169782800Y-114042794D01*
X137096500Y-105448100D02*
X137096500Y-104101900D01*
X135230200Y-102235600D02*
X125049300Y-102235600D01*
X173546100Y-101410100D02*
X160614300Y-101410100D01*
X114566700Y-106476800D02*
X113070000Y-104980100D01*
X175158400Y-104940100D02*
X173993400Y-104940100D01*
X131720900Y-117050800D02*
X131720900Y-114550794D01*
X137096500Y-104101900D02*
X135230200Y-102235600D01*
X156184600Y-103530400D02*
X156184600Y-102730300D01*
X194284600Y-110629700D02*
X193119600Y-110629700D01*
X192584400Y-107799200D02*
X181797100Y-107799200D01*
X137096500Y-105448100D02*
X135931500Y-105448100D01*
X213347300Y-112128300D02*
X212182300Y-112128300D01*
X144692500Y-120918100D02*
X132115900Y-120918100D01*
X160359400Y-135478500D02*
X160359400Y-132978494D01*
X146621500Y-122847100D02*
X144692500Y-120918100D01*
D37*
X89858628Y-78184920D02*
X89859008Y-78185300D01*
D36*
X124409200Y-125133100D02*
X123672600Y-124396500D01*
X165735000Y-123875800D02*
X164570000Y-123875800D01*
X115595400Y-124396500D02*
X116954300Y-124396500D01*
X121285000Y-137869744D02*
X121285000Y-136601200D01*
X141245900Y-135999200D02*
X141245900Y-133499194D01*
X123672600Y-124396500D02*
X116865400Y-124396500D01*
X92729450Y-144266771D02*
X93210529Y-144266771D01*
X93210529Y-144266771D02*
X93738477Y-143738823D01*
X164402900Y-120918100D02*
X151139700Y-120918100D01*
X122973689Y-126442181D02*
X124370119Y-126442181D01*
D37*
X89859008Y-78185300D02*
X89859008Y-59431053D01*
D36*
X124409200Y-126479300D02*
X124409200Y-125133100D01*
X146621500Y-124396500D02*
X146621500Y-122847100D01*
X146621500Y-124396500D02*
X145456500Y-124396500D01*
X213347300Y-112128300D02*
X213347300Y-109763700D01*
X165735000Y-123875800D02*
X165735000Y-122250200D01*
X165735000Y-122250200D02*
X164402900Y-120918100D01*
D37*
X88659000Y-78184920D02*
X89858628Y-78184920D01*
D36*
X207971700Y-123731000D02*
X207971700Y-121230994D01*
D37*
X86159000Y-77185300D02*
X86359000Y-76985300D01*
X86359000Y-60937302D02*
X86359000Y-58185300D01*
X90718100Y-93202000D02*
X90518090Y-93402010D01*
X86359000Y-58185300D02*
X86359000Y-54351045D01*
X90330800Y-93202000D02*
X90730800Y-93202000D01*
X84315300Y-85727400D02*
X84315300Y-90799200D01*
X86291772Y-89760765D02*
X89733007Y-93202000D01*
X89733007Y-93202000D02*
X90718100Y-93202000D01*
X85969291Y-99152000D02*
X86730800Y-99152000D01*
X86718100Y-93202000D02*
X86718100Y-99152000D01*
X80708500Y-108331000D02*
X86718100Y-102321400D01*
X86718100Y-102321400D02*
X86718100Y-99152000D01*
X82511354Y-83822946D02*
X82461100Y-83873200D01*
X86359000Y-76985300D02*
X86359000Y-60937302D01*
X84959000Y-80445800D02*
X84441754Y-80963046D01*
X86146300Y-78184920D02*
X85212490Y-78184920D01*
X84959000Y-78438410D02*
X84959000Y-80445800D01*
D36*
X188556900Y-135250100D02*
X187299100Y-133992300D01*
D37*
X84315300Y-90799200D02*
X86718100Y-93202000D01*
X90518090Y-98951990D02*
X90718100Y-99152000D01*
D36*
X187642500Y-133648900D02*
X187299100Y-133992300D01*
D37*
X90530790Y-98951990D02*
X90730800Y-99152000D01*
X90518090Y-93402010D02*
X90518090Y-98951990D01*
D36*
X189357000Y-138177700D02*
X188556900Y-137377600D01*
X187642500Y-131484800D02*
X187642500Y-133648900D01*
X189357000Y-138203100D02*
X193230500Y-138203100D01*
X189357000Y-138602600D02*
X189357000Y-138177700D01*
D37*
X86159000Y-78184920D02*
X86159000Y-77185300D01*
D36*
X187661000Y-140298600D02*
X189357000Y-138602600D01*
D37*
X89859008Y-59431053D02*
X89859000Y-59431045D01*
X80708500Y-113258600D02*
X80708500Y-108331000D01*
D36*
X201592500Y-138330100D02*
X203898500Y-138330100D01*
D37*
X82511354Y-80963046D02*
X82511354Y-83822946D01*
X84441754Y-80963046D02*
X82511354Y-80963046D01*
X86291772Y-87510765D02*
X86291772Y-89760765D01*
X85212490Y-78184920D02*
X84959000Y-78438410D01*
X82461100Y-83873200D02*
X84315300Y-85727400D01*
D36*
X202615800Y-99961700D02*
X203771500Y-101117400D01*
X207619600Y-100088700D02*
X210977800Y-100088700D01*
X198767700Y-118910100D02*
X197967600Y-118110000D01*
X206535300Y-81864200D02*
X207395500Y-81004000D01*
X197071700Y-121031000D02*
X198767700Y-119335000D01*
X197967600Y-115982500D02*
X196709800Y-114724700D01*
X198061000Y-138498600D02*
X198065800Y-138498600D01*
X188556900Y-137377600D02*
X188556900Y-135250100D01*
X197053200Y-114381300D02*
X196709800Y-114724700D01*
X210977800Y-100088700D02*
X213283800Y-100088700D01*
X198742300Y-99936300D02*
X197942200Y-99136200D01*
X198767700Y-119335000D02*
X198767700Y-118910100D01*
X198234300Y-138330100D02*
X201592500Y-138330100D01*
X196977000Y-73990200D02*
X196977000Y-76154300D01*
X198742300Y-99961700D02*
X202615800Y-99961700D01*
X197200800Y-139358800D02*
X198061000Y-138498600D01*
X207471700Y-119231000D02*
X207476500Y-119231000D01*
X197027800Y-95407500D02*
X196684400Y-95750900D01*
X197053200Y-112217200D02*
X197053200Y-114381300D01*
X202641200Y-118935500D02*
X203796900Y-120091200D01*
X198742300Y-100361200D02*
X198742300Y-99936300D01*
X207645000Y-119062500D02*
X211003200Y-119062500D01*
X207451100Y-100257200D02*
X207619600Y-100088700D01*
X198691500Y-81108000D02*
X198691500Y-80683100D01*
X207568800Y-80835500D02*
X210927000Y-80835500D01*
X207446300Y-100257200D02*
X207451100Y-100257200D01*
X211003200Y-119062500D02*
X213309200Y-119062500D01*
X197942200Y-99136200D02*
X197942200Y-97008700D01*
X203720700Y-81864200D02*
X206535300Y-81864200D01*
X197891400Y-79883000D02*
X197891400Y-77755500D01*
X198065800Y-138498600D02*
X198234300Y-138330100D01*
X207476500Y-119231000D02*
X207645000Y-119062500D01*
X203796900Y-120091200D02*
X206611500Y-120091200D01*
X197967600Y-118110000D02*
X197967600Y-115982500D01*
X197046300Y-102057200D02*
X198742300Y-100361200D01*
X197891400Y-77755500D02*
X196633600Y-76497700D01*
X198691500Y-80683100D02*
X197891400Y-79883000D01*
X210927000Y-80835500D02*
X213233000Y-80835500D01*
X206611500Y-120091200D02*
X207471700Y-119231000D01*
X193230500Y-138203100D02*
X194386200Y-139358800D01*
X203771500Y-101117400D02*
X206586100Y-101117400D01*
X198767700Y-118935500D02*
X202641200Y-118935500D01*
X197027800Y-93243400D02*
X197027800Y-95407500D01*
X206586100Y-101117400D02*
X207446300Y-100257200D01*
X196995500Y-82804000D02*
X198691500Y-81108000D01*
X207395500Y-81004000D02*
X207400300Y-81004000D01*
X196977000Y-76154300D02*
X196633600Y-76497700D01*
X197942200Y-97008700D02*
X196684400Y-95750900D01*
X207400300Y-81004000D02*
X207568800Y-80835500D01*
X194386200Y-139358800D02*
X197200800Y-139358800D01*
X197033600Y-63944500D02*
X198729600Y-62248500D01*
X180191199Y-51806899D02*
X194553999Y-51806899D01*
X203758800Y-63004700D02*
X206573400Y-63004700D01*
X198729600Y-62248500D02*
X198729600Y-61823600D01*
X200164700Y-106311700D02*
X200164700Y-109143800D01*
X176225200Y-119570500D02*
X178003200Y-119570500D01*
X171259500Y-119570500D02*
X171792900Y-119570500D01*
X182440900Y-136831500D02*
X184746900Y-136831500D01*
X175234600Y-137860200D02*
X178049200Y-137860200D01*
X207438400Y-62144500D02*
X207606900Y-61976000D01*
X194553999Y-51806899D02*
X196659000Y-53911900D01*
X206573400Y-63004700D02*
X207433600Y-62144500D01*
X196659000Y-53911900D02*
X196659900Y-53911900D01*
X140114598Y-43435682D02*
X138590598Y-44959680D01*
X198691500Y-80708500D02*
X202565000Y-80708500D01*
X198729600Y-61823600D02*
X197929500Y-61023500D01*
X197122500Y-102151600D02*
X197122500Y-103269500D01*
X210965100Y-61976000D02*
X213271100Y-61976000D01*
X197059000Y-102774200D02*
X197059000Y-102011900D01*
X197802500Y-110324900D02*
X197053200Y-111074200D01*
X197015100Y-54267100D02*
X197015100Y-55130700D01*
X197027800Y-82843100D02*
X197059000Y-82811900D01*
X198983600Y-110324900D02*
X197802500Y-110324900D01*
X197122500Y-103269500D02*
X200164700Y-106311700D01*
X197015100Y-55130700D02*
X197015100Y-57294800D01*
X200164700Y-109143800D02*
X198983600Y-110324900D01*
X165303200Y-44723890D02*
X157780700Y-44723890D01*
X196659900Y-53911900D02*
X197015100Y-54267100D01*
X197053200Y-111074200D02*
X197053200Y-112217200D01*
X202603100Y-61849000D02*
X203758800Y-63004700D01*
X170205400Y-136679100D02*
X169405300Y-135879000D01*
X170205400Y-136704500D02*
X174078900Y-136704500D01*
X169405300Y-135879000D02*
X169405300Y-133751500D01*
X178914200Y-137000000D02*
X179082700Y-136831500D01*
X168490900Y-129986200D02*
X168490900Y-132150300D01*
X198729600Y-61849000D02*
X202603100Y-61849000D01*
X197015100Y-57294800D02*
X196671700Y-57638200D01*
X202565000Y-80708500D02*
X203720700Y-81864200D01*
X197929500Y-58896000D02*
X196671700Y-57638200D01*
X197929500Y-61023500D02*
X197929500Y-58896000D01*
X207433600Y-62144500D02*
X207438400Y-62144500D01*
X180053999Y-51806899D02*
X180191199Y-51806899D01*
X157780700Y-44723890D02*
X156492490Y-43435682D01*
X156492490Y-43435682D02*
X140114598Y-43435682D01*
X92134000Y-50373890D02*
X92134000Y-67051045D01*
X207606900Y-61976000D02*
X210965100Y-61976000D01*
X178085200Y-100520500D02*
X179781200Y-98824500D01*
X183654700Y-98425000D02*
X184810400Y-99580700D01*
X179705000Y-117436900D02*
X183578500Y-117436900D01*
X178066700Y-93870800D02*
X177723300Y-94214200D01*
X183591200Y-60312300D02*
X184746900Y-61468000D01*
X168509400Y-138800000D02*
X170205400Y-137104000D01*
X178981100Y-97599500D02*
X178981100Y-95472000D01*
X192016700Y-98552000D02*
X194322700Y-98552000D01*
X191991300Y-79349600D02*
X194297300Y-79349600D01*
X178066700Y-91706700D02*
X178066700Y-93870800D01*
X170205400Y-137104000D02*
X170205400Y-136679100D01*
X179705000Y-117411500D02*
X178904900Y-116611400D01*
X177990500Y-110718600D02*
X177990500Y-112882700D01*
X174078900Y-136704500D02*
X175234600Y-137860200D01*
X179705000Y-117836400D02*
X179705000Y-117411500D01*
X179781200Y-98824500D02*
X179781200Y-98399600D01*
X188413800Y-117732400D02*
X188582300Y-117563900D01*
X179717700Y-60711800D02*
X179717700Y-60286900D01*
X184810400Y-99580700D02*
X187625000Y-99580700D01*
X188464600Y-79518100D02*
X188633100Y-79349600D01*
X179781200Y-98425000D02*
X183654700Y-98425000D01*
X178909400Y-137000000D02*
X178914200Y-137000000D01*
X178059000Y-62411900D02*
X177172099Y-63298801D01*
X176657000Y-71120000D02*
X178041300Y-72504300D01*
X171767500Y-119570500D02*
X176314100Y-119570500D01*
X184734200Y-118592600D02*
X187548800Y-118592600D01*
X178009000Y-119532400D02*
X179705000Y-117836400D01*
X178904900Y-116611400D02*
X178904900Y-114483900D01*
X191940500Y-117563900D02*
X194246500Y-117563900D01*
X188490000Y-98720500D02*
X188658500Y-98552000D01*
X188582300Y-117563900D02*
X191940500Y-117563900D01*
X187625000Y-99580700D02*
X188485200Y-98720500D01*
X178904900Y-114483900D02*
X177647100Y-113226100D01*
X188658500Y-98552000D02*
X192016700Y-98552000D01*
X179781200Y-98399600D02*
X178981100Y-97599500D01*
X178981100Y-95472000D02*
X177723300Y-94214200D01*
X178049200Y-137860200D02*
X178909400Y-137000000D01*
X183578500Y-117436900D02*
X184734200Y-118592600D01*
X179082700Y-136831500D02*
X182440900Y-136831500D01*
X188409000Y-117732400D02*
X188413800Y-117732400D01*
X177990500Y-112882700D02*
X177647100Y-113226100D01*
X188485200Y-98720500D02*
X188490000Y-98720500D01*
X187548800Y-118592600D02*
X188409000Y-117732400D01*
X177162999Y-63298801D02*
X176657000Y-63804800D01*
X178003200Y-55758100D02*
X177659800Y-56101500D01*
X179755800Y-79197200D02*
X178955700Y-78397100D01*
X179755800Y-79622100D02*
X179755800Y-79197200D01*
X177990500Y-110718600D02*
X176593500Y-109321600D01*
X183629300Y-79222600D02*
X184785000Y-80378300D01*
X178955700Y-78397100D02*
X178955700Y-76269600D01*
X176593500Y-101977400D02*
X178059000Y-100511900D01*
X159842200Y-53682900D02*
X159842200Y-51555400D01*
X160604200Y-73494900D02*
X159804100Y-72694800D01*
X176593500Y-109321600D02*
X176593500Y-101977400D01*
X169287600Y-92916600D02*
X169456100Y-92748100D01*
X169519600Y-54635400D02*
X172877800Y-54635400D01*
X158927800Y-47790100D02*
X158927800Y-49954200D01*
X178917600Y-57359300D02*
X177659800Y-56101500D01*
X188459800Y-79518100D02*
X188464600Y-79518100D01*
X191953200Y-60439300D02*
X194259200Y-60439300D01*
X178917600Y-59486800D02*
X178917600Y-57359300D01*
X176657000Y-63804800D02*
X176657000Y-71120000D01*
X164452300Y-92621100D02*
X165608000Y-93776800D01*
X168448000Y-74676000D02*
X169308200Y-73815800D01*
X178021700Y-62407800D02*
X179717700Y-60711800D01*
X184746900Y-61468000D02*
X187561500Y-61468000D01*
X188421700Y-60607800D02*
X188426500Y-60607800D01*
X178059800Y-81318100D02*
X179755800Y-79622100D01*
X188426500Y-60607800D02*
X188595000Y-60439300D01*
X179717700Y-60286900D02*
X178917600Y-59486800D01*
X188633100Y-79349600D02*
X191991300Y-79349600D01*
X179717700Y-60312300D02*
X183591200Y-60312300D01*
X178955700Y-76269600D02*
X177697900Y-75011800D01*
X178003200Y-53594000D02*
X178003200Y-55758100D01*
X187599600Y-80378300D02*
X188459800Y-79518100D01*
X188595000Y-60439300D02*
X191953200Y-60439300D01*
X158889700Y-66802000D02*
X158889700Y-68966100D01*
X178041300Y-74668400D02*
X177697900Y-75011800D01*
X179755800Y-79222600D02*
X183629300Y-79222600D01*
X178066700Y-91706700D02*
X178066700Y-81319600D01*
X178041300Y-72504300D02*
X178041300Y-74668400D01*
X158407100Y-46736000D02*
X158927800Y-47256700D01*
X177172099Y-63298801D02*
X177162999Y-63298801D01*
X187561500Y-61468000D02*
X188421700Y-60607800D01*
X184785000Y-80378300D02*
X187599600Y-80378300D01*
X178066700Y-81319600D02*
X178059000Y-81311900D01*
X165608000Y-93776800D02*
X168422600Y-93776800D01*
X93161973Y-72128072D02*
X93159000Y-72131045D01*
X93161973Y-50682327D02*
X93161973Y-72128072D01*
X158889700Y-56681200D02*
X158959000Y-56611900D01*
X158369000Y-46736000D02*
X158407100Y-46736000D01*
X158889700Y-66802000D02*
X158889700Y-56681200D01*
X155968700Y-44335700D02*
X158369000Y-46736000D01*
X160578800Y-92621100D02*
X164452300Y-92621100D01*
X158927800Y-47256700D02*
X158927800Y-47790100D01*
X149459400Y-132778500D02*
X151155400Y-131082500D01*
X165633400Y-74676000D02*
X168448000Y-74676000D01*
X150355300Y-127730000D02*
X149097500Y-126472200D01*
X158864300Y-94806600D02*
X158959000Y-94711900D01*
X158864300Y-105029000D02*
X158864300Y-94806600D01*
X164515800Y-54508400D02*
X165671500Y-55664100D01*
X140487400Y-44335700D02*
X138963400Y-45859700D01*
X160642300Y-54907900D02*
X160642300Y-54483000D01*
X163390900Y-130810000D02*
X165696900Y-130810000D01*
X172877800Y-54635400D02*
X175183800Y-54635400D01*
X151155400Y-131082500D02*
X151155400Y-130657600D01*
X150355300Y-129857500D02*
X150355300Y-127730000D01*
X160642300Y-54483000D02*
X159842200Y-53682900D01*
X160604200Y-73919800D02*
X160604200Y-73494900D01*
X164477700Y-73520300D02*
X165633400Y-74676000D01*
X159864200Y-130978500D02*
X160032700Y-130810000D01*
X159842200Y-51555400D02*
X158584400Y-50297600D01*
X160032700Y-130810000D02*
X163390900Y-130810000D01*
X169313000Y-73815800D02*
X169481500Y-73647300D01*
X158927800Y-49954200D02*
X158584400Y-50297600D01*
X172839700Y-73647300D02*
X175145700Y-73647300D01*
X155968700Y-44335700D02*
X140487400Y-44335700D01*
X169351100Y-54803900D02*
X169519600Y-54635400D01*
X165671500Y-55664100D02*
X168486100Y-55664100D01*
X159804100Y-70567300D02*
X158546300Y-69309500D01*
X160642300Y-54508400D02*
X164515800Y-54508400D01*
X158999200Y-131838700D02*
X159859400Y-130978500D01*
X159859400Y-130978500D02*
X159864200Y-130978500D01*
X158946300Y-56603900D02*
X160642300Y-54907900D01*
X169481500Y-73647300D02*
X172839700Y-73647300D01*
X158889700Y-68966100D02*
X158546300Y-69309500D01*
X158851600Y-114109500D02*
X158851600Y-115531900D01*
X149440900Y-123964700D02*
X149440900Y-126128800D01*
X158864300Y-75706600D02*
X158959000Y-75611900D01*
X156184600Y-131838700D02*
X158999200Y-131838700D01*
X149440900Y-126128800D02*
X149097500Y-126472200D01*
X158864300Y-85902800D02*
X158864300Y-75706600D01*
X169308200Y-73815800D02*
X169313000Y-73815800D01*
X158908200Y-75615800D02*
X160604200Y-73919800D01*
X159804100Y-72694800D02*
X159804100Y-70567300D01*
X169346300Y-54803900D02*
X169351100Y-54803900D01*
X160604200Y-73520300D02*
X164477700Y-73520300D01*
X168486100Y-55664100D02*
X169346300Y-54803900D01*
X158864300Y-107193100D02*
X158520900Y-107536500D01*
X158864300Y-85902800D02*
X158864300Y-88066900D01*
X169282800Y-112042800D02*
X169287600Y-112042800D01*
X160578800Y-111747300D02*
X164452300Y-111747300D01*
X141605000Y-91712500D02*
X141605000Y-91287600D01*
X141643100Y-72637100D02*
X141643100Y-72212200D01*
X151155400Y-130683000D02*
X155028900Y-130683000D01*
X139909000Y-112433100D02*
X141605000Y-110737100D01*
X153878600Y-72364600D02*
X156184600Y-72364600D01*
X172814300Y-111874300D02*
X175120300Y-111874300D01*
X146672300Y-73393300D02*
X149486900Y-73393300D01*
X139890500Y-103619300D02*
X139890500Y-105783400D01*
X140804900Y-109512100D02*
X140804900Y-107384600D01*
X152463500Y-116078000D02*
X158305500Y-116078000D01*
X160578800Y-112146800D02*
X160578800Y-111721900D01*
X169282800Y-92916600D02*
X169287600Y-92916600D01*
X158305500Y-116078000D02*
X158838900Y-115544600D01*
X160578800Y-111721900D02*
X159778700Y-110921800D01*
X169456100Y-92748100D02*
X172814300Y-92748100D01*
X159778700Y-110921800D02*
X159778700Y-108794300D01*
X159778700Y-91795600D02*
X159778700Y-89668100D01*
X158864300Y-105029000D02*
X158864300Y-107193100D01*
X160578800Y-92595700D02*
X159778700Y-91795600D01*
X150347100Y-72533100D02*
X150351900Y-72533100D01*
X159778700Y-89668100D02*
X158520900Y-88410300D01*
X158864300Y-88066900D02*
X158520900Y-88410300D01*
X150482300Y-110464600D02*
X153840500Y-110464600D01*
X149440900Y-119100600D02*
X152463500Y-116078000D01*
X151155400Y-130657600D02*
X150355300Y-129857500D01*
X139890500Y-105783400D02*
X139547100Y-106126800D01*
X149448800Y-111493300D02*
X150309000Y-110633100D01*
X149440900Y-123964700D02*
X149440900Y-119100600D01*
X165608000Y-112903000D02*
X168422600Y-112903000D01*
X168422600Y-112903000D02*
X169282800Y-112042800D01*
X150520400Y-72364600D02*
X153878600Y-72364600D01*
X149486900Y-73393300D02*
X150347100Y-72533100D01*
X168422600Y-93776800D02*
X169282800Y-92916600D01*
X169287600Y-112042800D02*
X169456100Y-111874300D01*
X160578800Y-93020600D02*
X160578800Y-92595700D01*
X159778700Y-108794300D02*
X158520900Y-107536500D01*
X139909000Y-93408500D02*
X141605000Y-91712500D01*
X141605000Y-110737100D02*
X141605000Y-110312200D01*
X169456100Y-111874300D02*
X172814300Y-111874300D01*
X139890500Y-86758800D02*
X139547100Y-87102200D01*
X141605000Y-91287600D02*
X140804900Y-90487500D01*
X146634200Y-92468700D02*
X149448800Y-92468700D01*
X164452300Y-111747300D02*
X165608000Y-112903000D01*
X155028900Y-130683000D02*
X156184600Y-131838700D01*
X158882800Y-94716600D02*
X160578800Y-93020600D01*
X158882800Y-113842800D02*
X160578800Y-112146800D01*
X172814300Y-92748100D02*
X175120300Y-92748100D01*
X108481583Y-133017047D02*
X108481583Y-131570183D01*
X141643100Y-72212200D02*
X140843000Y-71412100D01*
X141605000Y-110337600D02*
X145478500Y-110337600D01*
X124701300Y-133134458D02*
X124701300Y-133134100D01*
X139985200Y-55219600D02*
X141681200Y-53523600D01*
X141681200Y-53523600D02*
X141681200Y-53098700D01*
X140804900Y-88360000D02*
X139547100Y-87102200D01*
X139890500Y-102539800D02*
X141198600Y-101231700D01*
X139890500Y-74380400D02*
X139959000Y-74311900D01*
X108481583Y-131570183D02*
X107886500Y-130975100D01*
X145516600Y-72237600D02*
X146672300Y-73393300D01*
X145478500Y-91313000D02*
X146634200Y-92468700D01*
X139890500Y-84594700D02*
X139890500Y-86758800D01*
X140843000Y-69284600D02*
X139585200Y-68026800D01*
X150558500Y-53251100D02*
X153916700Y-53251100D01*
X149448800Y-92468700D02*
X150309000Y-91608500D01*
X149525000Y-54279800D02*
X150385200Y-53419600D01*
X119780288Y-136156700D02*
X122250259Y-133686729D01*
X150385200Y-53419600D02*
X150390000Y-53419600D01*
X139966700Y-48569900D02*
X139623300Y-48913300D01*
X150309000Y-110633100D02*
X150313800Y-110633100D01*
X141605000Y-110312200D02*
X140804900Y-109512100D01*
X141605000Y-91313000D02*
X145478500Y-91313000D01*
X139928600Y-65519300D02*
X139928600Y-67683400D01*
X153840500Y-91440000D02*
X156146500Y-91440000D01*
X139890500Y-103619300D02*
X139890500Y-102539800D01*
X140804900Y-107384600D02*
X139547100Y-106126800D01*
X139966700Y-46405800D02*
X139966700Y-48569900D01*
X141643100Y-72237600D02*
X145516600Y-72237600D01*
X110045500Y-135775700D02*
X110426500Y-136156700D01*
X153840500Y-110464600D02*
X156146500Y-110464600D01*
X139928600Y-67683400D02*
X139585200Y-68026800D01*
X139947100Y-74333100D02*
X141643100Y-72637100D01*
X150390000Y-53419600D02*
X150558500Y-53251100D01*
X141681200Y-53098700D02*
X140881100Y-52298600D01*
X110426500Y-136156700D02*
X112182915Y-136156700D01*
X150313800Y-110633100D02*
X150482300Y-110464600D01*
X150482300Y-91440000D02*
X153840500Y-91440000D01*
X140843000Y-71412100D02*
X140843000Y-69284600D01*
X139928600Y-55252300D02*
X139959000Y-55221900D01*
X150309000Y-91608500D02*
X150313800Y-91608500D01*
X139928600Y-65519300D02*
X139928600Y-55252300D01*
X140804900Y-90487500D02*
X140804900Y-88360000D01*
X139890500Y-84594700D02*
X139890500Y-74380400D01*
X150351900Y-72533100D02*
X150520400Y-72364600D01*
X150313800Y-91608500D02*
X150482300Y-91440000D01*
X146634200Y-111493300D02*
X149448800Y-111493300D01*
X153916700Y-53251100D02*
X156222700Y-53251100D01*
X145554700Y-53124100D02*
X146710400Y-54279800D01*
X145478500Y-110337600D02*
X146634200Y-111493300D01*
X124149029Y-133686729D02*
X124701300Y-133134458D01*
X124701300Y-133134100D02*
X124790200Y-133045200D01*
X131775200Y-118262400D02*
X136944100Y-118262400D01*
X139890500Y-46329600D02*
X139966700Y-46405800D01*
X140881100Y-52298600D02*
X140881100Y-50171100D01*
X112182915Y-136156700D02*
X119780288Y-136156700D01*
X109166447Y-133017047D02*
X110045500Y-133896100D01*
X139877800Y-113220500D02*
X139877800Y-115316000D01*
X140745900Y-131499200D02*
X140750700Y-131499200D01*
X135915400Y-131203700D02*
X137071100Y-132359400D01*
X110472631Y-137866984D02*
X110472631Y-138902260D01*
X132041900Y-131203700D02*
X135915400Y-131203700D01*
X121274526Y-136590726D02*
X120307100Y-135623300D01*
X131241800Y-130378200D02*
X131241800Y-128250700D01*
X110045500Y-133896100D02*
X110045500Y-135775700D01*
X141198600Y-101231700D02*
X141198600Y-94651500D01*
X108481583Y-133017047D02*
X109166447Y-133017047D01*
X130327400Y-126649500D02*
X129984000Y-126992900D01*
X93759000Y-73960300D02*
X93759000Y-50723888D01*
X110472631Y-137866984D02*
X112182915Y-136156700D01*
X131241800Y-128250700D02*
X129984000Y-126992900D01*
X140750700Y-131499200D02*
X140919200Y-131330700D01*
X136944100Y-118262400D02*
X139865100Y-115341400D01*
X146710400Y-54279800D02*
X149525000Y-54279800D01*
X141198600Y-94651500D02*
X139959000Y-93411900D01*
X130327400Y-119710200D02*
X131775200Y-118262400D01*
X141681200Y-53124100D02*
X145554700Y-53124100D01*
X140881100Y-50171100D02*
X139623300Y-48913300D01*
X122250259Y-133686729D02*
X124149029Y-133686729D01*
X130327400Y-124485400D02*
X130327400Y-119710200D01*
X94459000Y-75385300D02*
X94459000Y-50710302D01*
X175684001Y-46740901D02*
X175684001Y-50309601D01*
X165070990Y-44723890D02*
X174303401Y-44723891D01*
X120048949Y-49242051D02*
X120967500Y-48323500D01*
D38*
X96916000Y-112409600D02*
X96916000Y-110766000D01*
D36*
X140300999Y-43885691D02*
X156306091Y-43885691D01*
X178197299Y-51806899D02*
X180191199Y-51806899D01*
X168490900Y-127241300D02*
X168490900Y-129986200D01*
X119169855Y-47454145D02*
X121664320Y-44959680D01*
X180492400Y-123736100D02*
X173812200Y-123736100D01*
X122174000Y-46329600D02*
X139890500Y-46329600D01*
X184785000Y-128028700D02*
X180492400Y-123736100D01*
X176123600Y-50139600D02*
X177790899Y-51806899D01*
X95302145Y-47905745D02*
X119327855Y-47905745D01*
D38*
X91750380Y-106874620D02*
X91125000Y-107500000D01*
D36*
X202806300Y-129249600D02*
X191996700Y-129249600D01*
X187642500Y-125615700D02*
X187642500Y-126615700D01*
X99525000Y-122625000D02*
X99525000Y-124550000D01*
X119466850Y-48376350D02*
X121983500Y-45859700D01*
D38*
X91125000Y-107500000D02*
X88300000Y-107500000D01*
D36*
X178059000Y-52684600D02*
X178059000Y-53538200D01*
D37*
X88325000Y-103675000D02*
X88325000Y-104875000D01*
D36*
X95053745Y-47454145D02*
X92134000Y-50373890D01*
X203936600Y-130379900D02*
X202806300Y-129249600D01*
X157594300Y-45173900D02*
X174117000Y-45173900D01*
X138590598Y-44959680D02*
X121664320Y-44959680D01*
X119327855Y-47905745D02*
X121823909Y-45409691D01*
X175684001Y-50309601D02*
X178059000Y-52684600D01*
X176123600Y-49754022D02*
X176123600Y-50139600D01*
X99525000Y-124550000D02*
X98250000Y-125825000D01*
D37*
X89100000Y-105650000D02*
X90749620Y-105650000D01*
D36*
X191996700Y-129249600D02*
X191131400Y-128384300D01*
X174117000Y-45173900D02*
X175684001Y-46740901D01*
X176134011Y-49743611D02*
X176123600Y-49754022D01*
X95927251Y-49242051D02*
X120048949Y-49242051D01*
X191037950Y-128290850D02*
X191037950Y-128299950D01*
X191996700Y-129249600D02*
X191037950Y-128290850D01*
D38*
X91750380Y-105650000D02*
X91750380Y-106874620D01*
D36*
X177790899Y-51806899D02*
X178197299Y-51806899D01*
X156306091Y-43885691D02*
X157594300Y-45173900D01*
X176134011Y-46554501D02*
X176134011Y-49743611D01*
X120048949Y-49242051D02*
X120510300Y-48780700D01*
X178197299Y-51806899D02*
X179568899Y-51806899D01*
X99525000Y-120018600D02*
X99525000Y-122625000D01*
X119706356Y-48797244D02*
X122174000Y-46329600D01*
X94459000Y-50710302D02*
X95927251Y-49242051D01*
X171221400Y-119570500D02*
X171317490Y-119570500D01*
X178059000Y-53538200D02*
X178003200Y-53594000D01*
X98250000Y-126933700D02*
X96916000Y-128267700D01*
X184785000Y-128894000D02*
X184785000Y-128028700D01*
X95467950Y-48376350D02*
X93161973Y-50682327D01*
X98250000Y-125825000D02*
X98250000Y-126933700D01*
X101859000Y-120291000D02*
X99525000Y-122625000D01*
X95685644Y-48797244D02*
X119706356Y-48797244D01*
X101859000Y-117111900D02*
X101859000Y-120291000D01*
X92659000Y-69566045D02*
X92659000Y-50548890D01*
X203936600Y-131395900D02*
X203936600Y-130379900D01*
X95467950Y-48376350D02*
X119466850Y-48376350D01*
X92634000Y-69591045D02*
X92659000Y-69566045D01*
X121823909Y-45409691D02*
X138777000Y-45409690D01*
X170522900Y-120269000D02*
X171221400Y-119570500D01*
X93759000Y-50723888D02*
X95685644Y-48797244D01*
X191037950Y-128290850D02*
X189354800Y-126607700D01*
X168490900Y-127241300D02*
X170522900Y-125209300D01*
D38*
X96916000Y-110766000D02*
X94150000Y-108000000D01*
D37*
X88325000Y-104875000D02*
X89100000Y-105650000D01*
D36*
X138777000Y-45409690D02*
X140300999Y-43885691D01*
D38*
X94150000Y-108000000D02*
X94150000Y-103575000D01*
D36*
X138963400Y-45859700D02*
X121983500Y-45859700D01*
X170522900Y-125209300D02*
X170522900Y-120269000D01*
X95053745Y-47454145D02*
X119169855Y-47454145D01*
X92659000Y-50548890D02*
X95302145Y-47905745D01*
X96916000Y-117409600D02*
X99525000Y-120018600D01*
X184785000Y-129897300D02*
X184785000Y-128028700D01*
X174303401Y-44723891D02*
X176134011Y-46554501D01*
%TD*%
M02*
