M48
; DRILL file {KiCad (5.99.0-9486-g75c525af4f)} date 07/25/21 02:59:55
; FORMAT={-:-/ absolute / metric / decimal}
; #@! TF.CreationDate,2021-07-25T02:59:55+01:00
; #@! TF.GenerationSoftware,Kicad,Pcbnew,(5.99.0-9486-g75c525af4f)
; #@! TF.FileFunction,Plated,1,2,PTH
FMAT,2
METRIC
T1C0.300
T2C0.400
T3C0.813
T4C1.000
T5C1.300
T6C1.500
T7C2.200
T8C4.100
%
G90
G05
T1
X84.259Y-79.985
X84.559Y-53.585
X85.509Y-77.191
X85.559Y-60.775
X86.159Y-77.185
X86.359Y-54.351
X86.359Y-58.185
X87.973Y-61.971
X88.3Y-107.5
X88.325Y-103.675
X89.859Y-59.431
X89.859Y-78.185
X90.659Y-63.285
X91.333Y-64.511
X92.134Y-67.051
X92.459Y-78.185
X92.559Y-77.285
X92.634Y-69.591
X93.159Y-72.131
X93.759Y-73.96
X94.272Y-143.154
X94.459Y-75.385
X94.787Y-76.457
X95.059Y-60.785
X95.059Y-74.585
X95.159Y-66.085
X95.159Y-53.385
X95.159Y-68.385
X95.159Y-71.285
X95.159Y-73.385
X95.159Y-50.985
X95.159Y-63.585
X96.393Y-128.791
X98.933Y-146.507
X99.733Y-70.968
X101.041Y-88.189
X101.054Y-82.334
X101.054Y-85.369
X101.803Y-51.194
X101.803Y-70.294
X101.803Y-89.319
X101.854Y-108.306
X105.181Y-143.751
X106.059Y-86.121
X107.925Y-130.95
X109.412Y-84.445
X110.451Y-86.179
X112.722Y-60.207
X112.722Y-79.308
X112.722Y-98.333
X112.772Y-117.319
X113.819Y-84.432
X118.059Y-58.052
X118.059Y-77.153
X118.059Y-96.177
X118.097Y-51.105
X118.097Y-70.206
X118.097Y-89.23
X118.11Y-115.164
X118.148Y-108.217
X120.726Y-67.424
X120.802Y-105.537
X120.853Y-86.423
X120.968Y-48.323
X121.26Y-136.601
X124.409Y-126.479
X124.79Y-133.058
X125.16Y-83.239
X128.512Y-81.562
X130.327Y-124.485
X131.645Y-76.438
X131.721Y-114.551
X131.772Y-95.437
X131.886Y-57.337
X132.919Y-81.549
X136.982Y-74.282
X137.02Y-67.335
X137.058Y-112.395
X137.096Y-105.448
X137.109Y-93.281
X137.147Y-86.335
X137.224Y-55.181
X137.262Y-48.235
X139.891Y-84.595
X139.891Y-103.619
X139.929Y-65.519
X139.967Y-46.406
X141.246Y-133.499
X144.235Y-81.321
X146.583Y-131.343
X146.621Y-124.396
X147.588Y-79.644
X149.441Y-123.965
X150.809Y-93.608
X150.809Y-112.633
X150.847Y-74.533
X150.885Y-55.42
X151.995Y-79.632
X156.147Y-91.453
X156.147Y-110.477
X156.185Y-72.377
X156.185Y-84.506
X156.185Y-103.53
X156.223Y-53.264
X156.223Y-65.43
X156.261Y-46.317
X158.864Y-85.903
X158.864Y-105.029
X158.89Y-66.802
X158.928Y-47.79
X160.359Y-132.978
X163.196Y-82.667
X165.697Y-130.823
X165.735Y-123.876
X166.549Y-80.991
X168.491Y-129.986
X169.783Y-94.917
X169.783Y-114.043
X169.808Y-75.816
X169.846Y-56.804
X170.956Y-80.978
X175.12Y-92.761
X175.12Y-111.887
X175.146Y-73.66
X175.158Y-85.814
X175.158Y-104.94
X175.184Y-54.648
X175.184Y-66.713
X175.222Y-47.701
X177.99Y-110.719
X178.003Y-53.594
X178.041Y-72.504
X178.067Y-91.707
X179.409Y-139.0
X182.36Y-88.433
X184.747Y-136.844
X184.785Y-129.897
X185.713Y-86.756
X187.642Y-131.485
X188.909Y-119.732
X188.922Y-62.608
X188.96Y-81.518
X188.985Y-100.72
X190.12Y-86.744
X194.246Y-117.577
X194.259Y-60.452
X194.285Y-110.63
X194.297Y-53.505
X194.297Y-79.362
X194.323Y-98.565
X194.335Y-72.415
X194.361Y-91.618
X196.977Y-73.99
X197.015Y-55.131
X197.028Y-93.243
X197.053Y-112.217
X198.561Y-140.499
X203.898Y-138.343
X203.937Y-131.396
X207.895Y-83.004
X207.934Y-64.144
X207.946Y-102.257
X207.972Y-121.231
X213.233Y-80.848
X213.271Y-61.989
X213.271Y-73.901
X213.284Y-100.101
X213.309Y-55.042
X213.309Y-119.075
X213.322Y-93.154
X213.347Y-112.128
T2
X90.75Y-103.575
X94.15Y-103.575
X101.473Y-101.88
X101.473Y-104.98
X102.159Y-64.312
X102.159Y-67.412
X104.191Y-122.517
X104.873Y-101.88
X104.873Y-104.98
X105.559Y-64.312
X105.559Y-67.412
X105.891Y-125.461
X111.99Y-124.511
X115.39Y-124.511
X120.649Y-99.236
X120.814Y-61.504
X121.649Y-102.236
X121.814Y-64.504
X124.049Y-99.236
X124.214Y-61.504
X125.049Y-102.236
X125.214Y-64.504
X128.716Y-120.918
X132.116Y-120.918
X138.24Y-59.318
X138.34Y-62.518
X139.484Y-97.062
X139.484Y-100.162
X141.64Y-59.318
X141.74Y-62.518
X142.884Y-97.062
X142.884Y-100.162
X147.74Y-120.918
X151.14Y-120.918
X157.176Y-60.261
X157.176Y-63.361
X157.214Y-98.21
X157.214Y-101.41
X160.576Y-60.261
X160.576Y-63.361
X160.614Y-98.21
X160.614Y-101.41
X168.914Y-123.711
X172.314Y-123.711
X178.397Y-66.699
X178.397Y-69.599
X178.397Y-104.599
X178.397Y-107.799
X181.797Y-66.699
X181.797Y-69.599
X181.797Y-104.599
X181.797Y-107.799
X185.955Y-126.608
X189.355Y-126.608
X209.546Y-68.163
X209.546Y-71.263
X209.546Y-106.263
X209.646Y-109.463
X212.946Y-68.163
X212.946Y-71.263
X212.946Y-106.263
X213.046Y-109.463
T3
X81.626Y-50.615
X81.626Y-53.155
X81.626Y-55.695
X81.626Y-58.235
X81.626Y-60.775
X81.626Y-63.315
X81.626Y-65.855
X81.626Y-68.395
X81.626Y-70.935
X81.626Y-73.475
X81.626Y-76.015
X81.626Y-78.555
X82.925Y-51.811
X82.925Y-54.351
X82.925Y-56.891
X82.925Y-59.431
X82.925Y-61.971
X82.925Y-64.511
X82.925Y-67.051
X82.925Y-69.591
X82.925Y-72.131
X82.925Y-74.671
X82.925Y-77.211
X82.925Y-79.751
X86.146Y-83.985
X86.292Y-87.511
X86.292Y-89.761
X88.686Y-83.985
X91.226Y-83.985
X91.372Y-87.511
X91.372Y-89.761
X93.492Y-87.549
X93.492Y-89.749
X93.766Y-83.985
X96.866Y-50.615
X96.866Y-53.155
X96.866Y-55.695
X96.866Y-58.235
X96.866Y-60.775
X96.866Y-63.315
X96.866Y-65.855
X96.866Y-68.395
X96.866Y-70.935
X96.866Y-73.475
X96.866Y-76.015
X96.866Y-78.555
X98.165Y-51.811
X98.165Y-54.351
X98.165Y-56.891
X98.165Y-59.431
X98.165Y-61.971
X98.165Y-64.511
X98.165Y-67.051
X98.165Y-69.591
X98.165Y-72.131
X98.165Y-74.671
X98.165Y-77.211
X98.165Y-79.751
T4
X82.416Y-112.41
X82.416Y-114.91
X82.416Y-117.41
X96.916Y-112.41
X96.916Y-117.41
X97.549Y-84.255
X97.549Y-86.855
X97.549Y-89.355
X97.775Y-105.175
X197.744Y-88.735
X200.344Y-88.735
X202.844Y-88.735
T5
X82.461Y-83.873
X82.461Y-90.373
T7
X82.474Y-102.832
X96.825Y-96.825
X100.99Y-126.949
X113.474Y-65.849
X153.53Y-98.641
X192.519Y-67.882
X194.856Y-124.968
T8
X94.8Y-125.875
X117.827Y-103.671
X118.056Y-65.048
X196.846Y-107.366
X197.142Y-69.329
T4
G00X83.468Y-93.202
M15
G01X83.968Y-93.202
M16
G05
G00X83.468Y-99.152
M15
G01X83.968Y-99.152
M16
G05
G00X86.468Y-93.202
M15
G01X86.968Y-93.202
M16
G05
G00X86.468Y-99.152
M15
G01X86.968Y-99.152
M16
G05
G00X90.468Y-93.202
M15
G01X90.968Y-93.202
M16
G05
G00X90.468Y-99.152
M15
G01X90.968Y-99.152
M16
G05
G00X91.968Y-94.952
M15
G01X92.468Y-94.952
M16
G05
G00X91.968Y-97.402
M15
G01X92.468Y-97.402
M16
G05
T6
G00X89.266Y-109.31
M15
G01X90.566Y-109.31
M16
G05
G00X89.266Y-120.51
M15
G01X90.566Y-120.51
M16
G05
T0
M30
