%TF.GenerationSoftware,KiCad,Pcbnew,(5.99.0-9486-g75c525af4f)*%
%TF.CreationDate,2021-09-25T15:51:28+01:00*%
%TF.ProjectId,LimeKeyboard,4c696d65-4b65-4796-926f-6172642e6b69,rev?*%
%TF.SameCoordinates,Original*%
%TF.FileFunction,Paste,Bot*%
%TF.FilePolarity,Positive*%
%FSLAX46Y46*%
G04 Gerber Fmt 4.6, Leading zero omitted, Abs format (unit mm)*
G04 Created by KiCad (PCBNEW (5.99.0-9486-g75c525af4f)) date 2021-09-25 15:51:28*
%MOMM*%
%LPD*%
G01*
G04 APERTURE LIST*
G04 Aperture macros list*
%AMRotRect*
0 Rectangle, with rotation*
0 The origin of the aperture is its center*
0 $1 length*
0 $2 width*
0 $3 Rotation angle, in degrees counterclockwise*
0 Add horizontal line*
21,1,$1,$2,0,0,$3*%
%AMFreePoly0*
4,1,17,2.735355,1.235355,2.750000,1.200000,2.750000,-1.200000,2.735355,-1.235355,2.700000,-1.250000,0.300000,-1.250000,0.264645,-1.235355,0.250000,-1.200000,0.250000,-0.750000,-0.350000,-0.750000,-0.350000,0.750000,0.250000,0.750000,0.250000,1.200000,0.264645,1.235355,0.300000,1.250000,2.700000,1.250000,2.735355,1.235355,2.735355,1.235355,$1*%
%AMFreePoly1*
4,1,24,-0.364645,1.235355,-0.350000,1.200000,-0.350000,0.750000,0.350000,0.750000,0.350000,-0.750000,-0.350000,-0.750000,-0.350000,-1.200000,-0.364645,-1.235355,-0.400000,-1.250000,-2.300000,-1.250000,-2.315318,-1.243655,-2.331235,-1.239043,-2.831235,-0.839043,-2.832649,-0.836476,-2.835355,-0.835355,-2.841697,-0.820044,-2.849694,-0.805522,-2.848878,-0.802708,-2.850000,-0.800000,-2.850000,1.200000,
-2.835355,1.235355,-2.800000,1.250000,-0.400000,1.250000,-0.364645,1.235355,-0.364645,1.235355,$1*%
G04 Aperture macros list end*
%ADD10R,2.000000X1.000000*%
%ADD11R,2.000000X2.000000*%
%ADD12FreePoly0,0.000000*%
%ADD13FreePoly1,0.000000*%
%ADD14R,1.900000X2.000000*%
%ADD15FreePoly0,300.000000*%
%ADD16RotRect,2.000000X2.000000X120.000000*%
%ADD17RotRect,1.900000X2.000000X120.000000*%
%ADD18FreePoly1,300.000000*%
%ADD19RotRect,2.000000X2.000000X195.000000*%
%ADD20FreePoly0,15.000000*%
%ADD21FreePoly1,15.000000*%
%ADD22RotRect,1.900000X2.000000X195.000000*%
%ADD23R,1.143000X0.635000*%
%ADD24R,0.635000X1.143000*%
G04 APERTURE END LIST*
D10*
%TO.C,D35*%
X169281200Y-80976500D03*
X169281200Y-82726500D03*
X164881200Y-82726500D03*
X164881200Y-80976500D03*
%TD*%
D11*
%TO.C,SW1*%
X101859000Y-60011900D03*
D12*
X101459000Y-53811900D03*
D13*
X117159000Y-51211900D03*
D14*
X112759000Y-62211900D03*
%TD*%
D11*
%TO.C,SW24*%
X197109000Y-121011900D03*
D12*
X196709000Y-114811900D03*
D13*
X212409000Y-112211900D03*
D14*
X208009000Y-123211900D03*
%TD*%
D12*
%TO.C,SW3*%
X139559000Y-49021900D03*
D11*
X139959000Y-55221900D03*
D13*
X155259000Y-46421900D03*
D14*
X150859000Y-57421900D03*
%TD*%
D10*
%TO.C,D36*%
X188445500Y-86742300D03*
X188445500Y-88492300D03*
X184045500Y-88492300D03*
X184045500Y-86742300D03*
%TD*%
D15*
%TO.C,SW25*%
X94354064Y-130280684D03*
D16*
X89184706Y-133727094D03*
D17*
X92729450Y-144266771D03*
D18*
X104455730Y-142577283D03*
%TD*%
D12*
%TO.C,SW29*%
X168159000Y-132577200D03*
D11*
X168559000Y-138777200D03*
D13*
X183859000Y-129977200D03*
D14*
X179459000Y-140977200D03*
%TD*%
D12*
%TO.C,SW30*%
X187209000Y-134077200D03*
D11*
X187609000Y-140277200D03*
D13*
X202909000Y-131477200D03*
D14*
X198509000Y-142477200D03*
%TD*%
D11*
%TO.C,SW21*%
X139959000Y-112411900D03*
D12*
X139559000Y-106211900D03*
D13*
X155259000Y-103611900D03*
D14*
X150859000Y-114611900D03*
%TD*%
D11*
%TO.C,SW20*%
X120859000Y-114311900D03*
D12*
X120459000Y-108111900D03*
D14*
X131759000Y-116511900D03*
D13*
X136159000Y-105511900D03*
%TD*%
D11*
%TO.C,SW23*%
X178059000Y-119511900D03*
D12*
X177659000Y-113311900D03*
D14*
X188959000Y-121711900D03*
D13*
X193359000Y-110711900D03*
%TD*%
D12*
%TO.C,SW27*%
X129959000Y-127061900D03*
D11*
X130359000Y-133261900D03*
D14*
X141259000Y-135461900D03*
D13*
X145659000Y-124461900D03*
%TD*%
D12*
%TO.C,SW17*%
X177659000Y-94311900D03*
D11*
X178059000Y-100511900D03*
D14*
X188959000Y-102711900D03*
D13*
X193359000Y-91711900D03*
%TD*%
D11*
%TO.C,SW15*%
X139959000Y-93411900D03*
D12*
X139559000Y-87211900D03*
D13*
X155259000Y-84611900D03*
D14*
X150859000Y-95611900D03*
%TD*%
D11*
%TO.C,SW14*%
X120859000Y-95211900D03*
D12*
X120459000Y-89011900D03*
D14*
X131759000Y-97411900D03*
D13*
X136159000Y-86411900D03*
%TD*%
D11*
%TO.C,SW16*%
X158959000Y-94711900D03*
D12*
X158559000Y-88511900D03*
D13*
X174259000Y-85911900D03*
D14*
X169859000Y-96911900D03*
%TD*%
D11*
%TO.C,SW28*%
X149459000Y-132761900D03*
D12*
X149059000Y-126561900D03*
D14*
X160359000Y-134961900D03*
D13*
X164759000Y-123961900D03*
%TD*%
D11*
%TO.C,SW19*%
X101859000Y-117111900D03*
D12*
X101459000Y-110911900D03*
D14*
X112759000Y-119311900D03*
D13*
X117159000Y-108311900D03*
%TD*%
D12*
%TO.C,SW22*%
X158559000Y-107611900D03*
D11*
X158959000Y-113811900D03*
D14*
X169859000Y-116011900D03*
D13*
X174259000Y-105011900D03*
%TD*%
D19*
%TO.C,SW26*%
X110472631Y-138902260D03*
D20*
X108481583Y-133017047D03*
D21*
X122973689Y-126442181D03*
D22*
X121570625Y-138206169D03*
%TD*%
D12*
%TO.C,SW18*%
X196659000Y-95811900D03*
D11*
X197059000Y-102011900D03*
D14*
X207959000Y-104211900D03*
D13*
X212359000Y-93211900D03*
%TD*%
D10*
%TO.C,D33*%
X131244700Y-81548000D03*
X131244700Y-83298000D03*
X126844700Y-83298000D03*
X126844700Y-81548000D03*
%TD*%
%TO.C,D32*%
X112133600Y-84444100D03*
X112133600Y-86194100D03*
X107733600Y-86194100D03*
X107733600Y-84444100D03*
%TD*%
%TO.C,D34*%
X150320100Y-79630300D03*
X150320100Y-81380300D03*
X145920100Y-81380300D03*
X145920100Y-79630300D03*
%TD*%
D12*
%TO.C,SW12*%
X196659000Y-76611900D03*
D11*
X197059000Y-82811900D03*
D14*
X207959000Y-85011900D03*
D13*
X212359000Y-74011900D03*
%TD*%
D12*
%TO.C,SW8*%
X120459000Y-70011900D03*
D11*
X120859000Y-76211900D03*
D14*
X131759000Y-78411900D03*
D13*
X136159000Y-67411900D03*
%TD*%
D11*
%TO.C,SW5*%
X178059000Y-62411900D03*
D12*
X177659000Y-56211900D03*
D14*
X188959000Y-64611900D03*
D13*
X193359000Y-53611900D03*
%TD*%
D12*
%TO.C,SW10*%
X158559000Y-69411900D03*
D11*
X158959000Y-75611900D03*
D13*
X174259000Y-66811900D03*
D14*
X169859000Y-77811900D03*
%TD*%
D12*
%TO.C,SW7*%
X101459000Y-72911900D03*
D11*
X101859000Y-79111900D03*
D14*
X112759000Y-81311900D03*
D13*
X117159000Y-70311900D03*
%TD*%
D12*
%TO.C,SW9*%
X139559000Y-68111900D03*
D11*
X139959000Y-74311900D03*
D13*
X155259000Y-65511900D03*
D14*
X150859000Y-76511900D03*
%TD*%
D12*
%TO.C,SW6*%
X196659000Y-57711900D03*
D11*
X197059000Y-63911900D03*
D13*
X212359000Y-55111900D03*
D14*
X207959000Y-66111900D03*
%TD*%
D11*
%TO.C,SW4*%
X158959000Y-56611900D03*
D12*
X158559000Y-50411900D03*
D13*
X174259000Y-47811900D03*
D14*
X169859000Y-58811900D03*
%TD*%
D11*
%TO.C,SW11*%
X178059000Y-81311900D03*
D12*
X177659000Y-75111900D03*
D14*
X188959000Y-83511900D03*
D13*
X193359000Y-72511900D03*
%TD*%
D12*
%TO.C,SW2*%
X120459000Y-50911900D03*
D11*
X120859000Y-57111900D03*
D14*
X131759000Y-59311900D03*
D13*
X136159000Y-48311900D03*
%TD*%
D11*
%TO.C,SW13*%
X101859000Y-98111900D03*
D12*
X101459000Y-91911900D03*
D14*
X112759000Y-100311900D03*
D13*
X117159000Y-89311900D03*
%TD*%
D23*
%TO.C,JP7*%
X88646300Y-79185680D03*
X88646300Y-78184920D03*
%TD*%
%TO.C,JP5*%
X93746300Y-79185680D03*
X93746300Y-78184920D03*
%TD*%
%TO.C,JP6*%
X91146300Y-79185680D03*
X91146300Y-78184920D03*
%TD*%
%TO.C,JP8*%
X86146300Y-79185680D03*
X86146300Y-78184920D03*
%TD*%
D24*
%TO.C,JP6*%
X91750380Y-105650000D03*
X90749620Y-105650000D03*
%TD*%
M02*
