%TF.GenerationSoftware,KiCad,Pcbnew,(5.99.0-9486-g75c525af4f)*%
%TF.CreationDate,2021-09-25T15:51:28+01:00*%
%TF.ProjectId,LimeKeyboard,4c696d65-4b65-4796-926f-6172642e6b69,rev?*%
%TF.SameCoordinates,Original*%
%TF.FileFunction,Soldermask,Bot*%
%TF.FilePolarity,Negative*%
%FSLAX46Y46*%
G04 Gerber Fmt 4.6, Leading zero omitted, Abs format (unit mm)*
G04 Created by KiCad (PCBNEW (5.99.0-9486-g75c525af4f)) date 2021-09-25 15:51:28*
%MOMM*%
%LPD*%
G01*
G04 APERTURE LIST*
G04 Aperture macros list*
%AMRotRect*
0 Rectangle, with rotation*
0 The origin of the aperture is its center*
0 $1 length*
0 $2 width*
0 $3 Rotation angle, in degrees counterclockwise*
0 Add horizontal line*
21,1,$1,$2,0,0,$3*%
%AMFreePoly0*
4,1,17,2.735355,1.235355,2.750000,1.200000,2.750000,-1.200000,2.735355,-1.235355,2.700000,-1.250000,0.300000,-1.250000,0.264645,-1.235355,0.250000,-1.200000,0.250000,-0.750000,-0.350000,-0.750000,-0.350000,0.750000,0.250000,0.750000,0.250000,1.200000,0.264645,1.235355,0.300000,1.250000,2.700000,1.250000,2.735355,1.235355,2.735355,1.235355,$1*%
%AMFreePoly1*
4,1,24,-0.364645,1.235355,-0.350000,1.200000,-0.350000,0.750000,0.350000,0.750000,0.350000,-0.750000,-0.350000,-0.750000,-0.350000,-1.200000,-0.364645,-1.235355,-0.400000,-1.250000,-2.300000,-1.250000,-2.315318,-1.243655,-2.331235,-1.239043,-2.831235,-0.839043,-2.832649,-0.836476,-2.835355,-0.835355,-2.841697,-0.820044,-2.849694,-0.805522,-2.848878,-0.802708,-2.850000,-0.800000,-2.850000,1.200000,
-2.835355,1.235355,-2.800000,1.250000,-0.400000,1.250000,-0.364645,1.235355,-0.364645,1.235355,$1*%
G04 Aperture macros list end*
%ADD10R,2.000000X1.000000*%
%ADD11R,1.800000X1.500000*%
%ADD12C,3.000000*%
%ADD13C,1.900000*%
%ADD14C,1.700000*%
%ADD15C,4.000000*%
%ADD16R,2.000000X2.000000*%
%ADD17FreePoly0,0.000000*%
%ADD18FreePoly1,0.000000*%
%ADD19R,1.900000X2.000000*%
%ADD20C,4.700000*%
%ADD21C,2.000000*%
%ADD22C,1.397000*%
%ADD23FreePoly0,300.000000*%
%ADD24RotRect,2.000000X2.000000X120.000000*%
%ADD25RotRect,1.900000X2.000000X120.000000*%
%ADD26FreePoly1,300.000000*%
%ADD27R,1.524000X1.524000*%
%ADD28RotRect,1.800000X1.500000X300.000000*%
%ADD29C,1.200000*%
%ADD30O,2.500000X1.700000*%
%ADD31C,1.524000*%
%ADD32R,3.200000X2.000000*%
%ADD33RotRect,2.000000X2.000000X195.000000*%
%ADD34FreePoly0,15.000000*%
%ADD35FreePoly1,15.000000*%
%ADD36RotRect,1.900000X2.000000X195.000000*%
%ADD37R,1.143000X0.635000*%
%ADD38R,0.635000X1.143000*%
G04 APERTURE END LIST*
D10*
%TO.C,D35*%
X169281200Y-80976500D03*
X169281200Y-82726500D03*
X164881200Y-82726500D03*
X164881200Y-80976500D03*
%TD*%
D11*
%TO.C,D20*%
X121649300Y-102235600D03*
X125049300Y-102235600D03*
%TD*%
%TO.C,D2*%
X120814400Y-61503900D03*
X124214400Y-61503900D03*
%TD*%
D12*
%TO.C,SW1*%
X112499000Y-51231900D03*
X109959000Y-62211900D03*
D13*
X115459000Y-56311900D03*
D12*
X107419000Y-51231900D03*
X114959000Y-60011900D03*
D14*
X104879000Y-56311900D03*
D12*
X104959000Y-60011900D03*
X113769000Y-53771900D03*
X106149000Y-53771899D03*
D15*
X109959000Y-56311900D03*
D14*
X115039000Y-56311900D03*
D13*
X104459000Y-56311900D03*
D16*
X101859000Y-60011900D03*
D17*
X101459000Y-53811900D03*
D18*
X117159000Y-51211900D03*
D19*
X112759000Y-62211900D03*
%TD*%
D12*
%TO.C,SW24*%
X200209000Y-121011900D03*
X202669000Y-112231900D03*
D13*
X199709000Y-117311900D03*
D12*
X209019000Y-114771900D03*
D14*
X200129000Y-117311900D03*
D13*
X210709000Y-117311900D03*
D12*
X205209000Y-123211900D03*
D15*
X205209000Y-117311900D03*
D12*
X201399000Y-114771899D03*
X207749000Y-112231900D03*
X210209000Y-121011900D03*
D14*
X210289000Y-117311900D03*
D16*
X197109000Y-121011900D03*
D17*
X196709000Y-114811900D03*
D18*
X212409000Y-112211900D03*
D19*
X208009000Y-123211900D03*
%TD*%
D11*
%TO.C,D10*%
X157176200Y-63360900D03*
X160576200Y-63360900D03*
%TD*%
D20*
%TO.C,TH5*%
X117827100Y-103670600D03*
%TD*%
D11*
%TO.C,D26*%
X111990400Y-124510800D03*
X115390400Y-124510800D03*
%TD*%
%TO.C,D14*%
X120649300Y-99235600D03*
X124049300Y-99235600D03*
%TD*%
%TO.C,D4*%
X157176200Y-60260900D03*
X160576200Y-60260900D03*
%TD*%
%TO.C,D13*%
X101473200Y-101880100D03*
X104873200Y-101880100D03*
%TD*%
D12*
%TO.C,SW3*%
X144249000Y-48981899D03*
D13*
X142559000Y-51521900D03*
D12*
X143059000Y-55221900D03*
D13*
X153559000Y-51521900D03*
D12*
X151869000Y-48981900D03*
X145519000Y-46441900D03*
X150599000Y-46441900D03*
X148059000Y-57421900D03*
D15*
X148059000Y-51521900D03*
D14*
X153139000Y-51521900D03*
X142979000Y-51521900D03*
D12*
X153059000Y-55221900D03*
D17*
X139559000Y-49021900D03*
D16*
X139959000Y-55221900D03*
D18*
X155259000Y-46421900D03*
D19*
X150859000Y-57421900D03*
%TD*%
D11*
%TO.C,D1*%
X102159000Y-64311900D03*
X105559000Y-64311900D03*
%TD*%
%TO.C,D7*%
X102159000Y-67411900D03*
X105559000Y-67411900D03*
%TD*%
D21*
%TO.C,RSW1*%
X82461100Y-83873200D03*
X82461100Y-90373200D03*
%TD*%
D22*
%TO.C,R2*%
X86291772Y-87510765D03*
X91371772Y-87510765D03*
%TD*%
D11*
%TO.C,D6*%
X209546300Y-68162700D03*
X212946300Y-68162700D03*
%TD*%
%TO.C,D5*%
X178397100Y-66699200D03*
X181797100Y-66699200D03*
%TD*%
%TO.C,D3*%
X138239700Y-59318100D03*
X141639700Y-59318100D03*
%TD*%
%TO.C,D12*%
X209546300Y-71262700D03*
X212946300Y-71262700D03*
%TD*%
%TO.C,D9*%
X138339700Y-62518100D03*
X141739700Y-62518100D03*
%TD*%
%TO.C,D11*%
X178397100Y-69599200D03*
X181797100Y-69599200D03*
%TD*%
D15*
%TO.C,TH5*%
X192519300Y-67881500D03*
%TD*%
%TO.C,TH7*%
X153530300Y-98640900D03*
%TD*%
%TO.C,TH3*%
X100990400Y-126949200D03*
%TD*%
D10*
%TO.C,D36*%
X188445500Y-86742300D03*
X188445500Y-88492300D03*
X184045500Y-88492300D03*
X184045500Y-86742300D03*
%TD*%
D15*
%TO.C,TH6*%
X113474500Y-65849500D03*
%TD*%
D13*
%TO.C,SW25*%
X99189000Y-143655040D03*
D14*
X98979000Y-143291309D03*
D12*
X95734706Y-145072027D03*
X100543705Y-140921457D03*
X99568409Y-134152195D03*
D13*
X93689000Y-134128760D03*
D12*
X91329450Y-141841900D03*
X96733705Y-134322343D03*
D15*
X96439000Y-138891900D03*
D14*
X93899000Y-134492491D03*
D12*
X102108409Y-138551605D03*
X90734706Y-136411773D03*
D23*
X94354064Y-130280684D03*
D24*
X89184706Y-133727094D03*
D25*
X92729450Y-144266771D03*
D26*
X104455730Y-142577283D03*
%TD*%
D15*
%TO.C,TH4*%
X194856100Y-124968000D03*
%TD*%
D27*
%TO.C,LED*%
X97548700Y-89355300D03*
X97548700Y-86855300D03*
X97548700Y-84255300D03*
%TD*%
%TO.C,LED*%
X202844400Y-88734900D03*
X200344400Y-88734900D03*
X197744400Y-88734900D03*
%TD*%
D15*
%TO.C,TH1*%
X82473800Y-102831900D03*
%TD*%
D11*
%TO.C,D27*%
X128715900Y-120918100D03*
X132115900Y-120918100D03*
%TD*%
%TO.C,D15*%
X139484300Y-97062500D03*
X142884300Y-97062500D03*
%TD*%
%TO.C,D31*%
X90750000Y-103575000D03*
X94150000Y-103575000D03*
%TD*%
D28*
%TO.C,D25*%
X104190800Y-122516900D03*
X105890800Y-125461386D03*
%TD*%
D15*
%TO.C,TH2*%
X96824800Y-96824800D03*
%TD*%
D11*
%TO.C,D22*%
X157214300Y-101410100D03*
X160614300Y-101410100D03*
%TD*%
%TO.C,D16*%
X157214300Y-98210100D03*
X160614300Y-98210100D03*
%TD*%
%TO.C,D18*%
X209546300Y-106262700D03*
X212946300Y-106262700D03*
%TD*%
D12*
%TO.C,SW29*%
X181659000Y-138777200D03*
X172849000Y-132537199D03*
X179199000Y-129997200D03*
D15*
X176659000Y-135077200D03*
D14*
X181739000Y-135077200D03*
D12*
X180469000Y-132537200D03*
X176659000Y-140977200D03*
X171659000Y-138777200D03*
D14*
X171579000Y-135077200D03*
D13*
X182159000Y-135077200D03*
X171159000Y-135077200D03*
D12*
X174119000Y-129997200D03*
D17*
X168159000Y-132577200D03*
D16*
X168559000Y-138777200D03*
D18*
X183859000Y-129977200D03*
D19*
X179459000Y-140977200D03*
%TD*%
D11*
%TO.C,D28*%
X147739700Y-120918100D03*
X151139700Y-120918100D03*
%TD*%
%TO.C,D24*%
X209646300Y-109462700D03*
X213046300Y-109462700D03*
%TD*%
%TO.C,D17*%
X178397100Y-104599200D03*
X181797100Y-104599200D03*
%TD*%
%TO.C,D23*%
X178397100Y-107799200D03*
X181797100Y-107799200D03*
%TD*%
D14*
%TO.C,SW30*%
X200789000Y-136577200D03*
D15*
X195709000Y-136577200D03*
D12*
X195709000Y-142477200D03*
X199519000Y-134037200D03*
X193169000Y-131497200D03*
X198249000Y-131497200D03*
X191899000Y-134037199D03*
D14*
X190629000Y-136577200D03*
D12*
X190709000Y-140277200D03*
D13*
X190209000Y-136577200D03*
D12*
X200709000Y-140277200D03*
D13*
X201209000Y-136577200D03*
D17*
X187209000Y-134077200D03*
D16*
X187609000Y-140277200D03*
D18*
X202909000Y-131477200D03*
D19*
X198509000Y-142477200D03*
%TD*%
D11*
%TO.C,D21*%
X139484300Y-100162500D03*
X142884300Y-100162500D03*
%TD*%
D22*
%TO.C,J3*%
X86146300Y-83985300D03*
X88686300Y-83985300D03*
X91226300Y-83985300D03*
X93766300Y-83985300D03*
%TD*%
D11*
%TO.C,D19*%
X101473200Y-104980100D03*
X104873200Y-104980100D03*
%TD*%
D14*
%TO.C,SW21*%
X153139000Y-108711900D03*
D12*
X150599000Y-103631900D03*
X148059000Y-114611900D03*
X143059000Y-112411900D03*
D14*
X142979000Y-108711900D03*
D12*
X144249000Y-106171899D03*
X151869000Y-106171900D03*
D13*
X153559000Y-108711900D03*
D15*
X148059000Y-108711900D03*
D12*
X153059000Y-112411900D03*
D13*
X142559000Y-108711900D03*
D12*
X145519000Y-103631900D03*
D16*
X139959000Y-112411900D03*
D17*
X139559000Y-106211900D03*
D18*
X155259000Y-103611900D03*
D19*
X150859000Y-114611900D03*
%TD*%
D12*
%TO.C,SW20*%
X123959000Y-114311900D03*
X131499000Y-105531900D03*
X133959000Y-114311900D03*
X128959000Y-116511900D03*
X125149000Y-108071899D03*
D14*
X134039000Y-110611900D03*
D13*
X134459000Y-110611900D03*
X123459000Y-110611900D03*
D14*
X123879000Y-110611900D03*
D15*
X128959000Y-110611900D03*
D12*
X132769000Y-108071900D03*
X126419000Y-105531900D03*
D16*
X120859000Y-114311900D03*
D17*
X120459000Y-108111900D03*
D19*
X131759000Y-116511900D03*
D18*
X136159000Y-105511900D03*
%TD*%
D12*
%TO.C,SW23*%
X188699000Y-110731900D03*
D15*
X186159000Y-115811900D03*
D13*
X191659000Y-115811900D03*
D14*
X181079000Y-115811900D03*
D12*
X189969000Y-113271900D03*
X186159000Y-121711900D03*
X182349000Y-113271899D03*
D14*
X191239000Y-115811900D03*
D13*
X180659000Y-115811900D03*
D12*
X183619000Y-110731900D03*
X191159000Y-119511900D03*
X181159000Y-119511900D03*
D16*
X178059000Y-119511900D03*
D17*
X177659000Y-113311900D03*
D19*
X188959000Y-121711900D03*
D18*
X193359000Y-110711900D03*
%TD*%
D12*
%TO.C,SW27*%
X138459000Y-135461900D03*
D15*
X138459000Y-129561900D03*
D14*
X133379000Y-129561900D03*
D12*
X134649000Y-127021899D03*
D13*
X132959000Y-129561900D03*
D12*
X143459000Y-133261900D03*
D13*
X143959000Y-129561900D03*
D12*
X140999000Y-124481900D03*
X135919000Y-124481900D03*
D14*
X143539000Y-129561900D03*
D12*
X133459000Y-133261900D03*
X142269000Y-127021900D03*
D17*
X129959000Y-127061900D03*
D16*
X130359000Y-133261900D03*
D19*
X141259000Y-135461900D03*
D18*
X145659000Y-124461900D03*
%TD*%
D12*
%TO.C,SW17*%
X191159000Y-100511900D03*
X182349000Y-94271899D03*
X188699000Y-91731900D03*
X181159000Y-100511900D03*
X186159000Y-102711900D03*
D13*
X191659000Y-96811900D03*
D12*
X189969000Y-94271900D03*
D14*
X181079000Y-96811900D03*
D12*
X183619000Y-91731900D03*
D13*
X180659000Y-96811900D03*
D14*
X191239000Y-96811900D03*
D15*
X186159000Y-96811900D03*
D17*
X177659000Y-94311900D03*
D16*
X178059000Y-100511900D03*
D19*
X188959000Y-102711900D03*
D18*
X193359000Y-91711900D03*
%TD*%
D12*
%TO.C,SW15*%
X150599000Y-84631900D03*
X153059000Y-93411900D03*
X144249000Y-87171899D03*
X143059000Y-93411900D03*
X151869000Y-87171900D03*
X148059000Y-95611900D03*
X145519000Y-84631900D03*
D14*
X153139000Y-89711900D03*
D15*
X148059000Y-89711900D03*
D14*
X142979000Y-89711900D03*
D13*
X142559000Y-89711900D03*
X153559000Y-89711900D03*
D16*
X139959000Y-93411900D03*
D17*
X139559000Y-87211900D03*
D18*
X155259000Y-84611900D03*
D19*
X150859000Y-95611900D03*
%TD*%
D12*
%TO.C,SW14*%
X128959000Y-97411900D03*
D15*
X128959000Y-91511900D03*
D14*
X134039000Y-91511900D03*
D13*
X123459000Y-91511900D03*
D12*
X125149000Y-88971899D03*
D14*
X123879000Y-91511900D03*
D12*
X132769000Y-88971900D03*
X133959000Y-95211900D03*
X131499000Y-86431900D03*
X126419000Y-86431900D03*
X123959000Y-95211900D03*
D13*
X134459000Y-91511900D03*
D16*
X120859000Y-95211900D03*
D17*
X120459000Y-89011900D03*
D19*
X131759000Y-97411900D03*
D18*
X136159000Y-86411900D03*
%TD*%
D29*
%TO.C,J2*%
X81918100Y-95302000D03*
X81918100Y-97052000D03*
X88918100Y-97052000D03*
X88918100Y-95302000D03*
D30*
X90718100Y-99152000D03*
X90718100Y-93202000D03*
X86718100Y-93202000D03*
X86718100Y-99152000D03*
X83718100Y-99152000D03*
X83718100Y-93202000D03*
X92218100Y-94952000D03*
X92218100Y-97402000D03*
%TD*%
D31*
%TO.C,U1*%
X98165115Y-51811045D03*
X81626300Y-50615300D03*
X98165115Y-54351045D03*
X81626300Y-53155300D03*
X81626300Y-55695300D03*
X98165115Y-56891045D03*
X81626300Y-58235300D03*
X98165115Y-59431045D03*
X98165115Y-61971045D03*
X81626300Y-60775300D03*
X98165115Y-64511045D03*
X81626300Y-63315300D03*
X98165115Y-67051045D03*
X81626300Y-65855300D03*
X81626300Y-68395300D03*
X98165115Y-69591045D03*
X98165115Y-72131045D03*
X81626300Y-70935300D03*
X98165115Y-74671045D03*
X81626300Y-73475300D03*
X98165115Y-77211045D03*
X81626300Y-76015300D03*
X98165115Y-79751045D03*
X81626300Y-78555300D03*
X96866300Y-78555300D03*
X82925115Y-79751045D03*
X82925115Y-77211045D03*
X96866300Y-76015300D03*
X82925115Y-74671045D03*
X96866300Y-73475300D03*
X82925115Y-72131045D03*
X96866300Y-70935300D03*
X96866300Y-68395300D03*
X82925115Y-69591045D03*
X82925115Y-67051045D03*
X96866300Y-65855300D03*
X82925115Y-64511045D03*
X96866300Y-63315300D03*
X96866300Y-60775300D03*
X82925115Y-61971045D03*
X82925115Y-59431045D03*
X96866300Y-58235300D03*
X96866300Y-55695300D03*
X82925115Y-56891045D03*
X82925115Y-54351045D03*
X96866300Y-53155300D03*
X96866300Y-50615300D03*
X82925115Y-51811045D03*
%TD*%
D15*
%TO.C,SW16*%
X167059000Y-91011900D03*
D12*
X172059000Y-94711900D03*
D14*
X172139000Y-91011900D03*
D12*
X164519000Y-85931900D03*
X170869000Y-88471900D03*
D14*
X161979000Y-91011900D03*
D13*
X172559000Y-91011900D03*
D12*
X169599000Y-85931900D03*
X162059000Y-94711900D03*
X163249000Y-88471899D03*
X167059000Y-96911900D03*
D13*
X161559000Y-91011900D03*
D16*
X158959000Y-94711900D03*
D17*
X158559000Y-88511900D03*
D18*
X174259000Y-85911900D03*
D19*
X169859000Y-96911900D03*
%TD*%
D15*
%TO.C,SW28*%
X157559000Y-129061900D03*
D12*
X160099000Y-123981900D03*
X162559000Y-132761900D03*
X152559000Y-132761900D03*
X157559000Y-134961900D03*
X153749000Y-126521899D03*
D13*
X152059000Y-129061900D03*
D14*
X162639000Y-129061900D03*
D12*
X155019000Y-123981900D03*
X161369000Y-126521900D03*
D14*
X152479000Y-129061900D03*
D13*
X163059000Y-129061900D03*
D16*
X149459000Y-132761900D03*
D17*
X149059000Y-126561900D03*
D19*
X160359000Y-134961900D03*
D18*
X164759000Y-123961900D03*
%TD*%
D14*
%TO.C,SW19*%
X115039000Y-113411900D03*
D13*
X115459000Y-113411900D03*
D12*
X109959000Y-119311900D03*
X113769000Y-110871900D03*
X107419000Y-108331900D03*
D14*
X104879000Y-113411900D03*
D12*
X106149000Y-110871899D03*
X104959000Y-117111900D03*
X112499000Y-108331900D03*
D15*
X109959000Y-113411900D03*
D12*
X114959000Y-117111900D03*
D13*
X104459000Y-113411900D03*
D16*
X101859000Y-117111900D03*
D17*
X101459000Y-110911900D03*
D19*
X112759000Y-119311900D03*
D18*
X117159000Y-108311900D03*
%TD*%
D21*
%TO.C,SW31*%
X82416000Y-112409600D03*
X82416000Y-117409600D03*
X82416000Y-114909600D03*
D32*
X89916000Y-109309600D03*
X89916000Y-120509600D03*
D21*
X96916000Y-117409600D03*
X96916000Y-112409600D03*
%TD*%
D14*
%TO.C,SW22*%
X161979000Y-110111900D03*
D12*
X170869000Y-107571900D03*
X164519000Y-105031900D03*
X167059000Y-116011900D03*
X172059000Y-113811900D03*
D15*
X167059000Y-110111900D03*
D12*
X169599000Y-105031900D03*
X162059000Y-113811900D03*
D13*
X161559000Y-110111900D03*
D14*
X172139000Y-110111900D03*
D13*
X172559000Y-110111900D03*
D12*
X163249000Y-107571899D03*
D17*
X158559000Y-107611900D03*
D16*
X158959000Y-113811900D03*
D19*
X169859000Y-116011900D03*
D18*
X174259000Y-105011900D03*
%TD*%
D12*
%TO.C,SW26*%
X118477651Y-127667596D03*
D13*
X122651592Y-131808395D03*
D15*
X117339000Y-133231900D03*
D13*
X112026408Y-134655405D03*
D14*
X112432097Y-134546701D03*
D12*
X113570748Y-128982397D03*
D14*
X122245903Y-131917099D03*
D12*
X113001422Y-131764548D03*
X118866032Y-138930862D03*
X113467001Y-138099921D03*
X123126260Y-135511730D03*
X120361777Y-129792348D03*
D33*
X110472631Y-138902260D03*
D34*
X108481583Y-133017047D03*
D35*
X122973689Y-126442181D03*
D36*
X121570625Y-138206169D03*
%TD*%
D12*
%TO.C,SW18*%
X205159000Y-104211900D03*
X208969000Y-95771900D03*
X202619000Y-93231900D03*
X201349000Y-95771899D03*
D13*
X210659000Y-98311900D03*
D12*
X207699000Y-93231900D03*
X200159000Y-102011900D03*
D13*
X199659000Y-98311900D03*
D14*
X210239000Y-98311900D03*
D15*
X205159000Y-98311900D03*
D12*
X210159000Y-102011900D03*
D14*
X200079000Y-98311900D03*
D17*
X196659000Y-95811900D03*
D16*
X197059000Y-102011900D03*
D19*
X207959000Y-104211900D03*
D18*
X212359000Y-93211900D03*
%TD*%
D20*
%TO.C,TH4*%
X197142100Y-69329300D03*
%TD*%
%TO.C,TH7*%
X94800000Y-125875000D03*
%TD*%
D10*
%TO.C,D33*%
X131244700Y-81548000D03*
X131244700Y-83298000D03*
X126844700Y-83298000D03*
X126844700Y-81548000D03*
%TD*%
D20*
%TO.C,TH3*%
X118055700Y-65048300D03*
%TD*%
D10*
%TO.C,D32*%
X112133600Y-84444100D03*
X112133600Y-86194100D03*
X107733600Y-86194100D03*
X107733600Y-84444100D03*
%TD*%
D11*
%TO.C,D29*%
X168913600Y-123710700D03*
X172313600Y-123710700D03*
%TD*%
%TO.C,D8*%
X121814400Y-64503900D03*
X125214400Y-64503900D03*
%TD*%
%TO.C,D30*%
X185954800Y-126607700D03*
X189354800Y-126607700D03*
%TD*%
D10*
%TO.C,D34*%
X150320100Y-79630300D03*
X150320100Y-81380300D03*
X145920100Y-81380300D03*
X145920100Y-79630300D03*
%TD*%
D14*
%TO.C,SW12*%
X210239000Y-79111900D03*
D12*
X210159000Y-82811900D03*
D15*
X205159000Y-79111900D03*
D13*
X199659000Y-79111900D03*
D12*
X201349000Y-76571899D03*
D14*
X200079000Y-79111900D03*
D12*
X208969000Y-76571900D03*
X200159000Y-82811900D03*
D13*
X210659000Y-79111900D03*
D12*
X202619000Y-74031900D03*
X207699000Y-74031900D03*
X205159000Y-85011900D03*
D17*
X196659000Y-76611900D03*
D16*
X197059000Y-82811900D03*
D19*
X207959000Y-85011900D03*
D18*
X212359000Y-74011900D03*
%TD*%
D22*
%TO.C,R1*%
X86291772Y-89760765D03*
X91371772Y-89760765D03*
%TD*%
D12*
%TO.C,SW8*%
X126419000Y-67431900D03*
X133959000Y-76211900D03*
D14*
X123879000Y-72511900D03*
D12*
X132769000Y-69971900D03*
X131499000Y-67431900D03*
X125149000Y-69971899D03*
D15*
X128959000Y-72511900D03*
D12*
X128959000Y-78411900D03*
X123959000Y-76211900D03*
D14*
X134039000Y-72511900D03*
D13*
X123459000Y-72511900D03*
X134459000Y-72511900D03*
D17*
X120459000Y-70011900D03*
D16*
X120859000Y-76211900D03*
D19*
X131759000Y-78411900D03*
D18*
X136159000Y-67411900D03*
%TD*%
D12*
%TO.C,SW5*%
X181159000Y-62411900D03*
D15*
X186159000Y-58711900D03*
D12*
X182349000Y-56171899D03*
X183619000Y-53631900D03*
X188699000Y-53631900D03*
D14*
X191239000Y-58711900D03*
D12*
X186159000Y-64611900D03*
D14*
X181079000Y-58711900D03*
D12*
X189969000Y-56171900D03*
D13*
X180659000Y-58711900D03*
X191659000Y-58711900D03*
D12*
X191159000Y-62411900D03*
D16*
X178059000Y-62411900D03*
D17*
X177659000Y-56211900D03*
D19*
X188959000Y-64611900D03*
D18*
X193359000Y-53611900D03*
%TD*%
D13*
%TO.C,SW10*%
X172559000Y-71911900D03*
D14*
X172139000Y-71911900D03*
D12*
X163249000Y-69371899D03*
D14*
X161979000Y-71911900D03*
D12*
X170869000Y-69371900D03*
X172059000Y-75611900D03*
X164519000Y-66831900D03*
D13*
X161559000Y-71911900D03*
D12*
X162059000Y-75611900D03*
X167059000Y-77811900D03*
D15*
X167059000Y-71911900D03*
D12*
X169599000Y-66831900D03*
D17*
X158559000Y-69411900D03*
D16*
X158959000Y-75611900D03*
D18*
X174259000Y-66811900D03*
D19*
X169859000Y-77811900D03*
%TD*%
D14*
%TO.C,SW7*%
X104879000Y-75411900D03*
D12*
X112499000Y-70331900D03*
X107419000Y-70331900D03*
X109959000Y-81311900D03*
X104959000Y-79111900D03*
X114959000Y-79111900D03*
D14*
X115039000Y-75411900D03*
D12*
X106149000Y-72871899D03*
D15*
X109959000Y-75411900D03*
D13*
X104459000Y-75411900D03*
X115459000Y-75411900D03*
D12*
X113769000Y-72871900D03*
D17*
X101459000Y-72911900D03*
D16*
X101859000Y-79111900D03*
D19*
X112759000Y-81311900D03*
D18*
X117159000Y-70311900D03*
%TD*%
D12*
%TO.C,SW9*%
X148059000Y-76511900D03*
X145519000Y-65531900D03*
D14*
X153139000Y-70611900D03*
D15*
X148059000Y-70611900D03*
D12*
X150599000Y-65531900D03*
D13*
X142559000Y-70611900D03*
D12*
X143059000Y-74311900D03*
X153059000Y-74311900D03*
D13*
X153559000Y-70611900D03*
D14*
X142979000Y-70611900D03*
D12*
X151869000Y-68071900D03*
X144249000Y-68071899D03*
D17*
X139559000Y-68111900D03*
D16*
X139959000Y-74311900D03*
D18*
X155259000Y-65511900D03*
D19*
X150859000Y-76511900D03*
%TD*%
D15*
%TO.C,SW6*%
X205159000Y-60211900D03*
D12*
X202619000Y-55131900D03*
X201349000Y-57671899D03*
X205159000Y-66111900D03*
X207699000Y-55131900D03*
X208969000Y-57671900D03*
D14*
X200079000Y-60211900D03*
X210239000Y-60211900D03*
D13*
X199659000Y-60211900D03*
D12*
X210159000Y-63911900D03*
D13*
X210659000Y-60211900D03*
D12*
X200159000Y-63911900D03*
D17*
X196659000Y-57711900D03*
D16*
X197059000Y-63911900D03*
D18*
X212359000Y-55111900D03*
D19*
X207959000Y-66111900D03*
%TD*%
D13*
%TO.C,SW4*%
X172559000Y-52911900D03*
D12*
X162059000Y-56611900D03*
D13*
X161559000Y-52911900D03*
D15*
X167059000Y-52911900D03*
D12*
X172059000Y-56611900D03*
X167059000Y-58811900D03*
D14*
X161979000Y-52911900D03*
D12*
X170869000Y-50371900D03*
X164519000Y-47831900D03*
X169599000Y-47831900D03*
X163249000Y-50371899D03*
D14*
X172139000Y-52911900D03*
D16*
X158959000Y-56611900D03*
D17*
X158559000Y-50411900D03*
D18*
X174259000Y-47811900D03*
D19*
X169859000Y-58811900D03*
%TD*%
D22*
%TO.C,P2*%
X93492500Y-87548800D03*
%TD*%
D20*
%TO.C,TH6*%
X196846500Y-107366000D03*
%TD*%
D12*
%TO.C,SW11*%
X182349000Y-75071899D03*
D13*
X191659000Y-77611900D03*
D14*
X181079000Y-77611900D03*
D12*
X183619000Y-72531900D03*
X186159000Y-83511900D03*
X189969000Y-75071900D03*
X181159000Y-81311900D03*
D15*
X186159000Y-77611900D03*
D14*
X191239000Y-77611900D03*
D12*
X188699000Y-72531900D03*
D13*
X180659000Y-77611900D03*
D12*
X191159000Y-81311900D03*
D16*
X178059000Y-81311900D03*
D17*
X177659000Y-75111900D03*
D19*
X188959000Y-83511900D03*
D18*
X193359000Y-72511900D03*
%TD*%
D12*
%TO.C,SW2*%
X123959000Y-57111900D03*
D13*
X134459000Y-53411900D03*
X123459000Y-53411900D03*
D14*
X134039000Y-53411900D03*
D12*
X125149000Y-50871899D03*
X132769000Y-50871900D03*
X131499000Y-48331900D03*
D15*
X128959000Y-53411900D03*
D14*
X123879000Y-53411900D03*
D12*
X133959000Y-57111900D03*
X128959000Y-59311900D03*
X126419000Y-48331900D03*
D17*
X120459000Y-50911900D03*
D16*
X120859000Y-57111900D03*
D19*
X131759000Y-59311900D03*
D18*
X136159000Y-48311900D03*
%TD*%
D13*
%TO.C,SW13*%
X115459000Y-94411900D03*
D12*
X112499000Y-89331900D03*
X114959000Y-98111900D03*
D15*
X109959000Y-94411900D03*
D14*
X115039000Y-94411900D03*
D12*
X109959000Y-100311900D03*
X107419000Y-89331900D03*
X113769000Y-91871900D03*
D13*
X104459000Y-94411900D03*
D14*
X104879000Y-94411900D03*
D12*
X104959000Y-98111900D03*
X106149000Y-91871899D03*
D16*
X101859000Y-98111900D03*
D17*
X101459000Y-91911900D03*
D19*
X112759000Y-100311900D03*
D18*
X117159000Y-89311900D03*
%TD*%
D22*
%TO.C,P1*%
X93492500Y-89748800D03*
%TD*%
D21*
%TO.C,*%
X97775000Y-105175000D03*
%TD*%
D37*
%TO.C,JP7*%
X88646300Y-79185680D03*
X88646300Y-78184920D03*
%TD*%
%TO.C,JP5*%
X93746300Y-79185680D03*
X93746300Y-78184920D03*
%TD*%
%TO.C,JP6*%
X91146300Y-79185680D03*
X91146300Y-78184920D03*
%TD*%
%TO.C,JP8*%
X86146300Y-79185680D03*
X86146300Y-78184920D03*
%TD*%
D38*
%TO.C,JP6*%
X91750380Y-105650000D03*
X90749620Y-105650000D03*
%TD*%
M02*
