M48
; DRILL file {KiCad (5.99.0-9486-g75c525af4f)} date 07/25/21 02:59:55
; FORMAT={-:-/ absolute / metric / decimal}
; #@! TF.CreationDate,2021-07-25T02:59:55+01:00
; #@! TF.GenerationSoftware,Kicad,Pcbnew,(5.99.0-9486-g75c525af4f)
; #@! TF.FileFunction,NonPlated,1,2,NPTH
FMAT,2
METRIC
T1C1.200
T2C1.700
T3C1.900
T4C3.000
T5C4.000
%
G90
G05
T1
X81.918Y-95.302
X81.918Y-97.052
X88.918Y-95.302
X88.918Y-97.052
T2
X93.899Y-134.492
X98.979Y-143.291
X104.879Y-56.312
X104.879Y-75.412
X104.879Y-94.412
X104.879Y-113.412
X112.432Y-134.547
X115.039Y-56.312
X115.039Y-75.412
X115.039Y-94.412
X115.039Y-113.412
X122.246Y-131.917
X123.879Y-53.412
X123.879Y-72.512
X123.879Y-91.512
X123.879Y-110.612
X133.379Y-129.562
X134.039Y-53.412
X134.039Y-72.512
X134.039Y-91.512
X134.039Y-110.612
X142.979Y-51.522
X142.979Y-70.612
X142.979Y-89.712
X142.979Y-108.712
X143.539Y-129.562
X152.479Y-129.062
X153.139Y-51.522
X153.139Y-70.612
X153.139Y-89.712
X153.139Y-108.712
X161.979Y-52.912
X161.979Y-71.912
X161.979Y-91.012
X161.979Y-110.112
X162.639Y-129.062
X171.579Y-135.077
X172.139Y-52.912
X172.139Y-71.912
X172.139Y-91.012
X172.139Y-110.112
X181.079Y-58.712
X181.079Y-77.612
X181.079Y-96.812
X181.079Y-115.812
X181.739Y-135.077
X190.629Y-136.577
X191.239Y-58.712
X191.239Y-77.612
X191.239Y-96.812
X191.239Y-115.812
X200.079Y-60.212
X200.079Y-79.112
X200.079Y-98.312
X200.129Y-117.312
X200.789Y-136.577
X210.239Y-60.212
X210.239Y-79.112
X210.239Y-98.312
X210.289Y-117.312
T3
X93.689Y-134.129
X99.189Y-143.655
X104.459Y-56.312
X104.459Y-75.412
X104.459Y-94.412
X104.459Y-113.412
X112.026Y-134.655
X115.459Y-56.312
X115.459Y-75.412
X115.459Y-94.412
X115.459Y-113.412
X122.652Y-131.808
X123.459Y-53.412
X123.459Y-72.512
X123.459Y-91.512
X123.459Y-110.612
X132.959Y-129.562
X134.459Y-53.412
X134.459Y-72.512
X134.459Y-91.512
X134.459Y-110.612
X142.559Y-51.522
X142.559Y-70.612
X142.559Y-89.712
X142.559Y-108.712
X143.959Y-129.562
X152.059Y-129.062
X153.559Y-51.522
X153.559Y-70.612
X153.559Y-89.712
X153.559Y-108.712
X161.559Y-52.912
X161.559Y-71.912
X161.559Y-91.012
X161.559Y-110.112
X163.059Y-129.062
X171.159Y-135.077
X172.559Y-52.912
X172.559Y-71.912
X172.559Y-91.012
X172.559Y-110.112
X180.659Y-58.712
X180.659Y-77.612
X180.659Y-96.812
X180.659Y-115.812
X182.159Y-135.077
X190.209Y-136.577
X191.659Y-58.712
X191.659Y-77.612
X191.659Y-96.812
X191.659Y-115.812
X199.659Y-60.212
X199.659Y-79.112
X199.659Y-98.312
X199.709Y-117.312
X201.209Y-136.577
X210.659Y-60.212
X210.659Y-79.112
X210.659Y-98.312
X210.709Y-117.312
T4
X90.735Y-136.412
X91.329Y-141.842
X95.735Y-145.072
X96.734Y-134.322
X99.568Y-134.152
X100.544Y-140.921
X102.108Y-138.552
X104.959Y-60.012
X104.959Y-79.112
X104.959Y-98.112
X104.959Y-117.112
X106.149Y-53.772
X106.149Y-72.872
X106.149Y-91.872
X106.149Y-110.872
X107.419Y-51.232
X107.419Y-70.332
X107.419Y-89.332
X107.419Y-108.332
X109.959Y-62.212
X109.959Y-81.312
X109.959Y-100.312
X109.959Y-119.312
X112.499Y-51.232
X112.499Y-70.332
X112.499Y-89.332
X112.499Y-108.332
X113.001Y-131.765
X113.467Y-138.1
X113.571Y-128.982
X113.769Y-53.772
X113.769Y-72.872
X113.769Y-91.872
X113.769Y-110.872
X114.959Y-60.012
X114.959Y-79.112
X114.959Y-98.112
X114.959Y-117.112
X118.478Y-127.668
X118.866Y-138.931
X120.362Y-129.792
X123.126Y-135.512
X123.959Y-57.112
X123.959Y-76.212
X123.959Y-95.212
X123.959Y-114.312
X125.149Y-50.872
X125.149Y-69.972
X125.149Y-88.972
X125.149Y-108.072
X126.419Y-48.332
X126.419Y-67.432
X126.419Y-86.432
X126.419Y-105.532
X128.959Y-59.312
X128.959Y-78.412
X128.959Y-97.412
X128.959Y-116.512
X131.499Y-48.332
X131.499Y-67.432
X131.499Y-86.432
X131.499Y-105.532
X132.769Y-50.872
X132.769Y-69.972
X132.769Y-88.972
X132.769Y-108.072
X133.459Y-133.262
X133.959Y-57.112
X133.959Y-76.212
X133.959Y-95.212
X133.959Y-114.312
X134.649Y-127.022
X135.919Y-124.482
X138.459Y-135.462
X140.999Y-124.482
X142.269Y-127.022
X143.059Y-55.222
X143.059Y-74.312
X143.059Y-93.412
X143.059Y-112.412
X143.459Y-133.262
X144.249Y-48.982
X144.249Y-68.072
X144.249Y-87.172
X144.249Y-106.172
X145.519Y-46.442
X145.519Y-65.532
X145.519Y-84.632
X145.519Y-103.632
X148.059Y-57.422
X148.059Y-76.512
X148.059Y-95.612
X148.059Y-114.612
X150.599Y-46.442
X150.599Y-65.532
X150.599Y-84.632
X150.599Y-103.632
X151.869Y-48.982
X151.869Y-68.072
X151.869Y-87.172
X151.869Y-106.172
X152.559Y-132.762
X153.059Y-55.222
X153.059Y-74.312
X153.059Y-93.412
X153.059Y-112.412
X153.749Y-126.522
X155.019Y-123.982
X157.559Y-134.962
X160.099Y-123.982
X161.369Y-126.522
X162.059Y-56.612
X162.059Y-75.612
X162.059Y-94.712
X162.059Y-113.812
X162.559Y-132.762
X163.249Y-50.372
X163.249Y-69.372
X163.249Y-88.472
X163.249Y-107.572
X164.519Y-47.832
X164.519Y-66.832
X164.519Y-85.932
X164.519Y-105.032
X167.059Y-58.812
X167.059Y-77.812
X167.059Y-96.912
X167.059Y-116.012
X169.599Y-47.832
X169.599Y-66.832
X169.599Y-85.932
X169.599Y-105.032
X170.869Y-50.372
X170.869Y-69.372
X170.869Y-88.472
X170.869Y-107.572
X171.659Y-138.777
X172.059Y-56.612
X172.059Y-75.612
X172.059Y-94.712
X172.059Y-113.812
X172.849Y-132.537
X174.119Y-129.997
X176.659Y-140.977
X179.199Y-129.997
X180.469Y-132.537
X181.159Y-62.412
X181.159Y-81.312
X181.159Y-100.512
X181.159Y-119.512
X181.659Y-138.777
X182.349Y-56.172
X182.349Y-75.072
X182.349Y-94.272
X182.349Y-113.272
X183.619Y-53.632
X183.619Y-72.532
X183.619Y-91.732
X183.619Y-110.732
X186.159Y-64.612
X186.159Y-83.512
X186.159Y-102.712
X186.159Y-121.712
X188.699Y-53.632
X188.699Y-72.532
X188.699Y-91.732
X188.699Y-110.732
X189.969Y-56.172
X189.969Y-75.072
X189.969Y-94.272
X189.969Y-113.272
X190.709Y-140.277
X191.159Y-62.412
X191.159Y-81.312
X191.159Y-100.512
X191.159Y-119.512
X191.899Y-134.037
X193.169Y-131.497
X195.709Y-142.477
X198.249Y-131.497
X199.519Y-134.037
X200.159Y-63.912
X200.159Y-82.812
X200.159Y-102.012
X200.209Y-121.012
X200.709Y-140.277
X201.349Y-57.672
X201.349Y-76.572
X201.349Y-95.772
X201.399Y-114.772
X202.619Y-55.132
X202.619Y-74.032
X202.619Y-93.232
X202.669Y-112.232
X205.159Y-66.112
X205.159Y-85.012
X205.159Y-104.212
X205.209Y-123.212
X207.699Y-55.132
X207.699Y-74.032
X207.699Y-93.232
X207.749Y-112.232
X208.969Y-57.672
X208.969Y-76.572
X208.969Y-95.772
X209.019Y-114.772
X210.159Y-63.912
X210.159Y-82.812
X210.159Y-102.012
X210.209Y-121.012
T5
X96.439Y-138.892
X109.959Y-56.312
X109.959Y-75.412
X109.959Y-94.412
X109.959Y-113.412
X117.339Y-133.232
X128.959Y-53.412
X128.959Y-72.512
X128.959Y-91.512
X128.959Y-110.612
X138.459Y-129.562
X148.059Y-51.522
X148.059Y-70.612
X148.059Y-89.712
X148.059Y-108.712
X157.559Y-129.062
X167.059Y-52.912
X167.059Y-71.912
X167.059Y-91.012
X167.059Y-110.112
X176.659Y-135.077
X186.159Y-58.712
X186.159Y-77.612
X186.159Y-96.812
X186.159Y-115.812
X195.709Y-136.577
X205.159Y-60.212
X205.159Y-79.112
X205.159Y-98.312
X205.209Y-117.312
T0
M30
