%TF.GenerationSoftware,KiCad,Pcbnew,(5.99.0-9486-g75c525af4f)*%
%TF.CreationDate,2021-07-25T02:57:46+01:00*%
%TF.ProjectId,LimeKeyboard,4c696d65-4b65-4796-926f-6172642e6b69,rev?*%
%TF.SameCoordinates,Original*%
%TF.FileFunction,OtherDrawing,Comment*%
%FSLAX46Y46*%
G04 Gerber Fmt 4.6, Leading zero omitted, Abs format (unit mm)*
G04 Created by KiCad (PCBNEW (5.99.0-9486-g75c525af4f)) date 2021-07-25 02:57:46*
%MOMM*%
%LPD*%
G01*
G04 APERTURE LIST*
%ADD10C,0.080000*%
%ADD11C,0.100000*%
%ADD12C,4.700000*%
%ADD13C,4.000000*%
G04 APERTURE END LIST*
D10*
%TO.C,JOYSTICK*%
X84051190Y-128759285D02*
X83551190Y-128759285D01*
X83551190Y-128568809D01*
X83575000Y-128521190D01*
X83598809Y-128497380D01*
X83646428Y-128473571D01*
X83717857Y-128473571D01*
X83765476Y-128497380D01*
X83789285Y-128521190D01*
X83813095Y-128568809D01*
X83813095Y-128759285D01*
X84003571Y-127973571D02*
X84027380Y-127997380D01*
X84051190Y-128068809D01*
X84051190Y-128116428D01*
X84027380Y-128187857D01*
X83979761Y-128235476D01*
X83932142Y-128259285D01*
X83836904Y-128283095D01*
X83765476Y-128283095D01*
X83670238Y-128259285D01*
X83622619Y-128235476D01*
X83575000Y-128187857D01*
X83551190Y-128116428D01*
X83551190Y-128068809D01*
X83575000Y-127997380D01*
X83598809Y-127973571D01*
X83789285Y-127592619D02*
X83813095Y-127521190D01*
X83836904Y-127497380D01*
X83884523Y-127473571D01*
X83955952Y-127473571D01*
X84003571Y-127497380D01*
X84027380Y-127521190D01*
X84051190Y-127568809D01*
X84051190Y-127759285D01*
X83551190Y-127759285D01*
X83551190Y-127592619D01*
X83575000Y-127545000D01*
X83598809Y-127521190D01*
X83646428Y-127497380D01*
X83694047Y-127497380D01*
X83741666Y-127521190D01*
X83765476Y-127545000D01*
X83789285Y-127592619D01*
X83789285Y-127759285D01*
X83789285Y-126878333D02*
X83789285Y-126711666D01*
X84051190Y-126640238D02*
X84051190Y-126878333D01*
X83551190Y-126878333D01*
X83551190Y-126640238D01*
X84051190Y-126211666D02*
X83551190Y-126211666D01*
X84027380Y-126211666D02*
X84051190Y-126259285D01*
X84051190Y-126354523D01*
X84027380Y-126402142D01*
X84003571Y-126425952D01*
X83955952Y-126449761D01*
X83813095Y-126449761D01*
X83765476Y-126425952D01*
X83741666Y-126402142D01*
X83717857Y-126354523D01*
X83717857Y-126259285D01*
X83741666Y-126211666D01*
X83717857Y-125759285D02*
X84122619Y-125759285D01*
X84170238Y-125783095D01*
X84194047Y-125806904D01*
X84217857Y-125854523D01*
X84217857Y-125925952D01*
X84194047Y-125973571D01*
X84027380Y-125759285D02*
X84051190Y-125806904D01*
X84051190Y-125902142D01*
X84027380Y-125949761D01*
X84003571Y-125973571D01*
X83955952Y-125997380D01*
X83813095Y-125997380D01*
X83765476Y-125973571D01*
X83741666Y-125949761D01*
X83717857Y-125902142D01*
X83717857Y-125806904D01*
X83741666Y-125759285D01*
X84027380Y-125330714D02*
X84051190Y-125378333D01*
X84051190Y-125473571D01*
X84027380Y-125521190D01*
X83979761Y-125545000D01*
X83789285Y-125545000D01*
X83741666Y-125521190D01*
X83717857Y-125473571D01*
X83717857Y-125378333D01*
X83741666Y-125330714D01*
X83789285Y-125306904D01*
X83836904Y-125306904D01*
X83884523Y-125545000D01*
D11*
X84325000Y-130900000D02*
X84325000Y-123190000D01*
%TD*%
D12*
%TO.C,TH5*%
X117827100Y-103670600D03*
%TD*%
D13*
%TO.C,TH5*%
X192519300Y-67881500D03*
%TD*%
%TO.C,TH7*%
X153530300Y-98640900D03*
%TD*%
%TO.C,TH3*%
X100990400Y-126949200D03*
%TD*%
%TO.C,TH6*%
X113474500Y-65849500D03*
%TD*%
%TO.C,TH4*%
X194856100Y-124968000D03*
%TD*%
%TO.C,TH1*%
X82473800Y-102831900D03*
%TD*%
%TO.C,TH2*%
X96824800Y-96824800D03*
%TD*%
D12*
%TO.C,TH4*%
X197142100Y-69329300D03*
%TD*%
%TO.C,TH7*%
X94800000Y-125875000D03*
%TD*%
%TO.C,TH3*%
X118055700Y-65048300D03*
%TD*%
%TO.C,TH6*%
X196846500Y-107366000D03*
%TD*%
M02*
