%TF.GenerationSoftware,KiCad,Pcbnew,(5.99.0-9486-g75c525af4f)*%
%TF.CreationDate,2021-09-25T15:51:27+01:00*%
%TF.ProjectId,LimeKeyboard,4c696d65-4b65-4796-926f-6172642e6b69,rev?*%
%TF.SameCoordinates,Original*%
%TF.FileFunction,Copper,L1,Top*%
%TF.FilePolarity,Positive*%
%FSLAX46Y46*%
G04 Gerber Fmt 4.6, Leading zero omitted, Abs format (unit mm)*
G04 Created by KiCad (PCBNEW (5.99.0-9486-g75c525af4f)) date 2021-09-25 15:51:27*
%MOMM*%
%LPD*%
G01*
G04 APERTURE LIST*
G04 Aperture macros list*
%AMRotRect*
0 Rectangle, with rotation*
0 The origin of the aperture is its center*
0 $1 length*
0 $2 width*
0 $3 Rotation angle, in degrees counterclockwise*
0 Add horizontal line*
21,1,$1,$2,0,0,$3*%
%AMFreePoly0*
4,1,24,2.735355,1.235355,2.750000,1.200000,2.750000,-0.800000,2.748029,-0.804757,2.749028,-0.809806,2.740927,-0.821903,2.735355,-0.835355,2.730600,-0.837325,2.727735,-0.841603,2.127735,-1.241603,2.113450,-1.244429,2.100000,-1.250000,0.300000,-1.250000,0.264645,-1.235355,0.250000,-1.200000,0.250000,-0.750000,-0.350000,-0.750000,-0.350000,0.750000,0.250000,0.750000,0.250000,1.200000,
0.264645,1.235355,0.300000,1.250000,2.700000,1.250000,2.735355,1.235355,2.735355,1.235355,$1*%
%AMFreePoly1*
4,1,17,-0.364645,1.235355,-0.350000,1.200000,-0.350000,0.750000,0.350000,0.750000,0.350000,-0.750000,-0.350000,-0.750000,-0.350000,-1.200000,-0.364645,-1.235355,-0.400000,-1.250000,-2.800000,-1.250000,-2.835355,-1.235355,-2.850000,-1.200000,-2.850000,1.200000,-2.835355,1.235355,-2.800000,1.250000,-0.400000,1.250000,-0.364645,1.235355,-0.364645,1.235355,$1*%
G04 Aperture macros list end*
%TA.AperFunction,EtchedComponent*%
%ADD10C,0.100000*%
%TD*%
%TA.AperFunction,SMDPad,CuDef*%
%ADD11R,2.000000X1.000000*%
%TD*%
%TA.AperFunction,ComponentPad*%
%ADD12R,1.800000X1.500000*%
%TD*%
%TA.AperFunction,SMDPad,CuDef*%
%ADD13FreePoly0,0.000000*%
%TD*%
%TA.AperFunction,SMDPad,CuDef*%
%ADD14R,2.000000X2.000000*%
%TD*%
%TA.AperFunction,SMDPad,CuDef*%
%ADD15R,1.800000X2.000000*%
%TD*%
%TA.AperFunction,SMDPad,CuDef*%
%ADD16FreePoly1,0.000000*%
%TD*%
%TA.AperFunction,ComponentPad*%
%ADD17C,4.700000*%
%TD*%
%TA.AperFunction,ComponentPad*%
%ADD18C,2.000000*%
%TD*%
%TA.AperFunction,ComponentPad*%
%ADD19C,1.397000*%
%TD*%
%TA.AperFunction,SMDPad,CuDef*%
%ADD20R,0.635000X1.143000*%
%TD*%
%TA.AperFunction,SMDPad,CuDef*%
%ADD21R,1.143000X0.635000*%
%TD*%
%TA.AperFunction,ComponentPad*%
%ADD22C,4.000000*%
%TD*%
%TA.AperFunction,SMDPad,CuDef*%
%ADD23RotRect,2.000000X2.000000X120.000000*%
%TD*%
%TA.AperFunction,SMDPad,CuDef*%
%ADD24FreePoly0,300.000000*%
%TD*%
%TA.AperFunction,SMDPad,CuDef*%
%ADD25FreePoly1,300.000000*%
%TD*%
%TA.AperFunction,SMDPad,CuDef*%
%ADD26RotRect,1.800000X2.000000X120.000000*%
%TD*%
%TA.AperFunction,ComponentPad*%
%ADD27R,1.524000X1.524000*%
%TD*%
%TA.AperFunction,ComponentPad*%
%ADD28RotRect,1.800000X1.500000X300.000000*%
%TD*%
%TA.AperFunction,ComponentPad*%
%ADD29O,2.500000X1.700000*%
%TD*%
%TA.AperFunction,ComponentPad*%
%ADD30C,1.524000*%
%TD*%
%TA.AperFunction,ComponentPad*%
%ADD31R,3.200000X2.000000*%
%TD*%
%TA.AperFunction,SMDPad,CuDef*%
%ADD32RotRect,2.000000X2.000000X195.000000*%
%TD*%
%TA.AperFunction,SMDPad,CuDef*%
%ADD33FreePoly0,15.000000*%
%TD*%
%TA.AperFunction,SMDPad,CuDef*%
%ADD34FreePoly1,15.000000*%
%TD*%
%TA.AperFunction,SMDPad,CuDef*%
%ADD35RotRect,1.800000X2.000000X195.000000*%
%TD*%
%TA.AperFunction,SMDPad,CuDef*%
%ADD36R,1.100000X0.300000*%
%TD*%
%TA.AperFunction,SMDPad,CuDef*%
%ADD37R,3.100000X2.300000*%
%TD*%
%TA.AperFunction,ViaPad*%
%ADD38C,0.400000*%
%TD*%
%TA.AperFunction,Conductor*%
%ADD39C,0.250000*%
%TD*%
%TA.AperFunction,Conductor*%
%ADD40C,0.500000*%
%TD*%
%TA.AperFunction,Conductor*%
%ADD41C,0.200000*%
%TD*%
G04 APERTURE END LIST*
D10*
%TO.C,W1*%
X83531100Y-81739600D02*
X83931100Y-81739600D01*
X83931100Y-81739600D02*
X83931100Y-82039600D01*
X83931100Y-82039600D02*
X83531100Y-82039600D01*
X83531100Y-82039600D02*
X83531100Y-81739600D01*
G36*
X83931100Y-82039600D02*
G01*
X83531100Y-82039600D01*
X83531100Y-81739600D01*
X83931100Y-81739600D01*
X83931100Y-82039600D01*
G37*
X83931100Y-82039600D02*
X83531100Y-82039600D01*
X83531100Y-81739600D01*
X83931100Y-81739600D01*
X83931100Y-82039600D01*
%TD*%
D11*
%TO.P,D35,1*%
%TO.N,N/C*%
X169281200Y-82726500D03*
%TO.P,D35,2*%
X169281200Y-80976500D03*
%TO.P,D35,3*%
X164881200Y-80976500D03*
%TO.P,D35,4*%
X164881200Y-82726500D03*
%TD*%
D12*
%TO.P,D20,1*%
%TO.N,N/C*%
X121649300Y-102235600D03*
%TO.P,D20,2*%
X125049300Y-102235600D03*
%TD*%
%TO.P,D2,1*%
%TO.N,N/C*%
X120814400Y-61503900D03*
%TO.P,D2,2*%
X124214400Y-61503900D03*
%TD*%
D13*
%TO.P,SW1,1*%
%TO.N,N/C*%
X102759000Y-51211900D03*
D14*
X118059000Y-60011900D03*
D15*
%TO.P,SW1,2*%
X107159000Y-62211900D03*
D16*
X118459000Y-53811900D03*
%TD*%
D13*
%TO.P,SW24,1*%
%TO.N,N/C*%
X198009000Y-112211900D03*
D14*
X213309000Y-121011900D03*
D15*
%TO.P,SW24,2*%
X202409000Y-123211900D03*
D16*
X213709000Y-114811900D03*
%TD*%
D12*
%TO.P,D10,1*%
%TO.N,N/C*%
X157176200Y-63360900D03*
%TO.P,D10,2*%
X160576200Y-63360900D03*
%TD*%
D17*
%TO.P,TH5,*%
%TO.N,*%
X117827100Y-103670600D03*
%TD*%
D12*
%TO.P,D26,1*%
%TO.N,N/C*%
X111990400Y-124510800D03*
%TO.P,D26,2*%
X115390400Y-124510800D03*
%TD*%
%TO.P,D14,1*%
%TO.N,N/C*%
X120649300Y-99235600D03*
%TO.P,D14,2*%
X124049300Y-99235600D03*
%TD*%
%TO.P,D4,1*%
%TO.N,N/C*%
X157176200Y-60260900D03*
%TO.P,D4,2*%
X160576200Y-60260900D03*
%TD*%
%TO.P,D13,1*%
%TO.N,N/C*%
X101473200Y-101880100D03*
%TO.P,D13,2*%
X104873200Y-101880100D03*
%TD*%
D13*
%TO.P,SW3,1*%
%TO.N,N/C*%
X140859000Y-46421900D03*
D14*
X156159000Y-55221900D03*
D15*
%TO.P,SW3,2*%
X145259000Y-57421900D03*
D16*
X156559000Y-49021900D03*
%TD*%
D12*
%TO.P,D1,1*%
%TO.N,N/C*%
X102159000Y-64311900D03*
%TO.P,D1,2*%
X105559000Y-64311900D03*
%TD*%
%TO.P,D7,1*%
%TO.N,N/C*%
X102159000Y-67411900D03*
%TO.P,D7,2*%
X105559000Y-67411900D03*
%TD*%
D18*
%TO.P,RSW1,1*%
%TO.N,N/C*%
X82461100Y-83873200D03*
%TO.P,RSW1,2*%
X82461100Y-90373200D03*
%TD*%
D19*
%TO.P,R2,1*%
%TO.N,N/C*%
X86291772Y-87510765D03*
%TO.P,R2,2*%
X91371772Y-87510765D03*
%TD*%
D12*
%TO.P,D6,1*%
%TO.N,N/C*%
X209546300Y-68162700D03*
%TO.P,D6,2*%
X212946300Y-68162700D03*
%TD*%
D20*
%TO.P,W1,1*%
%TO.N,N/C*%
X83230720Y-81889600D03*
%TO.P,W1,2*%
X84231480Y-81889600D03*
%TD*%
D12*
%TO.P,D5,1*%
%TO.N,N/C*%
X178397100Y-66699200D03*
%TO.P,D5,2*%
X181797100Y-66699200D03*
%TD*%
%TO.P,D3,1*%
%TO.N,N/C*%
X138239700Y-59318100D03*
%TO.P,D3,2*%
X141639700Y-59318100D03*
%TD*%
D21*
%TO.P,JP4,1*%
%TO.N,N/C*%
X86146300Y-79185680D03*
%TO.P,JP4,2*%
X86146300Y-78184920D03*
%TD*%
D12*
%TO.P,D12,1*%
%TO.N,N/C*%
X209546300Y-71262700D03*
%TO.P,D12,2*%
X212946300Y-71262700D03*
%TD*%
%TO.P,D9,1*%
%TO.N,N/C*%
X138339700Y-62518100D03*
%TO.P,D9,2*%
X141739700Y-62518100D03*
%TD*%
%TO.P,D11,1*%
%TO.N,N/C*%
X178397100Y-69599200D03*
%TO.P,D11,2*%
X181797100Y-69599200D03*
%TD*%
D22*
%TO.P,TH5,*%
%TO.N,*%
X192519300Y-67881500D03*
%TD*%
%TO.P,TH7,*%
%TO.N,*%
X153530300Y-98640900D03*
%TD*%
%TO.P,TH3,*%
%TO.N,*%
X100990400Y-126949200D03*
%TD*%
D11*
%TO.P,D36,1*%
%TO.N,N/C*%
X188445500Y-88492300D03*
%TO.P,D36,2*%
X188445500Y-86742300D03*
%TO.P,D36,3*%
X184045500Y-86742300D03*
%TO.P,D36,4*%
X184045500Y-88492300D03*
%TD*%
D22*
%TO.P,TH6,*%
%TO.N,*%
X113474500Y-65849500D03*
%TD*%
D23*
%TO.P,SW25,1*%
%TO.N,N/C*%
X97284706Y-147756706D03*
D24*
X97255730Y-130106517D03*
D25*
%TO.P,SW25,2*%
X102854064Y-145003116D03*
D26*
X89929450Y-139417029D03*
%TD*%
D22*
%TO.P,TH4,*%
%TO.N,*%
X194856100Y-124968000D03*
%TD*%
D27*
%TO.P,LED,1*%
%TO.N,N/C*%
X97548700Y-89355300D03*
%TO.P,LED,2*%
X97548700Y-86855300D03*
%TO.P,LED,3*%
X97548700Y-84255300D03*
%TD*%
%TO.P,LED,1*%
%TO.N,N/C*%
X202844400Y-88734900D03*
%TO.P,LED,2*%
X200344400Y-88734900D03*
%TO.P,LED,3*%
X197744400Y-88734900D03*
%TD*%
D22*
%TO.P,TH1,*%
%TO.N,*%
X82473800Y-102831900D03*
%TD*%
D12*
%TO.P,D27,1*%
%TO.N,N/C*%
X128715900Y-120918100D03*
%TO.P,D27,2*%
X132115900Y-120918100D03*
%TD*%
%TO.P,D15,1*%
%TO.N,N/C*%
X139484300Y-97062500D03*
%TO.P,D15,2*%
X142884300Y-97062500D03*
%TD*%
%TO.P,D31,1*%
%TO.N,N/C*%
X90750000Y-103575000D03*
%TO.P,D31,2*%
X94150000Y-103575000D03*
%TD*%
D28*
%TO.P,D25,1*%
%TO.N,N/C*%
X104190800Y-122516900D03*
%TO.P,D25,2*%
X105890800Y-125461386D03*
%TD*%
D22*
%TO.P,TH2,*%
%TO.N,*%
X96824800Y-96824800D03*
%TD*%
D12*
%TO.P,D22,1*%
%TO.N,N/C*%
X157214300Y-101410100D03*
%TO.P,D22,2*%
X160614300Y-101410100D03*
%TD*%
%TO.P,D16,1*%
%TO.N,N/C*%
X157214300Y-98210100D03*
%TO.P,D16,2*%
X160614300Y-98210100D03*
%TD*%
%TO.P,D18,1*%
%TO.N,N/C*%
X209546300Y-106262700D03*
%TO.P,D18,2*%
X212946300Y-106262700D03*
%TD*%
D13*
%TO.P,SW29,1*%
%TO.N,N/C*%
X169459000Y-129977200D03*
D14*
X184759000Y-138777200D03*
D16*
%TO.P,SW29,2*%
X185159000Y-132577200D03*
D15*
X173859000Y-140977200D03*
%TD*%
D12*
%TO.P,D28,1*%
%TO.N,N/C*%
X147739700Y-120918100D03*
%TO.P,D28,2*%
X151139700Y-120918100D03*
%TD*%
%TO.P,D24,1*%
%TO.N,N/C*%
X209646300Y-109462700D03*
%TO.P,D24,2*%
X213046300Y-109462700D03*
%TD*%
%TO.P,D17,1*%
%TO.N,N/C*%
X178397100Y-104599200D03*
%TO.P,D17,2*%
X181797100Y-104599200D03*
%TD*%
%TO.P,D23,1*%
%TO.N,N/C*%
X178397100Y-107799200D03*
%TO.P,D23,2*%
X181797100Y-107799200D03*
%TD*%
D13*
%TO.P,SW30,1*%
%TO.N,N/C*%
X188509000Y-131477200D03*
D14*
X203809000Y-140277200D03*
D15*
%TO.P,SW30,2*%
X192909000Y-142477200D03*
D16*
X204209000Y-134077200D03*
%TD*%
D12*
%TO.P,D21,1*%
%TO.N,N/C*%
X139484300Y-100162500D03*
%TO.P,D21,2*%
X142884300Y-100162500D03*
%TD*%
D19*
%TO.P,J3,1*%
%TO.N,N/C*%
X86146300Y-83985300D03*
%TO.P,J3,2*%
X88686300Y-83985300D03*
%TO.P,J3,3*%
X91226300Y-83985300D03*
%TO.P,J3,4*%
X93766300Y-83985300D03*
%TD*%
D12*
%TO.P,D19,1*%
%TO.N,N/C*%
X101473200Y-104980100D03*
%TO.P,D19,2*%
X104873200Y-104980100D03*
%TD*%
D14*
%TO.P,SW21,1*%
%TO.N,N/C*%
X156159000Y-112411900D03*
D13*
X140859000Y-103611900D03*
D16*
%TO.P,SW21,2*%
X156559000Y-106211900D03*
D15*
X145259000Y-114611900D03*
%TD*%
D13*
%TO.P,SW20,1*%
%TO.N,N/C*%
X121759000Y-105511900D03*
D14*
X137059000Y-114311900D03*
D16*
%TO.P,SW20,2*%
X137459000Y-108111900D03*
D15*
X126159000Y-116511900D03*
%TD*%
D14*
%TO.P,SW23,1*%
%TO.N,N/C*%
X194259000Y-119511900D03*
D13*
X178959000Y-110711900D03*
D16*
%TO.P,SW23,2*%
X194659000Y-113311900D03*
D15*
X183359000Y-121711900D03*
%TD*%
D13*
%TO.P,SW27,1*%
%TO.N,N/C*%
X131259000Y-124461900D03*
D14*
X146559000Y-133261900D03*
D16*
%TO.P,SW27,2*%
X146959000Y-127061900D03*
D15*
X135659000Y-135461900D03*
%TD*%
D14*
%TO.P,SW17,1*%
%TO.N,N/C*%
X194259000Y-100511900D03*
D13*
X178959000Y-91711900D03*
D16*
%TO.P,SW17,2*%
X194659000Y-94311900D03*
D15*
X183359000Y-102711900D03*
%TD*%
D13*
%TO.P,SW15,1*%
%TO.N,N/C*%
X140859000Y-84611900D03*
D14*
X156159000Y-93411900D03*
D15*
%TO.P,SW15,2*%
X145259000Y-95611900D03*
D16*
X156559000Y-87211900D03*
%TD*%
D13*
%TO.P,SW14,1*%
%TO.N,N/C*%
X121759000Y-86411900D03*
D14*
X137059000Y-95211900D03*
D15*
%TO.P,SW14,2*%
X126159000Y-97411900D03*
D16*
X137459000Y-89011900D03*
%TD*%
D29*
%TO.P,J2,1*%
%TO.N,N/C*%
X90718100Y-99152000D03*
X90718100Y-93202000D03*
%TO.P,J2,2*%
X86718100Y-93202000D03*
X86718100Y-99152000D03*
%TO.P,J2,3*%
X83718100Y-99152000D03*
X83718100Y-93202000D03*
%TO.P,J2,4*%
X92218100Y-94952000D03*
X92218100Y-97402000D03*
%TD*%
D30*
%TO.P,U1,1*%
%TO.N,N/C*%
X98165115Y-51811045D03*
X81626300Y-50615300D03*
%TO.P,U1,2*%
X98165115Y-54351045D03*
X81626300Y-53155300D03*
%TO.P,U1,3*%
X81626300Y-55695300D03*
X98165115Y-56891045D03*
%TO.P,U1,4*%
X81626300Y-58235300D03*
X98165115Y-59431045D03*
%TO.P,U1,5*%
X98165115Y-61971045D03*
X81626300Y-60775300D03*
%TO.P,U1,6*%
X98165115Y-64511045D03*
X81626300Y-63315300D03*
%TO.P,U1,7*%
X98165115Y-67051045D03*
X81626300Y-65855300D03*
%TO.P,U1,8*%
X81626300Y-68395300D03*
X98165115Y-69591045D03*
%TO.P,U1,9*%
X98165115Y-72131045D03*
X81626300Y-70935300D03*
%TO.P,U1,10*%
X98165115Y-74671045D03*
X81626300Y-73475300D03*
%TO.P,U1,11*%
X98165115Y-77211045D03*
X81626300Y-76015300D03*
%TO.P,U1,12*%
X98165115Y-79751045D03*
X81626300Y-78555300D03*
%TO.P,U1,13*%
X96866300Y-78555300D03*
X82925115Y-79751045D03*
%TO.P,U1,14*%
X82925115Y-77211045D03*
X96866300Y-76015300D03*
%TO.P,U1,15*%
X82925115Y-74671045D03*
X96866300Y-73475300D03*
%TO.P,U1,16*%
X82925115Y-72131045D03*
X96866300Y-70935300D03*
%TO.P,U1,17*%
X96866300Y-68395300D03*
X82925115Y-69591045D03*
%TO.P,U1,18*%
X82925115Y-67051045D03*
X96866300Y-65855300D03*
%TO.P,U1,19*%
X82925115Y-64511045D03*
X96866300Y-63315300D03*
%TO.P,U1,20*%
X96866300Y-60775300D03*
X82925115Y-61971045D03*
%TO.P,U1,21*%
X82925115Y-59431045D03*
X96866300Y-58235300D03*
%TO.P,U1,22*%
X96866300Y-55695300D03*
X82925115Y-56891045D03*
%TO.P,U1,23*%
X82925115Y-54351045D03*
X96866300Y-53155300D03*
%TO.P,U1,24*%
X96866300Y-50615300D03*
X82925115Y-51811045D03*
%TD*%
D14*
%TO.P,SW16,1*%
%TO.N,N/C*%
X175159000Y-94711900D03*
D13*
X159859000Y-85911900D03*
D16*
%TO.P,SW16,2*%
X175559000Y-88511900D03*
D15*
X164259000Y-96911900D03*
%TD*%
D13*
%TO.P,SW28,1*%
%TO.N,N/C*%
X150359000Y-123961900D03*
D14*
X165659000Y-132761900D03*
D16*
%TO.P,SW28,2*%
X166059000Y-126561900D03*
D15*
X154759000Y-134961900D03*
%TD*%
D13*
%TO.P,SW19,1*%
%TO.N,N/C*%
X102759000Y-108311900D03*
D14*
X118059000Y-117111900D03*
D15*
%TO.P,SW19,2*%
X107159000Y-119311900D03*
D16*
X118459000Y-110911900D03*
%TD*%
D18*
%TO.P,SW31,A*%
%TO.N,N/C*%
X82416000Y-112409600D03*
%TO.P,SW31,B*%
X82416000Y-117409600D03*
%TO.P,SW31,C*%
X82416000Y-114909600D03*
D31*
%TO.P,SW31,MP*%
X89916000Y-109309600D03*
X89916000Y-120509600D03*
D18*
%TO.P,SW31,S1*%
X96916000Y-117409600D03*
%TO.P,SW31,S2*%
X96916000Y-112409600D03*
%TD*%
D13*
%TO.P,SW22,1*%
%TO.N,N/C*%
X159859000Y-105011900D03*
D14*
X175159000Y-113811900D03*
D15*
%TO.P,SW22,2*%
X164259000Y-116011900D03*
D16*
X175559000Y-107611900D03*
%TD*%
D32*
%TO.P,SW26,1*%
%TO.N,N/C*%
X126120630Y-134709391D03*
D33*
X109064357Y-130169175D03*
D34*
%TO.P,SW26,2*%
X124902322Y-128617124D03*
D35*
X116161440Y-139655556D03*
%TD*%
D13*
%TO.P,SW18,1*%
%TO.N,N/C*%
X197959000Y-93211900D03*
D14*
X213259000Y-102011900D03*
D16*
%TO.P,SW18,2*%
X213659000Y-95811900D03*
D15*
X202359000Y-104211900D03*
%TD*%
D17*
%TO.P,TH4,*%
%TO.N,*%
X197142100Y-69329300D03*
%TD*%
%TO.P,TH7,*%
%TO.N,*%
X94800000Y-125875000D03*
%TD*%
D11*
%TO.P,D33,1*%
%TO.N,N/C*%
X131244700Y-83298000D03*
%TO.P,D33,2*%
X131244700Y-81548000D03*
%TO.P,D33,3*%
X126844700Y-81548000D03*
%TO.P,D33,4*%
X126844700Y-83298000D03*
%TD*%
D17*
%TO.P,TH3,*%
%TO.N,*%
X118055700Y-65048300D03*
%TD*%
D11*
%TO.P,D32,1*%
%TO.N,N/C*%
X112133600Y-86194100D03*
%TO.P,D32,2*%
X112133600Y-84444100D03*
%TO.P,D32,3*%
X107733600Y-84444100D03*
%TO.P,D32,4*%
X107733600Y-86194100D03*
%TD*%
D12*
%TO.P,D29,1*%
%TO.N,N/C*%
X168913600Y-123710700D03*
%TO.P,D29,2*%
X172313600Y-123710700D03*
%TD*%
%TO.P,D8,1*%
%TO.N,N/C*%
X121814400Y-64503900D03*
%TO.P,D8,2*%
X125214400Y-64503900D03*
%TD*%
%TO.P,D30,1*%
%TO.N,N/C*%
X185954800Y-126607700D03*
%TO.P,D30,2*%
X189354800Y-126607700D03*
%TD*%
D11*
%TO.P,D34,1*%
%TO.N,N/C*%
X150320100Y-81380300D03*
%TO.P,D34,2*%
X150320100Y-79630300D03*
%TO.P,D34,3*%
X145920100Y-79630300D03*
%TO.P,D34,4*%
X145920100Y-81380300D03*
%TD*%
D21*
%TO.P,JP3,1*%
%TO.N,N/C*%
X88646300Y-79185680D03*
%TO.P,JP3,2*%
X88646300Y-78184920D03*
%TD*%
D13*
%TO.P,SW12,1*%
%TO.N,N/C*%
X197959000Y-74011900D03*
D14*
X213259000Y-82811900D03*
D16*
%TO.P,SW12,2*%
X213659000Y-76611900D03*
D15*
X202359000Y-85011900D03*
%TD*%
D19*
%TO.P,R1,1*%
%TO.N,N/C*%
X86291772Y-89760765D03*
%TO.P,R1,2*%
X91371772Y-89760765D03*
%TD*%
D14*
%TO.P,SW8,1*%
%TO.N,N/C*%
X137059000Y-76211900D03*
D13*
X121759000Y-67411900D03*
D16*
%TO.P,SW8,2*%
X137459000Y-70011900D03*
D15*
X126159000Y-78411900D03*
%TD*%
D14*
%TO.P,SW5,1*%
%TO.N,N/C*%
X194259000Y-62411900D03*
D13*
X178959000Y-53611900D03*
D16*
%TO.P,SW5,2*%
X194659000Y-56211900D03*
D15*
X183359000Y-64611900D03*
%TD*%
D14*
%TO.P,SW10,1*%
%TO.N,N/C*%
X175159000Y-75611900D03*
D13*
X159859000Y-66811900D03*
D15*
%TO.P,SW10,2*%
X164259000Y-77811900D03*
D16*
X175559000Y-69411900D03*
%TD*%
D21*
%TO.P,JP1,1*%
%TO.N,N/C*%
X93746300Y-79185680D03*
%TO.P,JP1,2*%
X93746300Y-78184920D03*
%TD*%
D14*
%TO.P,SW7,1*%
%TO.N,N/C*%
X118059000Y-79111900D03*
D13*
X102759000Y-70311900D03*
D15*
%TO.P,SW7,2*%
X107159000Y-81311900D03*
D16*
X118459000Y-72911900D03*
%TD*%
D13*
%TO.P,SW9,1*%
%TO.N,N/C*%
X140859000Y-65511900D03*
D14*
X156159000Y-74311900D03*
D16*
%TO.P,SW9,2*%
X156559000Y-68111900D03*
D15*
X145259000Y-76511900D03*
%TD*%
D14*
%TO.P,SW6,1*%
%TO.N,N/C*%
X213259000Y-63911900D03*
D13*
X197959000Y-55111900D03*
D16*
%TO.P,SW6,2*%
X213659000Y-57711900D03*
D15*
X202359000Y-66111900D03*
%TD*%
D14*
%TO.P,SW4,1*%
%TO.N,N/C*%
X175159000Y-56611900D03*
D13*
X159859000Y-47811900D03*
D15*
%TO.P,SW4,2*%
X164259000Y-58811900D03*
D16*
X175559000Y-50411900D03*
%TD*%
D19*
%TO.P,P2,1*%
%TO.N,N/C*%
X93492500Y-87548800D03*
%TD*%
D21*
%TO.P,JP2,1*%
%TO.N,N/C*%
X91146300Y-79185680D03*
%TO.P,JP2,2*%
X91146300Y-78184920D03*
%TD*%
D17*
%TO.P,TH6,*%
%TO.N,*%
X196846500Y-107366000D03*
%TD*%
D14*
%TO.P,SW11,1*%
%TO.N,N/C*%
X194259000Y-81311900D03*
D13*
X178959000Y-72511900D03*
D15*
%TO.P,SW11,2*%
X183359000Y-83511900D03*
D16*
X194659000Y-75111900D03*
%TD*%
D14*
%TO.P,SW2,1*%
%TO.N,N/C*%
X137059000Y-57111900D03*
D13*
X121759000Y-48311900D03*
D15*
%TO.P,SW2,2*%
X126159000Y-59311900D03*
D16*
X137459000Y-50911900D03*
%TD*%
D13*
%TO.P,SW13,1*%
%TO.N,N/C*%
X102759000Y-89311900D03*
D14*
X118059000Y-98111900D03*
D15*
%TO.P,SW13,2*%
X107159000Y-100311900D03*
D16*
X118459000Y-91911900D03*
%TD*%
D19*
%TO.P,P1,1*%
%TO.N,N/C*%
X93492500Y-89748800D03*
%TD*%
D36*
%TO.P,JOYSTICK,1*%
%TO.N,N/C*%
X88425000Y-126045000D03*
%TO.P,JOYSTICK,2*%
X88425000Y-126545000D03*
%TO.P,JOYSTICK,3*%
X88425000Y-127045000D03*
%TO.P,JOYSTICK,4*%
X88425000Y-127545000D03*
%TO.P,JOYSTICK,5*%
X88425000Y-128045000D03*
D37*
%TO.P,JOYSTICK,MP*%
X86725000Y-129715000D03*
X86725000Y-124375000D03*
%TD*%
D18*
%TO.P,,J1*%
%TO.N,N/C*%
X97775000Y-105175000D03*
%TD*%
D38*
%TO.N,*%
X124790200Y-133057900D03*
X121259600Y-136601200D03*
X94786833Y-76457469D03*
X105181400Y-143751300D03*
X118097300Y-51104800D03*
X95059000Y-74585300D03*
X112721700Y-60207494D03*
X107924600Y-130949700D03*
X165735000Y-123875800D03*
X137147300Y-86334600D03*
X194297300Y-53505100D03*
X213309200Y-55041800D03*
X156260800Y-46316900D03*
X95159000Y-71285300D03*
X146621500Y-124396500D03*
X137261600Y-48234600D03*
X95158992Y-66085300D03*
X169808200Y-75815794D03*
X86359000Y-58185300D03*
X187642500Y-131484800D03*
X112721700Y-79308294D03*
X131644700Y-76438094D03*
X137020300Y-67335400D03*
X118097300Y-89230200D03*
X175183800Y-66713100D03*
X188921700Y-62607794D03*
X207895500Y-83003994D03*
X188985200Y-100720494D03*
X95159000Y-73385300D03*
X131720900Y-114550794D03*
X131771700Y-95437294D03*
X156184600Y-103530400D03*
X188909000Y-119732394D03*
X150885200Y-55419594D03*
X150809000Y-93608494D03*
X213347300Y-112128300D03*
X207971700Y-121230994D03*
X141245900Y-133499194D03*
X175221900Y-47701200D03*
X156184600Y-84505800D03*
X194360800Y-91617800D03*
X118148100Y-108216700D03*
X169782800Y-94916594D03*
X86159000Y-77185300D03*
X86359000Y-54351045D03*
X194284600Y-110629700D03*
X95159000Y-68385300D03*
X124409200Y-126479300D03*
X188959800Y-81518094D03*
X175158400Y-104940100D03*
X131886000Y-57337294D03*
X194335400Y-72415400D03*
X207933600Y-64144494D03*
X169846300Y-56803894D03*
X169782800Y-114042794D03*
X150809000Y-112633094D03*
X175158400Y-85813900D03*
X150847100Y-74533094D03*
X118097300Y-70205600D03*
X89859008Y-78185300D03*
X89859000Y-59431045D03*
X207946300Y-102257194D03*
X203898500Y-138342800D03*
X213309200Y-119075200D03*
X213283800Y-100101400D03*
X156222700Y-65430400D03*
X213321900Y-93154500D03*
X213271100Y-73901300D03*
X112772500Y-117319394D03*
X160359400Y-132978494D03*
X137096500Y-105448100D03*
X112721700Y-98332894D03*
X175120300Y-92760800D03*
X213271100Y-61988700D03*
X175120300Y-111887000D03*
X175183800Y-54648100D03*
X93759000Y-73960300D03*
X177990500Y-110718600D03*
X146583400Y-131343400D03*
X156222700Y-53263800D03*
X92634000Y-69591045D03*
X130327400Y-124485400D03*
X156146500Y-110477300D03*
X139890500Y-103619300D03*
X168490900Y-129986200D03*
X98933000Y-146507200D03*
X94272100Y-143154400D03*
X137223500Y-55181500D03*
X178041300Y-72504300D03*
X175145700Y-73660000D03*
X120726200Y-67424300D03*
X197015100Y-55130700D03*
X156184600Y-72377300D03*
X158889700Y-66802000D03*
X85509000Y-77191147D03*
X184746900Y-136844200D03*
X139890500Y-84594700D03*
X196977000Y-73990200D03*
X194246500Y-117576600D03*
X93159000Y-72131045D03*
X137109200Y-93281500D03*
X194259200Y-60452000D03*
X156146500Y-91452700D03*
X95059000Y-60785300D03*
X92459000Y-78185300D03*
X120967500Y-48323500D03*
X95159018Y-63585300D03*
X90659000Y-63285300D03*
X178066700Y-91706700D03*
X158864300Y-105029000D03*
X92559000Y-77285300D03*
X120853200Y-86423500D03*
X120802400Y-105537000D03*
X85559000Y-60775300D03*
X179409400Y-138999994D03*
X95159000Y-53385300D03*
X158927800Y-47790100D03*
X92134000Y-67051045D03*
X194297300Y-79362300D03*
X139966700Y-46405800D03*
X197053200Y-112217200D03*
X139928600Y-65519300D03*
X178003200Y-53594000D03*
X149440900Y-123964700D03*
X96393000Y-128790700D03*
X136982200Y-74282300D03*
X194322700Y-98564700D03*
X137058400Y-112395000D03*
X95159006Y-50985300D03*
X158864300Y-85902800D03*
X184785000Y-129897300D03*
X94459000Y-75385300D03*
X84259000Y-79985300D03*
X213233000Y-80848200D03*
X197027800Y-93243400D03*
X165696900Y-130822700D03*
X166548900Y-80990606D03*
X110450800Y-86179494D03*
X91333255Y-64511045D03*
X101803200Y-51193700D03*
X118059200Y-58051700D03*
X106058800Y-86121406D03*
X182360400Y-88432806D03*
X128512400Y-81562106D03*
X118059200Y-77152500D03*
X101053900Y-82334100D03*
X118059200Y-96177100D03*
X101041200Y-88188800D03*
X84559000Y-53585300D03*
X101803200Y-89319100D03*
X147587800Y-79644406D03*
X125159600Y-83238506D03*
X198561000Y-140498594D03*
X203936600Y-131395900D03*
X101053900Y-85369400D03*
X101803200Y-70294500D03*
X144235000Y-81320806D03*
X190120100Y-86743706D03*
X151994700Y-79631706D03*
X101854000Y-108305600D03*
X87973255Y-61971045D03*
X109411600Y-84445006D03*
X99733100Y-70967600D03*
X118110000Y-115163600D03*
X113818500Y-84432306D03*
X163196100Y-82667006D03*
X170955800Y-80977906D03*
X185713200Y-86756406D03*
X132919300Y-81549406D03*
X88300000Y-107500000D03*
X88325000Y-103675000D03*
%TD*%
D39*
%TO.N,*%
X184175400Y-66725800D02*
X182956200Y-67945000D01*
X192354200Y-63969900D02*
X189598300Y-66725800D01*
X194614800Y-63969900D02*
X192354200Y-63969900D01*
X195910200Y-65265300D02*
X194614800Y-63969900D01*
X179642900Y-67945000D02*
X178397100Y-66699200D01*
X209546300Y-68162700D02*
X201614300Y-68162700D01*
X194424300Y-64427100D02*
X192595500Y-64427100D01*
X192595500Y-64427100D02*
X189788800Y-67233800D01*
X178397100Y-68599200D02*
X178397100Y-69599200D01*
X206896310Y-68612710D02*
X201427900Y-68612710D01*
X110432356Y-124139657D02*
X110432356Y-124122956D01*
X199188501Y-65736901D02*
X199175801Y-65736901D01*
X201614300Y-68162700D02*
X199188501Y-65736901D01*
X201427900Y-68612710D02*
X199002101Y-66186911D01*
X199002101Y-66186911D02*
X198978111Y-66186911D01*
X102159000Y-65311900D02*
X102576790Y-65729690D01*
X198978111Y-66186911D02*
X198513700Y-65722500D01*
X183217391Y-68395009D02*
X178601291Y-68395009D01*
X109715300Y-123405900D02*
X109702600Y-123405900D01*
X108813600Y-122516900D02*
X104190800Y-122516900D01*
X102159000Y-64311900D02*
X102159000Y-65311900D01*
X120814400Y-61503900D02*
X116473900Y-61503900D01*
X110432356Y-124122956D02*
X109715300Y-123405900D01*
X198704200Y-65265300D02*
X195910200Y-65265300D01*
X199175801Y-65736901D02*
X198704200Y-65265300D01*
X198513700Y-65722500D02*
X195719700Y-65722500D01*
X109702600Y-123405900D02*
X108813600Y-122516900D01*
X189598300Y-66725800D02*
X184175400Y-66725800D01*
X182956200Y-67945000D02*
X179642900Y-67945000D01*
D40*
X183807600Y-89445600D02*
X193445900Y-89445600D01*
X95259000Y-85885300D02*
X95613500Y-85885300D01*
X102082600Y-87147400D02*
X101041200Y-88188800D01*
D39*
X184378600Y-67233800D02*
X183217391Y-68395009D01*
X121425300Y-64503900D02*
X121814400Y-64503900D01*
D40*
X104355900Y-87147400D02*
X102082600Y-87147400D01*
D39*
X104457500Y-85369400D02*
X105209506Y-86121406D01*
X101053900Y-85369400D02*
X104457500Y-85369400D01*
X116674900Y-61950600D02*
X118872000Y-61950600D01*
X195719700Y-65722500D02*
X194424300Y-64427100D01*
X103391200Y-66179700D02*
X109816900Y-66179700D01*
X115925600Y-62699900D02*
X116674900Y-61950600D01*
X95613500Y-85885300D02*
X95618300Y-85890100D01*
X113131600Y-62166500D02*
X109568410Y-65729690D01*
D40*
X195072000Y-91071700D02*
X195935600Y-91071700D01*
X96200600Y-89355300D02*
X97548700Y-89355300D01*
X97548700Y-84255300D02*
X97548700Y-82905600D01*
D39*
X115811300Y-62166500D02*
X113131600Y-62166500D01*
D40*
X95618300Y-85890100D02*
X95618300Y-88773000D01*
D39*
X118872000Y-61950600D02*
X121425300Y-64503900D01*
D40*
X95618300Y-88773000D02*
X96200600Y-89355300D01*
D39*
X200344400Y-89558500D02*
X200344400Y-88734900D01*
X189788800Y-67233800D02*
X184378600Y-67233800D01*
X178601291Y-68395009D02*
X178397100Y-68599200D01*
X102576790Y-65729690D02*
X109568410Y-65729690D01*
X116473900Y-61503900D02*
X115811300Y-62166500D01*
X121107800Y-64503900D02*
X121814400Y-64503900D01*
X109816900Y-66179700D02*
X113296700Y-62699900D01*
X209546300Y-71262700D02*
X206896310Y-68612710D01*
X113296700Y-62699900D02*
X115925600Y-62699900D01*
D40*
X187884300Y-85788000D02*
X195751900Y-85788000D01*
X193445900Y-89445600D02*
X195072000Y-91071700D01*
D39*
X102159000Y-67411900D02*
X103391200Y-66179700D01*
D40*
X97548700Y-82905600D02*
X96977200Y-82334100D01*
D39*
X139484300Y-98062500D02*
X139821400Y-98399600D01*
X145161000Y-97701100D02*
X150190200Y-97701100D01*
X156985100Y-101180900D02*
X157214300Y-101410100D01*
X157214300Y-96863900D02*
X157214300Y-98210100D01*
X140739200Y-98907600D02*
X144043400Y-98907600D01*
X193068106Y-86743706D02*
X196557900Y-90233500D01*
X139484300Y-97062500D02*
X139484300Y-98062500D01*
X190120100Y-86743706D02*
X193068106Y-86743706D01*
D40*
X202844400Y-90220800D02*
X202844400Y-88734900D01*
D39*
X144043400Y-98907600D02*
X146316700Y-101180900D01*
X199669400Y-90233500D02*
X200344400Y-89558500D01*
X152069800Y-95821500D02*
X156171900Y-95821500D01*
D40*
X201993500Y-91071700D02*
X202844400Y-90220800D01*
D39*
X146316700Y-101180900D02*
X156985100Y-101180900D01*
X150190200Y-97701100D02*
X152069800Y-95821500D01*
X196557900Y-90233500D02*
X199669400Y-90233500D01*
D40*
X195751900Y-85788000D02*
X195947800Y-85788000D01*
X197744400Y-87584600D02*
X197744400Y-88734900D01*
D39*
X156171900Y-95821500D02*
X157214300Y-96863900D01*
D40*
X195947800Y-85788000D02*
X197744400Y-87584600D01*
X195935600Y-91071700D02*
X201993500Y-91071700D01*
D39*
X144462500Y-98399600D02*
X145161000Y-97701100D01*
X139821400Y-98399600D02*
X144462500Y-98399600D01*
D40*
X110679700Y-84430400D02*
X110439200Y-84670900D01*
X112128800Y-84430400D02*
X110679700Y-84430400D01*
X114122200Y-83489800D02*
X114452400Y-83489800D01*
D39*
X126844700Y-84241000D02*
X126834400Y-84251300D01*
D40*
X126844700Y-83298000D02*
X126844700Y-84241000D01*
X184045500Y-89207700D02*
X183807600Y-89445600D01*
D39*
X145920100Y-82331200D02*
X145922500Y-82333600D01*
D40*
X182014000Y-89445600D02*
X183807600Y-89445600D01*
X162849700Y-83679800D02*
X164897300Y-83679800D01*
X145920100Y-81380300D02*
X145920100Y-82331200D01*
X164881200Y-82726500D02*
X164881200Y-83663700D01*
X118554500Y-87147400D02*
X118745000Y-86956900D01*
X115328700Y-87147400D02*
X118554500Y-87147400D01*
X114452400Y-83489800D02*
X116789200Y-81153000D01*
X145922500Y-82333600D02*
X153515200Y-82333600D01*
X143888600Y-82333600D02*
X145922500Y-82333600D01*
D39*
X164881200Y-83663700D02*
X164897300Y-83679800D01*
D40*
X109182700Y-86194100D02*
X109423200Y-85953600D01*
X110439200Y-84670900D02*
X110439200Y-86182200D01*
X124813200Y-84251300D02*
X126834400Y-84251300D01*
X164897300Y-83679800D02*
X172476300Y-83679800D01*
X126834400Y-84251300D02*
X134439800Y-84251300D01*
X184045500Y-88492300D02*
X184045500Y-89207700D01*
X109423200Y-85953600D02*
X109423200Y-84442300D01*
X107733600Y-86194100D02*
X109182700Y-86194100D01*
X147358900Y-81393500D02*
X147599400Y-81153000D01*
D39*
X113589600Y-86181400D02*
X113830100Y-85940900D01*
X106032300Y-84632800D02*
X106032300Y-86144100D01*
D40*
X131229600Y-81547500D02*
X129780500Y-81547500D01*
X128283500Y-83311200D02*
X128524000Y-83070700D01*
D39*
X169277800Y-82727000D02*
X170726900Y-82727000D01*
X170967400Y-82486500D02*
X170967400Y-80975200D01*
D40*
X164870900Y-82739700D02*
X166320000Y-82739700D01*
X185484300Y-88505500D02*
X185724800Y-88265000D01*
D39*
X150316700Y-81380800D02*
X151765800Y-81380800D01*
X113830100Y-85940900D02*
X113830100Y-84429600D01*
D40*
X126834400Y-83311200D02*
X128283500Y-83311200D01*
D39*
X125373600Y-81509400D02*
X125133100Y-81749900D01*
X125133100Y-81749900D02*
X125133100Y-83261200D01*
X144449000Y-79591700D02*
X144208500Y-79832200D01*
D40*
X148855900Y-79629800D02*
X148615400Y-79870300D01*
D39*
X151765800Y-81380800D02*
X152006300Y-81140300D01*
D40*
X166560500Y-82499200D02*
X166560500Y-80987900D01*
D39*
X163410100Y-80937900D02*
X163169600Y-81178400D01*
D40*
X145909800Y-81393500D02*
X147358900Y-81393500D01*
D39*
X131241300Y-83298500D02*
X132690400Y-83298500D01*
X112140500Y-86181400D02*
X113589600Y-86181400D01*
D40*
X129540000Y-81788000D02*
X129540000Y-83299300D01*
X148615400Y-79870300D02*
X148615400Y-81381600D01*
D39*
X144208500Y-79832200D02*
X144208500Y-81343500D01*
X163169600Y-81178400D02*
X163169600Y-82689700D01*
D40*
X169266100Y-80976000D02*
X167817000Y-80976000D01*
X128524000Y-83070700D02*
X128524000Y-81559400D01*
X166320000Y-82739700D02*
X166560500Y-82499200D01*
X167817000Y-80976000D02*
X167576500Y-81216500D01*
X150305000Y-79629800D02*
X148855900Y-79629800D01*
D39*
X170726900Y-82727000D02*
X170967400Y-82486500D01*
X164859200Y-80937900D02*
X163410100Y-80937900D01*
D40*
X167576500Y-81216500D02*
X167576500Y-82727800D01*
X185724800Y-88265000D02*
X185724800Y-86753700D01*
D39*
X107721900Y-84392300D02*
X106272800Y-84392300D01*
X132690400Y-83298500D02*
X132930900Y-83058000D01*
D40*
X147599400Y-81153000D02*
X147599400Y-79641700D01*
D39*
X106272800Y-84392300D02*
X106032300Y-84632800D01*
X132930900Y-83058000D02*
X132930900Y-81546700D01*
X126822700Y-81509400D02*
X125373600Y-81509400D01*
X145898100Y-79591700D02*
X144449000Y-79591700D01*
D40*
X129780500Y-81547500D02*
X129540000Y-81788000D01*
D39*
X152006300Y-81140300D02*
X152006300Y-79629000D01*
X84231480Y-81889600D02*
X84963000Y-81889600D01*
X182574400Y-86703700D02*
X182333900Y-86944200D01*
X190131700Y-88252300D02*
X190131700Y-86741000D01*
D40*
X188430400Y-86741800D02*
X186981300Y-86741800D01*
X184035200Y-88505500D02*
X185484300Y-88505500D01*
D39*
X188442100Y-88492800D02*
X189891200Y-88492800D01*
X189891200Y-88492800D02*
X190131700Y-88252300D01*
X118259694Y-84432306D02*
X119453494Y-83238506D01*
D40*
X105079800Y-83489800D02*
X103924100Y-82334100D01*
D39*
X156911206Y-79631706D02*
X159946506Y-82667006D01*
D40*
X105638600Y-83489800D02*
X105079800Y-83489800D01*
X96159000Y-79886678D02*
X96159000Y-81515900D01*
D39*
X170955800Y-80977906D02*
X173192606Y-80977906D01*
D40*
X186981300Y-86741800D02*
X186740800Y-86982300D01*
D39*
X137754194Y-81320806D02*
X144235000Y-81320806D01*
X132919300Y-81549406D02*
X137525594Y-81549406D01*
X151994700Y-79631706D02*
X156911206Y-79631706D01*
X180647506Y-88432806D02*
X182360400Y-88432806D01*
D40*
X105702100Y-87147400D02*
X104355900Y-87147400D01*
D39*
X106058800Y-86121406D02*
X105209506Y-86121406D01*
X83230720Y-81013580D02*
X83230720Y-81889600D01*
X84963000Y-81889600D02*
X85077300Y-82003900D01*
D40*
X96159000Y-81515900D02*
X96977200Y-82334100D01*
D39*
X184023500Y-86703700D02*
X182574400Y-86703700D01*
X173192606Y-80977906D02*
X180647506Y-88432806D01*
X113818500Y-84432306D02*
X118259694Y-84432306D01*
D40*
X186740800Y-86982300D02*
X186740800Y-88493600D01*
D39*
X137525594Y-81549406D02*
X137754194Y-81320806D01*
D40*
X103924100Y-82334100D02*
X101053900Y-82334100D01*
D39*
X119453494Y-83238506D02*
X125159600Y-83238506D01*
X159946506Y-82667006D02*
X163196100Y-82667006D01*
X182333900Y-86944200D02*
X182333900Y-88455500D01*
X84259000Y-79985300D02*
X83230720Y-81013580D01*
X137109800Y-95131000D02*
X137109800Y-93255500D01*
X137059000Y-114244500D02*
X137059000Y-112369000D01*
X131303600Y-124472700D02*
X130403600Y-124472700D01*
X121943700Y-48310800D02*
X121043700Y-48310800D01*
X96879000Y-76015300D02*
X95089000Y-76015300D01*
X146584000Y-133192900D02*
X146584000Y-131317400D01*
X94658999Y-75585299D02*
X94459000Y-75385300D01*
X95089000Y-76015300D02*
X94658999Y-75585299D01*
X137224100Y-57031000D02*
X137224100Y-55155500D01*
X82937815Y-77211045D02*
X85213549Y-74935311D01*
X120802400Y-67411600D02*
X120777000Y-67411600D01*
X94259001Y-75185301D02*
X94459000Y-75385300D01*
X94009011Y-74935311D02*
X94259001Y-75185301D01*
X85213549Y-74935311D02*
X94009011Y-74935311D01*
X120929400Y-86410800D02*
X120904000Y-86410800D01*
X121778600Y-105524300D02*
X120878600Y-105524300D01*
X121702400Y-67411600D02*
X120802400Y-67411600D01*
X97255730Y-129691530D02*
X96367600Y-128803400D01*
X97284706Y-147756706D02*
X97886694Y-147756706D01*
X136982800Y-76131800D02*
X136982800Y-74256300D01*
X121043700Y-48310800D02*
X121018300Y-48310800D01*
X97255730Y-130106517D02*
X97255730Y-129691530D01*
X121829400Y-86410800D02*
X120929400Y-86410800D01*
X120878600Y-105524300D02*
X120853200Y-105524300D01*
X98920300Y-146723100D02*
X98920300Y-146507200D01*
X81639000Y-63315300D02*
X91159000Y-63315300D01*
X85559000Y-60775300D02*
X95049000Y-60775300D01*
X94789006Y-50615300D02*
X94959007Y-50785301D01*
X94889018Y-63315300D02*
X91159000Y-63315300D01*
X91933382Y-77485300D02*
X92459000Y-78010918D01*
X95159018Y-63585300D02*
X94889018Y-63315300D01*
X97886694Y-147756706D02*
X98920300Y-146723100D01*
X86159000Y-78184920D02*
X86413000Y-78184920D01*
X95049000Y-60775300D02*
X95059000Y-60785300D01*
X92359001Y-77085301D02*
X92559000Y-77285300D01*
X81046307Y-63315300D02*
X81639000Y-63315300D01*
X88659000Y-78184920D02*
X88659000Y-77485300D01*
X86159000Y-78184920D02*
X85509000Y-77534920D01*
X85509000Y-77534920D02*
X85509000Y-77191147D01*
X81639000Y-50615300D02*
X94789006Y-50615300D01*
X92459000Y-78010918D02*
X92459000Y-78185300D01*
X81639000Y-60775300D02*
X85559000Y-60775300D01*
X94959007Y-50785301D02*
X95159006Y-50985300D01*
X82937815Y-56891045D02*
X93853255Y-56891045D01*
X88659000Y-77485300D02*
X91933382Y-77485300D01*
X87612565Y-76985355D02*
X92259055Y-76985355D01*
X81336307Y-60775300D02*
X81639000Y-60775300D01*
X86413000Y-78184920D02*
X87612565Y-76985355D01*
X92259055Y-76985355D02*
X92359001Y-77085301D01*
X183495950Y-136469550D02*
X184162700Y-135802800D01*
X81639000Y-53155300D02*
X84159000Y-53155300D01*
X179409400Y-137508100D02*
X180447950Y-136469550D01*
X94929000Y-53155300D02*
X94959001Y-53185301D01*
X84159000Y-53155300D02*
X84429000Y-53155300D01*
X91159000Y-79185680D02*
X91159000Y-83905300D01*
X198561000Y-139006700D02*
X199599550Y-137968150D01*
X93853255Y-56891045D02*
X95159000Y-55585300D01*
X84159000Y-53185300D02*
X84559000Y-53585300D01*
X84159000Y-53155300D02*
X84159000Y-53185300D01*
X93759000Y-79185680D02*
X93759000Y-83965300D01*
X96919000Y-55585300D02*
X96929000Y-55595300D01*
X198561000Y-140498594D02*
X193589306Y-140498594D01*
X192999100Y-141088800D02*
X192999100Y-142392300D01*
X193589306Y-140498594D02*
X192999100Y-141088800D01*
X91159000Y-83905300D02*
X91239000Y-83985300D01*
X102779400Y-89306400D02*
X101879400Y-89306400D01*
X173847500Y-139590200D02*
X173847500Y-140893700D01*
X95683255Y-51811045D02*
X96879000Y-50615300D01*
X84254340Y-79989960D02*
X84259000Y-79985300D01*
X82937815Y-51811045D02*
X95683255Y-51811045D01*
X88659000Y-79185680D02*
X88659000Y-83945300D01*
X184785000Y-129897300D02*
X184785000Y-132389900D01*
X203314300Y-137301400D02*
X203314300Y-135045300D01*
X179409400Y-138999994D02*
X174437706Y-138999994D01*
X202647550Y-137968150D02*
X203314300Y-137301400D01*
X180447950Y-136469550D02*
X183495950Y-136469550D01*
X95159000Y-55585300D02*
X96919000Y-55585300D01*
X184162700Y-135802800D02*
X184162700Y-133546700D01*
X174437706Y-138999994D02*
X173847500Y-139590200D01*
X84159000Y-53155300D02*
X94929000Y-53155300D01*
X86159000Y-79185680D02*
X86159000Y-83985300D01*
X203936600Y-131395900D02*
X203936600Y-133888500D01*
X198561000Y-140498594D02*
X198561000Y-139006700D01*
X199599550Y-137968150D02*
X202647550Y-137968150D01*
X94959001Y-53185301D02*
X95159000Y-53385300D01*
X88659000Y-83945300D02*
X88699000Y-83985300D01*
X93759000Y-83965300D02*
X93779000Y-83985300D01*
X179409400Y-138999994D02*
X179409400Y-137508100D01*
X118059800Y-98026600D02*
X118059800Y-96151100D01*
X101282500Y-70294500D02*
X101803200Y-70294500D01*
X84759000Y-76665959D02*
X85589626Y-75835333D01*
X85589626Y-75835333D02*
X93422219Y-75835333D01*
X102779400Y-51181000D02*
X101879400Y-51181000D01*
X101930200Y-108292900D02*
X101904800Y-108292900D01*
X118110600Y-117013100D02*
X118110600Y-115137600D01*
X101879400Y-51181000D02*
X101854000Y-51181000D01*
X101879400Y-89306400D02*
X101854000Y-89306400D01*
X93422219Y-75835333D02*
X95380187Y-77793301D01*
X102830200Y-108292900D02*
X101930200Y-108292900D01*
X95380187Y-77793301D02*
X96117001Y-77793301D01*
X84759000Y-77929860D02*
X84759000Y-76665959D01*
X93492500Y-89748800D02*
X93492500Y-89793900D01*
X101282500Y-70294500D02*
X100406200Y-70294500D01*
X118059800Y-59901200D02*
X118059800Y-58025700D01*
X82937815Y-61971045D02*
X87973255Y-61971045D01*
X87973255Y-61971045D02*
X95683255Y-61971045D01*
X100406200Y-70294500D02*
X99745800Y-70954900D01*
X91333255Y-64511045D02*
X95683255Y-64511045D01*
X95683255Y-61971045D02*
X96879000Y-60775300D01*
X96117001Y-77793301D02*
X96879000Y-78555300D01*
X82937815Y-79751045D02*
X84759000Y-77929860D01*
X82937815Y-64511045D02*
X87833255Y-64511045D01*
X95683255Y-64511045D02*
X96879000Y-63315300D01*
X102779400Y-70281800D02*
X101879400Y-70281800D01*
X88333255Y-64511045D02*
X91333255Y-64511045D01*
X87833255Y-64511045D02*
X88333255Y-64511045D01*
X92630800Y-94952000D02*
X92230800Y-94952000D01*
X93492500Y-89748800D02*
X93492500Y-92626000D01*
X118059800Y-79002000D02*
X118059800Y-77126500D01*
X101879400Y-70281800D02*
X101854000Y-70281800D01*
D40*
X107733600Y-86194100D02*
X107733600Y-87135200D01*
X107721400Y-87147400D02*
X115328700Y-87147400D01*
X105702100Y-87147400D02*
X107721400Y-87147400D01*
D39*
X85087210Y-91633290D02*
X85077300Y-91623380D01*
D40*
X119545100Y-81153000D02*
X120104400Y-80593700D01*
X179437800Y-85788000D02*
X180807500Y-85788000D01*
D39*
X84305390Y-91760290D02*
X83718100Y-92347580D01*
X85087210Y-91760290D02*
X85214210Y-91760290D01*
D40*
X120104400Y-80593700D02*
X123606700Y-80593700D01*
D39*
X92468999Y-89257519D02*
X93436118Y-88290400D01*
X133233300Y-80593700D02*
X133248900Y-80593700D01*
X92218100Y-94306800D02*
X92218100Y-94952000D01*
D40*
X177101500Y-86271100D02*
X177101500Y-87604600D01*
X172476300Y-83679800D02*
X174510200Y-83679800D01*
D39*
X93492500Y-92626000D02*
X92218100Y-93900400D01*
X92468999Y-90178320D02*
X92468999Y-89257519D01*
D40*
X135166600Y-78676000D02*
X142682100Y-78676000D01*
D39*
X83718100Y-93202000D02*
X83718100Y-99152000D01*
D40*
X178942500Y-89445600D02*
X182014000Y-89445600D01*
D39*
X90887029Y-91760290D02*
X92468999Y-90178320D01*
X93436118Y-88290400D02*
X93436118Y-87605182D01*
D40*
X118745000Y-86956900D02*
X121450600Y-84251300D01*
X133248900Y-80593700D02*
X135166600Y-78676000D01*
X171269800Y-80022200D02*
X173672000Y-80022200D01*
X112153700Y-83489800D02*
X114122200Y-83489800D01*
X174510200Y-83679800D02*
X177101500Y-86271100D01*
X123606700Y-80593700D02*
X131255000Y-80593700D01*
D39*
X131244700Y-80604000D02*
X131255000Y-80593700D01*
D40*
X153515200Y-82333600D02*
X155701500Y-82333600D01*
D39*
X150320100Y-78679400D02*
X150316700Y-78676000D01*
D40*
X157047700Y-83679800D02*
X162849700Y-83679800D01*
D39*
X85087210Y-91760290D02*
X84305390Y-91760290D01*
D40*
X121450600Y-84251300D02*
X124813200Y-84251300D01*
X131255000Y-80593700D02*
X133233300Y-80593700D01*
X105638600Y-83489800D02*
X112153700Y-83489800D01*
X150316700Y-78676000D02*
X152308700Y-78676000D01*
X142682100Y-78676000D02*
X150316700Y-78676000D01*
D39*
X92218100Y-93900400D02*
X92218100Y-94952000D01*
D40*
X152308700Y-78676000D02*
X160297000Y-78676000D01*
D39*
X169281200Y-80024600D02*
X169278800Y-80022200D01*
X85214210Y-91760290D02*
X90887029Y-91760290D01*
D40*
X169281200Y-80976500D02*
X169281200Y-80024600D01*
X188445500Y-86349200D02*
X187884300Y-85788000D01*
D39*
X83718100Y-92347580D02*
X83718100Y-93202000D01*
D40*
X138938500Y-82333600D02*
X143888600Y-82333600D01*
D39*
X92218100Y-94952000D02*
X92218100Y-97402000D01*
X85087210Y-91760290D02*
X85087210Y-91633290D01*
X93436118Y-87605182D02*
X93492500Y-87548800D01*
D40*
X137020800Y-84251300D02*
X138938500Y-82333600D01*
X116789200Y-81153000D02*
X119545100Y-81153000D01*
X134439800Y-84251300D02*
X137020800Y-84251300D01*
X173672000Y-80022200D02*
X179437800Y-85788000D01*
X150320100Y-79630300D02*
X150320100Y-78679400D01*
X131244700Y-81548000D02*
X131244700Y-80604000D01*
X169278800Y-80022200D02*
X171269800Y-80022200D01*
X161643200Y-80022200D02*
X169278800Y-80022200D01*
X112133600Y-84444100D02*
X112133600Y-83509900D01*
X177101500Y-87604600D02*
X178942500Y-89445600D01*
X160297000Y-78676000D02*
X161643200Y-80022200D01*
D39*
X85077300Y-82003900D02*
X85077300Y-91623380D01*
D40*
X155701500Y-82333600D02*
X157047700Y-83679800D01*
X188445500Y-86742300D02*
X188445500Y-86349200D01*
D39*
X84130800Y-93202000D02*
X83730800Y-93202000D01*
D40*
X180807500Y-85788000D02*
X187884300Y-85788000D01*
D39*
X85399948Y-75385322D02*
X93714686Y-75385322D01*
X90750000Y-103575000D02*
X90750000Y-103217700D01*
X94759001Y-76485301D02*
X94759001Y-76485301D01*
X94586834Y-76257470D02*
X94786833Y-76457469D01*
X83289000Y-78555300D02*
X84259000Y-77585300D01*
X84259000Y-77585300D02*
X84259000Y-76526270D01*
X81639000Y-78555300D02*
X83289000Y-78555300D01*
X84259000Y-76526270D02*
X85399948Y-75385322D01*
X93714686Y-75385322D02*
X94586834Y-76257470D01*
X105559000Y-63811900D02*
X107159000Y-62211900D01*
X117475000Y-57010300D02*
X117475000Y-54754200D01*
X118097300Y-51104800D02*
X118097300Y-53597400D01*
X113760250Y-57677050D02*
X116808250Y-57677050D01*
X112721700Y-60207494D02*
X112721700Y-58715600D01*
X107750006Y-60207494D02*
X107159800Y-60797700D01*
X105559000Y-64311900D02*
X105559000Y-63811900D01*
X116808250Y-57677050D02*
X117475000Y-57010300D01*
X117335300Y-122948700D02*
X119405400Y-120878600D01*
X110432356Y-124139657D02*
X110765399Y-124472700D01*
X127254000Y-120764300D02*
X128498600Y-120764300D01*
X104005784Y-145003116D02*
X105219500Y-143789400D01*
X102854064Y-145003116D02*
X104005784Y-145003116D01*
X112721700Y-60207494D02*
X107750006Y-60207494D01*
X107159800Y-60797700D02*
X107159800Y-62101200D01*
X112721700Y-58715600D02*
X113760250Y-57677050D01*
X147739700Y-120918100D02*
X145846000Y-119024400D01*
X128498600Y-120764300D02*
X128714500Y-120980200D01*
X135972550Y-54806850D02*
X136639300Y-54140100D01*
X94959000Y-74485300D02*
X95059000Y-74585300D01*
X83429000Y-76015300D02*
X84959000Y-74485300D01*
X111990400Y-124510800D02*
X111990400Y-123962900D01*
X84959000Y-74485300D02*
X94959000Y-74485300D01*
X124214400Y-61256500D02*
X126159000Y-59311900D01*
X145846000Y-119024400D02*
X129806700Y-119024400D01*
X147967700Y-119722900D02*
X147967700Y-120929400D01*
X151923750Y-52889150D02*
X154971750Y-52889150D01*
X145913506Y-55419594D02*
X145323300Y-56009800D01*
X110782100Y-124485400D02*
X112585500Y-124485400D01*
X111990400Y-123962900D02*
X113004600Y-122948700D01*
X131886000Y-55845400D02*
X132924550Y-54806850D01*
X126914306Y-57337294D02*
X126324100Y-57927500D01*
X81639000Y-76015300D02*
X83429000Y-76015300D01*
X168913600Y-123710700D02*
X168913600Y-124730300D01*
X124214400Y-61503900D02*
X124214400Y-61256500D01*
X143362800Y-59318100D02*
X145259000Y-57421900D01*
X137261600Y-48234600D02*
X137261600Y-50727200D01*
X131886000Y-57337294D02*
X131886000Y-55845400D01*
X129400300Y-119024400D02*
X128727200Y-119697500D01*
X170791000Y-126607700D02*
X185954800Y-126607700D01*
X145323300Y-56009800D02*
X145323300Y-57313300D01*
X129806700Y-119024400D02*
X129400300Y-119024400D01*
X154971750Y-52889150D02*
X155638500Y-52222400D01*
X148602700Y-119100600D02*
X147967700Y-119735600D01*
X119405400Y-120878600D02*
X119519700Y-120764300D01*
X131886000Y-57337294D02*
X126914306Y-57337294D01*
X150885200Y-55419594D02*
X150885200Y-53927700D01*
X155638500Y-52222400D02*
X155638500Y-49966300D01*
X156260800Y-46316900D02*
X156260800Y-48809500D01*
X141639700Y-59318100D02*
X143362800Y-59318100D01*
X99407855Y-67051045D02*
X98165115Y-67051045D01*
X94958993Y-65885301D02*
X95158992Y-66085300D01*
X168913600Y-124730300D02*
X170791000Y-126607700D01*
X128727200Y-119684800D02*
X128727200Y-121069100D01*
X132924550Y-54806850D02*
X135972550Y-54806850D01*
X168913600Y-123710700D02*
X164265400Y-119062500D01*
X113004600Y-122948700D02*
X117335300Y-122948700D01*
X148602700Y-119062500D02*
X148602700Y-119100600D01*
X164265400Y-119062500D02*
X148602700Y-119062500D01*
X119519700Y-120764300D02*
X127304800Y-120764300D01*
X126324100Y-57927500D02*
X126324100Y-59231000D01*
X136639300Y-54140100D02*
X136639300Y-51884000D01*
X150885200Y-53927700D02*
X151923750Y-52889150D01*
X150885200Y-55419594D02*
X145913506Y-55419594D01*
X193008250Y-60077350D02*
X193675000Y-59410600D01*
X99669600Y-66801300D02*
X99657600Y-66801300D01*
X157176200Y-60260900D02*
X158568290Y-61652990D01*
X81639000Y-65855300D02*
X94928992Y-65855300D01*
X120814400Y-61503900D02*
X120814400Y-62503900D01*
X164284400Y-57394100D02*
X164284400Y-58697600D01*
X169846300Y-56803894D02*
X164874606Y-56803894D01*
X139618400Y-61239400D02*
X155054700Y-61239400D01*
X95149000Y-68395300D02*
X95159000Y-68385300D01*
X155054700Y-61239400D02*
X157176200Y-63360900D01*
X134928900Y-62770590D02*
X135710790Y-61988700D01*
X169846300Y-55312000D02*
X170884850Y-54273450D01*
X173932850Y-54273450D02*
X174599600Y-53606700D01*
X135710790Y-61988700D02*
X135710790Y-59932710D01*
X81639000Y-68395300D02*
X95149000Y-68395300D01*
X188921700Y-61115900D02*
X189960250Y-60077350D01*
X99657600Y-66801300D02*
X99407855Y-67051045D01*
X99669600Y-66801300D02*
X102159000Y-64311900D01*
X156781900Y-60655200D02*
X157176200Y-60260900D01*
X157176200Y-63360900D02*
X158434100Y-62103000D01*
X176022000Y-64960510D02*
X176022000Y-67224100D01*
X170884850Y-54273450D02*
X173932850Y-54273450D01*
X162810000Y-60260900D02*
X164259000Y-58811900D01*
X173164490Y-62103000D02*
X176022000Y-64960510D01*
X121081090Y-62770590D02*
X134928900Y-62770590D01*
X175221900Y-47701200D02*
X175221900Y-50193800D01*
X102159000Y-67411900D02*
X100344260Y-67411900D01*
X160576200Y-60260900D02*
X162810000Y-60260900D01*
X123097700Y-63220600D02*
X135115300Y-63220600D01*
X194297300Y-53505100D02*
X194297300Y-55997700D01*
X158434100Y-62103000D02*
X173164490Y-62103000D01*
X189960250Y-60077350D02*
X193008250Y-60077350D01*
X188921700Y-62607794D02*
X183950006Y-62607794D01*
X135817800Y-62518100D02*
X138339700Y-62518100D01*
X169846300Y-56803894D02*
X169846300Y-55312000D01*
X176022000Y-67224100D02*
X178397100Y-69599200D01*
X120814400Y-62503900D02*
X121081090Y-62770590D01*
X173350890Y-61652990D02*
X178397100Y-66699200D01*
X138239700Y-59318100D02*
X139576800Y-60655200D01*
X183359800Y-63198000D02*
X183359800Y-64501500D01*
X121814400Y-64503900D02*
X123097700Y-63220600D01*
X100344260Y-67411900D02*
X98165115Y-69591045D01*
X94928992Y-65855300D02*
X94958993Y-65885301D01*
X188921700Y-62607794D02*
X188921700Y-61115900D01*
X193675000Y-59410600D02*
X193675000Y-57154500D01*
X181797100Y-66173800D02*
X183359000Y-64611900D01*
X181797100Y-66699200D02*
X181797100Y-66173800D01*
X174599600Y-53606700D02*
X174599600Y-51350600D01*
X138339700Y-62518100D02*
X139618400Y-61239400D01*
X158568290Y-61652990D02*
X173350890Y-61652990D01*
X164874606Y-56803894D02*
X164284400Y-57394100D01*
X136325400Y-59318100D02*
X138239700Y-59318100D01*
X139576800Y-60655200D02*
X156781900Y-60655200D01*
X135115300Y-63220600D02*
X135817800Y-62518100D01*
X135710790Y-59932710D02*
X136325400Y-59318100D01*
X100279200Y-94890172D02*
X100498929Y-95109901D01*
X193381490Y-106057700D02*
X195507900Y-103931290D01*
X199282890Y-103931290D02*
X201614300Y-106262700D01*
X157024800Y-98399600D02*
X157214300Y-98210100D01*
X178397100Y-104599200D02*
X179855600Y-106057700D01*
X81689000Y-70835300D02*
X94709000Y-70835300D01*
X157680990Y-99676790D02*
X173474690Y-99676790D01*
X213309200Y-55041800D02*
X213309200Y-57534400D01*
X202961906Y-64144494D02*
X202371700Y-64734700D01*
X212686900Y-60947300D02*
X212686900Y-58691200D01*
X207933600Y-64144494D02*
X207933600Y-62652600D01*
X100279200Y-74218800D02*
X100279200Y-94890172D01*
X100635500Y-101880100D02*
X101473200Y-101880100D01*
X94959001Y-71085301D02*
X95159000Y-71285300D01*
X207933600Y-62652600D02*
X208972150Y-61614050D01*
X100498928Y-98514302D02*
X100087020Y-98926210D01*
X121921500Y-100507800D02*
X136039000Y-100507800D01*
X157214300Y-98210100D02*
X157214300Y-99210100D01*
X101473200Y-101880100D02*
X101473200Y-102463800D01*
X100940300Y-101880100D02*
X101473200Y-101880100D01*
X102292990Y-103283590D02*
X113389700Y-103283590D01*
X157214300Y-99210100D02*
X157680990Y-99676790D01*
X208972150Y-61614050D02*
X212020150Y-61614050D01*
X100087020Y-98926210D02*
X100087020Y-101331620D01*
X202371700Y-64734700D02*
X202371700Y-66038200D01*
X212020150Y-61614050D02*
X212686900Y-60947300D01*
X120649300Y-99235600D02*
X121921500Y-100507800D01*
X207933600Y-64144494D02*
X202961906Y-64144494D01*
X83364755Y-73475300D02*
X83454755Y-73385300D01*
X83454755Y-73385300D02*
X94876158Y-73385300D01*
X201614300Y-106262700D02*
X209546300Y-106262700D01*
X94709000Y-70835300D02*
X94959001Y-71085301D01*
X195507900Y-103931290D02*
X199282890Y-103931290D01*
X100498929Y-95109901D02*
X100498928Y-98514302D01*
X100113350Y-74052950D02*
X100279200Y-74218800D01*
X100087020Y-74052950D02*
X100113350Y-74052950D01*
X119847000Y-100037900D02*
X120649300Y-99235600D01*
X113389700Y-103283590D02*
X116635390Y-100037900D01*
X100087020Y-101331620D02*
X100635500Y-101880100D01*
X98165115Y-72131045D02*
X100087020Y-74052950D01*
X173474690Y-99676790D02*
X178397100Y-104599200D01*
X136039000Y-100507800D02*
X139484300Y-97062500D01*
X179855600Y-106057700D02*
X193381490Y-106057700D01*
X116635390Y-100037900D02*
X119847000Y-100037900D01*
X101473200Y-102463800D02*
X102292990Y-103283590D01*
X183950006Y-62607794D02*
X183359800Y-63198000D01*
X179668700Y-106527600D02*
X193548000Y-106527600D01*
X156222700Y-65430400D02*
X156222700Y-67923000D01*
X195694300Y-104381300D02*
X199096490Y-104381300D01*
X112721700Y-79308294D02*
X107750006Y-79308294D01*
X199096490Y-104381300D02*
X204177890Y-109462700D01*
X193548000Y-106527600D02*
X195694300Y-104381300D01*
X155600400Y-71335900D02*
X155600400Y-69079800D01*
X151885650Y-72002650D02*
X154933650Y-72002650D01*
X126082800Y-77028300D02*
X126082800Y-78331800D01*
X150847100Y-74533094D02*
X145875406Y-74533094D01*
X145285200Y-75123300D02*
X145285200Y-76426800D01*
X113576100Y-103733600D02*
X116649500Y-100660200D01*
X173288290Y-100126800D02*
X175844200Y-102682710D01*
X102719700Y-103733600D02*
X113576100Y-103733600D01*
X117475000Y-76111100D02*
X117475000Y-73855000D01*
X145875406Y-74533094D02*
X145285200Y-75123300D01*
X81639000Y-73475300D02*
X83364755Y-73475300D01*
X116649500Y-100660200D02*
X120073900Y-100660200D01*
X118097300Y-70205600D02*
X118097300Y-72698200D01*
X137020300Y-67335400D02*
X137020300Y-69828000D01*
X136398000Y-73240900D02*
X136398000Y-70984800D01*
X126673006Y-76438094D02*
X126082800Y-77028300D01*
X121927090Y-100957810D02*
X136989390Y-100957810D01*
X158497600Y-100126800D02*
X173288290Y-100126800D01*
X178397100Y-107799200D02*
X179668700Y-106527600D01*
X107159800Y-79898500D02*
X107159800Y-81202000D01*
X94876158Y-73385300D02*
X95159000Y-73385300D01*
X175844200Y-105246300D02*
X178397100Y-107799200D01*
X113760250Y-76777850D02*
X116808250Y-76777850D01*
X135731250Y-73907650D02*
X136398000Y-73240900D01*
X131644700Y-76438094D02*
X131644700Y-74946200D01*
X131644700Y-74946200D02*
X132683250Y-73907650D01*
X150847100Y-74533094D02*
X150847100Y-73041200D01*
X112721700Y-77816400D02*
X113760250Y-76777850D01*
X120073900Y-100660200D02*
X121649300Y-102235600D01*
X112721700Y-79308294D02*
X112721700Y-77816400D01*
X154933650Y-72002650D02*
X155600400Y-71335900D01*
X101473200Y-104980100D02*
X102719700Y-103733600D01*
X175844200Y-102682710D02*
X175844200Y-105246300D01*
X107750006Y-79308294D02*
X107159800Y-79898500D01*
X157214300Y-101410100D02*
X158497600Y-100126800D01*
X136989390Y-100957810D02*
X137784700Y-100162500D01*
X139484300Y-100162500D02*
X140739200Y-98907600D01*
X137784700Y-100162500D02*
X139484300Y-100162500D01*
X131644700Y-76438094D02*
X126673006Y-76438094D01*
X116808250Y-76777850D02*
X117475000Y-76111100D01*
X132683250Y-73907650D02*
X135731250Y-73907650D01*
X204177890Y-109462700D02*
X209646300Y-109462700D01*
X121649300Y-102235600D02*
X121649300Y-101235600D01*
X121649300Y-101235600D02*
X121927090Y-100957810D01*
X207895500Y-83003994D02*
X202923806Y-83003994D01*
X164246300Y-76406000D02*
X164246300Y-77709500D01*
X207895500Y-81512100D02*
X208934050Y-80473550D01*
X116808250Y-95802450D02*
X117475000Y-95135700D01*
X117475000Y-95135700D02*
X117475000Y-92879600D01*
X137147300Y-86334600D02*
X137147300Y-88827200D01*
X131771700Y-95437294D02*
X131771700Y-93945400D01*
X132810250Y-92906850D02*
X135858250Y-92906850D01*
X124049300Y-99235600D02*
X124335300Y-99235600D01*
X169808200Y-74323900D02*
X170846750Y-73285350D01*
X183397900Y-82108300D02*
X183397900Y-83411800D01*
X193713100Y-78320900D02*
X193713100Y-76064800D01*
X211982050Y-80473550D02*
X212648800Y-79806800D01*
X136525000Y-92240100D02*
X136525000Y-89984000D01*
X188959800Y-81518094D02*
X188959800Y-80026200D01*
X131771700Y-95437294D02*
X126800006Y-95437294D01*
X164836506Y-75815794D02*
X164246300Y-76406000D01*
X135858250Y-92906850D02*
X136525000Y-92240100D01*
X150847100Y-73041200D02*
X151885650Y-72002650D01*
X124335300Y-99235600D02*
X126159000Y-97411900D01*
X105590800Y-101880100D02*
X107159000Y-100311900D01*
X126800006Y-95437294D02*
X126209800Y-96027500D01*
X202923806Y-83003994D02*
X202333600Y-83594200D01*
X104873200Y-101880100D02*
X105590800Y-101880100D01*
X118097300Y-89230200D02*
X118097300Y-91722800D01*
X113760250Y-95802450D02*
X116808250Y-95802450D01*
X107750006Y-98332894D02*
X107159800Y-98923100D01*
X175183800Y-66713100D02*
X175183800Y-69205700D01*
X112721700Y-96841000D02*
X113760250Y-95802450D01*
X174561500Y-72618600D02*
X174561500Y-70362500D01*
X188959800Y-81518094D02*
X183988106Y-81518094D01*
X183988106Y-81518094D02*
X183397900Y-82108300D01*
X170846750Y-73285350D02*
X173894750Y-73285350D01*
X188959800Y-80026200D02*
X189998350Y-78987650D01*
X213271100Y-73901300D02*
X213271100Y-76393900D01*
X202333600Y-83594200D02*
X202333600Y-84897700D01*
X112721700Y-98332894D02*
X112721700Y-96841000D01*
X112721700Y-98332894D02*
X107750006Y-98332894D01*
X194335400Y-72415400D02*
X194335400Y-74908000D01*
X189998350Y-78987650D02*
X193046350Y-78987650D01*
X169808200Y-75815794D02*
X169808200Y-74323900D01*
X207895500Y-83003994D02*
X207895500Y-81512100D01*
X212648800Y-79806800D02*
X212648800Y-77550700D01*
X193046350Y-78987650D02*
X193713100Y-78320900D01*
X107159800Y-98923100D02*
X107159800Y-100226600D01*
X131771700Y-93945400D02*
X132810250Y-92906850D01*
X208934050Y-80473550D02*
X211982050Y-80473550D01*
X173894750Y-73285350D02*
X174561500Y-72618600D01*
X169808200Y-75815794D02*
X164836506Y-75815794D01*
X207946300Y-102257194D02*
X207946300Y-100765300D01*
X207946300Y-102257194D02*
X202974606Y-102257194D01*
X212032850Y-99726750D02*
X212699600Y-99060000D01*
X150809000Y-93608494D02*
X145837306Y-93608494D01*
X117525800Y-114122200D02*
X117525800Y-111866100D01*
X107210600Y-117909600D02*
X107210600Y-119213100D01*
X112772500Y-115827500D02*
X113811050Y-114788950D01*
X107800806Y-117319394D02*
X107210600Y-117909600D01*
X193738500Y-97523300D02*
X193738500Y-95267200D01*
X193071750Y-98190050D02*
X193738500Y-97523300D01*
X190023750Y-98190050D02*
X193071750Y-98190050D01*
X145247100Y-94198700D02*
X145247100Y-95502200D01*
X174536100Y-91719400D02*
X174536100Y-89463300D01*
X169782800Y-94916594D02*
X164811106Y-94916594D01*
X202384400Y-102847400D02*
X202384400Y-104150900D01*
X212699600Y-99060000D02*
X212699600Y-96803900D01*
X112772500Y-117319394D02*
X112772500Y-115827500D01*
X207946300Y-100765300D02*
X208984850Y-99726750D01*
X188985200Y-100720494D02*
X188985200Y-99228600D01*
X126209800Y-96027500D02*
X126209800Y-97331000D01*
X116859050Y-114788950D02*
X117525800Y-114122200D01*
X156184600Y-84505800D02*
X156184600Y-86998400D01*
X143808400Y-97062500D02*
X145259000Y-95611900D01*
X164220900Y-95506800D02*
X164220900Y-96810300D01*
X181797100Y-104273800D02*
X183359000Y-102711900D01*
X154895550Y-91078050D02*
X155562300Y-90411300D01*
X169782800Y-94916594D02*
X169782800Y-93424700D01*
X160614300Y-98210100D02*
X162960800Y-98210100D01*
X194360800Y-91617800D02*
X194360800Y-94110400D01*
X181797100Y-104599200D02*
X181797100Y-104273800D01*
X150809000Y-93608494D02*
X150809000Y-92116600D01*
X142884300Y-97062500D02*
X143808400Y-97062500D01*
X164811106Y-94916594D02*
X164220900Y-95506800D01*
X145837306Y-93608494D02*
X145247100Y-94198700D01*
X150809000Y-92116600D02*
X151847550Y-91078050D01*
X162960800Y-98210100D02*
X164259000Y-96911900D01*
X169782800Y-93424700D02*
X170821350Y-92386150D01*
X188985200Y-100720494D02*
X184013506Y-100720494D01*
X184013506Y-100720494D02*
X183423300Y-101310700D01*
X170821350Y-92386150D02*
X173869350Y-92386150D01*
X155562300Y-90411300D02*
X155562300Y-88155200D01*
X208984850Y-99726750D02*
X212032850Y-99726750D01*
X213321900Y-93154500D02*
X213321900Y-95647100D01*
X202974606Y-102257194D02*
X202384400Y-102847400D01*
X175158400Y-85813900D02*
X175158400Y-88306500D01*
X183423300Y-101310700D02*
X183423300Y-102614200D01*
X151847550Y-91078050D02*
X154895550Y-91078050D01*
X173869350Y-92386150D02*
X174536100Y-91719400D01*
X188985200Y-99228600D02*
X190023750Y-98190050D01*
X131720900Y-114550794D02*
X126749206Y-114550794D01*
X126749206Y-114550794D02*
X126159000Y-115141000D01*
X189947550Y-117201950D02*
X192995550Y-117201950D01*
X202409800Y-121821200D02*
X202409800Y-123124700D01*
X164811106Y-114042794D02*
X164220900Y-114633000D01*
X183937306Y-119732394D02*
X183347100Y-120322600D01*
X212058250Y-118700550D02*
X212725000Y-118033800D01*
X207971700Y-121230994D02*
X203000006Y-121230994D01*
X203000006Y-121230994D02*
X202409800Y-121821200D01*
X131720900Y-113058900D02*
X132759450Y-112020350D01*
X131720900Y-114550794D02*
X131720900Y-113058900D01*
X112772500Y-117319394D02*
X107800806Y-117319394D01*
X150809000Y-112633094D02*
X150809000Y-111141200D01*
X154895550Y-110102650D02*
X155562300Y-109435900D01*
X169782800Y-114042794D02*
X164811106Y-114042794D01*
X193662300Y-116535200D02*
X193662300Y-114279100D01*
X192995550Y-117201950D02*
X193662300Y-116535200D01*
X183347100Y-120322600D02*
X183347100Y-121626100D01*
X188909000Y-119732394D02*
X188909000Y-118240500D01*
X132759450Y-112020350D02*
X135807450Y-112020350D01*
X145247100Y-113223300D02*
X145247100Y-114526800D01*
X145837306Y-112633094D02*
X145247100Y-113223300D01*
X137096500Y-105448100D02*
X137096500Y-107940700D01*
X136474200Y-111353600D02*
X136474200Y-109097500D01*
X164220900Y-114633000D02*
X164220900Y-115936500D01*
X169782800Y-112550900D02*
X170821350Y-111512350D01*
X173869350Y-111512350D02*
X174536100Y-110845600D01*
X170821350Y-111512350D02*
X173869350Y-111512350D01*
X169782800Y-114042794D02*
X169782800Y-112550900D01*
X175158400Y-104940100D02*
X175158400Y-107432700D01*
X188909000Y-119732394D02*
X183937306Y-119732394D01*
X174536100Y-110845600D02*
X174536100Y-108589500D01*
X194284600Y-110629700D02*
X194284600Y-113122300D01*
X135807450Y-112020350D02*
X136474200Y-111353600D01*
X150809000Y-111141200D02*
X151847550Y-110102650D01*
X151847550Y-110102650D02*
X154895550Y-110102650D01*
X156184600Y-103530400D02*
X156184600Y-106023000D01*
X188909000Y-118240500D02*
X189947550Y-117201950D01*
X126159000Y-115141000D02*
X126159000Y-116444500D01*
X113811050Y-114788950D02*
X116859050Y-114788950D01*
X155562300Y-109435900D02*
X155562300Y-107179800D01*
X150809000Y-112633094D02*
X145837306Y-112633094D01*
X118148100Y-108216700D02*
X118148100Y-110709300D01*
D40*
X89859008Y-78185300D02*
X90090499Y-78416791D01*
D39*
X207971700Y-121230994D02*
X207971700Y-119739100D01*
X136274206Y-133499194D02*
X135684000Y-134089400D01*
X124409200Y-126479300D02*
X124409200Y-128124002D01*
X141245900Y-133499194D02*
X136274206Y-133499194D01*
X165735000Y-123875800D02*
X165735000Y-126368400D01*
X160359400Y-132978494D02*
X155387706Y-132978494D01*
D40*
X91159000Y-78184920D02*
X89859388Y-78184920D01*
D39*
X141245900Y-133499194D02*
X141245900Y-132007300D01*
D40*
X82883560Y-59485300D02*
X82937815Y-59431045D01*
D39*
X207971700Y-119739100D02*
X209010250Y-118700550D01*
X155387706Y-132978494D02*
X154797500Y-133568700D01*
D40*
X89859008Y-78185300D02*
X89959000Y-78285292D01*
X89859008Y-84525074D02*
X86936817Y-87447265D01*
D39*
X116161440Y-137038460D02*
X116598700Y-136601200D01*
X91605581Y-139417029D02*
X94246700Y-142058148D01*
X124409200Y-128124002D02*
X124902322Y-128617124D01*
D40*
X96879000Y-58235300D02*
X95683255Y-59431045D01*
D39*
X94246700Y-142058148D02*
X94246700Y-143205200D01*
X160359400Y-131486600D02*
X161397950Y-130448050D01*
X213347300Y-112128300D02*
X213347300Y-114620900D01*
X145332450Y-130968750D02*
X145999200Y-130302000D01*
X164445950Y-130448050D02*
X165112700Y-129781300D01*
X141245900Y-132007300D02*
X142284450Y-130968750D01*
X116598700Y-136601200D02*
X121259600Y-136601200D01*
X116161440Y-139655556D02*
X116161440Y-137038460D01*
X160359400Y-132978494D02*
X160359400Y-131486600D01*
X145999200Y-130302000D02*
X145999200Y-128045900D01*
D40*
X90530790Y-98951990D02*
X90730800Y-99152000D01*
D39*
X135684000Y-134089400D02*
X135684000Y-135392900D01*
X165112700Y-129781300D02*
X165112700Y-127525200D01*
X89929450Y-139417029D02*
X91605581Y-139417029D01*
X154797500Y-133568700D02*
X154797500Y-134872200D01*
X142284450Y-130968750D02*
X145332450Y-130968750D01*
X161397950Y-130448050D02*
X164445950Y-130448050D01*
X146621500Y-124396500D02*
X146621500Y-126889100D01*
X209010250Y-118700550D02*
X212058250Y-118700550D01*
X212725000Y-118033800D02*
X212725000Y-115777700D01*
D40*
X89859388Y-78184920D02*
X89859008Y-78185300D01*
X89859000Y-59431045D02*
X82937815Y-59431045D01*
X81639000Y-55649860D02*
X82937815Y-54351045D01*
X81689000Y-58185300D02*
X86359000Y-58185300D01*
X96335238Y-56985300D02*
X98159000Y-56985300D01*
X81639000Y-58235300D02*
X81689000Y-58185300D01*
X89859008Y-84525074D02*
X91219234Y-85885300D01*
X94457242Y-78184920D02*
X96159000Y-79886678D01*
X98177815Y-56891045D02*
X98177815Y-59431045D01*
X81639000Y-58235300D02*
X81639000Y-55695300D01*
X81639000Y-55695300D02*
X81639000Y-55649860D01*
X86291772Y-87482328D02*
X86326835Y-87447265D01*
X93759000Y-78184920D02*
X94457242Y-78184920D01*
X95135238Y-58185300D02*
X86359000Y-58185300D01*
X86159000Y-77185300D02*
X86933956Y-76410344D01*
X95683255Y-54351045D02*
X96879000Y-53155300D01*
X89859008Y-78185300D02*
X89859008Y-84525074D01*
X86936817Y-87447265D02*
X86326835Y-87447265D01*
X93759000Y-77485302D02*
X93759000Y-78184920D01*
D39*
X203899100Y-140192300D02*
X203899100Y-138316800D01*
D40*
X92684042Y-76410344D02*
X93759000Y-77485302D01*
X82937815Y-54351045D02*
X86359000Y-54351045D01*
X91219234Y-85885300D02*
X95259000Y-85885300D01*
X95135238Y-58185300D02*
X96335238Y-56985300D01*
X86933956Y-76410344D02*
X92684042Y-76410344D01*
X86359000Y-54351045D02*
X95683255Y-54351045D01*
X86326835Y-87447265D02*
X85946100Y-87447265D01*
X95683255Y-59431045D02*
X89859000Y-59431045D01*
X86291772Y-87510765D02*
X86291772Y-87482328D01*
D39*
X187718700Y-131472100D02*
X187693300Y-131472100D01*
X213309800Y-120924700D02*
X213309800Y-119049200D01*
X213284400Y-101950900D02*
X213284400Y-100075400D01*
X197104000Y-93230700D02*
X197078600Y-93230700D01*
X95624745Y-67051045D02*
X95629000Y-67055300D01*
X95624745Y-67051045D02*
X92134000Y-67051045D01*
X197129400Y-112204500D02*
X197104000Y-112204500D01*
X198004000Y-93230700D02*
X197104000Y-93230700D01*
X92134000Y-67051045D02*
X82937815Y-67051045D01*
X197953200Y-73977500D02*
X197053200Y-73977500D01*
X95629000Y-67055300D02*
X96929000Y-65755300D01*
X198029400Y-112204500D02*
X197129400Y-112204500D01*
X213233600Y-82697700D02*
X213233600Y-80822200D01*
X188618700Y-131472100D02*
X187718700Y-131472100D01*
X197991300Y-55118000D02*
X197091300Y-55118000D01*
X197053200Y-73977500D02*
X197027800Y-73977500D01*
X184747500Y-138693700D02*
X184747500Y-136818200D01*
X213271700Y-63838200D02*
X213271700Y-61962700D01*
X197091300Y-55118000D02*
X197065900Y-55118000D01*
X92634000Y-69591045D02*
X95683255Y-69591045D01*
X194247100Y-119426100D02*
X194247100Y-117550600D01*
X194323300Y-100414200D02*
X194323300Y-98538700D01*
X169467100Y-129973500D02*
X168567100Y-129973500D01*
X178966700Y-110705900D02*
X178066700Y-110705900D01*
X95683255Y-69591045D02*
X96879000Y-68395300D01*
X178142900Y-91694000D02*
X178117500Y-91694000D01*
X179042900Y-91694000D02*
X178142900Y-91694000D01*
X178066700Y-110705900D02*
X178041300Y-110705900D01*
X82937815Y-69591045D02*
X92634000Y-69591045D01*
X159904000Y-47777400D02*
X159004000Y-47777400D01*
X179017500Y-72491600D02*
X178117500Y-72491600D01*
X194259800Y-62301500D02*
X194259800Y-60426000D01*
X178079400Y-53581300D02*
X178054000Y-53581300D01*
X178979400Y-53581300D02*
X178079400Y-53581300D01*
X194297900Y-81211800D02*
X194297900Y-79336300D01*
X178117500Y-72491600D02*
X178092100Y-72491600D01*
X159865900Y-66789300D02*
X158965900Y-66789300D01*
X149517100Y-123952000D02*
X149491700Y-123952000D01*
X150417100Y-123952000D02*
X149517100Y-123952000D01*
X158965900Y-66789300D02*
X158940500Y-66789300D01*
X175146300Y-75509500D02*
X175146300Y-73634000D01*
X158940500Y-85890100D02*
X158915100Y-85890100D01*
X165697500Y-132672200D02*
X165697500Y-130796700D01*
X175184400Y-56497600D02*
X175184400Y-54622100D01*
X159004000Y-47777400D02*
X158978600Y-47777400D01*
X96879000Y-70935300D02*
X95683255Y-72131045D01*
X175120900Y-94610300D02*
X175120900Y-92734800D01*
X140866700Y-103606600D02*
X139966700Y-103606600D01*
X175120900Y-113736500D02*
X175120900Y-111861000D01*
X158940500Y-105016300D02*
X158915100Y-105016300D01*
X93759000Y-73960300D02*
X96394000Y-73960300D01*
X95683255Y-72131045D02*
X93159000Y-72131045D01*
X83648560Y-73960300D02*
X82937815Y-74671045D01*
X156185200Y-74226800D02*
X156185200Y-72351300D01*
X93159000Y-72131045D02*
X82937815Y-72131045D01*
X140866700Y-84582000D02*
X139966700Y-84582000D01*
X159840500Y-105016300D02*
X158940500Y-105016300D01*
X159840500Y-85890100D02*
X158940500Y-85890100D01*
X126120630Y-133435830D02*
X125742700Y-133057900D01*
X140904800Y-65506600D02*
X140004800Y-65506600D01*
X126120630Y-134709391D02*
X126120630Y-133435830D01*
X93759000Y-73960300D02*
X83648560Y-73960300D01*
X156223300Y-55113300D02*
X156223300Y-53237800D01*
X156147100Y-93302200D02*
X156147100Y-91426700D01*
X140004800Y-65506600D02*
X139979400Y-65506600D01*
X156147100Y-112326800D02*
X156147100Y-110451300D01*
X108667025Y-130169175D02*
X107873800Y-130962400D01*
X139966700Y-103606600D02*
X139941300Y-103606600D01*
X139966700Y-84582000D02*
X139941300Y-84582000D01*
X109064357Y-130169175D02*
X108667025Y-130169175D01*
X125742700Y-133057900D02*
X124777500Y-133057900D01*
X140942900Y-46393100D02*
X140042900Y-46393100D01*
X96394000Y-73960300D02*
X96879000Y-73475300D01*
X130403600Y-124472700D02*
X130378200Y-124472700D01*
X140042900Y-46393100D02*
X140017500Y-46393100D01*
D41*
X90675000Y-126775000D02*
X89405000Y-128045000D01*
D39*
X99598910Y-95482700D02*
X99598909Y-98141501D01*
X101473200Y-103998200D02*
X101473200Y-104980100D01*
X99379180Y-78425110D02*
X99379180Y-95262970D01*
X99148900Y-95669100D02*
X98929170Y-95449370D01*
D41*
X87150000Y-108650000D02*
X87150000Y-120800000D01*
X90150000Y-124675000D02*
X86375000Y-120900000D01*
D39*
X100275000Y-103475000D02*
X100275000Y-120600000D01*
D41*
X88425000Y-126045000D02*
X85220000Y-126045000D01*
D39*
X98165115Y-74671045D02*
X99637010Y-76142940D01*
X99187000Y-98553410D02*
X99187000Y-101712000D01*
X99829190Y-76334190D02*
X99829190Y-95076570D01*
X98929170Y-95449370D02*
X98929170Y-83244670D01*
D41*
X84000000Y-126800000D02*
X84000000Y-118993600D01*
X84870000Y-126545000D02*
X84400000Y-126075000D01*
D39*
X99637010Y-76142940D02*
X99637940Y-76142940D01*
D41*
X87150000Y-120800000D02*
X90675000Y-124325000D01*
D39*
X100048919Y-98327901D02*
X99637010Y-98739810D01*
X95148400Y-99529900D02*
X97574100Y-99529900D01*
X99775000Y-102300000D02*
X99775000Y-102975000D01*
D41*
X84800000Y-125625000D02*
X84800000Y-114793600D01*
D39*
X98165115Y-77211045D02*
X99379180Y-78425110D01*
D41*
X90125000Y-103575000D02*
X90750000Y-103575000D01*
X84703200Y-114696800D02*
X82416000Y-112409600D01*
D39*
X100048919Y-95296301D02*
X100048919Y-98327901D01*
D41*
X88425000Y-127045000D02*
X89505000Y-127045000D01*
D39*
X100275000Y-120600000D02*
X102191900Y-122516900D01*
X102191900Y-122516900D02*
X104190800Y-122516900D01*
X99598909Y-98141501D02*
X99187000Y-98553410D01*
D41*
X88300000Y-107500000D02*
X87150000Y-108650000D01*
D39*
X100225000Y-102075000D02*
X100225000Y-102750000D01*
D41*
X84000000Y-118993600D02*
X82416000Y-117409600D01*
X85220000Y-126045000D02*
X84800000Y-125625000D01*
D39*
X100225000Y-102750000D02*
X101473200Y-103998200D01*
D41*
X89505000Y-127045000D02*
X90150000Y-126400000D01*
D39*
X99637940Y-76142940D02*
X99829190Y-76334190D01*
X99187000Y-101712000D02*
X99775000Y-102300000D01*
D41*
X84745000Y-127545000D02*
X84000000Y-126800000D01*
X90150000Y-126400000D02*
X90150000Y-124675000D01*
D39*
X92803300Y-101875000D02*
X95148400Y-99529900D01*
X99379180Y-95262970D02*
X99598910Y-95482700D01*
D41*
X86375000Y-107325000D02*
X90125000Y-103575000D01*
X86375000Y-120900000D02*
X86375000Y-107325000D01*
D39*
X90750000Y-103575000D02*
X90750000Y-102625000D01*
D41*
X84800000Y-114793600D02*
X84703200Y-114696800D01*
D39*
X98165115Y-82480615D02*
X98165115Y-79751045D01*
X91500000Y-101875000D02*
X92803300Y-101875000D01*
X99637010Y-101487010D02*
X100225000Y-102075000D01*
D41*
X88425000Y-126545000D02*
X84870000Y-126545000D01*
D40*
X88325000Y-103675000D02*
X90718100Y-101281900D01*
D41*
X84400000Y-126075000D02*
X84400000Y-116893600D01*
D39*
X98929170Y-83244670D02*
X98165115Y-82480615D01*
X99775000Y-102975000D02*
X100275000Y-103475000D01*
D41*
X89405000Y-128045000D02*
X88425000Y-128045000D01*
X84400000Y-116893600D02*
X82416000Y-114909600D01*
D39*
X97574100Y-99529900D02*
X99148900Y-97955100D01*
X99829190Y-95076570D02*
X100048919Y-95296301D01*
D41*
X88425000Y-127545000D02*
X84745000Y-127545000D01*
X90675000Y-124325000D02*
X90675000Y-126775000D01*
D39*
X99637010Y-98739810D02*
X99637010Y-101487010D01*
D40*
X90718100Y-101281900D02*
X90718100Y-99152000D01*
D39*
X99148900Y-97955100D02*
X99148900Y-95669100D01*
X90750000Y-102625000D02*
X91500000Y-101875000D01*
D41*
X86375000Y-120900000D02*
X86375000Y-120500000D01*
%TD*%
M02*
