%TF.GenerationSoftware,KiCad,Pcbnew,(5.99.0-9486-g75c525af4f)*%
%TF.CreationDate,2021-07-25T02:57:46+01:00*%
%TF.ProjectId,LimeKeyboard,4c696d65-4b65-4796-926f-6172642e6b69,rev?*%
%TF.SameCoordinates,Original*%
%TF.FileFunction,Legend,Bot*%
%TF.FilePolarity,Positive*%
%FSLAX46Y46*%
G04 Gerber Fmt 4.6, Leading zero omitted, Abs format (unit mm)*
G04 Created by KiCad (PCBNEW (5.99.0-9486-g75c525af4f)) date 2021-07-25 02:57:46*
%MOMM*%
%LPD*%
G01*
G04 APERTURE LIST*
%ADD10C,0.125000*%
%ADD11C,0.150000*%
%ADD12C,0.200000*%
%ADD13C,0.100000*%
%ADD14C,0.010000*%
%ADD15C,0.300000*%
%ADD16C,0.120000*%
%ADD17C,1.524000*%
G04 APERTURE END LIST*
D10*
X92369047Y-65614285D02*
X92535714Y-65614285D01*
X92535714Y-65876190D02*
X92535714Y-65376190D01*
X92297619Y-65376190D01*
X92130952Y-65733333D02*
X91892857Y-65733333D01*
X92178571Y-65876190D02*
X92011904Y-65376190D01*
X91845238Y-65876190D01*
X91392857Y-65828571D02*
X91416666Y-65852380D01*
X91488095Y-65876190D01*
X91535714Y-65876190D01*
X91607142Y-65852380D01*
X91654761Y-65804761D01*
X91678571Y-65757142D01*
X91702380Y-65661904D01*
X91702380Y-65590476D01*
X91678571Y-65495238D01*
X91654761Y-65447619D01*
X91607142Y-65400000D01*
X91535714Y-65376190D01*
X91488095Y-65376190D01*
X91416666Y-65400000D01*
X91392857Y-65423809D01*
X91178571Y-65614285D02*
X91011904Y-65614285D01*
X90940476Y-65876190D02*
X91178571Y-65876190D01*
X91178571Y-65376190D01*
X90940476Y-65376190D01*
X90345238Y-65876190D02*
X90345238Y-65376190D01*
X90226190Y-65376190D01*
X90154761Y-65400000D01*
X90107142Y-65447619D01*
X90083333Y-65495238D01*
X90059523Y-65590476D01*
X90059523Y-65661904D01*
X90083333Y-65757142D01*
X90107142Y-65804761D01*
X90154761Y-65852380D01*
X90226190Y-65876190D01*
X90345238Y-65876190D01*
X89750000Y-65376190D02*
X89654761Y-65376190D01*
X89607142Y-65400000D01*
X89559523Y-65447619D01*
X89535714Y-65542857D01*
X89535714Y-65709523D01*
X89559523Y-65804761D01*
X89607142Y-65852380D01*
X89654761Y-65876190D01*
X89750000Y-65876190D01*
X89797619Y-65852380D01*
X89845238Y-65804761D01*
X89869047Y-65709523D01*
X89869047Y-65542857D01*
X89845238Y-65447619D01*
X89797619Y-65400000D01*
X89750000Y-65376190D01*
X89369047Y-65376190D02*
X89250000Y-65876190D01*
X89154761Y-65519047D01*
X89059523Y-65876190D01*
X88940476Y-65376190D01*
X88750000Y-65876190D02*
X88750000Y-65376190D01*
X88464285Y-65876190D01*
X88464285Y-65376190D01*
X209029761Y-89076190D02*
X209267857Y-89076190D01*
X209267857Y-88576190D01*
X208863095Y-88814285D02*
X208696428Y-88814285D01*
X208625000Y-89076190D02*
X208863095Y-89076190D01*
X208863095Y-88576190D01*
X208625000Y-88576190D01*
X208410714Y-89076190D02*
X208410714Y-88576190D01*
X208291666Y-88576190D01*
X208220238Y-88600000D01*
X208172619Y-88647619D01*
X208148809Y-88695238D01*
X208125000Y-88790476D01*
X208125000Y-88861904D01*
X208148809Y-88957142D01*
X208172619Y-89004761D01*
X208220238Y-89052380D01*
X208291666Y-89076190D01*
X208410714Y-89076190D01*
X207529761Y-88814285D02*
X207363095Y-88814285D01*
X207291666Y-89076190D02*
X207529761Y-89076190D01*
X207529761Y-88576190D01*
X207291666Y-88576190D01*
X207125000Y-88576190D02*
X206791666Y-89076190D01*
X206791666Y-88576190D02*
X207125000Y-89076190D01*
X206672619Y-88576190D02*
X206386904Y-88576190D01*
X206529761Y-89076190D02*
X206529761Y-88576190D01*
X206220238Y-88814285D02*
X206053571Y-88814285D01*
X205982142Y-89076190D02*
X206220238Y-89076190D01*
X206220238Y-88576190D01*
X205982142Y-88576190D01*
X205767857Y-89076190D02*
X205767857Y-88576190D01*
X205482142Y-89076190D01*
X205482142Y-88576190D01*
X205244047Y-89076190D02*
X205244047Y-88576190D01*
X205125000Y-88576190D01*
X205053571Y-88600000D01*
X205005952Y-88647619D01*
X204982142Y-88695238D01*
X204958333Y-88790476D01*
X204958333Y-88861904D01*
X204982142Y-88957142D01*
X205005952Y-89004761D01*
X205053571Y-89052380D01*
X205125000Y-89076190D01*
X205244047Y-89076190D01*
X100034522Y-92201190D02*
X100272618Y-92201190D01*
X100272618Y-91701190D01*
X99867856Y-91939285D02*
X99701189Y-91939285D01*
X99629760Y-92201190D02*
X99867856Y-92201190D01*
X99867856Y-91701190D01*
X99629760Y-91701190D01*
X99415475Y-92201190D02*
X99415475Y-91701190D01*
X99296427Y-91701190D01*
X99224999Y-91725000D01*
X99177379Y-91772619D01*
X99153570Y-91820238D01*
X99129760Y-91915476D01*
X99129760Y-91986904D01*
X99153570Y-92082142D01*
X99177379Y-92129761D01*
X99224999Y-92177380D01*
X99296427Y-92201190D01*
X99415475Y-92201190D01*
X98439284Y-91701190D02*
X98344046Y-91701190D01*
X98296427Y-91725000D01*
X98248808Y-91772619D01*
X98224999Y-91867857D01*
X98224999Y-92034523D01*
X98248808Y-92129761D01*
X98296427Y-92177380D01*
X98344046Y-92201190D01*
X98439284Y-92201190D01*
X98486903Y-92177380D01*
X98534522Y-92129761D01*
X98558332Y-92034523D01*
X98558332Y-91867857D01*
X98534522Y-91772619D01*
X98486903Y-91725000D01*
X98439284Y-91701190D01*
X98082141Y-91701190D02*
X97915475Y-92201190D01*
X97748808Y-91701190D01*
X97582141Y-91939285D02*
X97415475Y-91939285D01*
X97344046Y-92201190D02*
X97582141Y-92201190D01*
X97582141Y-91701190D01*
X97344046Y-91701190D01*
X96844046Y-92201190D02*
X97010713Y-91963095D01*
X97129760Y-92201190D02*
X97129760Y-91701190D01*
X96939284Y-91701190D01*
X96891665Y-91725000D01*
X96867856Y-91748809D01*
X96844046Y-91796428D01*
X96844046Y-91867857D01*
X96867856Y-91915476D01*
X96891665Y-91939285D01*
X96939284Y-91963095D01*
X97129760Y-91963095D01*
X96344046Y-92201190D02*
X96510713Y-91963095D01*
X96629760Y-92201190D02*
X96629760Y-91701190D01*
X96439284Y-91701190D01*
X96391665Y-91725000D01*
X96367856Y-91748809D01*
X96344046Y-91796428D01*
X96344046Y-91867857D01*
X96367856Y-91915476D01*
X96391665Y-91939285D01*
X96439284Y-91963095D01*
X96629760Y-91963095D01*
X96129760Y-92201190D02*
X96129760Y-91701190D01*
X95891665Y-92201190D02*
X95891665Y-91701190D01*
X95772618Y-91701190D01*
X95701189Y-91725000D01*
X95653570Y-91772619D01*
X95629760Y-91820238D01*
X95605951Y-91915476D01*
X95605951Y-91986904D01*
X95629760Y-92082142D01*
X95653570Y-92129761D01*
X95701189Y-92177380D01*
X95772618Y-92201190D01*
X95891665Y-92201190D01*
X95391665Y-91939285D02*
X95224999Y-91939285D01*
X95153570Y-92201190D02*
X95391665Y-92201190D01*
X95391665Y-91701190D01*
X95153570Y-91701190D01*
D11*
X93473809Y-65027380D02*
X93473809Y-64027380D01*
X93092857Y-64027380D01*
X92997619Y-64075000D01*
X92950000Y-64122619D01*
X92902380Y-64217857D01*
X92902380Y-64360714D01*
X92950000Y-64455952D01*
X92997619Y-64503571D01*
X93092857Y-64551190D01*
X93473809Y-64551190D01*
X92473809Y-65027380D02*
X92473809Y-64360714D01*
X92473809Y-64551190D02*
X92426190Y-64455952D01*
X92378571Y-64408333D01*
X92283333Y-64360714D01*
X92188095Y-64360714D01*
X91711904Y-65027380D02*
X91807142Y-64979761D01*
X91854761Y-64932142D01*
X91902380Y-64836904D01*
X91902380Y-64551190D01*
X91854761Y-64455952D01*
X91807142Y-64408333D01*
X91711904Y-64360714D01*
X91569047Y-64360714D01*
X91473809Y-64408333D01*
X91426190Y-64455952D01*
X91378571Y-64551190D01*
X91378571Y-64836904D01*
X91426190Y-64932142D01*
X91473809Y-64979761D01*
X91569047Y-65027380D01*
X91711904Y-65027380D01*
X90950000Y-65027380D02*
X90950000Y-64027380D01*
X90616666Y-64741666D01*
X90283333Y-64027380D01*
X90283333Y-65027380D01*
X89807142Y-65027380D02*
X89807142Y-64360714D01*
X89807142Y-64027380D02*
X89854761Y-64075000D01*
X89807142Y-64122619D01*
X89759523Y-64075000D01*
X89807142Y-64027380D01*
X89807142Y-64122619D01*
X88902380Y-64979761D02*
X88997619Y-65027380D01*
X89188095Y-65027380D01*
X89283333Y-64979761D01*
X89330952Y-64932142D01*
X89378571Y-64836904D01*
X89378571Y-64551190D01*
X89330952Y-64455952D01*
X89283333Y-64408333D01*
X89188095Y-64360714D01*
X88997619Y-64360714D01*
X88902380Y-64408333D01*
X88473809Y-65027380D02*
X88473809Y-64360714D01*
X88473809Y-64551190D02*
X88426190Y-64455952D01*
X88378571Y-64408333D01*
X88283333Y-64360714D01*
X88188095Y-64360714D01*
X87711904Y-65027380D02*
X87807142Y-64979761D01*
X87854761Y-64932142D01*
X87902380Y-64836904D01*
X87902380Y-64551190D01*
X87854761Y-64455952D01*
X87807142Y-64408333D01*
X87711904Y-64360714D01*
X87569047Y-64360714D01*
X87473809Y-64408333D01*
X87426190Y-64455952D01*
X87378571Y-64551190D01*
X87378571Y-64836904D01*
X87426190Y-64932142D01*
X87473809Y-64979761D01*
X87569047Y-65027380D01*
X87711904Y-65027380D01*
X91105495Y-80954895D02*
X90950676Y-80954895D01*
X90873266Y-80993600D01*
X90795857Y-81071009D01*
X90757152Y-81225828D01*
X90757152Y-81496761D01*
X90795857Y-81651580D01*
X90873266Y-81728990D01*
X90950676Y-81767695D01*
X91105495Y-81767695D01*
X91182904Y-81728990D01*
X91260314Y-81651580D01*
X91299019Y-81496761D01*
X91299019Y-81225828D01*
X91260314Y-81071009D01*
X91182904Y-80993600D01*
X91105495Y-80954895D01*
X90021761Y-81767695D02*
X90408809Y-81767695D01*
X90408809Y-80954895D01*
X89750828Y-81341942D02*
X89479895Y-81341942D01*
X89363780Y-81767695D02*
X89750828Y-81767695D01*
X89750828Y-80954895D01*
X89363780Y-80954895D01*
X89015438Y-81767695D02*
X89015438Y-80954895D01*
X88821914Y-80954895D01*
X88705800Y-80993600D01*
X88628390Y-81071009D01*
X88589685Y-81148419D01*
X88550980Y-81303238D01*
X88550980Y-81419352D01*
X88589685Y-81574171D01*
X88628390Y-81651580D01*
X88705800Y-81728990D01*
X88821914Y-81767695D01*
X89015438Y-81767695D01*
X82831404Y-85938095D02*
X82450452Y-85671428D01*
X82831404Y-85480952D02*
X82031404Y-85480952D01*
X82031404Y-85785714D01*
X82069500Y-85861904D01*
X82107595Y-85900000D01*
X82183785Y-85938095D01*
X82298071Y-85938095D01*
X82374261Y-85900000D01*
X82412357Y-85861904D01*
X82450452Y-85785714D01*
X82450452Y-85480952D01*
X82412357Y-86280952D02*
X82412357Y-86547619D01*
X82831404Y-86661904D02*
X82831404Y-86280952D01*
X82031404Y-86280952D01*
X82031404Y-86661904D01*
X82793309Y-86966666D02*
X82831404Y-87080952D01*
X82831404Y-87271428D01*
X82793309Y-87347619D01*
X82755214Y-87385714D01*
X82679023Y-87423809D01*
X82602833Y-87423809D01*
X82526642Y-87385714D01*
X82488547Y-87347619D01*
X82450452Y-87271428D01*
X82412357Y-87119047D01*
X82374261Y-87042857D01*
X82336166Y-87004761D01*
X82259976Y-86966666D01*
X82183785Y-86966666D01*
X82107595Y-87004761D01*
X82069500Y-87042857D01*
X82031404Y-87119047D01*
X82031404Y-87309523D01*
X82069500Y-87423809D01*
X82412357Y-87766666D02*
X82412357Y-88033333D01*
X82831404Y-88147619D02*
X82831404Y-87766666D01*
X82031404Y-87766666D01*
X82031404Y-88147619D01*
X82031404Y-88376190D02*
X82031404Y-88833333D01*
X82831404Y-88604761D02*
X82031404Y-88604761D01*
X86327380Y-94363095D02*
X86327380Y-94934523D01*
X87327380Y-94648809D02*
X86327380Y-94648809D01*
X87327380Y-95839285D02*
X86851190Y-95505952D01*
X87327380Y-95267857D02*
X86327380Y-95267857D01*
X86327380Y-95648809D01*
X86375000Y-95744047D01*
X86422619Y-95791666D01*
X86517857Y-95839285D01*
X86660714Y-95839285D01*
X86755952Y-95791666D01*
X86803571Y-95744047D01*
X86851190Y-95648809D01*
X86851190Y-95267857D01*
X87327380Y-96839285D02*
X86851190Y-96505952D01*
X87327380Y-96267857D02*
X86327380Y-96267857D01*
X86327380Y-96648809D01*
X86375000Y-96744047D01*
X86422619Y-96791666D01*
X86517857Y-96839285D01*
X86660714Y-96839285D01*
X86755952Y-96791666D01*
X86803571Y-96744047D01*
X86851190Y-96648809D01*
X86851190Y-96267857D01*
X87279761Y-97220238D02*
X87327380Y-97363095D01*
X87327380Y-97601190D01*
X87279761Y-97696428D01*
X87232142Y-97744047D01*
X87136904Y-97791666D01*
X87041666Y-97791666D01*
X86946428Y-97744047D01*
X86898809Y-97696428D01*
X86851190Y-97601190D01*
X86803571Y-97410714D01*
X86755952Y-97315476D01*
X86708333Y-97267857D01*
X86613095Y-97220238D01*
X86517857Y-97220238D01*
X86422619Y-97267857D01*
X86375000Y-97315476D01*
X86327380Y-97410714D01*
X86327380Y-97648809D01*
X86375000Y-97791666D01*
D12*
X212200000Y-52836904D02*
X212200000Y-52036904D01*
X211933333Y-52608333D01*
X211666666Y-52036904D01*
X211666666Y-52836904D01*
X210942857Y-52836904D02*
X210942857Y-52417857D01*
X210980952Y-52341666D01*
X211057142Y-52303571D01*
X211209523Y-52303571D01*
X211285714Y-52341666D01*
X210942857Y-52798809D02*
X211019047Y-52836904D01*
X211209523Y-52836904D01*
X211285714Y-52798809D01*
X211323809Y-52722619D01*
X211323809Y-52646428D01*
X211285714Y-52570238D01*
X211209523Y-52532142D01*
X211019047Y-52532142D01*
X210942857Y-52494047D01*
X210219047Y-52836904D02*
X210219047Y-52036904D01*
X210219047Y-52798809D02*
X210295238Y-52836904D01*
X210447619Y-52836904D01*
X210523809Y-52798809D01*
X210561904Y-52760714D01*
X210600000Y-52684523D01*
X210600000Y-52455952D01*
X210561904Y-52379761D01*
X210523809Y-52341666D01*
X210447619Y-52303571D01*
X210295238Y-52303571D01*
X210219047Y-52341666D01*
X209533333Y-52798809D02*
X209609523Y-52836904D01*
X209761904Y-52836904D01*
X209838095Y-52798809D01*
X209876190Y-52722619D01*
X209876190Y-52417857D01*
X209838095Y-52341666D01*
X209761904Y-52303571D01*
X209609523Y-52303571D01*
X209533333Y-52341666D01*
X209495238Y-52417857D01*
X209495238Y-52494047D01*
X209876190Y-52570238D01*
X208542857Y-52836904D02*
X208542857Y-52036904D01*
X208542857Y-52341666D02*
X208466666Y-52303571D01*
X208314285Y-52303571D01*
X208238095Y-52341666D01*
X208200000Y-52379761D01*
X208161904Y-52455952D01*
X208161904Y-52684523D01*
X208200000Y-52760714D01*
X208238095Y-52798809D01*
X208314285Y-52836904D01*
X208466666Y-52836904D01*
X208542857Y-52798809D01*
X207895238Y-52303571D02*
X207704761Y-52836904D01*
X207514285Y-52303571D02*
X207704761Y-52836904D01*
X207780952Y-53027380D01*
X207819047Y-53065476D01*
X207895238Y-53103571D01*
X206600000Y-52836904D02*
X206600000Y-52036904D01*
X206600000Y-52417857D02*
X206142857Y-52417857D01*
X206142857Y-52836904D02*
X206142857Y-52036904D01*
X205457142Y-52798809D02*
X205533333Y-52836904D01*
X205685714Y-52836904D01*
X205761904Y-52798809D01*
X205800000Y-52722619D01*
X205800000Y-52417857D01*
X205761904Y-52341666D01*
X205685714Y-52303571D01*
X205533333Y-52303571D01*
X205457142Y-52341666D01*
X205419047Y-52417857D01*
X205419047Y-52494047D01*
X205800000Y-52570238D01*
X204961904Y-52836904D02*
X205038095Y-52798809D01*
X205076190Y-52722619D01*
X205076190Y-52036904D01*
X204542857Y-52836904D02*
X204619047Y-52798809D01*
X204657142Y-52722619D01*
X204657142Y-52036904D01*
X204276190Y-52798809D02*
X204161904Y-52836904D01*
X203971428Y-52836904D01*
X203895238Y-52798809D01*
X203857142Y-52760714D01*
X203819047Y-52684523D01*
X203819047Y-52608333D01*
X203857142Y-52532142D01*
X203895238Y-52494047D01*
X203971428Y-52455952D01*
X204123809Y-52417857D01*
X204200000Y-52379761D01*
X204238095Y-52341666D01*
X204276190Y-52265476D01*
X204276190Y-52189285D01*
X204238095Y-52113095D01*
X204200000Y-52075000D01*
X204123809Y-52036904D01*
X203933333Y-52036904D01*
X203819047Y-52075000D01*
X203476190Y-52836904D02*
X203476190Y-52303571D01*
X203476190Y-52036904D02*
X203514285Y-52075000D01*
X203476190Y-52113095D01*
X203438095Y-52075000D01*
X203476190Y-52036904D01*
X203476190Y-52113095D01*
X203095238Y-52303571D02*
X203095238Y-52836904D01*
X203095238Y-52379761D02*
X203057142Y-52341666D01*
X202980952Y-52303571D01*
X202866666Y-52303571D01*
X202790476Y-52341666D01*
X202752380Y-52417857D01*
X202752380Y-52836904D01*
X202028571Y-52303571D02*
X202028571Y-52951190D01*
X202066666Y-53027380D01*
X202104761Y-53065476D01*
X202180952Y-53103571D01*
X202295238Y-53103571D01*
X202371428Y-53065476D01*
X202028571Y-52798809D02*
X202104761Y-52836904D01*
X202257142Y-52836904D01*
X202333333Y-52798809D01*
X202371428Y-52760714D01*
X202409523Y-52684523D01*
X202409523Y-52455952D01*
X202371428Y-52379761D01*
X202333333Y-52341666D01*
X202257142Y-52303571D01*
X202104761Y-52303571D01*
X202028571Y-52341666D01*
X201190476Y-52760714D02*
X201228571Y-52798809D01*
X201342857Y-52836904D01*
X201419047Y-52836904D01*
X201533333Y-52798809D01*
X201609523Y-52722619D01*
X201647619Y-52646428D01*
X201685714Y-52494047D01*
X201685714Y-52379761D01*
X201647619Y-52227380D01*
X201609523Y-52151190D01*
X201533333Y-52075000D01*
X201419047Y-52036904D01*
X201342857Y-52036904D01*
X201228571Y-52075000D01*
X201190476Y-52113095D01*
X200733333Y-52836904D02*
X200809523Y-52798809D01*
X200847619Y-52760714D01*
X200885714Y-52684523D01*
X200885714Y-52455952D01*
X200847619Y-52379761D01*
X200809523Y-52341666D01*
X200733333Y-52303571D01*
X200619047Y-52303571D01*
X200542857Y-52341666D01*
X200504761Y-52379761D01*
X200466666Y-52455952D01*
X200466666Y-52684523D01*
X200504761Y-52760714D01*
X200542857Y-52798809D01*
X200619047Y-52836904D01*
X200733333Y-52836904D01*
X199780952Y-52836904D02*
X199780952Y-52036904D01*
X199780952Y-52798809D02*
X199857142Y-52836904D01*
X200009523Y-52836904D01*
X200085714Y-52798809D01*
X200123809Y-52760714D01*
X200161904Y-52684523D01*
X200161904Y-52455952D01*
X200123809Y-52379761D01*
X200085714Y-52341666D01*
X200009523Y-52303571D01*
X199857142Y-52303571D01*
X199780952Y-52341666D01*
X199095238Y-52798809D02*
X199171428Y-52836904D01*
X199323809Y-52836904D01*
X199400000Y-52798809D01*
X199438095Y-52722619D01*
X199438095Y-52417857D01*
X199400000Y-52341666D01*
X199323809Y-52303571D01*
X199171428Y-52303571D01*
X199095238Y-52341666D01*
X199057142Y-52417857D01*
X199057142Y-52494047D01*
X199438095Y-52570238D01*
X198714285Y-52836904D02*
X198714285Y-52303571D01*
X198714285Y-52455952D02*
X198676190Y-52379761D01*
X198638095Y-52341666D01*
X198561904Y-52303571D01*
X198485714Y-52303571D01*
X105273747Y-146251724D02*
X105173838Y-146364392D01*
X104967642Y-146483440D01*
X104861354Y-146489819D01*
X104796305Y-146472390D01*
X104707447Y-146413720D01*
X104659827Y-146331242D01*
X104653448Y-146224954D01*
X104670878Y-146159905D01*
X104729547Y-146071047D01*
X104870694Y-145934569D01*
X104929363Y-145845711D01*
X104946793Y-145780662D01*
X104940413Y-145674374D01*
X104892794Y-145591895D01*
X104803936Y-145533226D01*
X104738887Y-145515796D01*
X104632599Y-145522176D01*
X104426403Y-145641224D01*
X104326494Y-145753892D01*
X103766574Y-146022176D02*
X103601616Y-146117414D01*
X103542947Y-146206273D01*
X103508088Y-146336370D01*
X103562087Y-146525137D01*
X103728753Y-146813812D01*
X103865231Y-146954960D01*
X103995328Y-146989819D01*
X104101616Y-146983440D01*
X104266574Y-146888201D01*
X104325243Y-146799343D01*
X104360102Y-146669245D01*
X104306104Y-146480479D01*
X104139437Y-146191804D01*
X104002959Y-146050656D01*
X103872862Y-146015796D01*
X103766574Y-146022176D01*
X103024266Y-146450747D02*
X103429028Y-147151816D01*
X103435408Y-147258104D01*
X103417978Y-147323153D01*
X103359309Y-147412011D01*
X103194352Y-147507249D01*
X103088064Y-147513629D01*
X103023015Y-147496199D01*
X102934156Y-147437530D01*
X102529395Y-146736462D01*
X102122130Y-148126297D02*
X102172710Y-147547237D01*
X102617001Y-147840582D02*
X102117001Y-146974557D01*
X101787087Y-147165033D01*
X101728418Y-147253892D01*
X101710988Y-147318940D01*
X101717368Y-147425229D01*
X101788796Y-147548946D01*
X101877655Y-147607616D01*
X101942704Y-147625045D01*
X102048992Y-147618666D01*
X102378906Y-147428189D01*
X100967429Y-148792963D02*
X101026098Y-148704105D01*
X101019719Y-148597817D01*
X100591147Y-147855509D01*
X100637515Y-148983440D02*
X100304182Y-148406089D01*
X100137515Y-148117414D02*
X100202564Y-148134844D01*
X100185134Y-148199893D01*
X100120085Y-148182463D01*
X100137515Y-148117414D01*
X100185134Y-148199893D01*
X100225122Y-149221535D02*
X99891788Y-148644185D01*
X99939408Y-148726663D02*
X99874359Y-148709233D01*
X99768071Y-148715613D01*
X99644353Y-148787042D01*
X99585684Y-148875900D01*
X99592063Y-148982188D01*
X99853968Y-149435821D01*
X99592063Y-148982188D02*
X99503205Y-148923519D01*
X99396917Y-148929899D01*
X99273199Y-149001327D01*
X99214530Y-149090186D01*
X99220910Y-149196474D01*
X99482814Y-149650106D01*
X98716697Y-150037438D02*
X98822985Y-150031059D01*
X98987943Y-149935821D01*
X99046612Y-149846962D01*
X99040232Y-149740674D01*
X98849756Y-149410760D01*
X98760897Y-149352091D01*
X98654609Y-149358470D01*
X98489652Y-149453708D01*
X98430983Y-149542567D01*
X98437363Y-149648855D01*
X98484982Y-149731333D01*
X98944994Y-149575717D01*
X97417430Y-150072756D02*
X97544567Y-150769154D01*
X97005037Y-150310851D01*
X96554824Y-151340582D02*
X97049695Y-151054868D01*
X96802259Y-151197725D02*
X96302259Y-150331700D01*
X96456167Y-150407799D01*
X96586264Y-150442658D01*
X96692552Y-150436279D01*
D13*
X98912500Y-106900000D02*
X80837500Y-106900000D01*
X80837500Y-106900000D02*
X80837500Y-122950000D01*
X80837500Y-122950000D02*
X98912500Y-122950000D01*
X98912500Y-122950000D02*
X98912500Y-106900000D01*
D10*
%TO.C,JP6*%
X95902380Y-105426190D02*
X95902380Y-105783333D01*
X95926190Y-105854761D01*
X95973809Y-105902380D01*
X96045238Y-105926190D01*
X96092857Y-105926190D01*
X95569047Y-105426190D02*
X95473809Y-105426190D01*
X95426190Y-105450000D01*
X95378571Y-105497619D01*
X95354761Y-105592857D01*
X95354761Y-105759523D01*
X95378571Y-105854761D01*
X95426190Y-105902380D01*
X95473809Y-105926190D01*
X95569047Y-105926190D01*
X95616666Y-105902380D01*
X95664285Y-105854761D01*
X95688095Y-105759523D01*
X95688095Y-105592857D01*
X95664285Y-105497619D01*
X95616666Y-105450000D01*
X95569047Y-105426190D01*
X95045238Y-105688095D02*
X95045238Y-105926190D01*
X95211904Y-105426190D02*
X95045238Y-105688095D01*
X94878571Y-105426190D01*
X94735714Y-105902380D02*
X94664285Y-105926190D01*
X94545238Y-105926190D01*
X94497619Y-105902380D01*
X94473809Y-105878571D01*
X94450000Y-105830952D01*
X94450000Y-105783333D01*
X94473809Y-105735714D01*
X94497619Y-105711904D01*
X94545238Y-105688095D01*
X94640476Y-105664285D01*
X94688095Y-105640476D01*
X94711904Y-105616666D01*
X94735714Y-105569047D01*
X94735714Y-105521428D01*
X94711904Y-105473809D01*
X94688095Y-105450000D01*
X94640476Y-105426190D01*
X94521428Y-105426190D01*
X94450000Y-105450000D01*
X94307142Y-105426190D02*
X94021428Y-105426190D01*
X94164285Y-105926190D02*
X94164285Y-105426190D01*
X93854761Y-105926190D02*
X93854761Y-105426190D01*
X93330952Y-105878571D02*
X93354761Y-105902380D01*
X93426190Y-105926190D01*
X93473809Y-105926190D01*
X93545238Y-105902380D01*
X93592857Y-105854761D01*
X93616666Y-105807142D01*
X93640476Y-105711904D01*
X93640476Y-105640476D01*
X93616666Y-105545238D01*
X93592857Y-105497619D01*
X93545238Y-105450000D01*
X93473809Y-105426190D01*
X93426190Y-105426190D01*
X93354761Y-105450000D01*
X93330952Y-105473809D01*
X93116666Y-105926190D02*
X93116666Y-105426190D01*
X92830952Y-105926190D02*
X93045238Y-105640476D01*
X92830952Y-105426190D02*
X93116666Y-105711904D01*
D11*
%TO.C,R2*%
X88965105Y-87872669D02*
X89231772Y-87491717D01*
X89422248Y-87872669D02*
X89422248Y-87072669D01*
X89117486Y-87072669D01*
X89041295Y-87110765D01*
X89003200Y-87148860D01*
X88965105Y-87225050D01*
X88965105Y-87339336D01*
X89003200Y-87415526D01*
X89041295Y-87453622D01*
X89117486Y-87491717D01*
X89422248Y-87491717D01*
X88203200Y-87872669D02*
X88660343Y-87872669D01*
X88431772Y-87872669D02*
X88431772Y-87072669D01*
X88507962Y-87186955D01*
X88584152Y-87263145D01*
X88660343Y-87301241D01*
X88965105Y-87872669D02*
X89231772Y-87491717D01*
X89422248Y-87872669D02*
X89422248Y-87072669D01*
X89117486Y-87072669D01*
X89041295Y-87110765D01*
X89003200Y-87148860D01*
X88965105Y-87225050D01*
X88965105Y-87339336D01*
X89003200Y-87415526D01*
X89041295Y-87453622D01*
X89117486Y-87491717D01*
X89422248Y-87491717D01*
X88660343Y-87148860D02*
X88622248Y-87110765D01*
X88546057Y-87072669D01*
X88355581Y-87072669D01*
X88279391Y-87110765D01*
X88241295Y-87148860D01*
X88203200Y-87225050D01*
X88203200Y-87301241D01*
X88241295Y-87415526D01*
X88698438Y-87872669D01*
X88203200Y-87872669D01*
%TO.C,LED*%
X100262985Y-87217204D02*
X100643938Y-87217204D01*
X100643938Y-86417204D01*
X99996319Y-86798157D02*
X99729652Y-86798157D01*
X99615366Y-87217204D02*
X99996319Y-87217204D01*
X99996319Y-86417204D01*
X99615366Y-86417204D01*
X99272509Y-87217204D02*
X99272509Y-86417204D01*
X99082033Y-86417204D01*
X98967747Y-86455300D01*
X98891557Y-86531490D01*
X98853461Y-86607680D01*
X98815366Y-86760061D01*
X98815366Y-86874347D01*
X98853461Y-87026728D01*
X98891557Y-87102919D01*
X98967747Y-87179109D01*
X99082033Y-87217204D01*
X99272509Y-87217204D01*
X100853466Y-88982304D02*
X100586800Y-89782304D01*
X100320133Y-88982304D01*
X99596323Y-89706114D02*
X99634419Y-89744209D01*
X99748704Y-89782304D01*
X99824895Y-89782304D01*
X99939180Y-89744209D01*
X100015371Y-89668019D01*
X100053466Y-89591828D01*
X100091561Y-89439447D01*
X100091561Y-89325161D01*
X100053466Y-89172780D01*
X100015371Y-89096590D01*
X99939180Y-89020400D01*
X99824895Y-88982304D01*
X99748704Y-88982304D01*
X99634419Y-89020400D01*
X99596323Y-89058495D01*
X98796323Y-89706114D02*
X98834419Y-89744209D01*
X98948704Y-89782304D01*
X99024895Y-89782304D01*
X99139180Y-89744209D01*
X99215371Y-89668019D01*
X99253466Y-89591828D01*
X99291561Y-89439447D01*
X99291561Y-89325161D01*
X99253466Y-89172780D01*
X99215371Y-89096590D01*
X99139180Y-89020400D01*
X99024895Y-88982304D01*
X98948704Y-88982304D01*
X98834419Y-89020400D01*
X98796323Y-89058495D01*
X100334423Y-83880700D02*
X100410614Y-83842604D01*
X100524900Y-83842604D01*
X100639185Y-83880700D01*
X100715376Y-83956890D01*
X100753471Y-84033080D01*
X100791566Y-84185461D01*
X100791566Y-84299747D01*
X100753471Y-84452128D01*
X100715376Y-84528319D01*
X100639185Y-84604509D01*
X100524900Y-84642604D01*
X100448709Y-84642604D01*
X100334423Y-84604509D01*
X100296328Y-84566414D01*
X100296328Y-84299747D01*
X100448709Y-84299747D01*
X99953471Y-84642604D02*
X99953471Y-83842604D01*
X99496328Y-84642604D01*
X99496328Y-83842604D01*
X99115376Y-84642604D02*
X99115376Y-83842604D01*
X98924900Y-83842604D01*
X98810614Y-83880700D01*
X98734423Y-83956890D01*
X98696328Y-84033080D01*
X98658233Y-84185461D01*
X98658233Y-84299747D01*
X98696328Y-84452128D01*
X98734423Y-84528319D01*
X98810614Y-84604509D01*
X98924900Y-84642604D01*
X99115376Y-84642604D01*
X198344023Y-90056700D02*
X198420214Y-90018604D01*
X198534500Y-90018604D01*
X198648785Y-90056700D01*
X198724976Y-90132890D01*
X198763071Y-90209080D01*
X198801166Y-90361461D01*
X198801166Y-90475747D01*
X198763071Y-90628128D01*
X198724976Y-90704319D01*
X198648785Y-90780509D01*
X198534500Y-90818604D01*
X198458309Y-90818604D01*
X198344023Y-90780509D01*
X198305928Y-90742414D01*
X198305928Y-90475747D01*
X198458309Y-90475747D01*
X197963071Y-90818604D02*
X197963071Y-90018604D01*
X197505928Y-90818604D01*
X197505928Y-90018604D01*
X197124976Y-90818604D02*
X197124976Y-90018604D01*
X196934500Y-90018604D01*
X196820214Y-90056700D01*
X196744023Y-90132890D01*
X196705928Y-90209080D01*
X196667833Y-90361461D01*
X196667833Y-90475747D01*
X196705928Y-90628128D01*
X196744023Y-90704319D01*
X196820214Y-90780509D01*
X196934500Y-90818604D01*
X197124976Y-90818604D01*
X203920866Y-90022404D02*
X203654200Y-90822404D01*
X203387533Y-90022404D01*
X202663723Y-90746214D02*
X202701819Y-90784309D01*
X202816104Y-90822404D01*
X202892295Y-90822404D01*
X203006580Y-90784309D01*
X203082771Y-90708119D01*
X203120866Y-90631928D01*
X203158961Y-90479547D01*
X203158961Y-90365261D01*
X203120866Y-90212880D01*
X203082771Y-90136690D01*
X203006580Y-90060500D01*
X202892295Y-90022404D01*
X202816104Y-90022404D01*
X202701819Y-90060500D01*
X202663723Y-90098595D01*
X201863723Y-90746214D02*
X201901819Y-90784309D01*
X202016104Y-90822404D01*
X202092295Y-90822404D01*
X202206580Y-90784309D01*
X202282771Y-90708119D01*
X202320866Y-90631928D01*
X202358961Y-90479547D01*
X202358961Y-90365261D01*
X202320866Y-90212880D01*
X202282771Y-90136690D01*
X202206580Y-90060500D01*
X202092295Y-90022404D01*
X202016104Y-90022404D01*
X201901819Y-90060500D01*
X201863723Y-90098595D01*
X200828485Y-90847504D02*
X201209438Y-90847504D01*
X201209438Y-90047504D01*
X200561819Y-90428457D02*
X200295152Y-90428457D01*
X200180866Y-90847504D02*
X200561819Y-90847504D01*
X200561819Y-90047504D01*
X200180866Y-90047504D01*
X199838009Y-90847504D02*
X199838009Y-90047504D01*
X199647533Y-90047504D01*
X199533247Y-90085600D01*
X199457057Y-90161790D01*
X199418961Y-90237980D01*
X199380866Y-90390361D01*
X199380866Y-90504647D01*
X199418961Y-90657028D01*
X199457057Y-90733219D01*
X199533247Y-90809409D01*
X199647533Y-90847504D01*
X199838009Y-90847504D01*
%TO.C,R1*%
X88965105Y-90110704D02*
X89231772Y-89729752D01*
X89422248Y-90110704D02*
X89422248Y-89310704D01*
X89117486Y-89310704D01*
X89041295Y-89348800D01*
X89003200Y-89386895D01*
X88965105Y-89463085D01*
X88965105Y-89577371D01*
X89003200Y-89653561D01*
X89041295Y-89691657D01*
X89117486Y-89729752D01*
X89422248Y-89729752D01*
X88203200Y-90110704D02*
X88660343Y-90110704D01*
X88431772Y-90110704D02*
X88431772Y-89310704D01*
X88507962Y-89424990D01*
X88584152Y-89501180D01*
X88660343Y-89539276D01*
%TO.C,P2*%
X95554404Y-86958323D02*
X94754404Y-86958323D01*
X94754404Y-87263085D01*
X94792500Y-87339276D01*
X94830595Y-87377371D01*
X94906785Y-87415466D01*
X95021071Y-87415466D01*
X95097261Y-87377371D01*
X95135357Y-87339276D01*
X95173452Y-87263085D01*
X95173452Y-86958323D01*
X94830595Y-87720228D02*
X94792500Y-87758323D01*
X94754404Y-87834514D01*
X94754404Y-88024990D01*
X94792500Y-88101180D01*
X94830595Y-88139276D01*
X94906785Y-88177371D01*
X94982976Y-88177371D01*
X95097261Y-88139276D01*
X95554404Y-87682133D01*
X95554404Y-88177371D01*
%TO.C,P1*%
X95554404Y-89358323D02*
X94754404Y-89358323D01*
X94754404Y-89663085D01*
X94792500Y-89739276D01*
X94830595Y-89777371D01*
X94906785Y-89815466D01*
X95021071Y-89815466D01*
X95097261Y-89777371D01*
X95135357Y-89739276D01*
X95173452Y-89663085D01*
X95173452Y-89358323D01*
X95554404Y-90577371D02*
X95554404Y-90120228D01*
X95554404Y-90348800D02*
X94754404Y-90348800D01*
X94868690Y-90272609D01*
X94944880Y-90196419D01*
X94982976Y-90120228D01*
D14*
%TO.C,LOGO*%
X95875000Y-99070000D02*
X95675000Y-99070000D01*
X95675000Y-99070000D02*
X95675000Y-99270000D01*
X95675000Y-99270000D02*
X95875000Y-99270000D01*
X95875000Y-99270000D02*
X95875000Y-99070000D01*
X95875000Y-99070000D02*
X95875000Y-99070000D01*
G36*
X95875000Y-99270000D02*
G01*
X95675000Y-99270000D01*
X95675000Y-99070000D01*
X95875000Y-99070000D01*
X95875000Y-99270000D01*
G37*
X95875000Y-99270000D02*
X95675000Y-99270000D01*
X95675000Y-99070000D01*
X95875000Y-99070000D01*
X95875000Y-99270000D01*
X96275000Y-102670000D02*
X96075000Y-102670000D01*
X96075000Y-102670000D02*
X96075000Y-102870000D01*
X96075000Y-102870000D02*
X96275000Y-102870000D01*
X96275000Y-102870000D02*
X96275000Y-102670000D01*
X96275000Y-102670000D02*
X96275000Y-102670000D01*
G36*
X96275000Y-102870000D02*
G01*
X96075000Y-102870000D01*
X96075000Y-102670000D01*
X96275000Y-102670000D01*
X96275000Y-102870000D01*
G37*
X96275000Y-102870000D02*
X96075000Y-102870000D01*
X96075000Y-102670000D01*
X96275000Y-102670000D01*
X96275000Y-102870000D01*
X97675000Y-100470000D02*
X97475000Y-100470000D01*
X97475000Y-100470000D02*
X97475000Y-100670000D01*
X97475000Y-100670000D02*
X97675000Y-100670000D01*
X97675000Y-100670000D02*
X97675000Y-100470000D01*
X97675000Y-100470000D02*
X97675000Y-100470000D01*
G36*
X97675000Y-100670000D02*
G01*
X97475000Y-100670000D01*
X97475000Y-100470000D01*
X97675000Y-100470000D01*
X97675000Y-100670000D01*
G37*
X97675000Y-100670000D02*
X97475000Y-100670000D01*
X97475000Y-100470000D01*
X97675000Y-100470000D01*
X97675000Y-100670000D01*
X95875000Y-102870000D02*
X95675000Y-102870000D01*
X95675000Y-102870000D02*
X95675000Y-103070000D01*
X95675000Y-103070000D02*
X95875000Y-103070000D01*
X95875000Y-103070000D02*
X95875000Y-102870000D01*
X95875000Y-102870000D02*
X95875000Y-102870000D01*
G36*
X95875000Y-103070000D02*
G01*
X95675000Y-103070000D01*
X95675000Y-102870000D01*
X95875000Y-102870000D01*
X95875000Y-103070000D01*
G37*
X95875000Y-103070000D02*
X95675000Y-103070000D01*
X95675000Y-102870000D01*
X95875000Y-102870000D01*
X95875000Y-103070000D01*
X98675000Y-101670000D02*
X98475000Y-101670000D01*
X98475000Y-101670000D02*
X98475000Y-101870000D01*
X98475000Y-101870000D02*
X98675000Y-101870000D01*
X98675000Y-101870000D02*
X98675000Y-101670000D01*
X98675000Y-101670000D02*
X98675000Y-101670000D01*
G36*
X98675000Y-101870000D02*
G01*
X98475000Y-101870000D01*
X98475000Y-101670000D01*
X98675000Y-101670000D01*
X98675000Y-101870000D01*
G37*
X98675000Y-101870000D02*
X98475000Y-101870000D01*
X98475000Y-101670000D01*
X98675000Y-101670000D01*
X98675000Y-101870000D01*
X96675000Y-103270000D02*
X96475000Y-103270000D01*
X96475000Y-103270000D02*
X96475000Y-103470000D01*
X96475000Y-103470000D02*
X96675000Y-103470000D01*
X96675000Y-103470000D02*
X96675000Y-103270000D01*
X96675000Y-103270000D02*
X96675000Y-103270000D01*
G36*
X96675000Y-103470000D02*
G01*
X96475000Y-103470000D01*
X96475000Y-103270000D01*
X96675000Y-103270000D01*
X96675000Y-103470000D01*
G37*
X96675000Y-103470000D02*
X96475000Y-103470000D01*
X96475000Y-103270000D01*
X96675000Y-103270000D01*
X96675000Y-103470000D01*
X97075000Y-99070000D02*
X96875000Y-99070000D01*
X96875000Y-99070000D02*
X96875000Y-99270000D01*
X96875000Y-99270000D02*
X97075000Y-99270000D01*
X97075000Y-99270000D02*
X97075000Y-99070000D01*
X97075000Y-99070000D02*
X97075000Y-99070000D01*
G36*
X97075000Y-99270000D02*
G01*
X96875000Y-99270000D01*
X96875000Y-99070000D01*
X97075000Y-99070000D01*
X97075000Y-99270000D01*
G37*
X97075000Y-99270000D02*
X96875000Y-99270000D01*
X96875000Y-99070000D01*
X97075000Y-99070000D01*
X97075000Y-99270000D01*
X97275000Y-102470000D02*
X97075000Y-102470000D01*
X97075000Y-102470000D02*
X97075000Y-102670000D01*
X97075000Y-102670000D02*
X97275000Y-102670000D01*
X97275000Y-102670000D02*
X97275000Y-102470000D01*
X97275000Y-102470000D02*
X97275000Y-102470000D01*
G36*
X97275000Y-102670000D02*
G01*
X97075000Y-102670000D01*
X97075000Y-102470000D01*
X97275000Y-102470000D01*
X97275000Y-102670000D01*
G37*
X97275000Y-102670000D02*
X97075000Y-102670000D01*
X97075000Y-102470000D01*
X97275000Y-102470000D01*
X97275000Y-102670000D01*
X95875000Y-102470000D02*
X95675000Y-102470000D01*
X95675000Y-102470000D02*
X95675000Y-102670000D01*
X95675000Y-102670000D02*
X95875000Y-102670000D01*
X95875000Y-102670000D02*
X95875000Y-102470000D01*
X95875000Y-102470000D02*
X95875000Y-102470000D01*
G36*
X95875000Y-102670000D02*
G01*
X95675000Y-102670000D01*
X95675000Y-102470000D01*
X95875000Y-102470000D01*
X95875000Y-102670000D01*
G37*
X95875000Y-102670000D02*
X95675000Y-102670000D01*
X95675000Y-102470000D01*
X95875000Y-102470000D01*
X95875000Y-102670000D01*
X97675000Y-100070000D02*
X97475000Y-100070000D01*
X97475000Y-100070000D02*
X97475000Y-100270000D01*
X97475000Y-100270000D02*
X97675000Y-100270000D01*
X97675000Y-100270000D02*
X97675000Y-100070000D01*
X97675000Y-100070000D02*
X97675000Y-100070000D01*
G36*
X97675000Y-100270000D02*
G01*
X97475000Y-100270000D01*
X97475000Y-100070000D01*
X97675000Y-100070000D01*
X97675000Y-100270000D01*
G37*
X97675000Y-100270000D02*
X97475000Y-100270000D01*
X97475000Y-100070000D01*
X97675000Y-100070000D01*
X97675000Y-100270000D01*
X98875000Y-101270000D02*
X98675000Y-101270000D01*
X98675000Y-101270000D02*
X98675000Y-101470000D01*
X98675000Y-101470000D02*
X98875000Y-101470000D01*
X98875000Y-101470000D02*
X98875000Y-101270000D01*
X98875000Y-101270000D02*
X98875000Y-101270000D01*
G36*
X98875000Y-101470000D02*
G01*
X98675000Y-101470000D01*
X98675000Y-101270000D01*
X98875000Y-101270000D01*
X98875000Y-101470000D01*
G37*
X98875000Y-101470000D02*
X98675000Y-101470000D01*
X98675000Y-101270000D01*
X98875000Y-101270000D01*
X98875000Y-101470000D01*
X97475000Y-99670000D02*
X97275000Y-99670000D01*
X97275000Y-99670000D02*
X97275000Y-99870000D01*
X97275000Y-99870000D02*
X97475000Y-99870000D01*
X97475000Y-99870000D02*
X97475000Y-99670000D01*
X97475000Y-99670000D02*
X97475000Y-99670000D01*
G36*
X97475000Y-99870000D02*
G01*
X97275000Y-99870000D01*
X97275000Y-99670000D01*
X97475000Y-99670000D01*
X97475000Y-99870000D01*
G37*
X97475000Y-99870000D02*
X97275000Y-99870000D01*
X97275000Y-99670000D01*
X97475000Y-99670000D01*
X97475000Y-99870000D01*
X97275000Y-103070000D02*
X97075000Y-103070000D01*
X97075000Y-103070000D02*
X97075000Y-103270000D01*
X97075000Y-103270000D02*
X97275000Y-103270000D01*
X97275000Y-103270000D02*
X97275000Y-103070000D01*
X97275000Y-103070000D02*
X97275000Y-103070000D01*
G36*
X97275000Y-103270000D02*
G01*
X97075000Y-103270000D01*
X97075000Y-103070000D01*
X97275000Y-103070000D01*
X97275000Y-103270000D01*
G37*
X97275000Y-103270000D02*
X97075000Y-103270000D01*
X97075000Y-103070000D01*
X97275000Y-103070000D01*
X97275000Y-103270000D01*
X95675000Y-101270000D02*
X95475000Y-101270000D01*
X95475000Y-101270000D02*
X95475000Y-101470000D01*
X95475000Y-101470000D02*
X95675000Y-101470000D01*
X95675000Y-101470000D02*
X95675000Y-101270000D01*
X95675000Y-101270000D02*
X95675000Y-101270000D01*
G36*
X95675000Y-101470000D02*
G01*
X95475000Y-101470000D01*
X95475000Y-101270000D01*
X95675000Y-101270000D01*
X95675000Y-101470000D01*
G37*
X95675000Y-101470000D02*
X95475000Y-101470000D01*
X95475000Y-101270000D01*
X95675000Y-101270000D01*
X95675000Y-101470000D01*
X97075000Y-102670000D02*
X96875000Y-102670000D01*
X96875000Y-102670000D02*
X96875000Y-102870000D01*
X96875000Y-102870000D02*
X97075000Y-102870000D01*
X97075000Y-102870000D02*
X97075000Y-102670000D01*
X97075000Y-102670000D02*
X97075000Y-102670000D01*
G36*
X97075000Y-102870000D02*
G01*
X96875000Y-102870000D01*
X96875000Y-102670000D01*
X97075000Y-102670000D01*
X97075000Y-102870000D01*
G37*
X97075000Y-102870000D02*
X96875000Y-102870000D01*
X96875000Y-102670000D01*
X97075000Y-102670000D01*
X97075000Y-102870000D01*
X95875000Y-103070000D02*
X95675000Y-103070000D01*
X95675000Y-103070000D02*
X95675000Y-103270000D01*
X95675000Y-103270000D02*
X95875000Y-103270000D01*
X95875000Y-103270000D02*
X95875000Y-103070000D01*
X95875000Y-103070000D02*
X95875000Y-103070000D01*
G36*
X95875000Y-103270000D02*
G01*
X95675000Y-103270000D01*
X95675000Y-103070000D01*
X95875000Y-103070000D01*
X95875000Y-103270000D01*
G37*
X95875000Y-103270000D02*
X95675000Y-103270000D01*
X95675000Y-103070000D01*
X95875000Y-103070000D01*
X95875000Y-103270000D01*
X99275000Y-101670000D02*
X99075000Y-101670000D01*
X99075000Y-101670000D02*
X99075000Y-101870000D01*
X99075000Y-101870000D02*
X99275000Y-101870000D01*
X99275000Y-101870000D02*
X99275000Y-101670000D01*
X99275000Y-101670000D02*
X99275000Y-101670000D01*
G36*
X99275000Y-101870000D02*
G01*
X99075000Y-101870000D01*
X99075000Y-101670000D01*
X99275000Y-101670000D01*
X99275000Y-101870000D01*
G37*
X99275000Y-101870000D02*
X99075000Y-101870000D01*
X99075000Y-101670000D01*
X99275000Y-101670000D01*
X99275000Y-101870000D01*
X97875000Y-100870000D02*
X97675000Y-100870000D01*
X97675000Y-100870000D02*
X97675000Y-101070000D01*
X97675000Y-101070000D02*
X97875000Y-101070000D01*
X97875000Y-101070000D02*
X97875000Y-100870000D01*
X97875000Y-100870000D02*
X97875000Y-100870000D01*
G36*
X97875000Y-101070000D02*
G01*
X97675000Y-101070000D01*
X97675000Y-100870000D01*
X97875000Y-100870000D01*
X97875000Y-101070000D01*
G37*
X97875000Y-101070000D02*
X97675000Y-101070000D01*
X97675000Y-100870000D01*
X97875000Y-100870000D01*
X97875000Y-101070000D01*
X95675000Y-101070000D02*
X95475000Y-101070000D01*
X95475000Y-101070000D02*
X95475000Y-101270000D01*
X95475000Y-101270000D02*
X95675000Y-101270000D01*
X95675000Y-101270000D02*
X95675000Y-101070000D01*
X95675000Y-101070000D02*
X95675000Y-101070000D01*
G36*
X95675000Y-101270000D02*
G01*
X95475000Y-101270000D01*
X95475000Y-101070000D01*
X95675000Y-101070000D01*
X95675000Y-101270000D01*
G37*
X95675000Y-101270000D02*
X95475000Y-101270000D01*
X95475000Y-101070000D01*
X95675000Y-101070000D01*
X95675000Y-101270000D01*
X97275000Y-103270000D02*
X97075000Y-103270000D01*
X97075000Y-103270000D02*
X97075000Y-103470000D01*
X97075000Y-103470000D02*
X97275000Y-103470000D01*
X97275000Y-103470000D02*
X97275000Y-103270000D01*
X97275000Y-103270000D02*
X97275000Y-103270000D01*
G36*
X97275000Y-103470000D02*
G01*
X97075000Y-103470000D01*
X97075000Y-103270000D01*
X97275000Y-103270000D01*
X97275000Y-103470000D01*
G37*
X97275000Y-103470000D02*
X97075000Y-103470000D01*
X97075000Y-103270000D01*
X97275000Y-103270000D01*
X97275000Y-103470000D01*
X95875000Y-102670000D02*
X95675000Y-102670000D01*
X95675000Y-102670000D02*
X95675000Y-102870000D01*
X95675000Y-102870000D02*
X95875000Y-102870000D01*
X95875000Y-102870000D02*
X95875000Y-102670000D01*
X95875000Y-102670000D02*
X95875000Y-102670000D01*
G36*
X95875000Y-102870000D02*
G01*
X95675000Y-102870000D01*
X95675000Y-102670000D01*
X95875000Y-102670000D01*
X95875000Y-102870000D01*
G37*
X95875000Y-102870000D02*
X95675000Y-102870000D01*
X95675000Y-102670000D01*
X95875000Y-102670000D01*
X95875000Y-102870000D01*
X98275000Y-101270000D02*
X98075000Y-101270000D01*
X98075000Y-101270000D02*
X98075000Y-101470000D01*
X98075000Y-101470000D02*
X98275000Y-101470000D01*
X98275000Y-101470000D02*
X98275000Y-101270000D01*
X98275000Y-101270000D02*
X98275000Y-101270000D01*
G36*
X98275000Y-101470000D02*
G01*
X98075000Y-101470000D01*
X98075000Y-101270000D01*
X98275000Y-101270000D01*
X98275000Y-101470000D01*
G37*
X98275000Y-101470000D02*
X98075000Y-101470000D01*
X98075000Y-101270000D01*
X98275000Y-101270000D01*
X98275000Y-101470000D01*
X95475000Y-100070000D02*
X95275000Y-100070000D01*
X95275000Y-100070000D02*
X95275000Y-100270000D01*
X95275000Y-100270000D02*
X95475000Y-100270000D01*
X95475000Y-100270000D02*
X95475000Y-100070000D01*
X95475000Y-100070000D02*
X95475000Y-100070000D01*
G36*
X95475000Y-100270000D02*
G01*
X95275000Y-100270000D01*
X95275000Y-100070000D01*
X95475000Y-100070000D01*
X95475000Y-100270000D01*
G37*
X95475000Y-100270000D02*
X95275000Y-100270000D01*
X95275000Y-100070000D01*
X95475000Y-100070000D01*
X95475000Y-100270000D01*
X97875000Y-100670000D02*
X97675000Y-100670000D01*
X97675000Y-100670000D02*
X97675000Y-100870000D01*
X97675000Y-100870000D02*
X97875000Y-100870000D01*
X97875000Y-100870000D02*
X97875000Y-100670000D01*
X97875000Y-100670000D02*
X97875000Y-100670000D01*
G36*
X97875000Y-100870000D02*
G01*
X97675000Y-100870000D01*
X97675000Y-100670000D01*
X97875000Y-100670000D01*
X97875000Y-100870000D01*
G37*
X97875000Y-100870000D02*
X97675000Y-100870000D01*
X97675000Y-100670000D01*
X97875000Y-100670000D01*
X97875000Y-100870000D01*
X95875000Y-100070000D02*
X95675000Y-100070000D01*
X95675000Y-100070000D02*
X95675000Y-100270000D01*
X95675000Y-100270000D02*
X95875000Y-100270000D01*
X95875000Y-100270000D02*
X95875000Y-100070000D01*
X95875000Y-100070000D02*
X95875000Y-100070000D01*
G36*
X95875000Y-100270000D02*
G01*
X95675000Y-100270000D01*
X95675000Y-100070000D01*
X95875000Y-100070000D01*
X95875000Y-100270000D01*
G37*
X95875000Y-100270000D02*
X95675000Y-100270000D01*
X95675000Y-100070000D01*
X95875000Y-100070000D01*
X95875000Y-100270000D01*
X97475000Y-102870000D02*
X97275000Y-102870000D01*
X97275000Y-102870000D02*
X97275000Y-103070000D01*
X97275000Y-103070000D02*
X97475000Y-103070000D01*
X97475000Y-103070000D02*
X97475000Y-102870000D01*
X97475000Y-102870000D02*
X97475000Y-102870000D01*
G36*
X97475000Y-103070000D02*
G01*
X97275000Y-103070000D01*
X97275000Y-102870000D01*
X97475000Y-102870000D01*
X97475000Y-103070000D01*
G37*
X97475000Y-103070000D02*
X97275000Y-103070000D01*
X97275000Y-102870000D01*
X97475000Y-102870000D01*
X97475000Y-103070000D01*
X98875000Y-102670000D02*
X98675000Y-102670000D01*
X98675000Y-102670000D02*
X98675000Y-102870000D01*
X98675000Y-102870000D02*
X98875000Y-102870000D01*
X98875000Y-102870000D02*
X98875000Y-102670000D01*
X98875000Y-102670000D02*
X98875000Y-102670000D01*
G36*
X98875000Y-102870000D02*
G01*
X98675000Y-102870000D01*
X98675000Y-102670000D01*
X98875000Y-102670000D01*
X98875000Y-102870000D01*
G37*
X98875000Y-102870000D02*
X98675000Y-102870000D01*
X98675000Y-102670000D01*
X98875000Y-102670000D01*
X98875000Y-102870000D01*
X96875000Y-99270000D02*
X96675000Y-99270000D01*
X96675000Y-99270000D02*
X96675000Y-99470000D01*
X96675000Y-99470000D02*
X96875000Y-99470000D01*
X96875000Y-99470000D02*
X96875000Y-99270000D01*
X96875000Y-99270000D02*
X96875000Y-99270000D01*
G36*
X96875000Y-99470000D02*
G01*
X96675000Y-99470000D01*
X96675000Y-99270000D01*
X96875000Y-99270000D01*
X96875000Y-99470000D01*
G37*
X96875000Y-99470000D02*
X96675000Y-99470000D01*
X96675000Y-99270000D01*
X96875000Y-99270000D01*
X96875000Y-99470000D01*
X97075000Y-103070000D02*
X96875000Y-103070000D01*
X96875000Y-103070000D02*
X96875000Y-103270000D01*
X96875000Y-103270000D02*
X97075000Y-103270000D01*
X97075000Y-103270000D02*
X97075000Y-103070000D01*
X97075000Y-103070000D02*
X97075000Y-103070000D01*
G36*
X97075000Y-103270000D02*
G01*
X96875000Y-103270000D01*
X96875000Y-103070000D01*
X97075000Y-103070000D01*
X97075000Y-103270000D01*
G37*
X97075000Y-103270000D02*
X96875000Y-103270000D01*
X96875000Y-103070000D01*
X97075000Y-103070000D01*
X97075000Y-103270000D01*
X95475000Y-100270000D02*
X95275000Y-100270000D01*
X95275000Y-100270000D02*
X95275000Y-100470000D01*
X95275000Y-100470000D02*
X95475000Y-100470000D01*
X95475000Y-100470000D02*
X95475000Y-100270000D01*
X95475000Y-100270000D02*
X95475000Y-100270000D01*
G36*
X95475000Y-100470000D02*
G01*
X95275000Y-100470000D01*
X95275000Y-100270000D01*
X95475000Y-100270000D01*
X95475000Y-100470000D01*
G37*
X95475000Y-100470000D02*
X95275000Y-100470000D01*
X95275000Y-100270000D01*
X95475000Y-100270000D01*
X95475000Y-100470000D01*
X96475000Y-103070000D02*
X96275000Y-103070000D01*
X96275000Y-103070000D02*
X96275000Y-103270000D01*
X96275000Y-103270000D02*
X96475000Y-103270000D01*
X96475000Y-103270000D02*
X96475000Y-103070000D01*
X96475000Y-103070000D02*
X96475000Y-103070000D01*
G36*
X96475000Y-103270000D02*
G01*
X96275000Y-103270000D01*
X96275000Y-103070000D01*
X96475000Y-103070000D01*
X96475000Y-103270000D01*
G37*
X96475000Y-103270000D02*
X96275000Y-103270000D01*
X96275000Y-103070000D01*
X96475000Y-103070000D01*
X96475000Y-103270000D01*
X96475000Y-102870000D02*
X96275000Y-102870000D01*
X96275000Y-102870000D02*
X96275000Y-103070000D01*
X96275000Y-103070000D02*
X96475000Y-103070000D01*
X96475000Y-103070000D02*
X96475000Y-102870000D01*
X96475000Y-102870000D02*
X96475000Y-102870000D01*
G36*
X96475000Y-103070000D02*
G01*
X96275000Y-103070000D01*
X96275000Y-102870000D01*
X96475000Y-102870000D01*
X96475000Y-103070000D01*
G37*
X96475000Y-103070000D02*
X96275000Y-103070000D01*
X96275000Y-102870000D01*
X96475000Y-102870000D01*
X96475000Y-103070000D01*
X95475000Y-100870000D02*
X95275000Y-100870000D01*
X95275000Y-100870000D02*
X95275000Y-101070000D01*
X95275000Y-101070000D02*
X95475000Y-101070000D01*
X95475000Y-101070000D02*
X95475000Y-100870000D01*
X95475000Y-100870000D02*
X95475000Y-100870000D01*
G36*
X95475000Y-101070000D02*
G01*
X95275000Y-101070000D01*
X95275000Y-100870000D01*
X95475000Y-100870000D01*
X95475000Y-101070000D01*
G37*
X95475000Y-101070000D02*
X95275000Y-101070000D01*
X95275000Y-100870000D01*
X95475000Y-100870000D01*
X95475000Y-101070000D01*
X99275000Y-102070000D02*
X99075000Y-102070000D01*
X99075000Y-102070000D02*
X99075000Y-102270000D01*
X99075000Y-102270000D02*
X99275000Y-102270000D01*
X99275000Y-102270000D02*
X99275000Y-102070000D01*
X99275000Y-102070000D02*
X99275000Y-102070000D01*
G36*
X99275000Y-102270000D02*
G01*
X99075000Y-102270000D01*
X99075000Y-102070000D01*
X99275000Y-102070000D01*
X99275000Y-102270000D01*
G37*
X99275000Y-102270000D02*
X99075000Y-102270000D01*
X99075000Y-102070000D01*
X99275000Y-102070000D01*
X99275000Y-102270000D01*
X96075000Y-102270000D02*
X95875000Y-102270000D01*
X95875000Y-102270000D02*
X95875000Y-102470000D01*
X95875000Y-102470000D02*
X96075000Y-102470000D01*
X96075000Y-102470000D02*
X96075000Y-102270000D01*
X96075000Y-102270000D02*
X96075000Y-102270000D01*
G36*
X96075000Y-102470000D02*
G01*
X95875000Y-102470000D01*
X95875000Y-102270000D01*
X96075000Y-102270000D01*
X96075000Y-102470000D01*
G37*
X96075000Y-102470000D02*
X95875000Y-102470000D01*
X95875000Y-102270000D01*
X96075000Y-102270000D01*
X96075000Y-102470000D01*
X96675000Y-100070000D02*
X96475000Y-100070000D01*
X96475000Y-100070000D02*
X96475000Y-100270000D01*
X96475000Y-100270000D02*
X96675000Y-100270000D01*
X96675000Y-100270000D02*
X96675000Y-100070000D01*
X96675000Y-100070000D02*
X96675000Y-100070000D01*
G36*
X96675000Y-100270000D02*
G01*
X96475000Y-100270000D01*
X96475000Y-100070000D01*
X96675000Y-100070000D01*
X96675000Y-100270000D01*
G37*
X96675000Y-100270000D02*
X96475000Y-100270000D01*
X96475000Y-100070000D01*
X96675000Y-100070000D01*
X96675000Y-100270000D01*
X97275000Y-102870000D02*
X97075000Y-102870000D01*
X97075000Y-102870000D02*
X97075000Y-103070000D01*
X97075000Y-103070000D02*
X97275000Y-103070000D01*
X97275000Y-103070000D02*
X97275000Y-102870000D01*
X97275000Y-102870000D02*
X97275000Y-102870000D01*
G36*
X97275000Y-103070000D02*
G01*
X97075000Y-103070000D01*
X97075000Y-102870000D01*
X97275000Y-102870000D01*
X97275000Y-103070000D01*
G37*
X97275000Y-103070000D02*
X97075000Y-103070000D01*
X97075000Y-102870000D01*
X97275000Y-102870000D01*
X97275000Y-103070000D01*
X98675000Y-102870000D02*
X98475000Y-102870000D01*
X98475000Y-102870000D02*
X98475000Y-103070000D01*
X98475000Y-103070000D02*
X98675000Y-103070000D01*
X98675000Y-103070000D02*
X98675000Y-102870000D01*
X98675000Y-102870000D02*
X98675000Y-102870000D01*
G36*
X98675000Y-103070000D02*
G01*
X98475000Y-103070000D01*
X98475000Y-102870000D01*
X98675000Y-102870000D01*
X98675000Y-103070000D01*
G37*
X98675000Y-103070000D02*
X98475000Y-103070000D01*
X98475000Y-102870000D01*
X98675000Y-102870000D01*
X98675000Y-103070000D01*
X95675000Y-101870000D02*
X95475000Y-101870000D01*
X95475000Y-101870000D02*
X95475000Y-102070000D01*
X95475000Y-102070000D02*
X95675000Y-102070000D01*
X95675000Y-102070000D02*
X95675000Y-101870000D01*
X95675000Y-101870000D02*
X95675000Y-101870000D01*
G36*
X95675000Y-102070000D02*
G01*
X95475000Y-102070000D01*
X95475000Y-101870000D01*
X95675000Y-101870000D01*
X95675000Y-102070000D01*
G37*
X95675000Y-102070000D02*
X95475000Y-102070000D01*
X95475000Y-101870000D01*
X95675000Y-101870000D01*
X95675000Y-102070000D01*
X99275000Y-101870000D02*
X99075000Y-101870000D01*
X99075000Y-101870000D02*
X99075000Y-102070000D01*
X99075000Y-102070000D02*
X99275000Y-102070000D01*
X99275000Y-102070000D02*
X99275000Y-101870000D01*
X99275000Y-101870000D02*
X99275000Y-101870000D01*
G36*
X99275000Y-102070000D02*
G01*
X99075000Y-102070000D01*
X99075000Y-101870000D01*
X99275000Y-101870000D01*
X99275000Y-102070000D01*
G37*
X99275000Y-102070000D02*
X99075000Y-102070000D01*
X99075000Y-101870000D01*
X99275000Y-101870000D01*
X99275000Y-102070000D01*
X98675000Y-101270000D02*
X98475000Y-101270000D01*
X98475000Y-101270000D02*
X98475000Y-101470000D01*
X98475000Y-101470000D02*
X98675000Y-101470000D01*
X98675000Y-101470000D02*
X98675000Y-101270000D01*
X98675000Y-101270000D02*
X98675000Y-101270000D01*
G36*
X98675000Y-101470000D02*
G01*
X98475000Y-101470000D01*
X98475000Y-101270000D01*
X98675000Y-101270000D01*
X98675000Y-101470000D01*
G37*
X98675000Y-101470000D02*
X98475000Y-101470000D01*
X98475000Y-101270000D01*
X98675000Y-101270000D01*
X98675000Y-101470000D01*
X96875000Y-103270000D02*
X96675000Y-103270000D01*
X96675000Y-103270000D02*
X96675000Y-103470000D01*
X96675000Y-103470000D02*
X96875000Y-103470000D01*
X96875000Y-103470000D02*
X96875000Y-103270000D01*
X96875000Y-103270000D02*
X96875000Y-103270000D01*
G36*
X96875000Y-103470000D02*
G01*
X96675000Y-103470000D01*
X96675000Y-103270000D01*
X96875000Y-103270000D01*
X96875000Y-103470000D01*
G37*
X96875000Y-103470000D02*
X96675000Y-103470000D01*
X96675000Y-103270000D01*
X96875000Y-103270000D01*
X96875000Y-103470000D01*
X95675000Y-99870000D02*
X95475000Y-99870000D01*
X95475000Y-99870000D02*
X95475000Y-100070000D01*
X95475000Y-100070000D02*
X95675000Y-100070000D01*
X95675000Y-100070000D02*
X95675000Y-99870000D01*
X95675000Y-99870000D02*
X95675000Y-99870000D01*
G36*
X95675000Y-100070000D02*
G01*
X95475000Y-100070000D01*
X95475000Y-99870000D01*
X95675000Y-99870000D01*
X95675000Y-100070000D01*
G37*
X95675000Y-100070000D02*
X95475000Y-100070000D01*
X95475000Y-99870000D01*
X95675000Y-99870000D01*
X95675000Y-100070000D01*
X97475000Y-103270000D02*
X97275000Y-103270000D01*
X97275000Y-103270000D02*
X97275000Y-103470000D01*
X97275000Y-103470000D02*
X97475000Y-103470000D01*
X97475000Y-103470000D02*
X97475000Y-103270000D01*
X97475000Y-103270000D02*
X97475000Y-103270000D01*
G36*
X97475000Y-103470000D02*
G01*
X97275000Y-103470000D01*
X97275000Y-103270000D01*
X97475000Y-103270000D01*
X97475000Y-103470000D01*
G37*
X97475000Y-103470000D02*
X97275000Y-103470000D01*
X97275000Y-103270000D01*
X97475000Y-103270000D01*
X97475000Y-103470000D01*
X96075000Y-100870000D02*
X95875000Y-100870000D01*
X95875000Y-100870000D02*
X95875000Y-101070000D01*
X95875000Y-101070000D02*
X96075000Y-101070000D01*
X96075000Y-101070000D02*
X96075000Y-100870000D01*
X96075000Y-100870000D02*
X96075000Y-100870000D01*
G36*
X96075000Y-101070000D02*
G01*
X95875000Y-101070000D01*
X95875000Y-100870000D01*
X96075000Y-100870000D01*
X96075000Y-101070000D01*
G37*
X96075000Y-101070000D02*
X95875000Y-101070000D01*
X95875000Y-100870000D01*
X96075000Y-100870000D01*
X96075000Y-101070000D01*
X98275000Y-103070000D02*
X98075000Y-103070000D01*
X98075000Y-103070000D02*
X98075000Y-103270000D01*
X98075000Y-103270000D02*
X98275000Y-103270000D01*
X98275000Y-103270000D02*
X98275000Y-103070000D01*
X98275000Y-103070000D02*
X98275000Y-103070000D01*
G36*
X98275000Y-103270000D02*
G01*
X98075000Y-103270000D01*
X98075000Y-103070000D01*
X98275000Y-103070000D01*
X98275000Y-103270000D01*
G37*
X98275000Y-103270000D02*
X98075000Y-103270000D01*
X98075000Y-103070000D01*
X98275000Y-103070000D01*
X98275000Y-103270000D01*
X99075000Y-102470000D02*
X98875000Y-102470000D01*
X98875000Y-102470000D02*
X98875000Y-102670000D01*
X98875000Y-102670000D02*
X99075000Y-102670000D01*
X99075000Y-102670000D02*
X99075000Y-102470000D01*
X99075000Y-102470000D02*
X99075000Y-102470000D01*
G36*
X99075000Y-102670000D02*
G01*
X98875000Y-102670000D01*
X98875000Y-102470000D01*
X99075000Y-102470000D01*
X99075000Y-102670000D01*
G37*
X99075000Y-102670000D02*
X98875000Y-102670000D01*
X98875000Y-102470000D01*
X99075000Y-102470000D01*
X99075000Y-102670000D01*
X97875000Y-103270000D02*
X97675000Y-103270000D01*
X97675000Y-103270000D02*
X97675000Y-103470000D01*
X97675000Y-103470000D02*
X97875000Y-103470000D01*
X97875000Y-103470000D02*
X97875000Y-103270000D01*
X97875000Y-103270000D02*
X97875000Y-103270000D01*
G36*
X97875000Y-103470000D02*
G01*
X97675000Y-103470000D01*
X97675000Y-103270000D01*
X97875000Y-103270000D01*
X97875000Y-103470000D01*
G37*
X97875000Y-103470000D02*
X97675000Y-103470000D01*
X97675000Y-103270000D01*
X97875000Y-103270000D01*
X97875000Y-103470000D01*
X95475000Y-100470000D02*
X95275000Y-100470000D01*
X95275000Y-100470000D02*
X95275000Y-100670000D01*
X95275000Y-100670000D02*
X95475000Y-100670000D01*
X95475000Y-100670000D02*
X95475000Y-100470000D01*
X95475000Y-100470000D02*
X95475000Y-100470000D01*
G36*
X95475000Y-100670000D02*
G01*
X95275000Y-100670000D01*
X95275000Y-100470000D01*
X95475000Y-100470000D01*
X95475000Y-100670000D01*
G37*
X95475000Y-100670000D02*
X95275000Y-100670000D01*
X95275000Y-100470000D01*
X95475000Y-100470000D01*
X95475000Y-100670000D01*
X95675000Y-99270000D02*
X95475000Y-99270000D01*
X95475000Y-99270000D02*
X95475000Y-99470000D01*
X95475000Y-99470000D02*
X95675000Y-99470000D01*
X95675000Y-99470000D02*
X95675000Y-99270000D01*
X95675000Y-99270000D02*
X95675000Y-99270000D01*
G36*
X95675000Y-99470000D02*
G01*
X95475000Y-99470000D01*
X95475000Y-99270000D01*
X95675000Y-99270000D01*
X95675000Y-99470000D01*
G37*
X95675000Y-99470000D02*
X95475000Y-99470000D01*
X95475000Y-99270000D01*
X95675000Y-99270000D01*
X95675000Y-99470000D01*
X97275000Y-102670000D02*
X97075000Y-102670000D01*
X97075000Y-102670000D02*
X97075000Y-102870000D01*
X97075000Y-102870000D02*
X97275000Y-102870000D01*
X97275000Y-102870000D02*
X97275000Y-102670000D01*
X97275000Y-102670000D02*
X97275000Y-102670000D01*
G36*
X97275000Y-102870000D02*
G01*
X97075000Y-102870000D01*
X97075000Y-102670000D01*
X97275000Y-102670000D01*
X97275000Y-102870000D01*
G37*
X97275000Y-102870000D02*
X97075000Y-102870000D01*
X97075000Y-102670000D01*
X97275000Y-102670000D01*
X97275000Y-102870000D01*
X98475000Y-101470000D02*
X98275000Y-101470000D01*
X98275000Y-101470000D02*
X98275000Y-101670000D01*
X98275000Y-101670000D02*
X98475000Y-101670000D01*
X98475000Y-101670000D02*
X98475000Y-101470000D01*
X98475000Y-101470000D02*
X98475000Y-101470000D01*
G36*
X98475000Y-101670000D02*
G01*
X98275000Y-101670000D01*
X98275000Y-101470000D01*
X98475000Y-101470000D01*
X98475000Y-101670000D01*
G37*
X98475000Y-101670000D02*
X98275000Y-101670000D01*
X98275000Y-101470000D01*
X98475000Y-101470000D01*
X98475000Y-101670000D01*
X95875000Y-100870000D02*
X95675000Y-100870000D01*
X95675000Y-100870000D02*
X95675000Y-101070000D01*
X95675000Y-101070000D02*
X95875000Y-101070000D01*
X95875000Y-101070000D02*
X95875000Y-100870000D01*
X95875000Y-100870000D02*
X95875000Y-100870000D01*
G36*
X95875000Y-101070000D02*
G01*
X95675000Y-101070000D01*
X95675000Y-100870000D01*
X95875000Y-100870000D01*
X95875000Y-101070000D01*
G37*
X95875000Y-101070000D02*
X95675000Y-101070000D01*
X95675000Y-100870000D01*
X95875000Y-100870000D01*
X95875000Y-101070000D01*
X97475000Y-99470000D02*
X97275000Y-99470000D01*
X97275000Y-99470000D02*
X97275000Y-99670000D01*
X97275000Y-99670000D02*
X97475000Y-99670000D01*
X97475000Y-99670000D02*
X97475000Y-99470000D01*
X97475000Y-99470000D02*
X97475000Y-99470000D01*
G36*
X97475000Y-99670000D02*
G01*
X97275000Y-99670000D01*
X97275000Y-99470000D01*
X97475000Y-99470000D01*
X97475000Y-99670000D01*
G37*
X97475000Y-99670000D02*
X97275000Y-99670000D01*
X97275000Y-99470000D01*
X97475000Y-99470000D01*
X97475000Y-99670000D01*
X99075000Y-101470000D02*
X98875000Y-101470000D01*
X98875000Y-101470000D02*
X98875000Y-101670000D01*
X98875000Y-101670000D02*
X99075000Y-101670000D01*
X99075000Y-101670000D02*
X99075000Y-101470000D01*
X99075000Y-101470000D02*
X99075000Y-101470000D01*
G36*
X99075000Y-101670000D02*
G01*
X98875000Y-101670000D01*
X98875000Y-101470000D01*
X99075000Y-101470000D01*
X99075000Y-101670000D01*
G37*
X99075000Y-101670000D02*
X98875000Y-101670000D01*
X98875000Y-101470000D01*
X99075000Y-101470000D01*
X99075000Y-101670000D01*
X96275000Y-102470000D02*
X96075000Y-102470000D01*
X96075000Y-102470000D02*
X96075000Y-102670000D01*
X96075000Y-102670000D02*
X96275000Y-102670000D01*
X96275000Y-102670000D02*
X96275000Y-102470000D01*
X96275000Y-102470000D02*
X96275000Y-102470000D01*
G36*
X96275000Y-102670000D02*
G01*
X96075000Y-102670000D01*
X96075000Y-102470000D01*
X96275000Y-102470000D01*
X96275000Y-102670000D01*
G37*
X96275000Y-102670000D02*
X96075000Y-102670000D01*
X96075000Y-102470000D01*
X96275000Y-102470000D01*
X96275000Y-102670000D01*
X97075000Y-99470000D02*
X96875000Y-99470000D01*
X96875000Y-99470000D02*
X96875000Y-99670000D01*
X96875000Y-99670000D02*
X97075000Y-99670000D01*
X97075000Y-99670000D02*
X97075000Y-99470000D01*
X97075000Y-99470000D02*
X97075000Y-99470000D01*
G36*
X97075000Y-99670000D02*
G01*
X96875000Y-99670000D01*
X96875000Y-99470000D01*
X97075000Y-99470000D01*
X97075000Y-99670000D01*
G37*
X97075000Y-99670000D02*
X96875000Y-99670000D01*
X96875000Y-99470000D01*
X97075000Y-99470000D01*
X97075000Y-99670000D01*
X97275000Y-99270000D02*
X97075000Y-99270000D01*
X97075000Y-99270000D02*
X97075000Y-99470000D01*
X97075000Y-99470000D02*
X97275000Y-99470000D01*
X97275000Y-99470000D02*
X97275000Y-99270000D01*
X97275000Y-99270000D02*
X97275000Y-99270000D01*
G36*
X97275000Y-99470000D02*
G01*
X97075000Y-99470000D01*
X97075000Y-99270000D01*
X97275000Y-99270000D01*
X97275000Y-99470000D01*
G37*
X97275000Y-99470000D02*
X97075000Y-99470000D01*
X97075000Y-99270000D01*
X97275000Y-99270000D01*
X97275000Y-99470000D01*
X96075000Y-103070000D02*
X95875000Y-103070000D01*
X95875000Y-103070000D02*
X95875000Y-103270000D01*
X95875000Y-103270000D02*
X96075000Y-103270000D01*
X96075000Y-103270000D02*
X96075000Y-103070000D01*
X96075000Y-103070000D02*
X96075000Y-103070000D01*
G36*
X96075000Y-103270000D02*
G01*
X95875000Y-103270000D01*
X95875000Y-103070000D01*
X96075000Y-103070000D01*
X96075000Y-103270000D01*
G37*
X96075000Y-103270000D02*
X95875000Y-103270000D01*
X95875000Y-103070000D01*
X96075000Y-103070000D01*
X96075000Y-103270000D01*
X95475000Y-100670000D02*
X95275000Y-100670000D01*
X95275000Y-100670000D02*
X95275000Y-100870000D01*
X95275000Y-100870000D02*
X95475000Y-100870000D01*
X95475000Y-100870000D02*
X95475000Y-100670000D01*
X95475000Y-100670000D02*
X95475000Y-100670000D01*
G36*
X95475000Y-100870000D02*
G01*
X95275000Y-100870000D01*
X95275000Y-100670000D01*
X95475000Y-100670000D01*
X95475000Y-100870000D01*
G37*
X95475000Y-100870000D02*
X95275000Y-100870000D01*
X95275000Y-100670000D01*
X95475000Y-100670000D01*
X95475000Y-100870000D01*
X99275000Y-102270000D02*
X99075000Y-102270000D01*
X99075000Y-102270000D02*
X99075000Y-102470000D01*
X99075000Y-102470000D02*
X99275000Y-102470000D01*
X99275000Y-102470000D02*
X99275000Y-102270000D01*
X99275000Y-102270000D02*
X99275000Y-102270000D01*
G36*
X99275000Y-102470000D02*
G01*
X99075000Y-102470000D01*
X99075000Y-102270000D01*
X99275000Y-102270000D01*
X99275000Y-102470000D01*
G37*
X99275000Y-102470000D02*
X99075000Y-102470000D01*
X99075000Y-102270000D01*
X99275000Y-102270000D01*
X99275000Y-102470000D01*
X95675000Y-101670000D02*
X95475000Y-101670000D01*
X95475000Y-101670000D02*
X95475000Y-101870000D01*
X95475000Y-101870000D02*
X95675000Y-101870000D01*
X95675000Y-101870000D02*
X95675000Y-101670000D01*
X95675000Y-101670000D02*
X95675000Y-101670000D01*
G36*
X95675000Y-101870000D02*
G01*
X95475000Y-101870000D01*
X95475000Y-101670000D01*
X95675000Y-101670000D01*
X95675000Y-101870000D01*
G37*
X95675000Y-101870000D02*
X95475000Y-101870000D01*
X95475000Y-101670000D01*
X95675000Y-101670000D01*
X95675000Y-101870000D01*
X97675000Y-103270000D02*
X97475000Y-103270000D01*
X97475000Y-103270000D02*
X97475000Y-103470000D01*
X97475000Y-103470000D02*
X97675000Y-103470000D01*
X97675000Y-103470000D02*
X97675000Y-103270000D01*
X97675000Y-103270000D02*
X97675000Y-103270000D01*
G36*
X97675000Y-103470000D02*
G01*
X97475000Y-103470000D01*
X97475000Y-103270000D01*
X97675000Y-103270000D01*
X97675000Y-103470000D01*
G37*
X97675000Y-103470000D02*
X97475000Y-103470000D01*
X97475000Y-103270000D01*
X97675000Y-103270000D01*
X97675000Y-103470000D01*
X98475000Y-103070000D02*
X98275000Y-103070000D01*
X98275000Y-103070000D02*
X98275000Y-103270000D01*
X98275000Y-103270000D02*
X98475000Y-103270000D01*
X98475000Y-103270000D02*
X98475000Y-103070000D01*
X98475000Y-103070000D02*
X98475000Y-103070000D01*
G36*
X98475000Y-103270000D02*
G01*
X98275000Y-103270000D01*
X98275000Y-103070000D01*
X98475000Y-103070000D01*
X98475000Y-103270000D01*
G37*
X98475000Y-103270000D02*
X98275000Y-103270000D01*
X98275000Y-103070000D01*
X98475000Y-103070000D01*
X98475000Y-103270000D01*
X95875000Y-102070000D02*
X95675000Y-102070000D01*
X95675000Y-102070000D02*
X95675000Y-102270000D01*
X95675000Y-102270000D02*
X95875000Y-102270000D01*
X95875000Y-102270000D02*
X95875000Y-102070000D01*
X95875000Y-102070000D02*
X95875000Y-102070000D01*
G36*
X95875000Y-102270000D02*
G01*
X95675000Y-102270000D01*
X95675000Y-102070000D01*
X95875000Y-102070000D01*
X95875000Y-102270000D01*
G37*
X95875000Y-102270000D02*
X95675000Y-102270000D01*
X95675000Y-102070000D01*
X95875000Y-102070000D01*
X95875000Y-102270000D01*
X96075000Y-101070000D02*
X95875000Y-101070000D01*
X95875000Y-101070000D02*
X95875000Y-101270000D01*
X95875000Y-101270000D02*
X96075000Y-101270000D01*
X96075000Y-101270000D02*
X96075000Y-101070000D01*
X96075000Y-101070000D02*
X96075000Y-101070000D01*
G36*
X96075000Y-101270000D02*
G01*
X95875000Y-101270000D01*
X95875000Y-101070000D01*
X96075000Y-101070000D01*
X96075000Y-101270000D01*
G37*
X96075000Y-101270000D02*
X95875000Y-101270000D01*
X95875000Y-101070000D01*
X96075000Y-101070000D01*
X96075000Y-101270000D01*
X96275000Y-102870000D02*
X96075000Y-102870000D01*
X96075000Y-102870000D02*
X96075000Y-103070000D01*
X96075000Y-103070000D02*
X96275000Y-103070000D01*
X96275000Y-103070000D02*
X96275000Y-102870000D01*
X96275000Y-102870000D02*
X96275000Y-102870000D01*
G36*
X96275000Y-103070000D02*
G01*
X96075000Y-103070000D01*
X96075000Y-102870000D01*
X96275000Y-102870000D01*
X96275000Y-103070000D01*
G37*
X96275000Y-103070000D02*
X96075000Y-103070000D01*
X96075000Y-102870000D01*
X96275000Y-102870000D01*
X96275000Y-103070000D01*
X95675000Y-101470000D02*
X95475000Y-101470000D01*
X95475000Y-101470000D02*
X95475000Y-101670000D01*
X95475000Y-101670000D02*
X95675000Y-101670000D01*
X95675000Y-101670000D02*
X95675000Y-101470000D01*
X95675000Y-101470000D02*
X95675000Y-101470000D01*
G36*
X95675000Y-101670000D02*
G01*
X95475000Y-101670000D01*
X95475000Y-101470000D01*
X95675000Y-101470000D01*
X95675000Y-101670000D01*
G37*
X95675000Y-101670000D02*
X95475000Y-101670000D01*
X95475000Y-101470000D01*
X95675000Y-101470000D01*
X95675000Y-101670000D01*
X95675000Y-99470000D02*
X95475000Y-99470000D01*
X95475000Y-99470000D02*
X95475000Y-99670000D01*
X95475000Y-99670000D02*
X95675000Y-99670000D01*
X95675000Y-99670000D02*
X95675000Y-99470000D01*
X95675000Y-99470000D02*
X95675000Y-99470000D01*
G36*
X95675000Y-99670000D02*
G01*
X95475000Y-99670000D01*
X95475000Y-99470000D01*
X95675000Y-99470000D01*
X95675000Y-99670000D01*
G37*
X95675000Y-99670000D02*
X95475000Y-99670000D01*
X95475000Y-99470000D01*
X95675000Y-99470000D01*
X95675000Y-99670000D01*
X97675000Y-100270000D02*
X97475000Y-100270000D01*
X97475000Y-100270000D02*
X97475000Y-100470000D01*
X97475000Y-100470000D02*
X97675000Y-100470000D01*
X97675000Y-100470000D02*
X97675000Y-100270000D01*
X97675000Y-100270000D02*
X97675000Y-100270000D01*
G36*
X97675000Y-100470000D02*
G01*
X97475000Y-100470000D01*
X97475000Y-100270000D01*
X97675000Y-100270000D01*
X97675000Y-100470000D01*
G37*
X97675000Y-100470000D02*
X97475000Y-100470000D01*
X97475000Y-100270000D01*
X97675000Y-100270000D01*
X97675000Y-100470000D01*
X95675000Y-99670000D02*
X95475000Y-99670000D01*
X95475000Y-99670000D02*
X95475000Y-99870000D01*
X95475000Y-99870000D02*
X95675000Y-99870000D01*
X95675000Y-99870000D02*
X95675000Y-99670000D01*
X95675000Y-99670000D02*
X95675000Y-99670000D01*
G36*
X95675000Y-99870000D02*
G01*
X95475000Y-99870000D01*
X95475000Y-99670000D01*
X95675000Y-99670000D01*
X95675000Y-99870000D01*
G37*
X95675000Y-99870000D02*
X95475000Y-99870000D01*
X95475000Y-99670000D01*
X95675000Y-99670000D01*
X95675000Y-99870000D01*
X96675000Y-99470000D02*
X96475000Y-99470000D01*
X96475000Y-99470000D02*
X96475000Y-99670000D01*
X96475000Y-99670000D02*
X96675000Y-99670000D01*
X96675000Y-99670000D02*
X96675000Y-99470000D01*
X96675000Y-99470000D02*
X96675000Y-99470000D01*
G36*
X96675000Y-99670000D02*
G01*
X96475000Y-99670000D01*
X96475000Y-99470000D01*
X96675000Y-99470000D01*
X96675000Y-99670000D01*
G37*
X96675000Y-99670000D02*
X96475000Y-99670000D01*
X96475000Y-99470000D01*
X96675000Y-99470000D01*
X96675000Y-99670000D01*
X95875000Y-100470000D02*
X95675000Y-100470000D01*
X95675000Y-100470000D02*
X95675000Y-100670000D01*
X95675000Y-100670000D02*
X95875000Y-100670000D01*
X95875000Y-100670000D02*
X95875000Y-100470000D01*
X95875000Y-100470000D02*
X95875000Y-100470000D01*
G36*
X95875000Y-100670000D02*
G01*
X95675000Y-100670000D01*
X95675000Y-100470000D01*
X95875000Y-100470000D01*
X95875000Y-100670000D01*
G37*
X95875000Y-100670000D02*
X95675000Y-100670000D01*
X95675000Y-100470000D01*
X95875000Y-100470000D01*
X95875000Y-100670000D01*
X98075000Y-101070000D02*
X97875000Y-101070000D01*
X97875000Y-101070000D02*
X97875000Y-101270000D01*
X97875000Y-101270000D02*
X98075000Y-101270000D01*
X98075000Y-101270000D02*
X98075000Y-101070000D01*
X98075000Y-101070000D02*
X98075000Y-101070000D01*
G36*
X98075000Y-101270000D02*
G01*
X97875000Y-101270000D01*
X97875000Y-101070000D01*
X98075000Y-101070000D01*
X98075000Y-101270000D01*
G37*
X98075000Y-101270000D02*
X97875000Y-101270000D01*
X97875000Y-101070000D01*
X98075000Y-101070000D01*
X98075000Y-101270000D01*
X97475000Y-99870000D02*
X97275000Y-99870000D01*
X97275000Y-99870000D02*
X97275000Y-100070000D01*
X97275000Y-100070000D02*
X97475000Y-100070000D01*
X97475000Y-100070000D02*
X97475000Y-99870000D01*
X97475000Y-99870000D02*
X97475000Y-99870000D01*
G36*
X97475000Y-100070000D02*
G01*
X97275000Y-100070000D01*
X97275000Y-99870000D01*
X97475000Y-99870000D01*
X97475000Y-100070000D01*
G37*
X97475000Y-100070000D02*
X97275000Y-100070000D01*
X97275000Y-99870000D01*
X97475000Y-99870000D01*
X97475000Y-100070000D01*
X96475000Y-99470000D02*
X96275000Y-99470000D01*
X96275000Y-99470000D02*
X96275000Y-99670000D01*
X96275000Y-99670000D02*
X96475000Y-99670000D01*
X96475000Y-99670000D02*
X96475000Y-99470000D01*
X96475000Y-99470000D02*
X96475000Y-99470000D01*
G36*
X96475000Y-99670000D02*
G01*
X96275000Y-99670000D01*
X96275000Y-99470000D01*
X96475000Y-99470000D01*
X96475000Y-99670000D01*
G37*
X96475000Y-99670000D02*
X96275000Y-99670000D01*
X96275000Y-99470000D01*
X96475000Y-99470000D01*
X96475000Y-99670000D01*
X96275000Y-102270000D02*
X96075000Y-102270000D01*
X96075000Y-102270000D02*
X96075000Y-102470000D01*
X96075000Y-102470000D02*
X96275000Y-102470000D01*
X96275000Y-102470000D02*
X96275000Y-102270000D01*
X96275000Y-102270000D02*
X96275000Y-102270000D01*
G36*
X96275000Y-102470000D02*
G01*
X96075000Y-102470000D01*
X96075000Y-102270000D01*
X96275000Y-102270000D01*
X96275000Y-102470000D01*
G37*
X96275000Y-102470000D02*
X96075000Y-102470000D01*
X96075000Y-102270000D01*
X96275000Y-102270000D01*
X96275000Y-102470000D01*
X97075000Y-102870000D02*
X96875000Y-102870000D01*
X96875000Y-102870000D02*
X96875000Y-103070000D01*
X96875000Y-103070000D02*
X97075000Y-103070000D01*
X97075000Y-103070000D02*
X97075000Y-102870000D01*
X97075000Y-102870000D02*
X97075000Y-102870000D01*
G36*
X97075000Y-103070000D02*
G01*
X96875000Y-103070000D01*
X96875000Y-102870000D01*
X97075000Y-102870000D01*
X97075000Y-103070000D01*
G37*
X97075000Y-103070000D02*
X96875000Y-103070000D01*
X96875000Y-102870000D01*
X97075000Y-102870000D01*
X97075000Y-103070000D01*
X95875000Y-99670000D02*
X95675000Y-99670000D01*
X95675000Y-99670000D02*
X95675000Y-99870000D01*
X95675000Y-99870000D02*
X95875000Y-99870000D01*
X95875000Y-99870000D02*
X95875000Y-99670000D01*
X95875000Y-99670000D02*
X95875000Y-99670000D01*
G36*
X95875000Y-99870000D02*
G01*
X95675000Y-99870000D01*
X95675000Y-99670000D01*
X95875000Y-99670000D01*
X95875000Y-99870000D01*
G37*
X95875000Y-99870000D02*
X95675000Y-99870000D01*
X95675000Y-99670000D01*
X95875000Y-99670000D01*
X95875000Y-99870000D01*
X98675000Y-101870000D02*
X98475000Y-101870000D01*
X98475000Y-101870000D02*
X98475000Y-102070000D01*
X98475000Y-102070000D02*
X98675000Y-102070000D01*
X98675000Y-102070000D02*
X98675000Y-101870000D01*
X98675000Y-101870000D02*
X98675000Y-101870000D01*
G36*
X98675000Y-102070000D02*
G01*
X98475000Y-102070000D01*
X98475000Y-101870000D01*
X98675000Y-101870000D01*
X98675000Y-102070000D01*
G37*
X98675000Y-102070000D02*
X98475000Y-102070000D01*
X98475000Y-101870000D01*
X98675000Y-101870000D01*
X98675000Y-102070000D01*
X96275000Y-99470000D02*
X96075000Y-99470000D01*
X96075000Y-99470000D02*
X96075000Y-99670000D01*
X96075000Y-99670000D02*
X96275000Y-99670000D01*
X96275000Y-99670000D02*
X96275000Y-99470000D01*
X96275000Y-99470000D02*
X96275000Y-99470000D01*
G36*
X96275000Y-99670000D02*
G01*
X96075000Y-99670000D01*
X96075000Y-99470000D01*
X96275000Y-99470000D01*
X96275000Y-99670000D01*
G37*
X96275000Y-99670000D02*
X96075000Y-99670000D01*
X96075000Y-99470000D01*
X96275000Y-99470000D01*
X96275000Y-99670000D01*
X98075000Y-103270000D02*
X97875000Y-103270000D01*
X97875000Y-103270000D02*
X97875000Y-103470000D01*
X97875000Y-103470000D02*
X98075000Y-103470000D01*
X98075000Y-103470000D02*
X98075000Y-103270000D01*
X98075000Y-103270000D02*
X98075000Y-103270000D01*
G36*
X98075000Y-103470000D02*
G01*
X97875000Y-103470000D01*
X97875000Y-103270000D01*
X98075000Y-103270000D01*
X98075000Y-103470000D01*
G37*
X98075000Y-103470000D02*
X97875000Y-103470000D01*
X97875000Y-103270000D01*
X98075000Y-103270000D01*
X98075000Y-103470000D01*
X96475000Y-102470000D02*
X96275000Y-102470000D01*
X96275000Y-102470000D02*
X96275000Y-102670000D01*
X96275000Y-102670000D02*
X96475000Y-102670000D01*
X96475000Y-102670000D02*
X96475000Y-102470000D01*
X96475000Y-102470000D02*
X96475000Y-102470000D01*
G36*
X96475000Y-102670000D02*
G01*
X96275000Y-102670000D01*
X96275000Y-102470000D01*
X96475000Y-102470000D01*
X96475000Y-102670000D01*
G37*
X96475000Y-102670000D02*
X96275000Y-102670000D01*
X96275000Y-102470000D01*
X96475000Y-102470000D01*
X96475000Y-102670000D01*
X98675000Y-102670000D02*
X98475000Y-102670000D01*
X98475000Y-102670000D02*
X98475000Y-102870000D01*
X98475000Y-102870000D02*
X98675000Y-102870000D01*
X98675000Y-102870000D02*
X98675000Y-102670000D01*
X98675000Y-102670000D02*
X98675000Y-102670000D01*
G36*
X98675000Y-102870000D02*
G01*
X98475000Y-102870000D01*
X98475000Y-102670000D01*
X98675000Y-102670000D01*
X98675000Y-102870000D01*
G37*
X98675000Y-102870000D02*
X98475000Y-102870000D01*
X98475000Y-102670000D01*
X98675000Y-102670000D01*
X98675000Y-102870000D01*
X96475000Y-103270000D02*
X96275000Y-103270000D01*
X96275000Y-103270000D02*
X96275000Y-103470000D01*
X96275000Y-103470000D02*
X96475000Y-103470000D01*
X96475000Y-103470000D02*
X96475000Y-103270000D01*
X96475000Y-103270000D02*
X96475000Y-103270000D01*
G36*
X96475000Y-103470000D02*
G01*
X96275000Y-103470000D01*
X96275000Y-103270000D01*
X96475000Y-103270000D01*
X96475000Y-103470000D01*
G37*
X96475000Y-103470000D02*
X96275000Y-103470000D01*
X96275000Y-103270000D01*
X96475000Y-103270000D01*
X96475000Y-103470000D01*
X96475000Y-102670000D02*
X96275000Y-102670000D01*
X96275000Y-102670000D02*
X96275000Y-102870000D01*
X96275000Y-102870000D02*
X96475000Y-102870000D01*
X96475000Y-102870000D02*
X96475000Y-102670000D01*
X96475000Y-102670000D02*
X96475000Y-102670000D01*
G36*
X96475000Y-102870000D02*
G01*
X96275000Y-102870000D01*
X96275000Y-102670000D01*
X96475000Y-102670000D01*
X96475000Y-102870000D01*
G37*
X96475000Y-102870000D02*
X96275000Y-102870000D01*
X96275000Y-102670000D01*
X96475000Y-102670000D01*
X96475000Y-102870000D01*
X96075000Y-99270000D02*
X95875000Y-99270000D01*
X95875000Y-99270000D02*
X95875000Y-99470000D01*
X95875000Y-99470000D02*
X96075000Y-99470000D01*
X96075000Y-99470000D02*
X96075000Y-99270000D01*
X96075000Y-99270000D02*
X96075000Y-99270000D01*
G36*
X96075000Y-99470000D02*
G01*
X95875000Y-99470000D01*
X95875000Y-99270000D01*
X96075000Y-99270000D01*
X96075000Y-99470000D01*
G37*
X96075000Y-99470000D02*
X95875000Y-99470000D01*
X95875000Y-99270000D01*
X96075000Y-99270000D01*
X96075000Y-99470000D01*
X95875000Y-102270000D02*
X95675000Y-102270000D01*
X95675000Y-102270000D02*
X95675000Y-102470000D01*
X95675000Y-102470000D02*
X95875000Y-102470000D01*
X95875000Y-102470000D02*
X95875000Y-102270000D01*
X95875000Y-102270000D02*
X95875000Y-102270000D01*
G36*
X95875000Y-102470000D02*
G01*
X95675000Y-102470000D01*
X95675000Y-102270000D01*
X95875000Y-102270000D01*
X95875000Y-102470000D01*
G37*
X95875000Y-102470000D02*
X95675000Y-102470000D01*
X95675000Y-102270000D01*
X95875000Y-102270000D01*
X95875000Y-102470000D01*
X96275000Y-100870000D02*
X96075000Y-100870000D01*
X96075000Y-100870000D02*
X96075000Y-101070000D01*
X96075000Y-101070000D02*
X96275000Y-101070000D01*
X96275000Y-101070000D02*
X96275000Y-100870000D01*
X96275000Y-100870000D02*
X96275000Y-100870000D01*
G36*
X96275000Y-101070000D02*
G01*
X96075000Y-101070000D01*
X96075000Y-100870000D01*
X96275000Y-100870000D01*
X96275000Y-101070000D01*
G37*
X96275000Y-101070000D02*
X96075000Y-101070000D01*
X96075000Y-100870000D01*
X96275000Y-100870000D01*
X96275000Y-101070000D01*
D11*
%TO.C,JP6*%
X90107000Y-104761000D02*
X90107000Y-106539000D01*
X92393000Y-106539000D02*
X92393000Y-104761000D01*
X92393000Y-104761000D02*
X90107000Y-104761000D01*
X90107000Y-106539000D02*
X92393000Y-106539000D01*
D15*
%TO.C,D35*%
X170495400Y-81701500D02*
X168075400Y-81701500D01*
X168045400Y-81701500D02*
X168045400Y-80251500D01*
X170495400Y-80251500D02*
X170495400Y-81701500D01*
X168045400Y-80251500D02*
X170495400Y-80251500D01*
D11*
%TO.C,D20*%
X122849300Y-102235600D02*
X123749300Y-101535600D01*
X123749300Y-102935600D02*
X122849300Y-102235600D01*
X122849300Y-101535600D02*
X122849300Y-102935600D01*
X123749300Y-101535600D02*
X123749300Y-102935600D01*
%TO.C,D2*%
X122014400Y-61503900D02*
X122914400Y-60803900D01*
X122014400Y-60803900D02*
X122014400Y-62203900D01*
X122914400Y-60803900D02*
X122914400Y-62203900D01*
X122914400Y-62203900D02*
X122014400Y-61503900D01*
%TO.C,SW1*%
X112234000Y-59886900D02*
X109684000Y-59886900D01*
X112234000Y-64536900D02*
X107684000Y-64536900D01*
X107384000Y-57686900D02*
X102684000Y-57686900D01*
X103859000Y-51461900D02*
X103859000Y-55406900D01*
X107679000Y-63811900D02*
X107679000Y-64511900D01*
X112259000Y-59911899D02*
X112259000Y-64511900D01*
X106459000Y-62336900D02*
X102684000Y-62336900D01*
X114759000Y-53415900D02*
X114759000Y-49507900D01*
X114759000Y-49507900D02*
X106134000Y-49507900D01*
X102684000Y-57711900D02*
X102659001Y-62311900D01*
X103859000Y-55415900D02*
X107469000Y-55415900D01*
X114759000Y-53461900D02*
X109709000Y-53507900D01*
X107679000Y-63761900D02*
G75*
G03*
X106459000Y-62341900I-1320000J100000D01*
G01*
X103870000Y-51391900D02*
G75*
G02*
X106134000Y-49507900I2074000J-190000D01*
G01*
X107389000Y-57711900D02*
G75*
G03*
X109759000Y-59881900I2270000J100000D01*
G01*
X107474001Y-55391899D02*
G75*
G02*
X109734000Y-53511900I2069999J-190000D01*
G01*
%TO.C,SW24*%
X202634000Y-118686900D02*
X197934000Y-118686900D01*
X199109000Y-112461900D02*
X199109000Y-116406900D01*
X207509000Y-120911899D02*
X207509000Y-125511900D01*
X210009000Y-110507900D02*
X201384000Y-110507900D01*
X201709000Y-123336900D02*
X197934000Y-123336900D01*
X207484000Y-125536900D02*
X202934000Y-125536900D01*
X210009000Y-114461900D02*
X204959000Y-114507900D01*
X210009000Y-114415900D02*
X210009000Y-110507900D01*
X197934000Y-118711900D02*
X197909001Y-123311900D01*
X207484000Y-120886900D02*
X204934000Y-120886900D01*
X202929000Y-124811900D02*
X202929000Y-125511900D01*
X199109000Y-116415900D02*
X202719000Y-116415900D01*
X202929000Y-124761900D02*
G75*
G03*
X201709000Y-123341900I-1320000J100000D01*
G01*
X199120000Y-112391900D02*
G75*
G02*
X201384000Y-110507900I2074000J-190000D01*
G01*
X202639000Y-118711900D02*
G75*
G03*
X205009000Y-120881900I2270000J100000D01*
G01*
X202724001Y-116391899D02*
G75*
G02*
X204984000Y-114511900I2069999J-190000D01*
G01*
%TO.C,D10*%
X159276200Y-62660900D02*
X159276200Y-64060900D01*
X158376200Y-63360900D02*
X159276200Y-62660900D01*
X159276200Y-64060900D02*
X158376200Y-63360900D01*
X158376200Y-62660900D02*
X158376200Y-64060900D01*
%TO.C,D26*%
X114090400Y-123810800D02*
X114090400Y-125210800D01*
X113190400Y-123810800D02*
X113190400Y-125210800D01*
X114090400Y-125210800D02*
X113190400Y-124510800D01*
X113190400Y-124510800D02*
X114090400Y-123810800D01*
%TO.C,D14*%
X121849300Y-99235600D02*
X122749300Y-98535600D01*
X121849300Y-98535600D02*
X121849300Y-99935600D01*
X122749300Y-99935600D02*
X121849300Y-99235600D01*
X122749300Y-98535600D02*
X122749300Y-99935600D01*
%TO.C,D4*%
X159276200Y-60960900D02*
X158376200Y-60260900D01*
X159276200Y-59560900D02*
X159276200Y-60960900D01*
X158376200Y-59560900D02*
X158376200Y-60960900D01*
X158376200Y-60260900D02*
X159276200Y-59560900D01*
%TO.C,D13*%
X102673200Y-101880100D02*
X103573200Y-101180100D01*
X103573200Y-102580100D02*
X102673200Y-101880100D01*
X103573200Y-101180100D02*
X103573200Y-102580100D01*
X102673200Y-101180100D02*
X102673200Y-102580100D01*
%TO.C,SW3*%
X145484000Y-52896900D02*
X140784000Y-52896900D01*
X152859000Y-48625900D02*
X152859000Y-44717900D01*
X150334000Y-55096900D02*
X147784000Y-55096900D01*
X150359000Y-55121899D02*
X150359000Y-59721900D01*
X150334000Y-59746900D02*
X145784000Y-59746900D01*
X145779000Y-59021900D02*
X145779000Y-59721900D01*
X152859000Y-44717900D02*
X144234000Y-44717900D01*
X141959000Y-50625900D02*
X145569000Y-50625900D01*
X144559000Y-57546900D02*
X140784000Y-57546900D01*
X141959000Y-46671900D02*
X141959000Y-50616900D01*
X152859000Y-48671900D02*
X147809000Y-48717900D01*
X140784000Y-52921900D02*
X140759001Y-57521900D01*
X145779000Y-58971900D02*
G75*
G03*
X144559000Y-57551900I-1320000J100000D01*
G01*
X145489000Y-52921900D02*
G75*
G03*
X147859000Y-55091900I2270000J100000D01*
G01*
X145574001Y-50601899D02*
G75*
G02*
X147834000Y-48721900I2069999J-190000D01*
G01*
X141970000Y-46601900D02*
G75*
G02*
X144234000Y-44717900I2074000J-190000D01*
G01*
%TO.C,D1*%
X103359000Y-63611900D02*
X103359000Y-65011900D01*
X104259000Y-63611900D02*
X104259000Y-65011900D01*
X103359000Y-64311900D02*
X104259000Y-63611900D01*
X104259000Y-65011900D02*
X103359000Y-64311900D01*
%TO.C,D7*%
X103359000Y-67411900D02*
X104259000Y-66711900D01*
X104259000Y-66711900D02*
X104259000Y-68111900D01*
X104259000Y-68111900D02*
X103359000Y-67411900D01*
X103359000Y-66711900D02*
X103359000Y-68111900D01*
%TO.C,RSW1*%
X80761100Y-84123200D02*
X81361100Y-84123200D01*
X80761100Y-90123200D02*
X81361100Y-90123200D01*
X84261100Y-84123200D02*
X84261100Y-90123200D01*
X84261100Y-84123200D02*
X83561100Y-84123200D01*
X84261100Y-90123200D02*
X83561100Y-90123200D01*
X80761100Y-90123200D02*
X80761100Y-84123200D01*
X84261100Y-84123200D02*
X84261100Y-90023200D01*
%TO.C,R2*%
X90331772Y-88510765D02*
X87331772Y-88510765D01*
X87331772Y-86510765D02*
X90331772Y-86510765D01*
X90331772Y-86510765D02*
X90331772Y-88510765D01*
X87331772Y-88510765D02*
X87331772Y-86510765D01*
%TO.C,D6*%
X210746300Y-68162700D02*
X211646300Y-67462700D01*
X211646300Y-68862700D02*
X210746300Y-68162700D01*
X210746300Y-67462700D02*
X210746300Y-68862700D01*
X211646300Y-67462700D02*
X211646300Y-68862700D01*
%TO.C,D5*%
X179597100Y-66699200D02*
X180497100Y-65999200D01*
X180497100Y-67399200D02*
X179597100Y-66699200D01*
X179597100Y-65999200D02*
X179597100Y-67399200D01*
X180497100Y-65999200D02*
X180497100Y-67399200D01*
%TO.C,D3*%
X140339700Y-60018100D02*
X139439700Y-59318100D01*
X140339700Y-58618100D02*
X140339700Y-60018100D01*
X139439700Y-59318100D02*
X140339700Y-58618100D01*
X139439700Y-58618100D02*
X139439700Y-60018100D01*
%TO.C,D12*%
X211646300Y-71962700D02*
X210746300Y-71262700D01*
X210746300Y-70562700D02*
X210746300Y-71962700D01*
X211646300Y-70562700D02*
X211646300Y-71962700D01*
X210746300Y-71262700D02*
X211646300Y-70562700D01*
%TO.C,D9*%
X139539700Y-62518100D02*
X140439700Y-61818100D01*
X140439700Y-63218100D02*
X139539700Y-62518100D01*
X139539700Y-61818100D02*
X139539700Y-63218100D01*
X140439700Y-61818100D02*
X140439700Y-63218100D01*
%TO.C,D11*%
X179597100Y-69599200D02*
X180497100Y-68899200D01*
X180497100Y-68899200D02*
X180497100Y-70299200D01*
X180497100Y-70299200D02*
X179597100Y-69599200D01*
X179597100Y-68899200D02*
X179597100Y-70299200D01*
D15*
%TO.C,D36*%
X189659700Y-87467300D02*
X187239700Y-87467300D01*
X187209700Y-87467300D02*
X187209700Y-86017300D01*
X187209700Y-86017300D02*
X189659700Y-86017300D01*
X189659700Y-86017300D02*
X189659700Y-87467300D01*
D11*
%TO.C,SW25*%
X90453441Y-144974608D02*
X88178441Y-141034192D01*
X104731437Y-139646822D02*
X100418937Y-132177353D01*
X93960715Y-137349385D02*
X91610715Y-133279065D01*
X91589064Y-133291565D02*
X87592848Y-135569915D01*
X94164959Y-133161145D02*
X95969959Y-136287497D01*
X94471309Y-142683758D02*
X90487592Y-144983758D01*
X97589223Y-131184145D02*
X94172753Y-133156645D01*
X94480459Y-142649608D02*
X93205459Y-140441243D01*
X101347010Y-141600822D02*
X104731437Y-139646822D01*
X89471197Y-138873311D02*
X87583697Y-135604065D01*
X101307172Y-141623822D02*
X98742335Y-137273394D01*
X88803809Y-140667362D02*
X88197592Y-141017362D01*
X93941564Y-137366214D02*
G75*
G03*
X93247289Y-140503695I1221603J-1915878D01*
G01*
X97655345Y-131158671D02*
G75*
G02*
X100418937Y-132177353I872455J-1891137D01*
G01*
X95993244Y-136279827D02*
G75*
G02*
X98751371Y-137297044I870455J-1887672D01*
G01*
X88847111Y-140642363D02*
G75*
G03*
X89466867Y-138875811I-573398J1193154D01*
G01*
%TO.C,LED*%
X98448700Y-85155300D02*
X96648700Y-85155300D01*
X98448700Y-88455300D02*
X98448700Y-90255300D01*
X98448700Y-85955300D02*
X98448700Y-87755300D01*
X98448700Y-83355300D02*
X98448700Y-85155300D01*
X96648700Y-85155300D02*
X96648700Y-83355300D01*
X96648700Y-88455300D02*
X98448700Y-88455300D01*
X96648700Y-90255300D02*
X96648700Y-88455300D01*
X96648700Y-87755300D02*
X96648700Y-85955300D01*
X96648700Y-85955300D02*
X98448700Y-85955300D01*
X98448700Y-90255300D02*
X96648700Y-90255300D01*
X98448700Y-87755300D02*
X96648700Y-87755300D01*
X96648700Y-83355300D02*
X98448700Y-83355300D01*
X198644400Y-87834900D02*
X198644400Y-89634900D01*
X196844400Y-89634900D02*
X196844400Y-87834900D01*
X199444400Y-87834900D02*
X201244400Y-87834900D01*
X201944400Y-87834900D02*
X203744400Y-87834900D01*
X203744400Y-89634900D02*
X201944400Y-89634900D01*
X196844400Y-87834900D02*
X198644400Y-87834900D01*
X203744400Y-87834900D02*
X203744400Y-89634900D01*
X201244400Y-87834900D02*
X201244400Y-89634900D01*
X201944400Y-89634900D02*
X201944400Y-87834900D01*
X201244400Y-89634900D02*
X199444400Y-89634900D01*
X199444400Y-89634900D02*
X199444400Y-87834900D01*
X198644400Y-89634900D02*
X196844400Y-89634900D01*
%TO.C,D27*%
X129915900Y-120218100D02*
X129915900Y-121618100D01*
X130815900Y-121618100D02*
X129915900Y-120918100D01*
X130815900Y-120218100D02*
X130815900Y-121618100D01*
X129915900Y-120918100D02*
X130815900Y-120218100D01*
%TO.C,D15*%
X141584300Y-96362500D02*
X141584300Y-97762500D01*
X141584300Y-97762500D02*
X140684300Y-97062500D01*
X140684300Y-96362500D02*
X140684300Y-97762500D01*
X140684300Y-97062500D02*
X141584300Y-96362500D01*
%TO.C,D31*%
X91950000Y-103575000D02*
X92850000Y-102875000D01*
X92850000Y-102875000D02*
X92850000Y-104275000D01*
X91950000Y-102875000D02*
X91950000Y-104275000D01*
X92850000Y-104275000D02*
X91950000Y-103575000D01*
%TO.C,D25*%
X105847018Y-123985553D02*
X104634582Y-124685553D01*
X105397018Y-123206130D02*
X104184582Y-123906130D01*
X104790800Y-123556130D02*
X105847018Y-123985553D01*
X104634582Y-124685553D02*
X104790800Y-123556130D01*
%TO.C,D22*%
X159314300Y-100710100D02*
X159314300Y-102110100D01*
X158414300Y-101410100D02*
X159314300Y-100710100D01*
X159314300Y-102110100D02*
X158414300Y-101410100D01*
X158414300Y-100710100D02*
X158414300Y-102110100D01*
%TO.C,D16*%
X159314300Y-97510100D02*
X159314300Y-98910100D01*
X158414300Y-97510100D02*
X158414300Y-98910100D01*
X158414300Y-98210100D02*
X159314300Y-97510100D01*
X159314300Y-98910100D02*
X158414300Y-98210100D01*
%TO.C,D18*%
X210746300Y-106262700D02*
X211646300Y-105562700D01*
X211646300Y-105562700D02*
X211646300Y-106962700D01*
X211646300Y-106962700D02*
X210746300Y-106262700D01*
X210746300Y-105562700D02*
X210746300Y-106962700D01*
%TO.C,SW29*%
X170559000Y-130227200D02*
X170559000Y-134172200D01*
X174379000Y-142577200D02*
X174379000Y-143277200D01*
X181459000Y-128273200D02*
X172834000Y-128273200D01*
X173159000Y-141102200D02*
X169384000Y-141102200D01*
X178934000Y-138652200D02*
X176384000Y-138652200D01*
X178934000Y-143302200D02*
X174384000Y-143302200D01*
X178959000Y-138677199D02*
X178959000Y-143277200D01*
X181459000Y-132181200D02*
X181459000Y-128273200D01*
X181459000Y-132227200D02*
X176409000Y-132273200D01*
X170559000Y-134181200D02*
X174169000Y-134181200D01*
X169384000Y-136477200D02*
X169359001Y-141077200D01*
X174084000Y-136452200D02*
X169384000Y-136452200D01*
X170570000Y-130157200D02*
G75*
G02*
X172834000Y-128273200I2074000J-190000D01*
G01*
X174089000Y-136477200D02*
G75*
G03*
X176459000Y-138647200I2270000J100000D01*
G01*
X174379000Y-142527200D02*
G75*
G03*
X173159000Y-141107200I-1320000J100000D01*
G01*
X174174001Y-134157199D02*
G75*
G02*
X176434000Y-132277200I2069999J-190000D01*
G01*
%TO.C,D28*%
X148939700Y-120918100D02*
X149839700Y-120218100D01*
X148939700Y-120218100D02*
X148939700Y-121618100D01*
X149839700Y-120218100D02*
X149839700Y-121618100D01*
X149839700Y-121618100D02*
X148939700Y-120918100D01*
%TO.C,D24*%
X210846300Y-108762700D02*
X210846300Y-110162700D01*
X210846300Y-109462700D02*
X211746300Y-108762700D01*
X211746300Y-108762700D02*
X211746300Y-110162700D01*
X211746300Y-110162700D02*
X210846300Y-109462700D01*
%TO.C,D17*%
X180497100Y-105299200D02*
X179597100Y-104599200D01*
X179597100Y-103899200D02*
X179597100Y-105299200D01*
X179597100Y-104599200D02*
X180497100Y-103899200D01*
X180497100Y-103899200D02*
X180497100Y-105299200D01*
%TO.C,D23*%
X180497100Y-107099200D02*
X180497100Y-108499200D01*
X179597100Y-107799200D02*
X180497100Y-107099200D01*
X180497100Y-108499200D02*
X179597100Y-107799200D01*
X179597100Y-107099200D02*
X179597100Y-108499200D01*
%TO.C,SW30*%
X197984000Y-144802200D02*
X193434000Y-144802200D01*
X189609000Y-135681200D02*
X193219000Y-135681200D01*
X189609000Y-131727200D02*
X189609000Y-135672200D01*
X200509000Y-133681200D02*
X200509000Y-129773200D01*
X192209000Y-142602200D02*
X188434000Y-142602200D01*
X188434000Y-137977200D02*
X188409001Y-142577200D01*
X198009000Y-140177199D02*
X198009000Y-144777200D01*
X200509000Y-133727200D02*
X195459000Y-133773200D01*
X200509000Y-129773200D02*
X191884000Y-129773200D01*
X193134000Y-137952200D02*
X188434000Y-137952200D01*
X197984000Y-140152200D02*
X195434000Y-140152200D01*
X193429000Y-144077200D02*
X193429000Y-144777200D01*
X189620000Y-131657200D02*
G75*
G02*
X191884000Y-129773200I2074000J-190000D01*
G01*
X193429000Y-144027200D02*
G75*
G03*
X192209000Y-142607200I-1320000J100000D01*
G01*
X193224001Y-135657199D02*
G75*
G02*
X195484000Y-133777200I2069999J-190000D01*
G01*
X193139000Y-137977200D02*
G75*
G03*
X195509000Y-140147200I2270000J100000D01*
G01*
%TO.C,D21*%
X140684300Y-100162500D02*
X141584300Y-99462500D01*
X140684300Y-99462500D02*
X140684300Y-100862500D01*
X141584300Y-99462500D02*
X141584300Y-100862500D01*
X141584300Y-100862500D02*
X140684300Y-100162500D01*
%TO.C,J3*%
X84876300Y-85255300D02*
X84876300Y-82715300D01*
X95036300Y-85255300D02*
X84876300Y-85255300D01*
X95036300Y-82715300D02*
X95036300Y-85255300D01*
X84876300Y-82715300D02*
X95036300Y-82715300D01*
%TO.C,D19*%
X102673200Y-104980100D02*
X103573200Y-104280100D01*
X103573200Y-105680100D02*
X102673200Y-104980100D01*
X102673200Y-104280100D02*
X102673200Y-105680100D01*
X103573200Y-104280100D02*
X103573200Y-105680100D01*
%TO.C,SW21*%
X150334000Y-112286900D02*
X147784000Y-112286900D01*
X141959000Y-107815900D02*
X145569000Y-107815900D01*
X141959000Y-103861900D02*
X141959000Y-107806900D01*
X152859000Y-101907900D02*
X144234000Y-101907900D01*
X145779000Y-116211900D02*
X145779000Y-116911900D01*
X150359000Y-112311899D02*
X150359000Y-116911900D01*
X144559000Y-114736900D02*
X140784000Y-114736900D01*
X152859000Y-105861900D02*
X147809000Y-105907900D01*
X140784000Y-110111900D02*
X140759001Y-114711900D01*
X152859000Y-105815900D02*
X152859000Y-101907900D01*
X150334000Y-116936900D02*
X145784000Y-116936900D01*
X145484000Y-110086900D02*
X140784000Y-110086900D01*
X145489000Y-110111900D02*
G75*
G03*
X147859000Y-112281900I2270000J100000D01*
G01*
X145779000Y-116161900D02*
G75*
G03*
X144559000Y-114741900I-1320000J100000D01*
G01*
X141970000Y-103791900D02*
G75*
G02*
X144234000Y-101907900I2074000J-190000D01*
G01*
X145574001Y-107791899D02*
G75*
G02*
X147834000Y-105911900I2069999J-190000D01*
G01*
%TO.C,SW20*%
X126679000Y-118111900D02*
X126679000Y-118811900D01*
X133759000Y-107761900D02*
X128709000Y-107807900D01*
X122859000Y-105761900D02*
X122859000Y-109706900D01*
X121684000Y-112011900D02*
X121659001Y-116611900D01*
X131234000Y-114186900D02*
X128684000Y-114186900D01*
X131259000Y-114211899D02*
X131259000Y-118811900D01*
X125459000Y-116636900D02*
X121684000Y-116636900D01*
X133759000Y-107715900D02*
X133759000Y-103807900D01*
X131234000Y-118836900D02*
X126684000Y-118836900D01*
X133759000Y-103807900D02*
X125134000Y-103807900D01*
X126384000Y-111986900D02*
X121684000Y-111986900D01*
X122859000Y-109715900D02*
X126469000Y-109715900D01*
X126389000Y-112011900D02*
G75*
G03*
X128759000Y-114181900I2270000J100000D01*
G01*
X126679000Y-118061900D02*
G75*
G03*
X125459000Y-116641900I-1320000J100000D01*
G01*
X126474001Y-109691899D02*
G75*
G02*
X128734000Y-107811900I2069999J-190000D01*
G01*
X122870000Y-105691900D02*
G75*
G02*
X125134000Y-103807900I2074000J-190000D01*
G01*
%TO.C,SW23*%
X183879000Y-123311900D02*
X183879000Y-124011900D01*
X188434000Y-119386900D02*
X185884000Y-119386900D01*
X180059000Y-114915900D02*
X183669000Y-114915900D01*
X182659000Y-121836900D02*
X178884000Y-121836900D01*
X190959000Y-112961900D02*
X185909000Y-113007900D01*
X190959000Y-109007900D02*
X182334000Y-109007900D01*
X183584000Y-117186900D02*
X178884000Y-117186900D01*
X190959000Y-112915900D02*
X190959000Y-109007900D01*
X180059000Y-110961900D02*
X180059000Y-114906900D01*
X188459000Y-119411899D02*
X188459000Y-124011900D01*
X188434000Y-124036900D02*
X183884000Y-124036900D01*
X178884000Y-117211900D02*
X178859001Y-121811900D01*
X183879000Y-123261900D02*
G75*
G03*
X182659000Y-121841900I-1320000J100000D01*
G01*
X183589000Y-117211900D02*
G75*
G03*
X185959000Y-119381900I2270000J100000D01*
G01*
X183674001Y-114891899D02*
G75*
G02*
X185934000Y-113011900I2069999J-190000D01*
G01*
X180070000Y-110891900D02*
G75*
G02*
X182334000Y-109007900I2074000J-190000D01*
G01*
%TO.C,SW27*%
X132359000Y-124711900D02*
X132359000Y-128656900D01*
X136179000Y-137061900D02*
X136179000Y-137761900D01*
X134959000Y-135586900D02*
X131184000Y-135586900D01*
X143259000Y-126711900D02*
X138209000Y-126757900D01*
X140759000Y-133161899D02*
X140759000Y-137761900D01*
X143259000Y-126665900D02*
X143259000Y-122757900D01*
X140734000Y-133136900D02*
X138184000Y-133136900D01*
X143259000Y-122757900D02*
X134634000Y-122757900D01*
X135884000Y-130936900D02*
X131184000Y-130936900D01*
X132359000Y-128665900D02*
X135969000Y-128665900D01*
X131184000Y-130961900D02*
X131159001Y-135561900D01*
X140734000Y-137786900D02*
X136184000Y-137786900D01*
X132370000Y-124641900D02*
G75*
G02*
X134634000Y-122757900I2074000J-190000D01*
G01*
X136179000Y-137011900D02*
G75*
G03*
X134959000Y-135591900I-1320000J100000D01*
G01*
X135889000Y-130961900D02*
G75*
G03*
X138259000Y-133131900I2270000J100000D01*
G01*
X135974001Y-128641899D02*
G75*
G02*
X138234000Y-126761900I2069999J-190000D01*
G01*
%TO.C,SW17*%
X183584000Y-98186900D02*
X178884000Y-98186900D01*
X180059000Y-91961900D02*
X180059000Y-95906900D01*
X183879000Y-104311900D02*
X183879000Y-105011900D01*
X180059000Y-95915900D02*
X183669000Y-95915900D01*
X178884000Y-98211900D02*
X178859001Y-102811900D01*
X188434000Y-100386900D02*
X185884000Y-100386900D01*
X190959000Y-90007900D02*
X182334000Y-90007900D01*
X190959000Y-93961900D02*
X185909000Y-94007900D01*
X188434000Y-105036900D02*
X183884000Y-105036900D01*
X188459000Y-100411899D02*
X188459000Y-105011900D01*
X190959000Y-93915900D02*
X190959000Y-90007900D01*
X182659000Y-102836900D02*
X178884000Y-102836900D01*
X183674001Y-95891899D02*
G75*
G02*
X185934000Y-94011900I2069999J-190000D01*
G01*
X183879000Y-104261900D02*
G75*
G03*
X182659000Y-102841900I-1320000J100000D01*
G01*
X183589000Y-98211900D02*
G75*
G03*
X185959000Y-100381900I2270000J100000D01*
G01*
X180070000Y-91891900D02*
G75*
G02*
X182334000Y-90007900I2074000J-190000D01*
G01*
%TO.C,SW15*%
X141959000Y-84861900D02*
X141959000Y-88806900D01*
X140784000Y-91111900D02*
X140759001Y-95711900D01*
X145484000Y-91086900D02*
X140784000Y-91086900D01*
X150334000Y-93286900D02*
X147784000Y-93286900D01*
X145779000Y-97211900D02*
X145779000Y-97911900D01*
X150334000Y-97936900D02*
X145784000Y-97936900D01*
X152859000Y-82907900D02*
X144234000Y-82907900D01*
X144559000Y-95736900D02*
X140784000Y-95736900D01*
X141959000Y-88815900D02*
X145569000Y-88815900D01*
X150359000Y-93311899D02*
X150359000Y-97911900D01*
X152859000Y-86861900D02*
X147809000Y-86907900D01*
X152859000Y-86815900D02*
X152859000Y-82907900D01*
X145574001Y-88791899D02*
G75*
G02*
X147834000Y-86911900I2069999J-190000D01*
G01*
X141970000Y-84791900D02*
G75*
G02*
X144234000Y-82907900I2074000J-190000D01*
G01*
X145779000Y-97161900D02*
G75*
G03*
X144559000Y-95741900I-1320000J100000D01*
G01*
X145489000Y-91111900D02*
G75*
G03*
X147859000Y-93281900I2270000J100000D01*
G01*
%TO.C,SW14*%
X126679000Y-99011900D02*
X126679000Y-99711900D01*
X121684000Y-92911900D02*
X121659001Y-97511900D01*
X131234000Y-99736900D02*
X126684000Y-99736900D01*
X133759000Y-88615900D02*
X133759000Y-84707900D01*
X126384000Y-92886900D02*
X121684000Y-92886900D01*
X131259000Y-95111899D02*
X131259000Y-99711900D01*
X125459000Y-97536900D02*
X121684000Y-97536900D01*
X133759000Y-88661900D02*
X128709000Y-88707900D01*
X122859000Y-86661900D02*
X122859000Y-90606900D01*
X122859000Y-90615900D02*
X126469000Y-90615900D01*
X131234000Y-95086900D02*
X128684000Y-95086900D01*
X133759000Y-84707900D02*
X125134000Y-84707900D01*
X122870000Y-86591900D02*
G75*
G02*
X125134000Y-84707900I2074000J-190000D01*
G01*
X126389000Y-92911900D02*
G75*
G03*
X128759000Y-95081900I2270000J100000D01*
G01*
X126679000Y-98961900D02*
G75*
G03*
X125459000Y-97541900I-1320000J100000D01*
G01*
X126474001Y-90591899D02*
G75*
G02*
X128734000Y-88711900I2069999J-190000D01*
G01*
%TO.C,J2*%
X92418100Y-100052000D02*
X80418100Y-100052000D01*
X92418100Y-94052000D02*
X92418100Y-100052000D01*
X80418100Y-94052000D02*
X92418100Y-94052000D01*
X80418100Y-100052000D02*
X80418100Y-94052000D01*
%TO.C,U1*%
X80356300Y-79825300D02*
X80356300Y-46805300D01*
X80356300Y-49345300D02*
X82896300Y-49345300D01*
X95596300Y-79825300D02*
X95596300Y-49345300D01*
X82896300Y-79825300D02*
X80356300Y-79825300D01*
X82896300Y-49345300D02*
X82896300Y-79825300D01*
X80356300Y-79825300D02*
X80356300Y-49345300D01*
X95596300Y-49345300D02*
X98136300Y-49345300D01*
X80356300Y-46805300D02*
X98136300Y-46805300D01*
X98136300Y-49345300D02*
X98136300Y-79825300D01*
X98136300Y-46805300D02*
X98136300Y-79825300D01*
X98136300Y-79825300D02*
X95596300Y-79825300D01*
%TO.C,SW16*%
X159784000Y-92411900D02*
X159759001Y-97011900D01*
X169334000Y-99236900D02*
X164784000Y-99236900D01*
X160959000Y-90115900D02*
X164569000Y-90115900D01*
X169334000Y-94586900D02*
X166784000Y-94586900D01*
X164779000Y-98511900D02*
X164779000Y-99211900D01*
X171859000Y-88161900D02*
X166809000Y-88207900D01*
X160959000Y-86161900D02*
X160959000Y-90106900D01*
X171859000Y-84207900D02*
X163234000Y-84207900D01*
X163559000Y-97036900D02*
X159784000Y-97036900D01*
X164484000Y-92386900D02*
X159784000Y-92386900D01*
X169359000Y-94611899D02*
X169359000Y-99211900D01*
X171859000Y-88115900D02*
X171859000Y-84207900D01*
X160970000Y-86091900D02*
G75*
G02*
X163234000Y-84207900I2074000J-190000D01*
G01*
X164574001Y-90091899D02*
G75*
G02*
X166834000Y-88211900I2069999J-190000D01*
G01*
X164489000Y-92411900D02*
G75*
G03*
X166859000Y-94581900I2270000J100000D01*
G01*
X164779000Y-98461900D02*
G75*
G03*
X163559000Y-97041900I-1320000J100000D01*
G01*
%TO.C,SW28*%
X154059000Y-135086900D02*
X150284000Y-135086900D01*
X162359000Y-126165900D02*
X162359000Y-122257900D01*
X162359000Y-126211900D02*
X157309000Y-126257900D01*
X155279000Y-136561900D02*
X155279000Y-137261900D01*
X159859000Y-132661899D02*
X159859000Y-137261900D01*
X162359000Y-122257900D02*
X153734000Y-122257900D01*
X154984000Y-130436900D02*
X150284000Y-130436900D01*
X159834000Y-137286900D02*
X155284000Y-137286900D01*
X150284000Y-130461900D02*
X150259001Y-135061900D01*
X159834000Y-132636900D02*
X157284000Y-132636900D01*
X151459000Y-124211900D02*
X151459000Y-128156900D01*
X151459000Y-128165900D02*
X155069000Y-128165900D01*
X151470000Y-124141900D02*
G75*
G02*
X153734000Y-122257900I2074000J-190000D01*
G01*
X155279000Y-136511900D02*
G75*
G03*
X154059000Y-135091900I-1320000J100000D01*
G01*
X155074001Y-128141899D02*
G75*
G02*
X157334000Y-126261900I2069999J-190000D01*
G01*
X154989000Y-130461900D02*
G75*
G03*
X157359000Y-132631900I2270000J100000D01*
G01*
%TO.C,SW19*%
X112234000Y-116986900D02*
X109684000Y-116986900D01*
X112259000Y-117011899D02*
X112259000Y-121611900D01*
X102684000Y-114811900D02*
X102659001Y-119411900D01*
X103859000Y-108561900D02*
X103859000Y-112506900D01*
X114759000Y-106607900D02*
X106134000Y-106607900D01*
X107384000Y-114786900D02*
X102684000Y-114786900D01*
X107679000Y-120911900D02*
X107679000Y-121611900D01*
X114759000Y-110561900D02*
X109709000Y-110607900D01*
X114759000Y-110515900D02*
X114759000Y-106607900D01*
X103859000Y-112515900D02*
X107469000Y-112515900D01*
X106459000Y-119436900D02*
X102684000Y-119436900D01*
X112234000Y-121636900D02*
X107684000Y-121636900D01*
X107389000Y-114811900D02*
G75*
G03*
X109759000Y-116981900I2270000J100000D01*
G01*
X107679000Y-120861900D02*
G75*
G03*
X106459000Y-119441900I-1320000J100000D01*
G01*
X103870000Y-108491900D02*
G75*
G02*
X106134000Y-106607900I2074000J-190000D01*
G01*
X107474001Y-112491899D02*
G75*
G02*
X109734000Y-110611900I2069999J-190000D01*
G01*
D16*
%TO.C,SW31*%
X91916000Y-109009600D02*
X96016000Y-109009600D01*
X87916000Y-120809600D02*
X83816000Y-120809600D01*
X89916000Y-114409600D02*
X89916000Y-115409600D01*
X87916000Y-109009600D02*
X83816000Y-109009600D01*
X96016000Y-113609600D02*
X96016000Y-116209600D01*
X96016000Y-120809600D02*
X91916000Y-120809600D01*
X96016000Y-118409600D02*
X96016000Y-120809600D01*
X96016000Y-109009600D02*
X96016000Y-111409600D01*
X89416000Y-114909600D02*
X90416000Y-114909600D01*
X83816000Y-109009600D02*
X83816000Y-120809600D01*
X92916000Y-114909600D02*
G75*
G03*
X92916000Y-114909600I-3000000J0D01*
G01*
D11*
%TO.C,SW22*%
X169334000Y-118336900D02*
X164784000Y-118336900D01*
X160959000Y-105261900D02*
X160959000Y-109206900D01*
X171859000Y-103307900D02*
X163234000Y-103307900D01*
X159784000Y-111511900D02*
X159759001Y-116111900D01*
X164484000Y-111486900D02*
X159784000Y-111486900D01*
X169334000Y-113686900D02*
X166784000Y-113686900D01*
X163559000Y-116136900D02*
X159784000Y-116136900D01*
X164779000Y-117611900D02*
X164779000Y-118311900D01*
X171859000Y-107261900D02*
X166809000Y-107307900D01*
X171859000Y-107215900D02*
X171859000Y-103307900D01*
X169359000Y-113711899D02*
X169359000Y-118311900D01*
X160959000Y-109215900D02*
X164569000Y-109215900D01*
X164489000Y-111511900D02*
G75*
G03*
X166859000Y-113681900I2270000J100000D01*
G01*
X164779000Y-117561900D02*
G75*
G03*
X163559000Y-116141900I-1320000J100000D01*
G01*
X164574001Y-109191899D02*
G75*
G02*
X166834000Y-107311900I2069999J-190000D01*
G01*
X160970000Y-105191900D02*
G75*
G02*
X163234000Y-103307900I2074000J-190000D01*
G01*
%TO.C,SW26*%
X111214951Y-133945227D02*
X114701943Y-133010890D01*
X121225904Y-129192247D02*
X120214439Y-125417409D01*
X120492378Y-136113948D02*
X121682946Y-140557208D01*
X110191580Y-130125956D02*
X111212621Y-133936533D01*
X115207617Y-135226507D02*
X110667766Y-136442957D01*
X121237810Y-129236680D02*
X116371790Y-130588149D01*
X121665268Y-140587827D02*
X117270305Y-141765453D01*
X115517644Y-139957470D02*
X111871274Y-140934512D01*
X120214439Y-125417409D02*
X111883329Y-127649724D01*
X110674236Y-136467105D02*
X111840657Y-140916834D01*
X120461759Y-136096272D02*
X117998648Y-136756260D01*
X117077832Y-141066451D02*
X117259005Y-141742599D01*
X115218917Y-135249361D02*
G75*
G03*
X118069799Y-136732019I2166770J684112D01*
G01*
X110184089Y-130055494D02*
G75*
G02*
X111883329Y-127649724I2052505J353265D01*
G01*
X117064891Y-141018154D02*
G75*
G03*
X115518938Y-139962299I-1300904J-245049D01*
G01*
X114700562Y-132986413D02*
G75*
G02*
X116396973Y-130585542I2048641J352230D01*
G01*
%TO.C,SW18*%
X197884000Y-99711900D02*
X197859001Y-104311900D01*
X202584000Y-99686900D02*
X197884000Y-99686900D01*
X209959000Y-91507900D02*
X201334000Y-91507900D01*
X199059000Y-93461900D02*
X199059000Y-97406900D01*
X209959000Y-95461900D02*
X204909000Y-95507900D01*
X201659000Y-104336900D02*
X197884000Y-104336900D01*
X207434000Y-106536900D02*
X202884000Y-106536900D01*
X207434000Y-101886900D02*
X204884000Y-101886900D01*
X209959000Y-95415900D02*
X209959000Y-91507900D01*
X207459000Y-101911899D02*
X207459000Y-106511900D01*
X199059000Y-97415900D02*
X202669000Y-97415900D01*
X202879000Y-105811900D02*
X202879000Y-106511900D01*
X199070000Y-93391900D02*
G75*
G02*
X201334000Y-91507900I2074000J-190000D01*
G01*
X202589000Y-99711900D02*
G75*
G03*
X204959000Y-101881900I2270000J100000D01*
G01*
X202674001Y-97391899D02*
G75*
G02*
X204934000Y-95511900I2069999J-190000D01*
G01*
X202879000Y-105761900D02*
G75*
G03*
X201659000Y-104341900I-1320000J100000D01*
G01*
D15*
%TO.C,D33*%
X130008900Y-80823000D02*
X132458900Y-80823000D01*
X130008900Y-82273000D02*
X130008900Y-80823000D01*
X132458900Y-82273000D02*
X130038900Y-82273000D01*
X132458900Y-80823000D02*
X132458900Y-82273000D01*
%TO.C,D32*%
X110897800Y-83719100D02*
X113347800Y-83719100D01*
X113347800Y-85169100D02*
X110927800Y-85169100D01*
X113347800Y-83719100D02*
X113347800Y-85169100D01*
X110897800Y-85169100D02*
X110897800Y-83719100D01*
D11*
%TO.C,D29*%
X170113600Y-123710700D02*
X171013600Y-123010700D01*
X171013600Y-124410700D02*
X170113600Y-123710700D01*
X171013600Y-123010700D02*
X171013600Y-124410700D01*
X170113600Y-123010700D02*
X170113600Y-124410700D01*
%TO.C,D8*%
X123014400Y-64503900D02*
X123914400Y-63803900D01*
X123014400Y-63803900D02*
X123014400Y-65203900D01*
X123914400Y-65203900D02*
X123014400Y-64503900D01*
X123914400Y-63803900D02*
X123914400Y-65203900D01*
%TO.C,D30*%
X187154800Y-126607700D02*
X188054800Y-125907700D01*
X188054800Y-127307700D02*
X187154800Y-126607700D01*
X188054800Y-125907700D02*
X188054800Y-127307700D01*
X187154800Y-125907700D02*
X187154800Y-127307700D01*
D15*
%TO.C,D34*%
X151534300Y-78905300D02*
X151534300Y-80355300D01*
X151534300Y-80355300D02*
X149114300Y-80355300D01*
X149084300Y-78905300D02*
X151534300Y-78905300D01*
X149084300Y-80355300D02*
X149084300Y-78905300D01*
D11*
%TO.C,SW12*%
X209959000Y-72307900D02*
X201334000Y-72307900D01*
X207459000Y-82711899D02*
X207459000Y-87311900D01*
X207434000Y-87336900D02*
X202884000Y-87336900D01*
X201659000Y-85136900D02*
X197884000Y-85136900D01*
X199059000Y-78215900D02*
X202669000Y-78215900D01*
X199059000Y-74261900D02*
X199059000Y-78206900D01*
X202879000Y-86611900D02*
X202879000Y-87311900D01*
X207434000Y-82686900D02*
X204884000Y-82686900D01*
X209959000Y-76261900D02*
X204909000Y-76307900D01*
X197884000Y-80511900D02*
X197859001Y-85111900D01*
X202584000Y-80486900D02*
X197884000Y-80486900D01*
X209959000Y-76215900D02*
X209959000Y-72307900D01*
X202674001Y-78191899D02*
G75*
G02*
X204934000Y-76311900I2069999J-190000D01*
G01*
X202879000Y-86561900D02*
G75*
G03*
X201659000Y-85141900I-1320000J100000D01*
G01*
X202589000Y-80511900D02*
G75*
G03*
X204959000Y-82681900I2270000J100000D01*
G01*
X199070000Y-74191900D02*
G75*
G02*
X201334000Y-72307900I2074000J-190000D01*
G01*
%TO.C,R1*%
X90331772Y-90760765D02*
X87331772Y-90760765D01*
X90331772Y-88760765D02*
X90331772Y-90760765D01*
X87331772Y-90760765D02*
X87331772Y-88760765D01*
X87331772Y-88760765D02*
X90331772Y-88760765D01*
%TO.C,SW8*%
X133759000Y-69661900D02*
X128709000Y-69707900D01*
X131259000Y-76111899D02*
X131259000Y-80711900D01*
X125459000Y-78536900D02*
X121684000Y-78536900D01*
X133759000Y-69615900D02*
X133759000Y-65707900D01*
X122859000Y-67661900D02*
X122859000Y-71606900D01*
X131234000Y-80736900D02*
X126684000Y-80736900D01*
X126679000Y-80011900D02*
X126679000Y-80711900D01*
X131234000Y-76086900D02*
X128684000Y-76086900D01*
X126384000Y-73886900D02*
X121684000Y-73886900D01*
X133759000Y-65707900D02*
X125134000Y-65707900D01*
X121684000Y-73911900D02*
X121659001Y-78511900D01*
X122859000Y-71615900D02*
X126469000Y-71615900D01*
X122870000Y-67591900D02*
G75*
G02*
X125134000Y-65707900I2074000J-190000D01*
G01*
X126474001Y-71591899D02*
G75*
G02*
X128734000Y-69711900I2069999J-190000D01*
G01*
X126679000Y-79961900D02*
G75*
G03*
X125459000Y-78541900I-1320000J100000D01*
G01*
X126389000Y-73911900D02*
G75*
G03*
X128759000Y-76081900I2270000J100000D01*
G01*
%TO.C,SW5*%
X178884000Y-60111900D02*
X178859001Y-64711900D01*
X190959000Y-55861900D02*
X185909000Y-55907900D01*
X190959000Y-55815900D02*
X190959000Y-51907900D01*
X180059000Y-53861900D02*
X180059000Y-57806900D01*
X182659000Y-64736900D02*
X178884000Y-64736900D01*
X180059000Y-57815900D02*
X183669000Y-57815900D01*
X190959000Y-51907900D02*
X182334000Y-51907900D01*
X183584000Y-60086900D02*
X178884000Y-60086900D01*
X183879000Y-66211900D02*
X183879000Y-66911900D01*
X188434000Y-66936900D02*
X183884000Y-66936900D01*
X188434000Y-62286900D02*
X185884000Y-62286900D01*
X188459000Y-62311899D02*
X188459000Y-66911900D01*
X183879000Y-66161900D02*
G75*
G03*
X182659000Y-64741900I-1320000J100000D01*
G01*
X183674001Y-57791899D02*
G75*
G02*
X185934000Y-55911900I2069999J-190000D01*
G01*
X180070000Y-53791900D02*
G75*
G02*
X182334000Y-51907900I2074000J-190000D01*
G01*
X183589000Y-60111900D02*
G75*
G03*
X185959000Y-62281900I2270000J100000D01*
G01*
%TO.C,SW10*%
X171859000Y-65107900D02*
X163234000Y-65107900D01*
X171859000Y-69061900D02*
X166809000Y-69107900D01*
X169334000Y-80136900D02*
X164784000Y-80136900D01*
X164484000Y-73286900D02*
X159784000Y-73286900D01*
X169334000Y-75486900D02*
X166784000Y-75486900D01*
X159784000Y-73311900D02*
X159759001Y-77911900D01*
X160959000Y-67061900D02*
X160959000Y-71006900D01*
X163559000Y-77936900D02*
X159784000Y-77936900D01*
X171859000Y-69015900D02*
X171859000Y-65107900D01*
X160959000Y-71015900D02*
X164569000Y-71015900D01*
X164779000Y-79411900D02*
X164779000Y-80111900D01*
X169359000Y-75511899D02*
X169359000Y-80111900D01*
X164574001Y-70991899D02*
G75*
G02*
X166834000Y-69111900I2069999J-190000D01*
G01*
X164489000Y-73311900D02*
G75*
G03*
X166859000Y-75481900I2270000J100000D01*
G01*
X160970000Y-66991900D02*
G75*
G02*
X163234000Y-65107900I2074000J-190000D01*
G01*
X164779000Y-79361900D02*
G75*
G03*
X163559000Y-77941900I-1320000J100000D01*
G01*
%TO.C,SW7*%
X112259000Y-79011899D02*
X112259000Y-83611900D01*
X114759000Y-72561900D02*
X109709000Y-72607900D01*
X106459000Y-81436900D02*
X102684000Y-81436900D01*
X114759000Y-72515900D02*
X114759000Y-68607900D01*
X107384000Y-76786900D02*
X102684000Y-76786900D01*
X103859000Y-70561900D02*
X103859000Y-74506900D01*
X114759000Y-68607900D02*
X106134000Y-68607900D01*
X107679000Y-82911900D02*
X107679000Y-83611900D01*
X112234000Y-83636900D02*
X107684000Y-83636900D01*
X112234000Y-78986900D02*
X109684000Y-78986900D01*
X103859000Y-74515900D02*
X107469000Y-74515900D01*
X102684000Y-76811900D02*
X102659001Y-81411900D01*
X107474001Y-74491899D02*
G75*
G02*
X109734000Y-72611900I2069999J-190000D01*
G01*
X107679000Y-82861900D02*
G75*
G03*
X106459000Y-81441900I-1320000J100000D01*
G01*
X103870000Y-70491900D02*
G75*
G02*
X106134000Y-68607900I2074000J-190000D01*
G01*
X107389000Y-76811900D02*
G75*
G03*
X109759000Y-78981900I2270000J100000D01*
G01*
%TO.C,SW9*%
X145484000Y-71986900D02*
X140784000Y-71986900D01*
X144559000Y-76636900D02*
X140784000Y-76636900D01*
X141959000Y-69715900D02*
X145569000Y-69715900D01*
X150359000Y-74211899D02*
X150359000Y-78811900D01*
X140784000Y-72011900D02*
X140759001Y-76611900D01*
X152859000Y-67761900D02*
X147809000Y-67807900D01*
X152859000Y-67715900D02*
X152859000Y-63807900D01*
X150334000Y-74186900D02*
X147784000Y-74186900D01*
X145779000Y-78111900D02*
X145779000Y-78811900D01*
X150334000Y-78836900D02*
X145784000Y-78836900D01*
X141959000Y-65761900D02*
X141959000Y-69706900D01*
X152859000Y-63807900D02*
X144234000Y-63807900D01*
X141970000Y-65691900D02*
G75*
G02*
X144234000Y-63807900I2074000J-190000D01*
G01*
X145574001Y-69691899D02*
G75*
G02*
X147834000Y-67811900I2069999J-190000D01*
G01*
X145489000Y-72011900D02*
G75*
G03*
X147859000Y-74181900I2270000J100000D01*
G01*
X145779000Y-78061900D02*
G75*
G03*
X144559000Y-76641900I-1320000J100000D01*
G01*
%TO.C,SW6*%
X207459000Y-63811899D02*
X207459000Y-68411900D01*
X207434000Y-68436900D02*
X202884000Y-68436900D01*
X201659000Y-66236900D02*
X197884000Y-66236900D01*
X209959000Y-57315900D02*
X209959000Y-53407900D01*
X202879000Y-67711900D02*
X202879000Y-68411900D01*
X199059000Y-59315900D02*
X202669000Y-59315900D01*
X207434000Y-63786900D02*
X204884000Y-63786900D01*
X202584000Y-61586900D02*
X197884000Y-61586900D01*
X197884000Y-61611900D02*
X197859001Y-66211900D01*
X209959000Y-53407900D02*
X201334000Y-53407900D01*
X209959000Y-57361900D02*
X204909000Y-57407900D01*
X199059000Y-55361900D02*
X199059000Y-59306900D01*
X202879000Y-67661900D02*
G75*
G03*
X201659000Y-66241900I-1320000J100000D01*
G01*
X199070000Y-55291900D02*
G75*
G02*
X201334000Y-53407900I2074000J-190000D01*
G01*
X202674001Y-59291899D02*
G75*
G02*
X204934000Y-57411900I2069999J-190000D01*
G01*
X202589000Y-61611900D02*
G75*
G03*
X204959000Y-63781900I2270000J100000D01*
G01*
%TO.C,SW4*%
X159784000Y-54311900D02*
X159759001Y-58911900D01*
X164779000Y-60411900D02*
X164779000Y-61111900D01*
X171859000Y-46107900D02*
X163234000Y-46107900D01*
X164484000Y-54286900D02*
X159784000Y-54286900D01*
X163559000Y-58936900D02*
X159784000Y-58936900D01*
X160959000Y-52015900D02*
X164569000Y-52015900D01*
X169334000Y-56486900D02*
X166784000Y-56486900D01*
X160959000Y-48061900D02*
X160959000Y-52006900D01*
X169359000Y-56511899D02*
X169359000Y-61111900D01*
X171859000Y-50061900D02*
X166809000Y-50107900D01*
X169334000Y-61136900D02*
X164784000Y-61136900D01*
X171859000Y-50015900D02*
X171859000Y-46107900D01*
X164489000Y-54311900D02*
G75*
G03*
X166859000Y-56481900I2270000J100000D01*
G01*
X164779000Y-60361900D02*
G75*
G03*
X163559000Y-58941900I-1320000J100000D01*
G01*
X164574001Y-51991899D02*
G75*
G02*
X166834000Y-50111900I2069999J-190000D01*
G01*
X160970000Y-47991900D02*
G75*
G02*
X163234000Y-46107900I2074000J-190000D01*
G01*
%TO.C,P2*%
X94492500Y-86548800D02*
X94492500Y-88548800D01*
X92492500Y-86548800D02*
X94492500Y-86548800D01*
X94492500Y-88548800D02*
X92492500Y-88548800D01*
X92492500Y-88548800D02*
X92492500Y-86548800D01*
%TO.C,SW11*%
X183879000Y-85111900D02*
X183879000Y-85811900D01*
X180059000Y-76715900D02*
X183669000Y-76715900D01*
X190959000Y-74715900D02*
X190959000Y-70807900D01*
X183584000Y-78986900D02*
X178884000Y-78986900D01*
X190959000Y-70807900D02*
X182334000Y-70807900D01*
X178884000Y-79011900D02*
X178859001Y-83611900D01*
X188459000Y-81211899D02*
X188459000Y-85811900D01*
X182659000Y-83636900D02*
X178884000Y-83636900D01*
X188434000Y-85836900D02*
X183884000Y-85836900D01*
X180059000Y-72761900D02*
X180059000Y-76706900D01*
X188434000Y-81186900D02*
X185884000Y-81186900D01*
X190959000Y-74761900D02*
X185909000Y-74807900D01*
X180070000Y-72691900D02*
G75*
G02*
X182334000Y-70807900I2074000J-190000D01*
G01*
X183879000Y-85061900D02*
G75*
G03*
X182659000Y-83641900I-1320000J100000D01*
G01*
X183589000Y-79011900D02*
G75*
G03*
X185959000Y-81181900I2270000J100000D01*
G01*
X183674001Y-76691899D02*
G75*
G02*
X185934000Y-74811900I2069999J-190000D01*
G01*
%TO.C,SW2*%
X131234000Y-61636900D02*
X126684000Y-61636900D01*
X126679000Y-60911900D02*
X126679000Y-61611900D01*
X133759000Y-50515900D02*
X133759000Y-46607900D01*
X126384000Y-54786900D02*
X121684000Y-54786900D01*
X133759000Y-50561900D02*
X128709000Y-50607900D01*
X131259000Y-57011899D02*
X131259000Y-61611900D01*
X131234000Y-56986900D02*
X128684000Y-56986900D01*
X122859000Y-48561900D02*
X122859000Y-52506900D01*
X122859000Y-52515900D02*
X126469000Y-52515900D01*
X133759000Y-46607900D02*
X125134000Y-46607900D01*
X121684000Y-54811900D02*
X121659001Y-59411900D01*
X125459000Y-59436900D02*
X121684000Y-59436900D01*
X122870000Y-48491900D02*
G75*
G02*
X125134000Y-46607900I2074000J-190000D01*
G01*
X126474001Y-52491899D02*
G75*
G02*
X128734000Y-50611900I2069999J-190000D01*
G01*
X126389000Y-54811900D02*
G75*
G03*
X128759000Y-56981900I2270000J100000D01*
G01*
X126679000Y-60861900D02*
G75*
G03*
X125459000Y-59441900I-1320000J100000D01*
G01*
%TO.C,SW13*%
X114759000Y-91515900D02*
X114759000Y-87607900D01*
X112259000Y-98011899D02*
X112259000Y-102611900D01*
X112234000Y-102636900D02*
X107684000Y-102636900D01*
X112234000Y-97986900D02*
X109684000Y-97986900D01*
X114759000Y-91561900D02*
X109709000Y-91607900D01*
X103859000Y-93515900D02*
X107469000Y-93515900D01*
X107679000Y-101911900D02*
X107679000Y-102611900D01*
X107384000Y-95786900D02*
X102684000Y-95786900D01*
X114759000Y-87607900D02*
X106134000Y-87607900D01*
X106459000Y-100436900D02*
X102684000Y-100436900D01*
X103859000Y-89561900D02*
X103859000Y-93506900D01*
X102684000Y-95811900D02*
X102659001Y-100411900D01*
X103870000Y-89491900D02*
G75*
G02*
X106134000Y-87607900I2074000J-190000D01*
G01*
X107389000Y-95811900D02*
G75*
G03*
X109759000Y-97981900I2270000J100000D01*
G01*
X107474001Y-93491899D02*
G75*
G02*
X109734000Y-91611900I2069999J-190000D01*
G01*
X107679000Y-101861900D02*
G75*
G03*
X106459000Y-100441900I-1320000J100000D01*
G01*
%TO.C,P1*%
X94492500Y-90748800D02*
X92492500Y-90748800D01*
X94492500Y-88748800D02*
X94492500Y-90748800D01*
X92492500Y-88748800D02*
X94492500Y-88748800D01*
X92492500Y-90748800D02*
X92492500Y-88748800D01*
%TO.C,JP7*%
X87757300Y-79828300D02*
X89535300Y-79828300D01*
X89535300Y-79828300D02*
X89535300Y-77542300D01*
X87757300Y-77542300D02*
X87757300Y-79828300D01*
X89535300Y-77542300D02*
X87757300Y-77542300D01*
%TO.C,JP5*%
X94635300Y-77542300D02*
X92857300Y-77542300D01*
X92857300Y-79828300D02*
X94635300Y-79828300D01*
X94635300Y-79828300D02*
X94635300Y-77542300D01*
X92857300Y-77542300D02*
X92857300Y-79828300D01*
%TO.C,JP6*%
X90257300Y-79828300D02*
X92035300Y-79828300D01*
X92035300Y-77542300D02*
X90257300Y-77542300D01*
X92035300Y-79828300D02*
X92035300Y-77542300D01*
X90257300Y-77542300D02*
X90257300Y-79828300D01*
%TO.C,JP8*%
X87035300Y-79828300D02*
X87035300Y-77542300D01*
X87035300Y-77542300D02*
X85257300Y-77542300D01*
X85257300Y-79828300D02*
X87035300Y-79828300D01*
X85257300Y-77542300D02*
X85257300Y-79828300D01*
%TD*%
D17*
%TO.C,U1*%
X98165115Y-51811045D03*
X98165115Y-54351045D03*
X98165115Y-56891045D03*
X98165115Y-59431045D03*
X98165115Y-61971045D03*
X98165115Y-64511045D03*
X98165115Y-67051045D03*
X98165115Y-69591045D03*
X98165115Y-72131045D03*
X98165115Y-74671045D03*
X98165115Y-77211045D03*
X98165115Y-79751045D03*
X82925115Y-79751045D03*
X82925115Y-77211045D03*
X82925115Y-74671045D03*
X82925115Y-72131045D03*
X82925115Y-69591045D03*
X82925115Y-67051045D03*
X82925115Y-64511045D03*
X82925115Y-61971045D03*
X82925115Y-59431045D03*
X82925115Y-56891045D03*
X82925115Y-54351045D03*
X82925115Y-51811045D03*
%TD*%
M02*
